ISO-10303-21;
HEADER;
FILE_DESCRIPTION(('Open CASCADE Model'),'2;1');
FILE_NAME('Open CASCADE Shape Model','2026-09-11T12:02:24',('Author'),(
    'Open CASCADE'),'Open CASCADE STEP processor 7.9','Open CASCADE 7.9'
  ,'Unknown');
FILE_SCHEMA(('AUTOMOTIVE_DESIGN { 1 0 10303 214 1 1 1 1 }'));
ENDSEC;
DATA;
#1 = APPLICATION_PROTOCOL_DEFINITION('international standard',
  'automotive_design',2000,#2);
#2 = APPLICATION_CONTEXT(
  'core data for automotive mechanical design processes');
#3 = SHAPE_DEFINITION_REPRESENTATION(#4,#10);
#4 = PRODUCT_DEFINITION_SHAPE('','',#5);
#5 = PRODUCT_DEFINITION('design','',#6,#9);
#6 = PRODUCT_DEFINITION_FORMATION('','',#7);
#7 = PRODUCT('Open CASCADE STEP translator 7.9 18',
  'Open CASCADE STEP translator 7.9 18','',(#8));
#8 = PRODUCT_CONTEXT('',#2,'mechanical');
#9 = PRODUCT_DEFINITION_CONTEXT('part definition',#2,'design');
#10 = ADVANCED_BREP_SHAPE_REPRESENTATION('',(#11,#15),#1529);
#11 = AXIS2_PLACEMENT_3D('',#12,#13,#14);
#12 = CARTESIAN_POINT('',(0.,0.,0.));
#13 = DIRECTION('',(0.,0.,1.));
#14 = DIRECTION('',(1.,0.,-0.));
#15 = MANIFOLD_SOLID_BREP('',#16);
#16 = CLOSED_SHELL('',(#17,#241,#358,#479,#561,#668,#745,#796,#845,#875,
    #905,#1277,#1305,#1331,#1338,#1345,#1417,#1444,#1494,#1521));
#17 = ADVANCED_FACE('',(#18),#32,.F.);
#18 = FACE_BOUND('',#19,.F.);
#19 = EDGE_LOOP('',(#20,#55,#84,#112));
#20 = ORIENTED_EDGE('',*,*,#21,.T.);
#21 = EDGE_CURVE('',#22,#24,#26,.T.);
#22 = VERTEX_POINT('',#23);
#23 = CARTESIAN_POINT('',(9.539391964169,-234.,3.));
#24 = VERTEX_POINT('',#25);
#25 = CARTESIAN_POINT('',(6.49999995,-234.,3.));
#26 = SURFACE_CURVE('',#27,(#31,#43),.PCURVE_S1.);
#27 = LINE('',#28,#29);
#28 = CARTESIAN_POINT('',(9.99999995,-234.,3.));
#29 = VECTOR('',#30,1.);
#30 = DIRECTION('',(-1.,1.232595164408E-32,1.110223024625E-16));
#31 = PCURVE('',#32,#37);
#32 = CYLINDRICAL_SURFACE('',#33,3.);
#33 = AXIS2_PLACEMENT_3D('',#34,#35,#36);
#34 = CARTESIAN_POINT('',(9.99999995,-234.,8.384959394036E-14));
#35 = DIRECTION('',(-1.,1.232595164408E-32,1.110223024625E-16));
#36 = DIRECTION('',(0.,-1.,1.110223024625E-16));
#37 = DEFINITIONAL_REPRESENTATION('',(#38),#42);
#38 = LINE('',#39,#40);
#39 = CARTESIAN_POINT('',(1.570796326795,0.));
#40 = VECTOR('',#41,1.);
#41 = DIRECTION('',(0.,1.));
#42 = ( GEOMETRIC_REPRESENTATION_CONTEXT(2) 
PARAMETRIC_REPRESENTATION_CONTEXT() REPRESENTATION_CONTEXT('2D SPACE',''
  ) );
#43 = PCURVE('',#44,#49);
#44 = PLANE('',#45);
#45 = AXIS2_PLACEMENT_3D('',#46,#47,#48);
#46 = CARTESIAN_POINT('',(9.99999995,254.,3.));
#47 = DIRECTION('',(1.110223024625E-16,2.363276355121E-16,1.));
#48 = DIRECTION('',(-1.3911686586E-32,1.,-2.363276355121E-16));
#49 = DEFINITIONAL_REPRESENTATION('',(#50),#54);
#50 = LINE('',#51,#52);
#51 = CARTESIAN_POINT('',(-488.,6.803925307531E-30));
#52 = VECTOR('',#53,1.);
#53 = DIRECTION('',(0.,1.));
#54 = ( GEOMETRIC_REPRESENTATION_CONTEXT(2) 
PARAMETRIC_REPRESENTATION_CONTEXT() REPRESENTATION_CONTEXT('2D SPACE',''
  ) );
#55 = ORIENTED_EDGE('',*,*,#56,.F.);
#56 = EDGE_CURVE('',#57,#24,#59,.T.);
#57 = VERTEX_POINT('',#58);
#58 = CARTESIAN_POINT('',(6.49999995,-237.,8.457123890637E-14));
#59 = SURFACE_CURVE('',#60,(#65,#72),.PCURVE_S1.);
#60 = CIRCLE('',#61,3.);
#61 = AXIS2_PLACEMENT_3D('',#62,#63,#64);
#62 = CARTESIAN_POINT('',(6.49999995,-234.,8.423817199898E-14));
#63 = DIRECTION('',(-1.,1.232595164408E-32,1.110223024625E-16));
#64 = DIRECTION('',(0.,-1.,1.110223024625E-16));
#65 = PCURVE('',#32,#66);
#66 = DEFINITIONAL_REPRESENTATION('',(#67),#71);
#67 = LINE('',#68,#69);
#68 = CARTESIAN_POINT('',(0.,3.5));
#69 = VECTOR('',#70,1.);
#70 = DIRECTION('',(1.,0.));
#71 = ( GEOMETRIC_REPRESENTATION_CONTEXT(2) 
PARAMETRIC_REPRESENTATION_CONTEXT() REPRESENTATION_CONTEXT('2D SPACE',''
  ) );
#72 = PCURVE('',#73,#78);
#73 = PLANE('',#74);
#74 = AXIS2_PLACEMENT_3D('',#75,#76,#77);
#75 = CARTESIAN_POINT('',(6.49999995,254.,-2.892130978593E-14));
#76 = DIRECTION('',(-1.,1.232595164408E-32,1.110223024625E-16));
#77 = DIRECTION('',(0.,-1.,1.110223024625E-16));
#78 = DEFINITIONAL_REPRESENTATION('',(#79),#83);
#79 = CIRCLE('',#80,3.);
#80 = AXIS2_PLACEMENT_2D('',#81,#82);
#81 = CARTESIAN_POINT('',(488.,5.898059818321E-14));
#82 = DIRECTION('',(1.,0.));
#83 = ( GEOMETRIC_REPRESENTATION_CONTEXT(2) 
PARAMETRIC_REPRESENTATION_CONTEXT() REPRESENTATION_CONTEXT('2D SPACE',''
  ) );
#84 = ORIENTED_EDGE('',*,*,#85,.F.);
#85 = EDGE_CURVE('',#86,#57,#88,.T.);
#86 = VERTEX_POINT('',#87);
#87 = CARTESIAN_POINT('',(9.99999995,-237.,8.418266084561E-14));
#88 = SURFACE_CURVE('',#89,(#93,#100),.PCURVE_S1.);
#89 = LINE('',#90,#91);
#90 = CARTESIAN_POINT('',(9.99999995,-237.,8.418266084775E-14));
#91 = VECTOR('',#92,1.);
#92 = DIRECTION('',(-1.,1.232595164408E-32,1.110223024625E-16));
#93 = PCURVE('',#32,#94);
#94 = DEFINITIONAL_REPRESENTATION('',(#95),#99);
#95 = LINE('',#96,#97);
#96 = CARTESIAN_POINT('',(0.,0.));
#97 = VECTOR('',#98,1.);
#98 = DIRECTION('',(0.,1.));
#99 = ( GEOMETRIC_REPRESENTATION_CONTEXT(2) 
PARAMETRIC_REPRESENTATION_CONTEXT() REPRESENTATION_CONTEXT('2D SPACE',''
  ) );
#100 = PCURVE('',#101,#106);
#101 = CYLINDRICAL_SURFACE('',#102,3.);
#102 = AXIS2_PLACEMENT_3D('',#103,#104,#105);
#103 = CARTESIAN_POINT('',(9.99999995,-234.,8.384959394036E-14));
#104 = DIRECTION('',(-1.,1.232595164408E-32,1.110223024625E-16));
#105 = DIRECTION('',(0.,-1.,1.110223024625E-16));
#106 = DEFINITIONAL_REPRESENTATION('',(#107),#111);
#107 = LINE('',#108,#109);
#108 = CARTESIAN_POINT('',(6.28318530718,0.));
#109 = VECTOR('',#110,1.);
#110 = DIRECTION('',(0.,1.));
#111 = ( GEOMETRIC_REPRESENTATION_CONTEXT(2) 
PARAMETRIC_REPRESENTATION_CONTEXT() REPRESENTATION_CONTEXT('2D SPACE',''
  ) );
#112 = ORIENTED_EDGE('',*,*,#113,.T.);
#113 = EDGE_CURVE('',#86,#22,#114,.T.);
#114 = SURFACE_CURVE('',#115,(#134,#185),.PCURVE_S1.);
#115 = B_SPLINE_CURVE_WITH_KNOTS('',3,(#116,#117,#118,#119,#120,#121,
    #122,#123,#124,#125,#126,#127,#128,#129,#130,#131,#132,#133),
  .UNSPECIFIED.,.F.,.F.,(4,2,2,2,2,2,2,2,4),(4.718227149633E-03,
    5.307267187502E-03,5.896307225371E-03,6.48534726324E-03,
    7.074387301109E-03,7.663427338977E-03,8.252467376846E-03,
    8.841507414715E-03,9.430547452584E-03),.UNSPECIFIED.);
#116 = CARTESIAN_POINT('',(9.99999995,-237.,8.418266084561E-14));
#117 = CARTESIAN_POINT('',(9.99999995,-237.,0.196802609607));
#118 = CARTESIAN_POINT('',(9.993992193806,-236.9801412782,0.396704354104
    ));
#119 = CARTESIAN_POINT('',(9.971239998067,-236.9029276885,0.782065993155
    ));
#120 = CARTESIAN_POINT('',(9.954581398819,-236.8458714761,0.969512312911
    ));
#121 = CARTESIAN_POINT('',(9.912329786936,-236.6943599302,1.333927715381
    ));
#122 = CARTESIAN_POINT('',(9.887091437099,-236.6010685685,1.507425521165
    ));
#123 = CARTESIAN_POINT('',(9.832328767282,-236.3844642155,1.830906825858
    ));
#124 = CARTESIAN_POINT('',(9.802358402334,-236.2593077735,1.983380768196
    ));
#125 = CARTESIAN_POINT('',(9.742302271122,-235.9825980186,2.259994686618
    ));
#126 = CARTESIAN_POINT('',(9.712503961403,-235.8325247795,2.383237323076
    ));
#127 = CARTESIAN_POINT('',(9.656665846554,-235.5088436412,2.600261154569
    ));
#128 = CARTESIAN_POINT('',(9.630467647702,-235.3334293016,2.694477494711
    ));
#129 = CARTESIAN_POINT('',(9.587144247273,-234.9723483957,2.844781409746
    ));
#130 = CARTESIAN_POINT('',(9.56972831062,-234.7854830391,2.902061212006)
  );
#131 = CARTESIAN_POINT('',(9.545761926254,-234.3985654476,2.9799477289)
  );
#132 = CARTESIAN_POINT('',(9.539391964169,-234.1992829998,3.));
#133 = CARTESIAN_POINT('',(9.539391964169,-234.,3.));
#134 = PCURVE('',#32,#135);
#135 = DEFINITIONAL_REPRESENTATION('',(#136),#184);
#136 = B_SPLINE_CURVE_WITH_KNOTS('',3,(#137,#138,#139,#140,#141,#142,
    #143,#144,#145,#146,#147,#148,#149,#150,#151,#152,#153,#154,#155,
    #156,#157,#158,#159,#160,#161,#162,#163,#164,#165,#166,#167,#168,
    #169,#170,#171,#172,#173,#174,#175,#176,#177,#178,#179,#180,#181,
    #182,#183),.UNSPECIFIED.,.F.,.F.,(4,1,1,1,1,1,1,1,1,1,1,1,1,1,1,1,1,
    1,1,1,1,1,1,1,1,1,1,1,1,1,1,1,1,1,1,1,1,1,1,1,1,1,1,1,4),(
    4.718227149633E-03,4.825325338337E-03,4.93242352704E-03,
    5.039521715743E-03,5.146619904447E-03,5.25371809315E-03,
    5.360816281854E-03,5.467914470557E-03,5.575012659261E-03,
    5.682110847964E-03,5.789209036667E-03,5.896307225371E-03,
    6.003405414074E-03,6.110503602778E-03,6.217601791481E-03,
    6.324699980185E-03,6.431798168888E-03,6.538896357591E-03,
    6.645994546295E-03,6.753092734998E-03,6.860190923702E-03,
    6.967289112405E-03,7.074387301109E-03,7.181485489812E-03,
    7.288583678515E-03,7.395681867219E-03,7.502780055922E-03,
    7.609878244626E-03,7.716976433329E-03,7.824074622033E-03,
    7.931172810736E-03,8.038270999439E-03,8.145369188143E-03,
    8.252467376846E-03,8.35956556555E-03,8.466663754253E-03,
    8.573761942957E-03,8.68086013166E-03,8.787958320363E-03,
    8.895056509067E-03,9.00215469777E-03,9.109252886474E-03,
    9.216351075177E-03,9.323449263881E-03,9.430547452584E-03),
  .UNSPECIFIED.);
#137 = CARTESIAN_POINT('',(0.,0.));
#138 = CARTESIAN_POINT('',(1.19272624532E-02,2.004543935236E-16));
#139 = CARTESIAN_POINT('',(3.585077917754E-02,3.972051356167E-04));
#140 = CARTESIAN_POINT('',(7.186429186645E-02,2.161585938862E-03));
#141 = CARTESIAN_POINT('',(0.10792850609,5.071429657385E-03));
#142 = CARTESIAN_POINT('',(0.143961679538,9.103863677943E-03));
#143 = CARTESIAN_POINT('',(0.179891550297,1.423513297955E-02));
#144 = CARTESIAN_POINT('',(0.215613601336,2.044477460096E-02));
#145 = CARTESIAN_POINT('',(0.251260480564,2.768647727041E-02));
#146 = CARTESIAN_POINT('',(0.286874829111,3.593194723379E-02));
#147 = CARTESIAN_POINT('',(0.322506719798,4.515228162334E-02));
#148 = CARTESIAN_POINT('',(0.358191775378,5.531497329105E-02));
#149 = CARTESIAN_POINT('',(0.394017770607,6.640254132368E-02));
#150 = CARTESIAN_POINT('',(0.429877960532,7.834100414901E-02));
#151 = CARTESIAN_POINT('',(0.465619723111,9.101469121942E-02));
#152 = CARTESIAN_POINT('',(0.501283902655,0.104364683127));
#153 = CARTESIAN_POINT('',(0.536856554682,0.118316157547));
#154 = CARTESIAN_POINT('',(0.572344267782,0.132801152684));
#155 = CARTESIAN_POINT('',(0.607722612788,0.147740167537));
#156 = CARTESIAN_POINT('',(0.64321884842,0.1631568188));
#157 = CARTESIAN_POINT('',(0.678777661422,0.178947315393));
#158 = CARTESIAN_POINT('',(0.714378310645,0.195024365475));
#159 = CARTESIAN_POINT('',(0.749984806269,0.211293201821));
#160 = CARTESIAN_POINT('',(0.785588158818,0.227672459504));
#161 = CARTESIAN_POINT('',(0.821090747282,0.244034639794));
#162 = CARTESIAN_POINT('',(0.856469428746,0.260284129989));
#163 = CARTESIAN_POINT('',(0.891790814462,0.276371113637));
#164 = CARTESIAN_POINT('',(0.927097517323,0.292233553419));
#165 = CARTESIAN_POINT('',(0.962438887565,0.307812499242));
#166 = CARTESIAN_POINT('',(0.997859604597,0.323048872964));
#167 = CARTESIAN_POINT('',(1.033484452343,0.337899327278));
#168 = CARTESIAN_POINT('',(1.069217839309,0.352254625642));
#169 = CARTESIAN_POINT('',(1.104992865485,0.366014636644));
#170 = CARTESIAN_POINT('',(1.140740042908,0.379079878046));
#171 = CARTESIAN_POINT('',(1.176370873812,0.391339165774));
#172 = CARTESIAN_POINT('',(1.211881716351,0.402727473935));
#173 = CARTESIAN_POINT('',(1.247383472754,0.413238579641));
#174 = CARTESIAN_POINT('',(1.282904470067,0.422819827864));
#175 = CARTESIAN_POINT('',(1.318497329868,0.431431224263));
#176 = CARTESIAN_POINT('',(1.354204387825,0.439028563891));
#177 = CARTESIAN_POINT('',(1.390086997573,0.445571823533));
#178 = CARTESIAN_POINT('',(1.426089001637,0.450983554064));
#179 = CARTESIAN_POINT('',(1.462185389351,0.455242191594));
#180 = CARTESIAN_POINT('',(1.49835155358,0.458318911536));
#181 = CARTESIAN_POINT('',(1.534562960277,0.460186835471));
#182 = CARTESIAN_POINT('',(1.558718683173,0.460607985831));
#183 = CARTESIAN_POINT('',(1.570796326795,0.460607985831));
#184 = ( GEOMETRIC_REPRESENTATION_CONTEXT(2) 
PARAMETRIC_REPRESENTATION_CONTEXT() REPRESENTATION_CONTEXT('2D SPACE',''
  ) );
#185 = PCURVE('',#186,#191);
#186 = CYLINDRICAL_SURFACE('',#187,10.);
#187 = AXIS2_PLACEMENT_3D('',#188,#189,#190);
#188 = CARTESIAN_POINT('',(-4.999999969613E-08,-240.,2.664535259655E-14)
  );
#189 = DIRECTION('',(0.,1.,-1.110223024625E-16));
#190 = DIRECTION('',(-1.110223024625E-16,-1.110223024625E-16,-1.));
#191 = DEFINITIONAL_REPRESENTATION('',(#192),#240);
#192 = B_SPLINE_CURVE_WITH_KNOTS('',3,(#193,#194,#195,#196,#197,#198,
    #199,#200,#201,#202,#203,#204,#205,#206,#207,#208,#209,#210,#211,
    #212,#213,#214,#215,#216,#217,#218,#219,#220,#221,#222,#223,#224,
    #225,#226,#227,#228,#229,#230,#231,#232,#233,#234,#235,#236,#237,
    #238,#239),.UNSPECIFIED.,.F.,.F.,(4,1,1,1,1,1,1,1,1,1,1,1,1,1,1,1,1,
    1,1,1,1,1,1,1,1,1,1,1,1,1,1,1,1,1,1,1,1,1,1,1,1,1,1,1,4),(
    4.718227149633E-03,4.825325338337E-03,4.93242352704E-03,
    5.039521715743E-03,5.146619904447E-03,5.25371809315E-03,
    5.360816281854E-03,5.467914470557E-03,5.575012659261E-03,
    5.682110847964E-03,5.789209036667E-03,5.896307225371E-03,
    6.003405414074E-03,6.110503602778E-03,6.217601791481E-03,
    6.324699980185E-03,6.431798168888E-03,6.538896357591E-03,
    6.645994546295E-03,6.753092734998E-03,6.860190923702E-03,
    6.967289112405E-03,7.074387301109E-03,7.181485489812E-03,
    7.288583678515E-03,7.395681867219E-03,7.502780055922E-03,
    7.609878244626E-03,7.716976433329E-03,7.824074622033E-03,
    7.931172810736E-03,8.038270999439E-03,8.145369188143E-03,
    8.252467376846E-03,8.35956556555E-03,8.466663754253E-03,
    8.573761942957E-03,8.68086013166E-03,8.787958320363E-03,
    8.895056509067E-03,9.00215469777E-03,9.109252886474E-03,
    9.216351075177E-03,9.323449263881E-03,9.430547452584E-03),
  .UNSPECIFIED.);
#193 = CARTESIAN_POINT('',(4.712388980385,3.));
#194 = CARTESIAN_POINT('',(4.70881075875,3.));
#195 = CARTESIAN_POINT('',(4.701633789234,3.001312971969));
#196 = CARTESIAN_POINT('',(4.690842830669,3.00718130472));
#197 = CARTESIAN_POINT('',(4.680062199597,3.016908421806));
#198 = CARTESIAN_POINT('',(4.669328577109,3.030454405509));
#199 = CARTESIAN_POINT('',(4.658675835033,3.047778696482));
#200 = CARTESIAN_POINT('',(4.648148321355,3.068843129149));
#201 = CARTESIAN_POINT('',(4.637717085439,3.093562310696));
#202 = CARTESIAN_POINT('',(4.627382272383,3.121956311928));
#203 = CARTESIAN_POINT('',(4.617141958458,3.154033805632));
#204 = CARTESIAN_POINT('',(4.606998556649,3.189794155435));
#205 = CARTESIAN_POINT('',(4.596939562247,3.229285359617));
#206 = CARTESIAN_POINT('',(4.587008167162,3.272370187003));
#207 = CARTESIAN_POINT('',(4.577259040631,3.318811006187));
#208 = CARTESIAN_POINT('',(4.56769122694,3.368556727607));
#209 = CARTESIAN_POINT('',(4.558319253002,3.421503033705));
#210 = CARTESIAN_POINT('',(4.549152009821,3.477571977062));
#211 = CARTESIAN_POINT('',(4.540206055848,3.5366333577));
#212 = CARTESIAN_POINT('',(4.531436694123,3.599008749398));
#213 = CARTESIAN_POINT('',(4.52286884312,3.664518775621));
#214 = CARTESIAN_POINT('',(4.514518961226,3.733047656108));
#215 = CARTESIAN_POINT('',(4.506406896059,3.804446844819));
#216 = CARTESIAN_POINT('',(4.498547976924,3.878635262547));
#217 = CARTESIAN_POINT('',(4.490972718884,3.955294728539));
#218 = CARTESIAN_POINT('',(4.483692583975,4.03424090291));
#219 = CARTESIAN_POINT('',(4.476704196541,4.115525610075));
#220 = CARTESIAN_POINT('',(4.470008192341,4.199136487955));
#221 = CARTESIAN_POINT('',(4.46360450397,4.285081756158));
#222 = CARTESIAN_POINT('',(4.45749237121,4.373351494036));
#223 = CARTESIAN_POINT('',(4.451670510836,4.464218185113));
#224 = CARTESIAN_POINT('',(4.44616082459,4.557305527503));
#225 = CARTESIAN_POINT('',(4.44098189957,4.652325380989));
#226 = CARTESIAN_POINT('',(4.436151980912,4.748978715555));
#227 = CARTESIAN_POINT('',(4.431694332359,4.846921898714));
#228 = CARTESIAN_POINT('',(4.427612791421,4.946000597669));
#229 = CARTESIAN_POINT('',(4.423894669034,5.046375546112));
#230 = CARTESIAN_POINT('',(4.420546889465,5.148015244186));
#231 = CARTESIAN_POINT('',(4.4175710223,5.250943063003));
#232 = CARTESIAN_POINT('',(4.414970587624,5.355155123346));
#233 = CARTESIAN_POINT('',(4.412746803691,5.460701676347));
#234 = CARTESIAN_POINT('',(4.410917199126,5.56730172786));
#235 = CARTESIAN_POINT('',(4.40948542424,5.674740975947));
#236 = CARTESIAN_POINT('',(4.408456592589,5.782810574563));
#237 = CARTESIAN_POINT('',(4.407835430536,5.891300215259));
#238 = CARTESIAN_POINT('',(4.407696326531,5.963766727293));
#239 = CARTESIAN_POINT('',(4.407696326369,6.));
#240 = ( GEOMETRIC_REPRESENTATION_CONTEXT(2) 
PARAMETRIC_REPRESENTATION_CONTEXT() REPRESENTATION_CONTEXT('2D SPACE',''
  ) );
#241 = ADVANCED_FACE('',(#242),#257,.T.);
#242 = FACE_BOUND('',#243,.T.);
#243 = EDGE_LOOP('',(#244,#280,#308,#337));
#244 = ORIENTED_EDGE('',*,*,#245,.F.);
#245 = EDGE_CURVE('',#246,#248,#250,.T.);
#246 = VERTEX_POINT('',#247);
#247 = CARTESIAN_POINT('',(-4.999999983173E-08,-275.,6.5));
#248 = VERTEX_POINT('',#249);
#249 = CARTESIAN_POINT('',(-5.000000041777E-08,-275.,-6.5));
#250 = SURFACE_CURVE('',#251,(#256,#268),.PCURVE_S1.);
#251 = CIRCLE('',#252,6.5);
#252 = AXIS2_PLACEMENT_3D('',#253,#254,#255);
#253 = CARTESIAN_POINT('',(-4.999999969613E-08,-275.,3.053113318274E-14)
  );
#254 = DIRECTION('',(0.,-1.,1.110223024625E-16));
#255 = DIRECTION('',(1.110223024625E-16,1.110223024625E-16,1.));
#256 = PCURVE('',#257,#262);
#257 = CONICAL_SURFACE('',#258,6.5,0.785398163397);
#258 = AXIS2_PLACEMENT_3D('',#259,#260,#261);
#259 = CARTESIAN_POINT('',(-4.999999969613E-08,-275.,3.053113318274E-14)
  );
#260 = DIRECTION('',(0.,1.,-1.110223024625E-16));
#261 = DIRECTION('',(-1.110223024625E-16,-1.110223024625E-16,-1.));
#262 = DEFINITIONAL_REPRESENTATION('',(#263),#267);
#263 = LINE('',#264,#265);
#264 = CARTESIAN_POINT('',(3.14159265359,0.));
#265 = VECTOR('',#266,1.);
#266 = DIRECTION('',(-1.,0.));
#267 = ( GEOMETRIC_REPRESENTATION_CONTEXT(2) 
PARAMETRIC_REPRESENTATION_CONTEXT() REPRESENTATION_CONTEXT('2D SPACE',''
  ) );
#268 = PCURVE('',#269,#274);
#269 = PLANE('',#270);
#270 = AXIS2_PLACEMENT_3D('',#271,#272,#273);
#271 = CARTESIAN_POINT('',(-4.999999969613E-08,-275.,3.053113318274E-14)
  );
#272 = DIRECTION('',(0.,-1.,1.110223024625E-16));
#273 = DIRECTION('',(1.110223024625E-16,1.110223024625E-16,1.));
#274 = DEFINITIONAL_REPRESENTATION('',(#275),#279);
#275 = CIRCLE('',#276,6.5);
#276 = AXIS2_PLACEMENT_2D('',#277,#278);
#277 = CARTESIAN_POINT('',(0.,0.));
#278 = DIRECTION('',(1.,0.));
#279 = ( GEOMETRIC_REPRESENTATION_CONTEXT(2) 
PARAMETRIC_REPRESENTATION_CONTEXT() REPRESENTATION_CONTEXT('2D SPACE',''
  ) );
#280 = ORIENTED_EDGE('',*,*,#281,.T.);
#281 = EDGE_CURVE('',#246,#282,#284,.T.);
#282 = VERTEX_POINT('',#283);
#283 = CARTESIAN_POINT('',(-4.999999978194E-08,-274.,7.5));
#284 = SURFACE_CURVE('',#285,(#289,#296),.PCURVE_S1.);
#285 = LINE('',#286,#287);
#286 = CARTESIAN_POINT('',(-4.99999997705E-08,-275.,6.5));
#287 = VECTOR('',#288,1.);
#288 = DIRECTION('',(-8.090982689306E-18,0.707106781187,0.707106781187)
  );
#289 = PCURVE('',#257,#290);
#290 = DEFINITIONAL_REPRESENTATION('',(#291),#295);
#291 = LINE('',#292,#293);
#292 = CARTESIAN_POINT('',(3.14159265359,-3.749399456655E-33));
#293 = VECTOR('',#294,1.);
#294 = DIRECTION('',(0.,1.));
#295 = ( GEOMETRIC_REPRESENTATION_CONTEXT(2) 
PARAMETRIC_REPRESENTATION_CONTEXT() REPRESENTATION_CONTEXT('2D SPACE',''
  ) );
#296 = PCURVE('',#297,#302);
#297 = CONICAL_SURFACE('',#298,6.5,0.785398163397);
#298 = AXIS2_PLACEMENT_3D('',#299,#300,#301);
#299 = CARTESIAN_POINT('',(-4.999999969613E-08,-275.,3.053113318274E-14)
  );
#300 = DIRECTION('',(0.,1.,-1.110223024625E-16));
#301 = DIRECTION('',(-1.110223024625E-16,-1.110223024625E-16,-1.));
#302 = DEFINITIONAL_REPRESENTATION('',(#303),#307);
#303 = LINE('',#304,#305);
#304 = CARTESIAN_POINT('',(3.14159265359,-3.749399456655E-33));
#305 = VECTOR('',#306,1.);
#306 = DIRECTION('',(0.,1.));
#307 = ( GEOMETRIC_REPRESENTATION_CONTEXT(2) 
PARAMETRIC_REPRESENTATION_CONTEXT() REPRESENTATION_CONTEXT('2D SPACE',''
  ) );
#308 = ORIENTED_EDGE('',*,*,#309,.F.);
#309 = EDGE_CURVE('',#310,#282,#312,.T.);
#310 = VERTEX_POINT('',#311);
#311 = CARTESIAN_POINT('',(-5.000000052879E-08,-274.,-7.5));
#312 = SURFACE_CURVE('',#313,(#318,#325),.PCURVE_S1.);
#313 = CIRCLE('',#314,7.5);
#314 = AXIS2_PLACEMENT_3D('',#315,#316,#317);
#315 = CARTESIAN_POINT('',(-4.999999969613E-08,-274.,3.042011088028E-14)
  );
#316 = DIRECTION('',(0.,1.,-1.110223024625E-16));
#317 = DIRECTION('',(1.110223024625E-16,1.110223024625E-16,1.));
#318 = PCURVE('',#257,#319);
#319 = DEFINITIONAL_REPRESENTATION('',(#320),#324);
#320 = LINE('',#321,#322);
#321 = CARTESIAN_POINT('',(-3.14159265359,1.));
#322 = VECTOR('',#323,1.);
#323 = DIRECTION('',(1.,0.));
#324 = ( GEOMETRIC_REPRESENTATION_CONTEXT(2) 
PARAMETRIC_REPRESENTATION_CONTEXT() REPRESENTATION_CONTEXT('2D SPACE',''
  ) );
#325 = PCURVE('',#326,#331);
#326 = CYLINDRICAL_SURFACE('',#327,7.5);
#327 = AXIS2_PLACEMENT_3D('',#328,#329,#330);
#328 = CARTESIAN_POINT('',(-4.999999969613E-08,-275.,3.053113318274E-14)
  );
#329 = DIRECTION('',(0.,1.,-1.110223024625E-16));
#330 = DIRECTION('',(-1.110223024625E-16,-1.110223024625E-16,-1.));
#331 = DEFINITIONAL_REPRESENTATION('',(#332),#336);
#332 = LINE('',#333,#334);
#333 = CARTESIAN_POINT('',(-3.14159265359,1.));
#334 = VECTOR('',#335,1.);
#335 = DIRECTION('',(1.,0.));
#336 = ( GEOMETRIC_REPRESENTATION_CONTEXT(2) 
PARAMETRIC_REPRESENTATION_CONTEXT() REPRESENTATION_CONTEXT('2D SPACE',''
  ) );
#337 = ORIENTED_EDGE('',*,*,#338,.F.);
#338 = EDGE_CURVE('',#248,#310,#339,.T.);
#339 = SURFACE_CURVE('',#340,(#344,#351),.PCURVE_S1.);
#340 = LINE('',#341,#342);
#341 = CARTESIAN_POINT('',(-5.000000041777E-08,-275.,-6.5));
#342 = VECTOR('',#343,1.);
#343 = DIRECTION('',(-7.850462293419E-17,0.707106781187,-0.707106781187)
  );
#344 = PCURVE('',#257,#345);
#345 = DEFINITIONAL_REPRESENTATION('',(#346),#350);
#346 = LINE('',#347,#348);
#347 = CARTESIAN_POINT('',(0.,0.));
#348 = VECTOR('',#349,1.);
#349 = DIRECTION('',(0.,1.));
#350 = ( GEOMETRIC_REPRESENTATION_CONTEXT(2) 
PARAMETRIC_REPRESENTATION_CONTEXT() REPRESENTATION_CONTEXT('2D SPACE',''
  ) );
#351 = PCURVE('',#297,#352);
#352 = DEFINITIONAL_REPRESENTATION('',(#353),#357);
#353 = LINE('',#354,#355);
#354 = CARTESIAN_POINT('',(6.28318530718,0.));
#355 = VECTOR('',#356,1.);
#356 = DIRECTION('',(0.,1.));
#357 = ( GEOMETRIC_REPRESENTATION_CONTEXT(2) 
PARAMETRIC_REPRESENTATION_CONTEXT() REPRESENTATION_CONTEXT('2D SPACE',''
  ) );
#358 = ADVANCED_FACE('',(#359),#374,.T.);
#359 = FACE_BOUND('',#360,.T.);
#360 = EDGE_LOOP('',(#361,#401,#429,#458));
#361 = ORIENTED_EDGE('',*,*,#362,.F.);
#362 = EDGE_CURVE('',#363,#365,#367,.T.);
#363 = VERTEX_POINT('',#364);
#364 = CARTESIAN_POINT('',(-5.000000127502E-08,275.,-6.5));
#365 = VERTEX_POINT('',#366);
#366 = CARTESIAN_POINT('',(-4.999999897448E-08,275.,6.5));
#367 = SURFACE_CURVE('',#368,(#373,#385),.PCURVE_S1.);
#368 = CIRCLE('',#369,6.5);
#369 = AXIS2_PLACEMENT_3D('',#370,#371,#372);
#370 = CARTESIAN_POINT('',(-4.999999969613E-08,275.,-3.053113317164E-14)
  );
#371 = DIRECTION('',(0.,1.,-1.110223024625E-16));
#372 = DIRECTION('',(1.110223024625E-16,1.110223024625E-16,1.));
#373 = PCURVE('',#374,#379);
#374 = CONICAL_SURFACE('',#375,7.5,0.785398163397);
#375 = AXIS2_PLACEMENT_3D('',#376,#377,#378);
#376 = CARTESIAN_POINT('',(-4.999999969613E-08,274.,-3.042011086918E-14)
  );
#377 = DIRECTION('',(0.,-1.,1.110223024625E-16));
#378 = DIRECTION('',(1.110223024625E-16,1.110223024625E-16,1.));
#379 = DEFINITIONAL_REPRESENTATION('',(#380),#384);
#380 = LINE('',#381,#382);
#381 = CARTESIAN_POINT('',(6.28318530718,-1.));
#382 = VECTOR('',#383,1.);
#383 = DIRECTION('',(-1.,0.));
#384 = ( GEOMETRIC_REPRESENTATION_CONTEXT(2) 
PARAMETRIC_REPRESENTATION_CONTEXT() REPRESENTATION_CONTEXT('2D SPACE',''
  ) );
#385 = PCURVE('',#386,#391);
#386 = PLANE('',#387);
#387 = AXIS2_PLACEMENT_3D('',#388,#389,#390);
#388 = CARTESIAN_POINT('',(-4.999999969613E-08,275.,-3.053113317164E-14)
  );
#389 = DIRECTION('',(0.,-1.,1.110223024625E-16));
#390 = DIRECTION('',(1.110223024625E-16,1.110223024625E-16,1.));
#391 = DEFINITIONAL_REPRESENTATION('',(#392),#400);
#392 = ( BOUNDED_CURVE() B_SPLINE_CURVE(2,(#393,#394,#395,#396,#397,#398
,#399),.UNSPECIFIED.,.T.,.F.) B_SPLINE_CURVE_WITH_KNOTS((1,2,2,2,2,1),(
    -2.094395102393,0.,2.094395102393,4.188790204786,6.28318530718,
8.377580409573),.UNSPECIFIED.) CURVE() GEOMETRIC_REPRESENTATION_ITEM() 
RATIONAL_B_SPLINE_CURVE((1.,0.5,1.,0.5,1.,0.5,1.)) REPRESENTATION_ITEM(
  '') );
#393 = CARTESIAN_POINT('',(6.5,0.));
#394 = CARTESIAN_POINT('',(6.5,-11.25833024919));
#395 = CARTESIAN_POINT('',(-3.25,-5.629165124599));
#396 = CARTESIAN_POINT('',(-13.,-1.592040838892E-15));
#397 = CARTESIAN_POINT('',(-3.25,5.629165124599));
#398 = CARTESIAN_POINT('',(6.5,11.258330249198));
#399 = CARTESIAN_POINT('',(6.5,0.));
#400 = ( GEOMETRIC_REPRESENTATION_CONTEXT(2) 
PARAMETRIC_REPRESENTATION_CONTEXT() REPRESENTATION_CONTEXT('2D SPACE',''
  ) );
#401 = ORIENTED_EDGE('',*,*,#402,.T.);
#402 = EDGE_CURVE('',#363,#403,#405,.T.);
#403 = VERTEX_POINT('',#404);
#404 = CARTESIAN_POINT('',(-5.000000052879E-08,274.,-7.5));
#405 = SURFACE_CURVE('',#406,(#410,#417),.PCURVE_S1.);
#406 = LINE('',#407,#408);
#407 = CARTESIAN_POINT('',(-5.000000144728E-08,274.,-7.5));
#408 = VECTOR('',#409,1.);
#409 = DIRECTION('',(-1.651002285577E-16,-0.707106781187,-0.707106781187
    ));
#410 = PCURVE('',#374,#411);
#411 = DEFINITIONAL_REPRESENTATION('',(#412),#416);
#412 = LINE('',#413,#414);
#413 = CARTESIAN_POINT('',(3.14159265359,-3.140184917368E-16));
#414 = VECTOR('',#415,1.);
#415 = DIRECTION('',(0.,1.));
#416 = ( GEOMETRIC_REPRESENTATION_CONTEXT(2) 
PARAMETRIC_REPRESENTATION_CONTEXT() REPRESENTATION_CONTEXT('2D SPACE',''
  ) );
#417 = PCURVE('',#418,#423);
#418 = CONICAL_SURFACE('',#419,7.5,0.785398163397);
#419 = AXIS2_PLACEMENT_3D('',#420,#421,#422);
#420 = CARTESIAN_POINT('',(-4.999999969613E-08,274.,-3.042011086918E-14)
  );
#421 = DIRECTION('',(0.,-1.,1.110223024625E-16));
#422 = DIRECTION('',(1.110223024625E-16,1.110223024625E-16,1.));
#423 = DEFINITIONAL_REPRESENTATION('',(#424),#428);
#424 = LINE('',#425,#426);
#425 = CARTESIAN_POINT('',(3.14159265359,-3.140184917368E-16));
#426 = VECTOR('',#427,1.);
#427 = DIRECTION('',(0.,1.));
#428 = ( GEOMETRIC_REPRESENTATION_CONTEXT(2) 
PARAMETRIC_REPRESENTATION_CONTEXT() REPRESENTATION_CONTEXT('2D SPACE',''
  ) );
#429 = ORIENTED_EDGE('',*,*,#430,.F.);
#430 = EDGE_CURVE('',#431,#403,#433,.T.);
#431 = VERTEX_POINT('',#432);
#432 = CARTESIAN_POINT('',(-4.999999978194E-08,274.,7.5));
#433 = SURFACE_CURVE('',#434,(#439,#446),.PCURVE_S1.);
#434 = CIRCLE('',#435,7.5);
#435 = AXIS2_PLACEMENT_3D('',#436,#437,#438);
#436 = CARTESIAN_POINT('',(-4.999999969613E-08,274.,-3.042011086918E-14)
  );
#437 = DIRECTION('',(0.,-1.,1.110223024625E-16));
#438 = DIRECTION('',(1.110223024625E-16,1.110223024625E-16,1.));
#439 = PCURVE('',#374,#440);
#440 = DEFINITIONAL_REPRESENTATION('',(#441),#445);
#441 = LINE('',#442,#443);
#442 = CARTESIAN_POINT('',(0.,0.));
#443 = VECTOR('',#444,1.);
#444 = DIRECTION('',(1.,0.));
#445 = ( GEOMETRIC_REPRESENTATION_CONTEXT(2) 
PARAMETRIC_REPRESENTATION_CONTEXT() REPRESENTATION_CONTEXT('2D SPACE',''
  ) );
#446 = PCURVE('',#447,#452);
#447 = CYLINDRICAL_SURFACE('',#448,7.5);
#448 = AXIS2_PLACEMENT_3D('',#449,#450,#451);
#449 = CARTESIAN_POINT('',(-4.999999969613E-08,260.,-2.88657986347E-14)
  );
#450 = DIRECTION('',(0.,1.,-1.110223024625E-16));
#451 = DIRECTION('',(-1.110223024625E-16,-1.110223024625E-16,-1.));
#452 = DEFINITIONAL_REPRESENTATION('',(#453),#457);
#453 = LINE('',#454,#455);
#454 = CARTESIAN_POINT('',(3.14159265359,14.));
#455 = VECTOR('',#456,1.);
#456 = DIRECTION('',(-1.,0.));
#457 = ( GEOMETRIC_REPRESENTATION_CONTEXT(2) 
PARAMETRIC_REPRESENTATION_CONTEXT() REPRESENTATION_CONTEXT('2D SPACE',''
  ) );
#458 = ORIENTED_EDGE('',*,*,#459,.F.);
#459 = EDGE_CURVE('',#365,#431,#460,.T.);
#460 = SURFACE_CURVE('',#461,(#465,#472),.PCURVE_S1.);
#461 = LINE('',#462,#463);
#462 = CARTESIAN_POINT('',(-4.999999886346E-08,274.,7.5));
#463 = VECTOR('',#464,1.);
#464 = DIRECTION('',(7.850462293419E-17,-0.707106781187,0.707106781187)
  );
#465 = PCURVE('',#374,#466);
#466 = DEFINITIONAL_REPRESENTATION('',(#467),#471);
#467 = LINE('',#468,#469);
#468 = CARTESIAN_POINT('',(0.,-3.140184917368E-16));
#469 = VECTOR('',#470,1.);
#470 = DIRECTION('',(0.,1.));
#471 = ( GEOMETRIC_REPRESENTATION_CONTEXT(2) 
PARAMETRIC_REPRESENTATION_CONTEXT() REPRESENTATION_CONTEXT('2D SPACE',''
  ) );
#472 = PCURVE('',#418,#473);
#473 = DEFINITIONAL_REPRESENTATION('',(#474),#478);
#474 = LINE('',#475,#476);
#475 = CARTESIAN_POINT('',(6.28318530718,-3.140184917368E-16));
#476 = VECTOR('',#477,1.);
#477 = DIRECTION('',(0.,1.));
#478 = ( GEOMETRIC_REPRESENTATION_CONTEXT(2) 
PARAMETRIC_REPRESENTATION_CONTEXT() REPRESENTATION_CONTEXT('2D SPACE',''
  ) );
#479 = ADVANCED_FACE('',(#480),#326,.T.);
#480 = FACE_BOUND('',#481,.T.);
#481 = EDGE_LOOP('',(#482,#483,#511,#540));
#482 = ORIENTED_EDGE('',*,*,#309,.T.);
#483 = ORIENTED_EDGE('',*,*,#484,.T.);
#484 = EDGE_CURVE('',#282,#485,#487,.T.);
#485 = VERTEX_POINT('',#486);
#486 = CARTESIAN_POINT('',(-4.999999978194E-08,-240.,7.5));
#487 = SURFACE_CURVE('',#488,(#492,#499),.PCURVE_S1.);
#488 = LINE('',#489,#490);
#489 = CARTESIAN_POINT('',(-4.999999978194E-08,-275.,7.5));
#490 = VECTOR('',#491,1.);
#491 = DIRECTION('',(0.,1.,-1.110223024625E-16));
#492 = PCURVE('',#326,#493);
#493 = DEFINITIONAL_REPRESENTATION('',(#494),#498);
#494 = LINE('',#495,#496);
#495 = CARTESIAN_POINT('',(3.14159265359,0.));
#496 = VECTOR('',#497,1.);
#497 = DIRECTION('',(0.,1.));
#498 = ( GEOMETRIC_REPRESENTATION_CONTEXT(2) 
PARAMETRIC_REPRESENTATION_CONTEXT() REPRESENTATION_CONTEXT('2D SPACE',''
  ) );
#499 = PCURVE('',#500,#505);
#500 = CYLINDRICAL_SURFACE('',#501,7.5);
#501 = AXIS2_PLACEMENT_3D('',#502,#503,#504);
#502 = CARTESIAN_POINT('',(-4.999999969613E-08,-275.,3.053113318274E-14)
  );
#503 = DIRECTION('',(0.,1.,-1.110223024625E-16));
#504 = DIRECTION('',(-1.110223024625E-16,-1.110223024625E-16,-1.));
#505 = DEFINITIONAL_REPRESENTATION('',(#506),#510);
#506 = LINE('',#507,#508);
#507 = CARTESIAN_POINT('',(3.14159265359,0.));
#508 = VECTOR('',#509,1.);
#509 = DIRECTION('',(0.,1.));
#510 = ( GEOMETRIC_REPRESENTATION_CONTEXT(2) 
PARAMETRIC_REPRESENTATION_CONTEXT() REPRESENTATION_CONTEXT('2D SPACE',''
  ) );
#511 = ORIENTED_EDGE('',*,*,#512,.T.);
#512 = EDGE_CURVE('',#485,#513,#515,.T.);
#513 = VERTEX_POINT('',#514);
#514 = CARTESIAN_POINT('',(-5.000000052879E-08,-240.,-7.5));
#515 = SURFACE_CURVE('',#516,(#521,#528),.PCURVE_S1.);
#516 = CIRCLE('',#517,7.5);
#517 = AXIS2_PLACEMENT_3D('',#518,#519,#520);
#518 = CARTESIAN_POINT('',(-4.999999969613E-08,-240.,2.664535259655E-14)
  );
#519 = DIRECTION('',(0.,-1.,1.110223024625E-16));
#520 = DIRECTION('',(1.110223024625E-16,1.110223024625E-16,1.));
#521 = PCURVE('',#326,#522);
#522 = DEFINITIONAL_REPRESENTATION('',(#523),#527);
#523 = LINE('',#524,#525);
#524 = CARTESIAN_POINT('',(3.14159265359,35.));
#525 = VECTOR('',#526,1.);
#526 = DIRECTION('',(-1.,0.));
#527 = ( GEOMETRIC_REPRESENTATION_CONTEXT(2) 
PARAMETRIC_REPRESENTATION_CONTEXT() REPRESENTATION_CONTEXT('2D SPACE',''
  ) );
#528 = PCURVE('',#529,#534);
#529 = PLANE('',#530);
#530 = AXIS2_PLACEMENT_3D('',#531,#532,#533);
#531 = CARTESIAN_POINT('',(-4.999999969613E-08,-240.,2.664535259655E-14)
  );
#532 = DIRECTION('',(0.,-1.,1.110223024625E-16));
#533 = DIRECTION('',(1.110223024625E-16,1.110223024625E-16,1.));
#534 = DEFINITIONAL_REPRESENTATION('',(#535),#539);
#535 = CIRCLE('',#536,7.5);
#536 = AXIS2_PLACEMENT_2D('',#537,#538);
#537 = CARTESIAN_POINT('',(0.,0.));
#538 = DIRECTION('',(1.,0.));
#539 = ( GEOMETRIC_REPRESENTATION_CONTEXT(2) 
PARAMETRIC_REPRESENTATION_CONTEXT() REPRESENTATION_CONTEXT('2D SPACE',''
  ) );
#540 = ORIENTED_EDGE('',*,*,#541,.F.);
#541 = EDGE_CURVE('',#310,#513,#542,.T.);
#542 = SURFACE_CURVE('',#543,(#547,#554),.PCURVE_S1.);
#543 = LINE('',#544,#545);
#544 = CARTESIAN_POINT('',(-5.000000052879E-08,-275.,-7.5));
#545 = VECTOR('',#546,1.);
#546 = DIRECTION('',(0.,1.,-1.110223024625E-16));
#547 = PCURVE('',#326,#548);
#548 = DEFINITIONAL_REPRESENTATION('',(#549),#553);
#549 = LINE('',#550,#551);
#550 = CARTESIAN_POINT('',(0.,0.));
#551 = VECTOR('',#552,1.);
#552 = DIRECTION('',(0.,1.));
#553 = ( GEOMETRIC_REPRESENTATION_CONTEXT(2) 
PARAMETRIC_REPRESENTATION_CONTEXT() REPRESENTATION_CONTEXT('2D SPACE',''
  ) );
#554 = PCURVE('',#500,#555);
#555 = DEFINITIONAL_REPRESENTATION('',(#556),#560);
#556 = LINE('',#557,#558);
#557 = CARTESIAN_POINT('',(6.28318530718,0.));
#558 = VECTOR('',#559,1.);
#559 = DIRECTION('',(0.,1.));
#560 = ( GEOMETRIC_REPRESENTATION_CONTEXT(2) 
PARAMETRIC_REPRESENTATION_CONTEXT() REPRESENTATION_CONTEXT('2D SPACE',''
  ) );
#561 = ADVANCED_FACE('',(#562),#577,.T.);
#562 = FACE_BOUND('',#563,.T.);
#563 = EDGE_LOOP('',(#564,#595,#618,#647));
#564 = ORIENTED_EDGE('',*,*,#565,.F.);
#565 = EDGE_CURVE('',#566,#568,#570,.T.);
#566 = VERTEX_POINT('',#567);
#567 = CARTESIAN_POINT('',(-4.999999981055E-08,-240.,10.));
#568 = VERTEX_POINT('',#569);
#569 = CARTESIAN_POINT('',(-5.000000080635E-08,-240.,-10.));
#570 = SURFACE_CURVE('',#571,(#576,#588),.PCURVE_S1.);
#571 = CIRCLE('',#572,10.);
#572 = AXIS2_PLACEMENT_3D('',#573,#574,#575);
#573 = CARTESIAN_POINT('',(-4.999999969613E-08,-240.,2.664535259655E-14)
  );
#574 = DIRECTION('',(0.,-1.,1.110223024625E-16));
#575 = DIRECTION('',(1.110223024625E-16,1.110223024625E-16,1.));
#576 = PCURVE('',#577,#582);
#577 = CYLINDRICAL_SURFACE('',#578,10.);
#578 = AXIS2_PLACEMENT_3D('',#579,#580,#581);
#579 = CARTESIAN_POINT('',(-4.999999969613E-08,-240.,2.664535259655E-14)
  );
#580 = DIRECTION('',(0.,1.,-1.110223024625E-16));
#581 = DIRECTION('',(-1.110223024625E-16,-1.110223024625E-16,-1.));
#582 = DEFINITIONAL_REPRESENTATION('',(#583),#587);
#583 = LINE('',#584,#585);
#584 = CARTESIAN_POINT('',(3.14159265359,0.));
#585 = VECTOR('',#586,1.);
#586 = DIRECTION('',(-1.,0.));
#587 = ( GEOMETRIC_REPRESENTATION_CONTEXT(2) 
PARAMETRIC_REPRESENTATION_CONTEXT() REPRESENTATION_CONTEXT('2D SPACE',''
  ) );
#588 = PCURVE('',#529,#589);
#589 = DEFINITIONAL_REPRESENTATION('',(#590),#594);
#590 = CIRCLE('',#591,10.);
#591 = AXIS2_PLACEMENT_2D('',#592,#593);
#592 = CARTESIAN_POINT('',(0.,0.));
#593 = DIRECTION('',(1.,0.));
#594 = ( GEOMETRIC_REPRESENTATION_CONTEXT(2) 
PARAMETRIC_REPRESENTATION_CONTEXT() REPRESENTATION_CONTEXT('2D SPACE',''
  ) );
#595 = ORIENTED_EDGE('',*,*,#596,.T.);
#596 = EDGE_CURVE('',#566,#597,#599,.T.);
#597 = VERTEX_POINT('',#598);
#598 = CARTESIAN_POINT('',(-4.999999981055E-08,260.,10.));
#599 = SURFACE_CURVE('',#600,(#604,#611),.PCURVE_S1.);
#600 = LINE('',#601,#602);
#601 = CARTESIAN_POINT('',(-4.999999981055E-08,-240.,10.));
#602 = VECTOR('',#603,1.);
#603 = DIRECTION('',(0.,1.,-1.110223024625E-16));
#604 = PCURVE('',#577,#605);
#605 = DEFINITIONAL_REPRESENTATION('',(#606),#610);
#606 = LINE('',#607,#608);
#607 = CARTESIAN_POINT('',(3.14159265359,0.));
#608 = VECTOR('',#609,1.);
#609 = DIRECTION('',(0.,1.));
#610 = ( GEOMETRIC_REPRESENTATION_CONTEXT(2) 
PARAMETRIC_REPRESENTATION_CONTEXT() REPRESENTATION_CONTEXT('2D SPACE',''
  ) );
#611 = PCURVE('',#186,#612);
#612 = DEFINITIONAL_REPRESENTATION('',(#613),#617);
#613 = LINE('',#614,#615);
#614 = CARTESIAN_POINT('',(3.14159265359,0.));
#615 = VECTOR('',#616,1.);
#616 = DIRECTION('',(0.,1.));
#617 = ( GEOMETRIC_REPRESENTATION_CONTEXT(2) 
PARAMETRIC_REPRESENTATION_CONTEXT() REPRESENTATION_CONTEXT('2D SPACE',''
  ) );
#618 = ORIENTED_EDGE('',*,*,#619,.T.);
#619 = EDGE_CURVE('',#597,#620,#622,.T.);
#620 = VERTEX_POINT('',#621);
#621 = CARTESIAN_POINT('',(-5.000000080635E-08,260.,-10.));
#622 = SURFACE_CURVE('',#623,(#628,#635),.PCURVE_S1.);
#623 = CIRCLE('',#624,10.);
#624 = AXIS2_PLACEMENT_3D('',#625,#626,#627);
#625 = CARTESIAN_POINT('',(-4.999999969613E-08,260.,-2.88657986347E-14)
  );
#626 = DIRECTION('',(0.,-1.,1.110223024625E-16));
#627 = DIRECTION('',(1.110223024625E-16,1.110223024625E-16,1.));
#628 = PCURVE('',#577,#629);
#629 = DEFINITIONAL_REPRESENTATION('',(#630),#634);
#630 = LINE('',#631,#632);
#631 = CARTESIAN_POINT('',(3.14159265359,500.));
#632 = VECTOR('',#633,1.);
#633 = DIRECTION('',(-1.,0.));
#634 = ( GEOMETRIC_REPRESENTATION_CONTEXT(2) 
PARAMETRIC_REPRESENTATION_CONTEXT() REPRESENTATION_CONTEXT('2D SPACE',''
  ) );
#635 = PCURVE('',#636,#641);
#636 = PLANE('',#637);
#637 = AXIS2_PLACEMENT_3D('',#638,#639,#640);
#638 = CARTESIAN_POINT('',(-4.999999969613E-08,260.,-2.88657986347E-14)
  );
#639 = DIRECTION('',(0.,-1.,1.110223024625E-16));
#640 = DIRECTION('',(1.110223024625E-16,1.110223024625E-16,1.));
#641 = DEFINITIONAL_REPRESENTATION('',(#642),#646);
#642 = CIRCLE('',#643,10.);
#643 = AXIS2_PLACEMENT_2D('',#644,#645);
#644 = CARTESIAN_POINT('',(0.,0.));
#645 = DIRECTION('',(1.,0.));
#646 = ( GEOMETRIC_REPRESENTATION_CONTEXT(2) 
PARAMETRIC_REPRESENTATION_CONTEXT() REPRESENTATION_CONTEXT('2D SPACE',''
  ) );
#647 = ORIENTED_EDGE('',*,*,#648,.F.);
#648 = EDGE_CURVE('',#568,#620,#649,.T.);
#649 = SURFACE_CURVE('',#650,(#654,#661),.PCURVE_S1.);
#650 = LINE('',#651,#652);
#651 = CARTESIAN_POINT('',(-5.000000080635E-08,-240.,-10.));
#652 = VECTOR('',#653,1.);
#653 = DIRECTION('',(0.,1.,-1.110223024625E-16));
#654 = PCURVE('',#577,#655);
#655 = DEFINITIONAL_REPRESENTATION('',(#656),#660);
#656 = LINE('',#657,#658);
#657 = CARTESIAN_POINT('',(0.,0.));
#658 = VECTOR('',#659,1.);
#659 = DIRECTION('',(0.,1.));
#660 = ( GEOMETRIC_REPRESENTATION_CONTEXT(2) 
PARAMETRIC_REPRESENTATION_CONTEXT() REPRESENTATION_CONTEXT('2D SPACE',''
  ) );
#661 = PCURVE('',#186,#662);
#662 = DEFINITIONAL_REPRESENTATION('',(#663),#667);
#663 = LINE('',#664,#665);
#664 = CARTESIAN_POINT('',(6.28318530718,0.));
#665 = VECTOR('',#666,1.);
#666 = DIRECTION('',(0.,1.));
#667 = ( GEOMETRIC_REPRESENTATION_CONTEXT(2) 
PARAMETRIC_REPRESENTATION_CONTEXT() REPRESENTATION_CONTEXT('2D SPACE',''
  ) );
#668 = ADVANCED_FACE('',(#669),#447,.T.);
#669 = FACE_BOUND('',#670,.T.);
#670 = EDGE_LOOP('',(#671,#697,#723,#724));
#671 = ORIENTED_EDGE('',*,*,#672,.F.);
#672 = EDGE_CURVE('',#673,#675,#677,.T.);
#673 = VERTEX_POINT('',#674);
#674 = CARTESIAN_POINT('',(-4.999999978194E-08,260.,7.5));
#675 = VERTEX_POINT('',#676);
#676 = CARTESIAN_POINT('',(-5.000000052879E-08,260.,-7.5));
#677 = SURFACE_CURVE('',#678,(#683,#690),.PCURVE_S1.);
#678 = CIRCLE('',#679,7.5);
#679 = AXIS2_PLACEMENT_3D('',#680,#681,#682);
#680 = CARTESIAN_POINT('',(-4.999999969613E-08,260.,-2.88657986347E-14)
  );
#681 = DIRECTION('',(0.,-1.,1.110223024625E-16));
#682 = DIRECTION('',(1.110223024625E-16,1.110223024625E-16,1.));
#683 = PCURVE('',#447,#684);
#684 = DEFINITIONAL_REPRESENTATION('',(#685),#689);
#685 = LINE('',#686,#687);
#686 = CARTESIAN_POINT('',(3.14159265359,0.));
#687 = VECTOR('',#688,1.);
#688 = DIRECTION('',(-1.,0.));
#689 = ( GEOMETRIC_REPRESENTATION_CONTEXT(2) 
PARAMETRIC_REPRESENTATION_CONTEXT() REPRESENTATION_CONTEXT('2D SPACE',''
  ) );
#690 = PCURVE('',#636,#691);
#691 = DEFINITIONAL_REPRESENTATION('',(#692),#696);
#692 = CIRCLE('',#693,7.5);
#693 = AXIS2_PLACEMENT_2D('',#694,#695);
#694 = CARTESIAN_POINT('',(0.,0.));
#695 = DIRECTION('',(1.,0.));
#696 = ( GEOMETRIC_REPRESENTATION_CONTEXT(2) 
PARAMETRIC_REPRESENTATION_CONTEXT() REPRESENTATION_CONTEXT('2D SPACE',''
  ) );
#697 = ORIENTED_EDGE('',*,*,#698,.T.);
#698 = EDGE_CURVE('',#673,#431,#699,.T.);
#699 = SURFACE_CURVE('',#700,(#704,#711),.PCURVE_S1.);
#700 = LINE('',#701,#702);
#701 = CARTESIAN_POINT('',(-4.999999978194E-08,260.,7.5));
#702 = VECTOR('',#703,1.);
#703 = DIRECTION('',(0.,1.,-1.110223024625E-16));
#704 = PCURVE('',#447,#705);
#705 = DEFINITIONAL_REPRESENTATION('',(#706),#710);
#706 = LINE('',#707,#708);
#707 = CARTESIAN_POINT('',(3.14159265359,0.));
#708 = VECTOR('',#709,1.);
#709 = DIRECTION('',(0.,1.));
#710 = ( GEOMETRIC_REPRESENTATION_CONTEXT(2) 
PARAMETRIC_REPRESENTATION_CONTEXT() REPRESENTATION_CONTEXT('2D SPACE',''
  ) );
#711 = PCURVE('',#712,#717);
#712 = CYLINDRICAL_SURFACE('',#713,7.5);
#713 = AXIS2_PLACEMENT_3D('',#714,#715,#716);
#714 = CARTESIAN_POINT('',(-4.999999969613E-08,260.,-2.88657986347E-14)
  );
#715 = DIRECTION('',(0.,1.,-1.110223024625E-16));
#716 = DIRECTION('',(-1.110223024625E-16,-1.110223024625E-16,-1.));
#717 = DEFINITIONAL_REPRESENTATION('',(#718),#722);
#718 = LINE('',#719,#720);
#719 = CARTESIAN_POINT('',(3.14159265359,0.));
#720 = VECTOR('',#721,1.);
#721 = DIRECTION('',(0.,1.));
#722 = ( GEOMETRIC_REPRESENTATION_CONTEXT(2) 
PARAMETRIC_REPRESENTATION_CONTEXT() REPRESENTATION_CONTEXT('2D SPACE',''
  ) );
#723 = ORIENTED_EDGE('',*,*,#430,.T.);
#724 = ORIENTED_EDGE('',*,*,#725,.F.);
#725 = EDGE_CURVE('',#675,#403,#726,.T.);
#726 = SURFACE_CURVE('',#727,(#731,#738),.PCURVE_S1.);
#727 = LINE('',#728,#729);
#728 = CARTESIAN_POINT('',(-5.000000052879E-08,260.,-7.5));
#729 = VECTOR('',#730,1.);
#730 = DIRECTION('',(0.,1.,-1.110223024625E-16));
#731 = PCURVE('',#447,#732);
#732 = DEFINITIONAL_REPRESENTATION('',(#733),#737);
#733 = LINE('',#734,#735);
#734 = CARTESIAN_POINT('',(0.,0.));
#735 = VECTOR('',#736,1.);
#736 = DIRECTION('',(0.,1.));
#737 = ( GEOMETRIC_REPRESENTATION_CONTEXT(2) 
PARAMETRIC_REPRESENTATION_CONTEXT() REPRESENTATION_CONTEXT('2D SPACE',''
  ) );
#738 = PCURVE('',#712,#739);
#739 = DEFINITIONAL_REPRESENTATION('',(#740),#744);
#740 = LINE('',#741,#742);
#741 = CARTESIAN_POINT('',(6.28318530718,0.));
#742 = VECTOR('',#743,1.);
#743 = DIRECTION('',(0.,1.));
#744 = ( GEOMETRIC_REPRESENTATION_CONTEXT(2) 
PARAMETRIC_REPRESENTATION_CONTEXT() REPRESENTATION_CONTEXT('2D SPACE',''
  ) );
#745 = ADVANCED_FACE('',(#746,#771),#529,.T.);
#746 = FACE_BOUND('',#747,.T.);
#747 = EDGE_LOOP('',(#748,#770));
#748 = ORIENTED_EDGE('',*,*,#749,.T.);
#749 = EDGE_CURVE('',#568,#566,#750,.T.);
#750 = SURFACE_CURVE('',#751,(#756,#763),.PCURVE_S1.);
#751 = CIRCLE('',#752,10.);
#752 = AXIS2_PLACEMENT_3D('',#753,#754,#755);
#753 = CARTESIAN_POINT('',(-4.999999969613E-08,-240.,2.664535259655E-14)
  );
#754 = DIRECTION('',(0.,-1.,1.110223024625E-16));
#755 = DIRECTION('',(1.110223024625E-16,1.110223024625E-16,1.));
#756 = PCURVE('',#529,#757);
#757 = DEFINITIONAL_REPRESENTATION('',(#758),#762);
#758 = CIRCLE('',#759,10.);
#759 = AXIS2_PLACEMENT_2D('',#760,#761);
#760 = CARTESIAN_POINT('',(0.,0.));
#761 = DIRECTION('',(1.,0.));
#762 = ( GEOMETRIC_REPRESENTATION_CONTEXT(2) 
PARAMETRIC_REPRESENTATION_CONTEXT() REPRESENTATION_CONTEXT('2D SPACE',''
  ) );
#763 = PCURVE('',#186,#764);
#764 = DEFINITIONAL_REPRESENTATION('',(#765),#769);
#765 = LINE('',#766,#767);
#766 = CARTESIAN_POINT('',(9.424777960769,0.));
#767 = VECTOR('',#768,1.);
#768 = DIRECTION('',(-1.,0.));
#769 = ( GEOMETRIC_REPRESENTATION_CONTEXT(2) 
PARAMETRIC_REPRESENTATION_CONTEXT() REPRESENTATION_CONTEXT('2D SPACE',''
  ) );
#770 = ORIENTED_EDGE('',*,*,#565,.T.);
#771 = FACE_BOUND('',#772,.T.);
#772 = EDGE_LOOP('',(#773,#795));
#773 = ORIENTED_EDGE('',*,*,#774,.F.);
#774 = EDGE_CURVE('',#513,#485,#775,.T.);
#775 = SURFACE_CURVE('',#776,(#781,#788),.PCURVE_S1.);
#776 = CIRCLE('',#777,7.5);
#777 = AXIS2_PLACEMENT_3D('',#778,#779,#780);
#778 = CARTESIAN_POINT('',(-4.999999969613E-08,-240.,2.664535259655E-14)
  );
#779 = DIRECTION('',(0.,-1.,1.110223024625E-16));
#780 = DIRECTION('',(1.110223024625E-16,1.110223024625E-16,1.));
#781 = PCURVE('',#529,#782);
#782 = DEFINITIONAL_REPRESENTATION('',(#783),#787);
#783 = CIRCLE('',#784,7.5);
#784 = AXIS2_PLACEMENT_2D('',#785,#786);
#785 = CARTESIAN_POINT('',(0.,0.));
#786 = DIRECTION('',(1.,0.));
#787 = ( GEOMETRIC_REPRESENTATION_CONTEXT(2) 
PARAMETRIC_REPRESENTATION_CONTEXT() REPRESENTATION_CONTEXT('2D SPACE',''
  ) );
#788 = PCURVE('',#500,#789);
#789 = DEFINITIONAL_REPRESENTATION('',(#790),#794);
#790 = LINE('',#791,#792);
#791 = CARTESIAN_POINT('',(9.424777960769,35.));
#792 = VECTOR('',#793,1.);
#793 = DIRECTION('',(-1.,0.));
#794 = ( GEOMETRIC_REPRESENTATION_CONTEXT(2) 
PARAMETRIC_REPRESENTATION_CONTEXT() REPRESENTATION_CONTEXT('2D SPACE',''
  ) );
#795 = ORIENTED_EDGE('',*,*,#512,.F.);
#796 = ADVANCED_FACE('',(#797),#712,.T.);
#797 = FACE_BOUND('',#798,.T.);
#798 = EDGE_LOOP('',(#799,#800,#822,#823));
#799 = ORIENTED_EDGE('',*,*,#698,.F.);
#800 = ORIENTED_EDGE('',*,*,#801,.F.);
#801 = EDGE_CURVE('',#675,#673,#802,.T.);
#802 = SURFACE_CURVE('',#803,(#808,#815),.PCURVE_S1.);
#803 = CIRCLE('',#804,7.5);
#804 = AXIS2_PLACEMENT_3D('',#805,#806,#807);
#805 = CARTESIAN_POINT('',(-4.999999969613E-08,260.,-2.88657986347E-14)
  );
#806 = DIRECTION('',(0.,-1.,1.110223024625E-16));
#807 = DIRECTION('',(1.110223024625E-16,1.110223024625E-16,1.));
#808 = PCURVE('',#712,#809);
#809 = DEFINITIONAL_REPRESENTATION('',(#810),#814);
#810 = LINE('',#811,#812);
#811 = CARTESIAN_POINT('',(9.424777960769,0.));
#812 = VECTOR('',#813,1.);
#813 = DIRECTION('',(-1.,0.));
#814 = ( GEOMETRIC_REPRESENTATION_CONTEXT(2) 
PARAMETRIC_REPRESENTATION_CONTEXT() REPRESENTATION_CONTEXT('2D SPACE',''
  ) );
#815 = PCURVE('',#636,#816);
#816 = DEFINITIONAL_REPRESENTATION('',(#817),#821);
#817 = CIRCLE('',#818,7.5);
#818 = AXIS2_PLACEMENT_2D('',#819,#820);
#819 = CARTESIAN_POINT('',(0.,0.));
#820 = DIRECTION('',(1.,0.));
#821 = ( GEOMETRIC_REPRESENTATION_CONTEXT(2) 
PARAMETRIC_REPRESENTATION_CONTEXT() REPRESENTATION_CONTEXT('2D SPACE',''
  ) );
#822 = ORIENTED_EDGE('',*,*,#725,.T.);
#823 = ORIENTED_EDGE('',*,*,#824,.T.);
#824 = EDGE_CURVE('',#403,#431,#825,.T.);
#825 = SURFACE_CURVE('',#826,(#831,#838),.PCURVE_S1.);
#826 = CIRCLE('',#827,7.5);
#827 = AXIS2_PLACEMENT_3D('',#828,#829,#830);
#828 = CARTESIAN_POINT('',(-4.999999969613E-08,274.,-3.042011086918E-14)
  );
#829 = DIRECTION('',(0.,-1.,1.110223024625E-16));
#830 = DIRECTION('',(1.110223024625E-16,1.110223024625E-16,1.));
#831 = PCURVE('',#712,#832);
#832 = DEFINITIONAL_REPRESENTATION('',(#833),#837);
#833 = LINE('',#834,#835);
#834 = CARTESIAN_POINT('',(9.424777960769,14.));
#835 = VECTOR('',#836,1.);
#836 = DIRECTION('',(-1.,0.));
#837 = ( GEOMETRIC_REPRESENTATION_CONTEXT(2) 
PARAMETRIC_REPRESENTATION_CONTEXT() REPRESENTATION_CONTEXT('2D SPACE',''
  ) );
#838 = PCURVE('',#418,#839);
#839 = DEFINITIONAL_REPRESENTATION('',(#840),#844);
#840 = LINE('',#841,#842);
#841 = CARTESIAN_POINT('',(0.,0.));
#842 = VECTOR('',#843,1.);
#843 = DIRECTION('',(1.,0.));
#844 = ( GEOMETRIC_REPRESENTATION_CONTEXT(2) 
PARAMETRIC_REPRESENTATION_CONTEXT() REPRESENTATION_CONTEXT('2D SPACE',''
  ) );
#845 = ADVANCED_FACE('',(#846),#386,.F.);
#846 = FACE_BOUND('',#847,.T.);
#847 = EDGE_LOOP('',(#848,#874));
#848 = ORIENTED_EDGE('',*,*,#849,.T.);
#849 = EDGE_CURVE('',#365,#363,#850,.T.);
#850 = SURFACE_CURVE('',#851,(#856,#867),.PCURVE_S1.);
#851 = CIRCLE('',#852,6.5);
#852 = AXIS2_PLACEMENT_3D('',#853,#854,#855);
#853 = CARTESIAN_POINT('',(-4.999999969613E-08,275.,-3.053113317164E-14)
  );
#854 = DIRECTION('',(0.,1.,-1.110223024625E-16));
#855 = DIRECTION('',(1.110223024625E-16,1.110223024625E-16,1.));
#856 = PCURVE('',#386,#857);
#857 = DEFINITIONAL_REPRESENTATION('',(#858),#866);
#858 = ( BOUNDED_CURVE() B_SPLINE_CURVE(2,(#859,#860,#861,#862,#863,#864
,#865),.UNSPECIFIED.,.T.,.F.) B_SPLINE_CURVE_WITH_KNOTS((1,2,2,2,2,1),(
    -2.094395102393,0.,2.094395102393,4.188790204786,6.28318530718,
8.377580409573),.UNSPECIFIED.) CURVE() GEOMETRIC_REPRESENTATION_ITEM() 
RATIONAL_B_SPLINE_CURVE((1.,0.5,1.,0.5,1.,0.5,1.)) REPRESENTATION_ITEM(
  '') );
#859 = CARTESIAN_POINT('',(6.5,0.));
#860 = CARTESIAN_POINT('',(6.5,-11.25833024919));
#861 = CARTESIAN_POINT('',(-3.25,-5.629165124599));
#862 = CARTESIAN_POINT('',(-13.,-1.592040838892E-15));
#863 = CARTESIAN_POINT('',(-3.25,5.629165124599));
#864 = CARTESIAN_POINT('',(6.5,11.258330249198));
#865 = CARTESIAN_POINT('',(6.5,0.));
#866 = ( GEOMETRIC_REPRESENTATION_CONTEXT(2) 
PARAMETRIC_REPRESENTATION_CONTEXT() REPRESENTATION_CONTEXT('2D SPACE',''
  ) );
#867 = PCURVE('',#418,#868);
#868 = DEFINITIONAL_REPRESENTATION('',(#869),#873);
#869 = LINE('',#870,#871);
#870 = CARTESIAN_POINT('',(6.28318530718,-1.));
#871 = VECTOR('',#872,1.);
#872 = DIRECTION('',(-1.,0.));
#873 = ( GEOMETRIC_REPRESENTATION_CONTEXT(2) 
PARAMETRIC_REPRESENTATION_CONTEXT() REPRESENTATION_CONTEXT('2D SPACE',''
  ) );
#874 = ORIENTED_EDGE('',*,*,#362,.T.);
#875 = ADVANCED_FACE('',(#876,#901),#636,.F.);
#876 = FACE_BOUND('',#877,.T.);
#877 = EDGE_LOOP('',(#878,#900));
#878 = ORIENTED_EDGE('',*,*,#879,.F.);
#879 = EDGE_CURVE('',#620,#597,#880,.T.);
#880 = SURFACE_CURVE('',#881,(#886,#893),.PCURVE_S1.);
#881 = CIRCLE('',#882,10.);
#882 = AXIS2_PLACEMENT_3D('',#883,#884,#885);
#883 = CARTESIAN_POINT('',(-4.999999969613E-08,260.,-2.88657986347E-14)
  );
#884 = DIRECTION('',(0.,-1.,1.110223024625E-16));
#885 = DIRECTION('',(1.110223024625E-16,1.110223024625E-16,1.));
#886 = PCURVE('',#636,#887);
#887 = DEFINITIONAL_REPRESENTATION('',(#888),#892);
#888 = CIRCLE('',#889,10.);
#889 = AXIS2_PLACEMENT_2D('',#890,#891);
#890 = CARTESIAN_POINT('',(0.,0.));
#891 = DIRECTION('',(1.,0.));
#892 = ( GEOMETRIC_REPRESENTATION_CONTEXT(2) 
PARAMETRIC_REPRESENTATION_CONTEXT() REPRESENTATION_CONTEXT('2D SPACE',''
  ) );
#893 = PCURVE('',#186,#894);
#894 = DEFINITIONAL_REPRESENTATION('',(#895),#899);
#895 = LINE('',#896,#897);
#896 = CARTESIAN_POINT('',(9.424777960769,500.));
#897 = VECTOR('',#898,1.);
#898 = DIRECTION('',(-1.,0.));
#899 = ( GEOMETRIC_REPRESENTATION_CONTEXT(2) 
PARAMETRIC_REPRESENTATION_CONTEXT() REPRESENTATION_CONTEXT('2D SPACE',''
  ) );
#900 = ORIENTED_EDGE('',*,*,#619,.F.);
#901 = FACE_BOUND('',#902,.T.);
#902 = EDGE_LOOP('',(#903,#904));
#903 = ORIENTED_EDGE('',*,*,#801,.T.);
#904 = ORIENTED_EDGE('',*,*,#672,.T.);
#905 = ADVANCED_FACE('',(#906,#912),#186,.T.);
#906 = FACE_BOUND('',#907,.T.);
#907 = EDGE_LOOP('',(#908,#909,#910,#911));
#908 = ORIENTED_EDGE('',*,*,#596,.F.);
#909 = ORIENTED_EDGE('',*,*,#749,.F.);
#910 = ORIENTED_EDGE('',*,*,#648,.T.);
#911 = ORIENTED_EDGE('',*,*,#879,.T.);
#912 = FACE_BOUND('',#913,.T.);
#913 = EDGE_LOOP('',(#914,#944,#1066,#1067,#1090));
#914 = ORIENTED_EDGE('',*,*,#915,.T.);
#915 = EDGE_CURVE('',#916,#918,#920,.T.);
#916 = VERTEX_POINT('',#917);
#917 = CARTESIAN_POINT('',(9.539391964169,254.,-3.));
#918 = VERTEX_POINT('',#919);
#919 = CARTESIAN_POINT('',(9.539391964169,-234.,-3.));
#920 = SURFACE_CURVE('',#921,(#925,#932),.PCURVE_S1.);
#921 = LINE('',#922,#923);
#922 = CARTESIAN_POINT('',(9.539391964169,-240.,-3.));
#923 = VECTOR('',#924,1.);
#924 = DIRECTION('',(0.,-1.,1.110223024625E-16));
#925 = PCURVE('',#186,#926);
#926 = DEFINITIONAL_REPRESENTATION('',(#927),#931);
#927 = LINE('',#928,#929);
#928 = CARTESIAN_POINT('',(5.0170816344,0.));
#929 = VECTOR('',#930,1.);
#930 = DIRECTION('',(0.,-1.));
#931 = ( GEOMETRIC_REPRESENTATION_CONTEXT(2) 
PARAMETRIC_REPRESENTATION_CONTEXT() REPRESENTATION_CONTEXT('2D SPACE',''
  ) );
#932 = PCURVE('',#933,#938);
#933 = PLANE('',#934);
#934 = AXIS2_PLACEMENT_3D('',#935,#936,#937);
#935 = CARTESIAN_POINT('',(9.99999995,254.,-3.));
#936 = DIRECTION('',(-1.110223024625E-16,-2.327728742908E-16,-1.));
#937 = DIRECTION('',(1.351702881051E-32,-1.,2.327728742908E-16));
#938 = DEFINITIONAL_REPRESENTATION('',(#939),#943);
#939 = LINE('',#940,#941);
#940 = CARTESIAN_POINT('',(494.,0.460607985831));
#941 = VECTOR('',#942,1.);
#942 = DIRECTION('',(1.,0.));
#943 = ( GEOMETRIC_REPRESENTATION_CONTEXT(2) 
PARAMETRIC_REPRESENTATION_CONTEXT() REPRESENTATION_CONTEXT('2D SPACE',''
  ) );
#944 = ORIENTED_EDGE('',*,*,#945,.T.);
#945 = EDGE_CURVE('',#918,#86,#946,.T.);
#946 = SURFACE_CURVE('',#947,(#964,#1015),.PCURVE_S1.);
#947 = B_SPLINE_CURVE_WITH_KNOTS('',3,(#948,#949,#950,#951,#952,#953,
    #954,#955,#956,#957,#958,#959,#960,#961,#962,#963),.UNSPECIFIED.,.F.
  ,.F.,(4,2,2,2,2,2,2,4),(0.,5.897783937042E-04,1.179556787408E-03,
    1.769335181113E-03,2.359113574817E-03,3.538670362225E-03,
    4.128448755929E-03,4.718227149633E-03),.UNSPECIFIED.);
#948 = CARTESIAN_POINT('',(9.539391964169,-234.,-3.));
#949 = CARTESIAN_POINT('',(9.539391964169,-234.1995197503,-3.));
#950 = CARTESIAN_POINT('',(9.545651023967,-234.3954590166,
    -2.980296469647));
#951 = CARTESIAN_POINT('',(9.569342907278,-234.780549833,-2.903325134898
    ));
#952 = CARTESIAN_POINT('',(9.587067443406,-234.9717478965,
    -2.845051011039));
#953 = CARTESIAN_POINT('',(9.630605819603,-235.3345412196,
    -2.693994981975));
#954 = CARTESIAN_POINT('',(9.656274572361,-235.5064216953,
    -2.601731063448));
#955 = CARTESIAN_POINT('',(9.712336448272,-235.8317060346,
    -2.383938726831));
#956 = CARTESIAN_POINT('',(9.742747499314,-235.9847269752,
    -2.258029293598));
#957 = CARTESIAN_POINT('',(9.832317590723,-236.3971891068,
    -1.845219286032));
#958 = CARTESIAN_POINT('',(9.891673635136,-236.6202949454,-1.51218626011
    ));
#959 = CARTESIAN_POINT('',(9.954402223917,-236.8452256427,
    -0.971006829869));
#960 = CARTESIAN_POINT('',(9.971383511082,-236.903421438,-0.780559190592
    ));
#961 = CARTESIAN_POINT('',(9.994180621073,-236.9807739281,
    -0.392575452858));
#962 = CARTESIAN_POINT('',(9.99999995,-237.,-0.197049299723));
#963 = CARTESIAN_POINT('',(9.99999995,-237.,8.418266084561E-14));
#964 = PCURVE('',#186,#965);
#965 = DEFINITIONAL_REPRESENTATION('',(#966),#1014);
#966 = B_SPLINE_CURVE_WITH_KNOTS('',3,(#967,#968,#969,#970,#971,#972,
    #973,#974,#975,#976,#977,#978,#979,#980,#981,#982,#983,#984,#985,
    #986,#987,#988,#989,#990,#991,#992,#993,#994,#995,#996,#997,#998,
    #999,#1000,#1001,#1002,#1003,#1004,#1005,#1006,#1007,#1008,#1009,
    #1010,#1011,#1012,#1013),.UNSPECIFIED.,.F.,.F.,(4,1,1,1,1,1,1,1,1,1,
    1,1,1,1,1,1,1,1,1,1,1,1,1,1,1,1,1,1,1,1,1,1,1,1,1,1,1,1,1,1,1,1,1,1,
    4),(0.,1.072324352189E-04,2.144648704379E-04,3.216973056568E-04,
    4.289297408757E-04,5.361621760947E-04,6.433946113136E-04,
    7.506270465325E-04,8.578594817515E-04,9.650919169704E-04,
    1.072324352189E-03,1.179556787408E-03,1.286789222627E-03,
    1.394021657846E-03,1.501254093065E-03,1.608486528284E-03,
    1.715718963503E-03,1.822951398722E-03,1.930183833941E-03,
    2.03741626916E-03,2.144648704379E-03,2.251881139598E-03,
    2.359113574816E-03,2.466346010035E-03,2.573578445254E-03,
    2.680810880473E-03,2.788043315692E-03,2.895275750911E-03,
    3.00250818613E-03,3.109740621349E-03,3.216973056568E-03,
    3.324205491787E-03,3.431437927006E-03,3.538670362225E-03,
    3.645902797444E-03,3.753135232663E-03,3.860367667882E-03,
    3.9676001031E-03,4.074832538319E-03,4.182064973538E-03,
    4.289297408757E-03,4.396529843976E-03,4.503762279195E-03,
    4.610994714414E-03,4.718227149633E-03),.QUASI_UNIFORM_KNOTS.);
#967 = CARTESIAN_POINT('',(5.0170816344,6.));
#968 = CARTESIAN_POINT('',(5.017081634245,5.963723681764));
#969 = CARTESIAN_POINT('',(5.016944947631,5.89140776005));
#970 = CARTESIAN_POINT('',(5.016333765943,5.783637394538));
#971 = CARTESIAN_POINT('',(5.015320295668,5.6765635065));
#972 = CARTESIAN_POINT('',(5.013908553857,5.570180499635));
#973 = CARTESIAN_POINT('',(5.012101965101,5.464477416873));
#974 = CARTESIAN_POINT('',(5.009906146252,5.359463300934));
#975 = CARTESIAN_POINT('',(5.007303786017,5.254807067391));
#976 = CARTESIAN_POINT('',(5.004308669134,5.150891819086));
#977 = CARTESIAN_POINT('',(5.000930469854,5.048002115417));
#978 = CARTESIAN_POINT('',(4.997180504715,4.946445893528));
#979 = CARTESIAN_POINT('',(4.993067484063,4.846536123025));
#980 = CARTESIAN_POINT('',(4.988608748134,4.748542265921));
#981 = CARTESIAN_POINT('',(4.983812852503,4.652418165966));
#982 = CARTESIAN_POINT('',(4.97867975392,4.558164044346));
#983 = CARTESIAN_POINT('',(4.973211550502,4.465765045324));
#984 = CARTESIAN_POINT('',(4.967410045484,4.375220243425));
#985 = CARTESIAN_POINT('',(4.96127574779,4.286488069048));
#986 = CARTESIAN_POINT('',(4.954811182296,4.199760467383));
#987 = CARTESIAN_POINT('',(4.948039892024,4.115262597667));
#988 = CARTESIAN_POINT('',(4.940982639159,4.033210239693));
#989 = CARTESIAN_POINT('',(4.933657860812,3.953794418009));
#990 = CARTESIAN_POINT('',(4.926095606056,3.877314557599));
#991 = CARTESIAN_POINT('',(4.918281268448,3.80366123694));
#992 = CARTESIAN_POINT('',(4.91019398083,3.732607669925));
#993 = CARTESIAN_POINT('',(4.901857449265,3.664336274489));
#994 = CARTESIAN_POINT('',(4.893283359599,3.598919816748));
#995 = CARTESIAN_POINT('',(4.884486538624,3.536460466053));
#996 = CARTESIAN_POINT('',(4.875480858948,3.477052430638));
#997 = CARTESIAN_POINT('',(4.866280405173,3.420792359966));
#998 = CARTESIAN_POINT('',(4.856898842463,3.367775099696));
#999 = CARTESIAN_POINT('',(4.847350706325,3.318100269485));
#1000 = CARTESIAN_POINT('',(4.8376467981,3.271850196795));
#1001 = CARTESIAN_POINT('',(4.827811230324,3.22917160387));
#1002 = CARTESIAN_POINT('',(4.817817761888,3.189970926025));
#1003 = CARTESIAN_POINT('',(4.807649747921,3.154157494896));
#1004 = CARTESIAN_POINT('',(4.797340761414,3.121880603529));
#1005 = CARTESIAN_POINT('',(4.786910658599,3.093226289525));
#1006 = CARTESIAN_POINT('',(4.77638357728,3.068293650844));
#1007 = CARTESIAN_POINT('',(4.765779731083,3.047192799458));
#1008 = CARTESIAN_POINT('',(4.755156973092,3.02995305553));
#1009 = CARTESIAN_POINT('',(4.744507179364,3.016557128412));
#1010 = CARTESIAN_POINT('',(4.733831090731,3.006999404044));
#1011 = CARTESIAN_POINT('',(4.723127049651,3.001271138557));
#1012 = CARTESIAN_POINT('',(4.715971693487,3.));
#1013 = CARTESIAN_POINT('',(4.712388980385,3.));
#1014 = ( GEOMETRIC_REPRESENTATION_CONTEXT(2) 
PARAMETRIC_REPRESENTATION_CONTEXT() REPRESENTATION_CONTEXT('2D SPACE',''
  ) );
#1015 = PCURVE('',#101,#1016);
#1016 = DEFINITIONAL_REPRESENTATION('',(#1017),#1065);
#1017 = B_SPLINE_CURVE_WITH_KNOTS('',3,(#1018,#1019,#1020,#1021,#1022,
    #1023,#1024,#1025,#1026,#1027,#1028,#1029,#1030,#1031,#1032,#1033,
    #1034,#1035,#1036,#1037,#1038,#1039,#1040,#1041,#1042,#1043,#1044,
    #1045,#1046,#1047,#1048,#1049,#1050,#1051,#1052,#1053,#1054,#1055,
    #1056,#1057,#1058,#1059,#1060,#1061,#1062,#1063,#1064),
  .UNSPECIFIED.,.F.,.F.,(4,1,1,1,1,1,1,1,1,1,1,1,1,1,1,1,1,1,1,1,1,1,1,1
    ,1,1,1,1,1,1,1,1,1,1,1,1,1,1,1,1,1,1,1,1,4),(0.,1.072324352189E-04,
    2.144648704379E-04,3.216973056568E-04,4.289297408757E-04,
    5.361621760947E-04,6.433946113136E-04,7.506270465325E-04,
    8.578594817515E-04,9.650919169704E-04,1.072324352189E-03,
    1.179556787408E-03,1.286789222627E-03,1.394021657846E-03,
    1.501254093065E-03,1.608486528284E-03,1.715718963503E-03,
    1.822951398722E-03,1.930183833941E-03,2.03741626916E-03,
    2.144648704379E-03,2.251881139598E-03,2.359113574817E-03,
    2.466346010035E-03,2.573578445254E-03,2.680810880473E-03,
    2.788043315692E-03,2.895275750911E-03,3.00250818613E-03,
    3.109740621349E-03,3.216973056568E-03,3.324205491787E-03,
    3.431437927006E-03,3.538670362225E-03,3.645902797444E-03,
    3.753135232663E-03,3.860367667882E-03,3.967600103101E-03,
    4.07483253832E-03,4.182064973538E-03,4.289297408757E-03,
    4.396529843976E-03,4.503762279195E-03,4.610994714414E-03,
    4.718227149633E-03),.UNSPECIFIED.);
#1018 = CARTESIAN_POINT('',(4.712388980385,0.460607985831));
#1019 = CARTESIAN_POINT('',(4.724481068087,0.460607985831));
#1020 = CARTESIAN_POINT('',(4.74858639833,0.460194161872));
#1021 = CARTESIAN_POINT('',(4.784556204359,0.458356211293));
#1022 = CARTESIAN_POINT('',(4.820386519893,0.455325237681));
#1023 = CARTESIAN_POINT('',(4.856124809334,0.451125662335));
#1024 = CARTESIAN_POINT('',(4.891819924606,0.445781053412));
#1025 = CARTESIAN_POINT('',(4.927510964005,0.439318161949));
#1026 = CARTESIAN_POINT('',(4.963363649135,0.431713702447));
#1027 = CARTESIAN_POINT('',(4.999291278991,0.423044829764));
#1028 = CARTESIAN_POINT('',(5.035240214195,0.413374403627));
#1029 = CARTESIAN_POINT('',(5.071147640063,0.402770656296));
#1030 = CARTESIAN_POINT('',(5.106953061657,0.39129462503));
#1031 = CARTESIAN_POINT('',(5.142600669857,0.379030754558));
#1032 = CARTESIAN_POINT('',(5.178140534257,0.366052692693));
#1033 = CARTESIAN_POINT('',(5.213619369046,0.352411087492));
#1034 = CARTESIAN_POINT('',(5.249085860151,0.33816235503));
#1035 = CARTESIAN_POINT('',(5.284584673921,0.32336283906));
#1036 = CARTESIAN_POINT('',(5.320172879167,0.308063404609));
#1037 = CARTESIAN_POINT('',(5.355841136082,0.292340534883));
#1038 = CARTESIAN_POINT('',(5.391532259755,0.276305236358));
#1039 = CARTESIAN_POINT('',(5.427194608553,0.260062991095));
#1040 = CARTESIAN_POINT('',(5.462787523292,0.243715820412));
#1041 = CARTESIAN_POINT('',(5.498217741502,0.227385113024));
#1042 = CARTESIAN_POINT('',(5.533593545511,0.211118248792));
#1043 = CARTESIAN_POINT('',(5.569065186607,0.194934189485));
#1044 = CARTESIAN_POINT('',(5.604580875485,0.178926049604));
#1045 = CARTESIAN_POINT('',(5.640141402446,0.163167072692));
#1046 = CARTESIAN_POINT('',(5.675732335615,0.147735833392));
#1047 = CARTESIAN_POINT('',(5.711342724157,0.132709452904));
#1048 = CARTESIAN_POINT('',(5.746960250416,0.118165535101));
#1049 = CARTESIAN_POINT('',(5.782574109622,0.104181206607));
#1050 = CARTESIAN_POINT('',(5.818170538441,9.08350203684E-02));
#1051 = CARTESIAN_POINT('',(5.853750007968,7.820030129216E-02));
#1052 = CARTESIAN_POINT('',(5.889265077579,6.636986011769E-02));
#1053 = CARTESIAN_POINT('',(5.924853890161,5.536379229676E-02));
#1054 = CARTESIAN_POINT('',(5.960622735824,4.518444960883E-02));
#1055 = CARTESIAN_POINT('',(5.996493178867,3.590676245103E-02));
#1056 = CARTESIAN_POINT('',(6.032436763516,2.758665373302E-02));
#1057 = CARTESIAN_POINT('',(6.068410270445,2.028349769657E-02));
#1058 = CARTESIAN_POINT('',(6.104384391238,1.406187074257E-02));
#1059 = CARTESIAN_POINT('',(6.140211111829,8.955191835725E-03));
#1060 = CARTESIAN_POINT('',(6.175959800245,4.967054010292E-03));
#1061 = CARTESIAN_POINT('',(6.211670677822,2.107473629903E-03));
#1062 = CARTESIAN_POINT('',(6.247391805283,3.847453410659E-04));
#1063 = CARTESIAN_POINT('',(6.271242863767,3.259673277534E-15));
#1064 = CARTESIAN_POINT('',(6.28318530718,0.));
#1065 = ( GEOMETRIC_REPRESENTATION_CONTEXT(2) 
PARAMETRIC_REPRESENTATION_CONTEXT() REPRESENTATION_CONTEXT('2D SPACE',''
  ) );
#1066 = ORIENTED_EDGE('',*,*,#113,.T.);
#1067 = ORIENTED_EDGE('',*,*,#1068,.T.);
#1068 = EDGE_CURVE('',#22,#1069,#1071,.T.);
#1069 = VERTEX_POINT('',#1070);
#1070 = CARTESIAN_POINT('',(9.539391964169,254.,3.));
#1071 = SURFACE_CURVE('',#1072,(#1076,#1083),.PCURVE_S1.);
#1072 = LINE('',#1073,#1074);
#1073 = CARTESIAN_POINT('',(9.539391964169,-240.,3.));
#1074 = VECTOR('',#1075,1.);
#1075 = DIRECTION('',(0.,1.,-1.110223024625E-16));
#1076 = PCURVE('',#186,#1077);
#1077 = DEFINITIONAL_REPRESENTATION('',(#1078),#1082);
#1078 = LINE('',#1079,#1080);
#1079 = CARTESIAN_POINT('',(4.407696326369,0.));
#1080 = VECTOR('',#1081,1.);
#1081 = DIRECTION('',(0.,1.));
#1082 = ( GEOMETRIC_REPRESENTATION_CONTEXT(2) 
PARAMETRIC_REPRESENTATION_CONTEXT() REPRESENTATION_CONTEXT('2D SPACE',''
  ) );
#1083 = PCURVE('',#44,#1084);
#1084 = DEFINITIONAL_REPRESENTATION('',(#1085),#1089);
#1085 = LINE('',#1086,#1087);
#1086 = CARTESIAN_POINT('',(-494.,0.460607985831));
#1087 = VECTOR('',#1088,1.);
#1088 = DIRECTION('',(1.,0.));
#1089 = ( GEOMETRIC_REPRESENTATION_CONTEXT(2) 
PARAMETRIC_REPRESENTATION_CONTEXT() REPRESENTATION_CONTEXT('2D SPACE',''
  ) );
#1090 = ORIENTED_EDGE('',*,*,#1091,.T.);
#1091 = EDGE_CURVE('',#1069,#916,#1092,.T.);
#1092 = SURFACE_CURVE('',#1093,(#1126,#1199),.PCURVE_S1.);
#1093 = B_SPLINE_CURVE_WITH_KNOTS('',3,(#1094,#1095,#1096,#1097,#1098,
    #1099,#1100,#1101,#1102,#1103,#1104,#1105,#1106,#1107,#1108,#1109,
    #1110,#1111,#1112,#1113,#1114,#1115,#1116,#1117,#1118,#1119,#1120,
    #1121,#1122,#1123,#1124,#1125),.UNSPECIFIED.,.F.,.F.,(4,2,2,2,2,2,2,
    2,2,2,2,2,2,2,2,4),(0.,5.894092157865E-04,1.178818431573E-03,
    1.768227647359E-03,2.357636863146E-03,3.536455294719E-03,
    4.125864510506E-03,4.715273726292E-03,5.304682942079E-03,
    5.894092157865E-03,6.483501373652E-03,7.072910589438E-03,
    7.662319805225E-03,8.251729021011E-03,8.841138236798E-03,
    9.430547452584E-03),.UNSPECIFIED.);
#1094 = CARTESIAN_POINT('',(9.539391964169,254.,3.));
#1095 = CARTESIAN_POINT('',(9.539391964169,254.19939485884,3.));
#1096 = CARTESIAN_POINT('',(9.545643189168,254.39521367511,2.9803208893)
  );
#1097 = CARTESIAN_POINT('',(9.569306264668,254.78007201171,2.90344521366
    ));
#1098 = CARTESIAN_POINT('',(9.587009113243,254.97115606623,
    2.845245004972));
#1099 = CARTESIAN_POINT('',(9.630500666739,255.33377039402,
    2.694368159574));
#1100 = CARTESIAN_POINT('',(9.656143118103,255.50557211279,
    2.602213131065));
#1101 = CARTESIAN_POINT('',(9.712152120011,255.83072288382,
    2.384683268057));
#1102 = CARTESIAN_POINT('',(9.742540730931,255.98371082487,
    2.258911840497));
#1103 = CARTESIAN_POINT('',(9.832058306143,256.39612240777,
    1.846554295534));
#1104 = CARTESIAN_POINT('',(9.891403302995,256.61928321904,
    1.513871943581));
#1105 = CARTESIAN_POINT('',(9.954183742609,256.84446322696,
    0.973212289922));
#1106 = CARTESIAN_POINT('',(9.971191595264,256.90276407146,
    0.782974164803));
#1107 = CARTESIAN_POINT('',(9.994072221911,256.98041222051,
    0.395260411827));
#1108 = CARTESIAN_POINT('',(9.999941223074,256.99980424349,
    0.199870738912));
#1109 = CARTESIAN_POINT('',(10.00005780066,257.00019283564,
    -0.193950407362));
#1110 = CARTESIAN_POINT('',(9.994102318566,256.98050891112,
    -0.394000900608));
#1111 = CARTESIAN_POINT('',(9.971428719031,256.90357416157,
    -0.779696843136));
#1112 = CARTESIAN_POINT('',(9.954799145154,256.84663067243,
    -0.96730254204));
#1113 = CARTESIAN_POINT('',(9.912588319231,256.69530839556,
    -1.332025917863));
#1114 = CARTESIAN_POINT('',(9.88735156748,256.60205589883,
    -1.505736480996));
#1115 = CARTESIAN_POINT('',(9.832583335311,256.38551229762,
    -1.829554133879));
#1116 = CARTESIAN_POINT('',(9.802604209862,256.26037541578,
    -1.982177225685));
#1117 = CARTESIAN_POINT('',(9.742508150801,255.98361104743,
    -2.259117258314));
#1118 = CARTESIAN_POINT('',(9.712686050674,255.83349425134,
    -2.382501064606));
#1119 = CARTESIAN_POINT('',(9.656798763601,255.50969970717,
    -2.599772929836));
#1120 = CARTESIAN_POINT('',(9.630573359004,255.33420532326,
    -2.694102411839));
#1121 = CARTESIAN_POINT('',(9.587201492378,254.97293014783,
    -2.844591109022));
#1122 = CARTESIAN_POINT('',(9.569765180078,254.78595968109,
    -2.901940328788));
#1123 = CARTESIAN_POINT('',(9.545770132051,254.39881628606,
    -2.979922123501));
#1124 = CARTESIAN_POINT('',(9.539391964169,254.19940789951,-3.));
#1125 = CARTESIAN_POINT('',(9.539391964169,254.,-3.));
#1126 = PCURVE('',#186,#1127);
#1127 = DEFINITIONAL_REPRESENTATION('',(#1128),#1198);
#1128 = B_SPLINE_CURVE_WITH_KNOTS('',3,(#1129,#1130,#1131,#1132,#1133,
    #1134,#1135,#1136,#1137,#1138,#1139,#1140,#1141,#1142,#1143,#1144,
    #1145,#1146,#1147,#1148,#1149,#1150,#1151,#1152,#1153,#1154,#1155,
    #1156,#1157,#1158,#1159,#1160,#1161,#1162,#1163,#1164,#1165,#1166,
    #1167,#1168,#1169,#1170,#1171,#1172,#1173,#1174,#1175,#1176,#1177,
    #1178,#1179,#1180,#1181,#1182,#1183,#1184,#1185,#1186,#1187,#1188,
    #1189,#1190,#1191,#1192,#1193,#1194,#1195,#1196,#1197),
  .UNSPECIFIED.,.F.,.F.,(4,1,1,1,1,1,1,1,1,1,1,1,1,1,1,1,1,1,1,1,1,1,1,1
    ,1,1,1,1,1,1,1,1,1,1,1,1,1,1,1,1,1,1,1,1,1,1,1,1,1,1,1,1,1,1,1,1,1,1
    ,1,1,1,1,1,1,1,1,4),(0.,1.428870826149E-04,2.857741652298E-04,
    4.286612478447E-04,5.715483304596E-04,7.144354130745E-04,
    8.573224956895E-04,1.000209578304E-03,1.143096660919E-03,
    1.285983743534E-03,1.428870826149E-03,1.571757908764E-03,
    1.714644991379E-03,1.857532073994E-03,2.000419156609E-03,
    2.143306239224E-03,2.286193321839E-03,2.429080404453E-03,
    2.571967487068E-03,2.714854569683E-03,2.857741652298E-03,
    3.000628734913E-03,3.143515817528E-03,3.286402900143E-03,
    3.429289982758E-03,3.572177065373E-03,3.715064147988E-03,
    3.857951230603E-03,4.000838313217E-03,4.143725395832E-03,
    4.286612478447E-03,4.429499561062E-03,4.572386643677E-03,
    4.715273726292E-03,4.858160808907E-03,5.001047891522E-03,
    5.143934974137E-03,5.286822056752E-03,5.429709139367E-03,
    5.572596221981E-03,5.715483304596E-03,5.858370387211E-03,
    6.001257469826E-03,6.144144552441E-03,6.287031635056E-03,
    6.429918717671E-03,6.572805800286E-03,6.715692882901E-03,
    6.858579965516E-03,7.001467048131E-03,7.144354130745E-03,
    7.28724121336E-03,7.430128295975E-03,7.57301537859E-03,
    7.715902461205E-03,7.85878954382E-03,8.001676626435E-03,
    8.14456370905E-03,8.287450791665E-03,8.43033787428E-03,
    8.573224956895E-03,8.716112039509E-03,8.858999122124E-03,
    9.001886204739E-03,9.144773287354E-03,9.287660369969E-03,
    9.430547452584E-03),.QUASI_UNIFORM_KNOTS.);
#1129 = CARTESIAN_POINT('',(4.407696326369,494.));
#1130 = CARTESIAN_POINT('',(4.407696327081,494.04833814759));
#1131 = CARTESIAN_POINT('',(4.407939061937,494.1445949881));
#1132 = CARTESIAN_POINT('',(4.409021779453,494.28772998948));
#1133 = CARTESIAN_POINT('',(4.4108149881,494.42965415165));
#1134 = CARTESIAN_POINT('',(4.413305450423,494.57029729059));
#1135 = CARTESIAN_POINT('',(4.416498992544,494.70999632355));
#1136 = CARTESIAN_POINT('',(4.420404254627,494.84873173478));
#1137 = CARTESIAN_POINT('',(4.424987177809,494.98560058738));
#1138 = CARTESIAN_POINT('',(4.430226427956,495.11994473969));
#1139 = CARTESIAN_POINT('',(4.436091175191,495.25097505736));
#1140 = CARTESIAN_POINT('',(4.442552771095,495.37865724465));
#1141 = CARTESIAN_POINT('',(4.449612884575,495.5030361492));
#1142 = CARTESIAN_POINT('',(4.457264751987,495.62411614392));
#1143 = CARTESIAN_POINT('',(4.465509962909,495.74197804531));
#1144 = CARTESIAN_POINT('',(4.474331009859,495.85615856819));
#1145 = CARTESIAN_POINT('',(4.48367106601,495.96612333091));
#1146 = CARTESIAN_POINT('',(4.493486002631,496.0714059494));
#1147 = CARTESIAN_POINT('',(4.503713414227,496.17136487497));
#1148 = CARTESIAN_POINT('',(4.514428852294,496.26670647804));
#1149 = CARTESIAN_POINT('',(4.525588498964,496.35712631098));
#1150 = CARTESIAN_POINT('',(4.537161455101,496.4424180573));
#1151 = CARTESIAN_POINT('',(4.549113489891,496.52234836926));
#1152 = CARTESIAN_POINT('',(4.561412132051,496.59669389296));
#1153 = CARTESIAN_POINT('',(4.574022796753,496.66521833048));
#1154 = CARTESIAN_POINT('',(4.586919473773,496.72772716605));
#1155 = CARTESIAN_POINT('',(4.60004617438,496.7838716993));
#1156 = CARTESIAN_POINT('',(4.613481034489,496.83397734856));
#1157 = CARTESIAN_POINT('',(4.62718840482,496.87790163141));
#1158 = CARTESIAN_POINT('',(4.641106546105,496.91539055084));
#1159 = CARTESIAN_POINT('',(4.655198503759,496.94620872079));
#1160 = CARTESIAN_POINT('',(4.669352569722,496.970159058));
#1161 = CARTESIAN_POINT('',(4.683546251811,496.98728688904));
#1162 = CARTESIAN_POINT('',(4.697791390129,496.99759534552));
#1163 = CARTESIAN_POINT('',(4.712079245397,497.00114675891));
#1164 = CARTESIAN_POINT('',(4.7264494111,496.99780885624));
#1165 = CARTESIAN_POINT('',(4.74085220582,496.98752227481));
#1166 = CARTESIAN_POINT('',(4.7551937887,496.97042482892));
#1167 = CARTESIAN_POINT('',(4.769385482509,496.94658612916));
#1168 = CARTESIAN_POINT('',(4.783361570498,496.91615142388));
#1169 = CARTESIAN_POINT('',(4.79717669054,496.87920400478));
#1170 = CARTESIAN_POINT('',(4.81081850734,496.83569978513));
#1171 = CARTESIAN_POINT('',(4.824297260751,496.7856132405));
#1172 = CARTESIAN_POINT('',(4.837595666809,496.72896667267));
#1173 = CARTESIAN_POINT('',(4.850567307502,496.66634417276));
#1174 = CARTESIAN_POINT('',(4.863211784931,496.59788603684));
#1175 = CARTESIAN_POINT('',(4.875494384232,496.52383689749));
#1176 = CARTESIAN_POINT('',(4.887391787691,496.44439712878));
#1177 = CARTESIAN_POINT('',(4.898969488394,496.35909895023));
#1178 = CARTESIAN_POINT('',(4.910165525729,496.26838320762));
#1179 = CARTESIAN_POINT('',(4.920941434873,496.1725315726));
#1180 = CARTESIAN_POINT('',(4.931251481907,496.07183308857));
#1181 = CARTESIAN_POINT('',(4.941033768798,495.96706683876));
#1182 = CARTESIAN_POINT('',(4.950297357346,495.85814110162));
#1183 = CARTESIAN_POINT('',(4.959040262396,495.74505884671));
#1184 = CARTESIAN_POINT('',(4.967263520341,495.62787639375));
#1185 = CARTESIAN_POINT('',(4.974970117899,495.50611004341));
#1186 = CARTESIAN_POINT('',(4.98210930117,495.38056609822));
#1187 = CARTESIAN_POINT('',(4.988640146855,495.25191097134));
#1188 = CARTESIAN_POINT('',(4.994504752226,495.12100869647));
#1189 = CARTESIAN_POINT('',(4.999711003539,494.98798240827));
#1190 = CARTESIAN_POINT('',(5.00426392906,494.85265977839));
#1191 = CARTESIAN_POINT('',(5.008152681058,494.71507599452));
#1192 = CARTESIAN_POINT('',(5.01137607068,494.57512499724));
#1193 = CARTESIAN_POINT('',(5.01390871827,494.43307185606));
#1194 = CARTESIAN_POINT('',(5.015731127876,494.28955046951));
#1195 = CARTESIAN_POINT('',(5.016834042671,494.14502361853));
#1196 = CARTESIAN_POINT('',(5.017081633655,494.04834130897));
#1197 = CARTESIAN_POINT('',(5.0170816344,494.));
#1198 = ( GEOMETRIC_REPRESENTATION_CONTEXT(2) 
PARAMETRIC_REPRESENTATION_CONTEXT() REPRESENTATION_CONTEXT('2D SPACE',''
  ) );
#1199 = PCURVE('',#1200,#1205);
#1200 = CYLINDRICAL_SURFACE('',#1201,3.);
#1201 = AXIS2_PLACEMENT_3D('',#1202,#1203,#1204);
#1202 = CARTESIAN_POINT('',(9.99999995,254.,-2.930988784455E-14));
#1203 = DIRECTION('',(-1.,1.232595164408E-32,1.110223024625E-16));
#1204 = DIRECTION('',(0.,-1.,1.110223024625E-16));
#1205 = DEFINITIONAL_REPRESENTATION('',(#1206),#1276);
#1206 = B_SPLINE_CURVE_WITH_KNOTS('',3,(#1207,#1208,#1209,#1210,#1211,
    #1212,#1213,#1214,#1215,#1216,#1217,#1218,#1219,#1220,#1221,#1222,
    #1223,#1224,#1225,#1226,#1227,#1228,#1229,#1230,#1231,#1232,#1233,
    #1234,#1235,#1236,#1237,#1238,#1239,#1240,#1241,#1242,#1243,#1244,
    #1245,#1246,#1247,#1248,#1249,#1250,#1251,#1252,#1253,#1254,#1255,
    #1256,#1257,#1258,#1259,#1260,#1261,#1262,#1263,#1264,#1265,#1266,
    #1267,#1268,#1269,#1270,#1271,#1272,#1273,#1274,#1275),
  .UNSPECIFIED.,.F.,.F.,(4,1,1,1,1,1,1,1,1,1,1,1,1,1,1,1,1,1,1,1,1,1,1,1
    ,1,1,1,1,1,1,1,1,1,1,1,1,1,1,1,1,1,1,1,1,1,1,1,1,1,1,1,1,1,1,1,1,1,1
    ,1,1,1,1,1,1,1,1,4),(0.,1.428870826149E-04,2.857741652298E-04,
    4.286612478447E-04,5.715483304596E-04,7.144354130745E-04,
    8.573224956895E-04,1.000209578304E-03,1.143096660919E-03,
    1.285983743534E-03,1.428870826149E-03,1.571757908764E-03,
    1.714644991379E-03,1.857532073994E-03,2.000419156609E-03,
    2.143306239224E-03,2.286193321839E-03,2.429080404453E-03,
    2.571967487068E-03,2.714854569683E-03,2.857741652298E-03,
    3.000628734913E-03,3.143515817528E-03,3.286402900143E-03,
    3.429289982758E-03,3.572177065373E-03,3.715064147988E-03,
    3.857951230603E-03,4.000838313217E-03,4.143725395832E-03,
    4.286612478447E-03,4.429499561062E-03,4.572386643677E-03,
    4.715273726292E-03,4.858160808907E-03,5.001047891522E-03,
    5.143934974137E-03,5.286822056752E-03,5.429709139367E-03,
    5.572596221981E-03,5.715483304596E-03,5.858370387211E-03,
    6.001257469826E-03,6.144144552441E-03,6.287031635056E-03,
    6.429918717671E-03,6.572805800286E-03,6.715692882901E-03,
    6.858579965516E-03,7.001467048131E-03,7.144354130745E-03,
    7.28724121336E-03,7.430128295975E-03,7.57301537859E-03,
    7.715902461205E-03,7.85878954382E-03,8.001676626435E-03,
    8.14456370905E-03,8.287450791665E-03,8.43033787428E-03,
    8.573224956895E-03,8.716112039509E-03,8.858999122124E-03,
    9.001886204739E-03,9.144773287354E-03,9.287660369969E-03,
    9.430547452584E-03),.QUASI_UNIFORM_KNOTS.);
#1207 = CARTESIAN_POINT('',(1.570796326795,0.460607985831));
#1208 = CARTESIAN_POINT('',(1.586908943345,0.460607985831));
#1209 = CARTESIAN_POINT('',(1.618994708162,0.459873100176));
#1210 = CARTESIAN_POINT('',(1.666815955641,0.456624571052));
#1211 = CARTESIAN_POINT('',(1.714452747645,0.451283878493));
#1212 = CARTESIAN_POINT('',(1.761986241338,0.44392052661));
#1213 = CARTESIAN_POINT('',(1.809638005643,0.434546571014));
#1214 = CARTESIAN_POINT('',(1.857519130738,0.423218994749));
#1215 = CARTESIAN_POINT('',(1.905421104567,0.410120112529));
#1216 = CARTESIAN_POINT('',(1.953222759841,0.395396452344));
#1217 = CARTESIAN_POINT('',(2.000756450739,0.379217360538));
#1218 = CARTESIAN_POINT('',(2.048087602835,0.361773129865));
#1219 = CARTESIAN_POINT('',(2.095342293525,0.343180949197));
#1220 = CARTESIAN_POINT('',(2.142623901268,0.323578937766));
#1221 = CARTESIAN_POINT('',(2.190067915965,0.303084535216));
#1222 = CARTESIAN_POINT('',(2.237628977248,0.281897048258));
#1223 = CARTESIAN_POINT('',(2.285166753908,0.260280185482));
#1224 = CARTESIAN_POINT('',(2.332579414159,0.238474817976));
#1225 = CARTESIAN_POINT('',(2.379683051372,0.216758352777));
#1226 = CARTESIAN_POINT('',(2.426935164264,0.195153203351));
#1227 = CARTESIAN_POINT('',(2.474272591245,0.173855073701));
#1228 = CARTESIAN_POINT('',(2.521681081502,0.153043939943));
#1229 = CARTESIAN_POINT('',(2.569129595535,0.132904229635));
#1230 = CARTESIAN_POINT('',(2.616592372683,0.113618292458));
#1231 = CARTESIAN_POINT('',(2.664035510239,9.537233815643E-02));
#1232 = CARTESIAN_POINT('',(2.711457811745,7.83392140983E-02));
#1233 = CARTESIAN_POINT('',(2.758749977363,6.274135709674E-02));
#1234 = CARTESIAN_POINT('',(2.806300137915,4.858553710828E-02));
#1235 = CARTESIAN_POINT('',(2.854084052042,3.598122975257E-02));
#1236 = CARTESIAN_POINT('',(2.901981584847,2.507712946962E-02));
#1237 = CARTESIAN_POINT('',(2.949957370468,1.60145349321E-02));
#1238 = CARTESIAN_POINT('',(2.997737309862,8.92493614765E-03));
#1239 = CARTESIAN_POINT('',(3.045349393812,3.820681084763E-03));
#1240 = CARTESIAN_POINT('',(3.092933421956,7.274305928181E-04));
#1241 = CARTESIAN_POINT('',(3.140560467516,-3.470189083143E-04));
#1242 = CARTESIAN_POINT('',(3.188460297006,6.632738384395E-04));
#1243 = CARTESIAN_POINT('',(3.236569671299,3.749812290912E-03));
#1244 = CARTESIAN_POINT('',(3.28467245911,8.845591931602E-03));
#1245 = CARTESIAN_POINT('',(3.332570702369,1.590274365584E-02));
#1246 = CARTESIAN_POINT('',(3.380143367561,2.485536468305E-02));
#1247 = CARTESIAN_POINT('',(3.427664552466,3.560827385573E-02));
#1248 = CARTESIAN_POINT('',(3.475198411085,4.809730068768E-02));
#1249 = CARTESIAN_POINT('',(3.522883749018,6.225387156231E-02));
#1250 = CARTESIAN_POINT('',(3.570766498586,7.799744744237E-02));
#1251 = CARTESIAN_POINT('',(3.618429854165,9.505267512066E-02));
#1252 = CARTESIAN_POINT('',(3.665960263696,0.11327301066));
#1253 = CARTESIAN_POINT('',(3.713323944189,0.132481189239));
#1254 = CARTESIAN_POINT('',(3.76052714706,0.152515238401));
#1255 = CARTESIAN_POINT('',(3.807943946688,0.17335640021));
#1256 = CARTESIAN_POINT('',(3.855432309074,0.194754702116));
#1257 = CARTESIAN_POINT('',(3.902943312798,0.21650219468));
#1258 = CARTESIAN_POINT('',(3.950412481861,0.238385014944));
#1259 = CARTESIAN_POINT('',(3.997626524845,0.26010229293));
#1260 = CARTESIAN_POINT('',(4.044737877,0.28153193133));
#1261 = CARTESIAN_POINT('',(4.091854141543,0.302528305187));
#1262 = CARTESIAN_POINT('',(4.139071899633,0.322948434452));
#1263 = CARTESIAN_POINT('',(4.186641440874,0.342680852736));
#1264 = CARTESIAN_POINT('',(4.234361777709,0.361471854596));
#1265 = CARTESIAN_POINT('',(4.282083346249,0.379091321328));
#1266 = CARTESIAN_POINT('',(4.329577939931,0.395266429976));
#1267 = CARTESIAN_POINT('',(4.376931407688,0.409892931402));
#1268 = CARTESIAN_POINT('',(4.424311580437,0.42290119029));
#1269 = CARTESIAN_POINT('',(4.47180718839,0.434177691583));
#1270 = CARTESIAN_POINT('',(4.519561286838,0.443636209817));
#1271 = CARTESIAN_POINT('',(4.567580480594,0.451122328159));
#1272 = CARTESIAN_POINT('',(4.615757912694,0.456549384493));
#1273 = CARTESIAN_POINT('',(4.664047479964,0.459858361256));
#1274 = CARTESIAN_POINT('',(4.696275513385,0.460607985831));
#1275 = CARTESIAN_POINT('',(4.712388980385,0.460607985831));
#1276 = ( GEOMETRIC_REPRESENTATION_CONTEXT(2) 
PARAMETRIC_REPRESENTATION_CONTEXT() REPRESENTATION_CONTEXT('2D SPACE',''
  ) );
#1277 = ADVANCED_FACE('',(#1278),#500,.T.);
#1278 = FACE_BOUND('',#1279,.T.);
#1279 = EDGE_LOOP('',(#1280,#1281,#1303,#1304));
#1280 = ORIENTED_EDGE('',*,*,#484,.F.);
#1281 = ORIENTED_EDGE('',*,*,#1282,.T.);
#1282 = EDGE_CURVE('',#282,#310,#1283,.T.);
#1283 = SURFACE_CURVE('',#1284,(#1289,#1296),.PCURVE_S1.);
#1284 = CIRCLE('',#1285,7.5);
#1285 = AXIS2_PLACEMENT_3D('',#1286,#1287,#1288);
#1286 = CARTESIAN_POINT('',(-4.999999969613E-08,-274.,3.042011088028E-14
    ));
#1287 = DIRECTION('',(0.,1.,-1.110223024625E-16));
#1288 = DIRECTION('',(1.110223024625E-16,1.110223024625E-16,1.));
#1289 = PCURVE('',#500,#1290);
#1290 = DEFINITIONAL_REPRESENTATION('',(#1291),#1295);
#1291 = LINE('',#1292,#1293);
#1292 = CARTESIAN_POINT('',(3.14159265359,1.));
#1293 = VECTOR('',#1294,1.);
#1294 = DIRECTION('',(1.,0.));
#1295 = ( GEOMETRIC_REPRESENTATION_CONTEXT(2) 
PARAMETRIC_REPRESENTATION_CONTEXT() REPRESENTATION_CONTEXT('2D SPACE',''
  ) );
#1296 = PCURVE('',#297,#1297);
#1297 = DEFINITIONAL_REPRESENTATION('',(#1298),#1302);
#1298 = LINE('',#1299,#1300);
#1299 = CARTESIAN_POINT('',(3.14159265359,1.));
#1300 = VECTOR('',#1301,1.);
#1301 = DIRECTION('',(1.,0.));
#1302 = ( GEOMETRIC_REPRESENTATION_CONTEXT(2) 
PARAMETRIC_REPRESENTATION_CONTEXT() REPRESENTATION_CONTEXT('2D SPACE',''
  ) );
#1303 = ORIENTED_EDGE('',*,*,#541,.T.);
#1304 = ORIENTED_EDGE('',*,*,#774,.T.);
#1305 = ADVANCED_FACE('',(#1306),#269,.T.);
#1306 = FACE_BOUND('',#1307,.T.);
#1307 = EDGE_LOOP('',(#1308,#1330));
#1308 = ORIENTED_EDGE('',*,*,#1309,.T.);
#1309 = EDGE_CURVE('',#248,#246,#1310,.T.);
#1310 = SURFACE_CURVE('',#1311,(#1316,#1323),.PCURVE_S1.);
#1311 = CIRCLE('',#1312,6.5);
#1312 = AXIS2_PLACEMENT_3D('',#1313,#1314,#1315);
#1313 = CARTESIAN_POINT('',(-4.999999969613E-08,-275.,3.053113318274E-14
    ));
#1314 = DIRECTION('',(0.,-1.,1.110223024625E-16));
#1315 = DIRECTION('',(1.110223024625E-16,1.110223024625E-16,1.));
#1316 = PCURVE('',#269,#1317);
#1317 = DEFINITIONAL_REPRESENTATION('',(#1318),#1322);
#1318 = CIRCLE('',#1319,6.5);
#1319 = AXIS2_PLACEMENT_2D('',#1320,#1321);
#1320 = CARTESIAN_POINT('',(0.,0.));
#1321 = DIRECTION('',(1.,0.));
#1322 = ( GEOMETRIC_REPRESENTATION_CONTEXT(2) 
PARAMETRIC_REPRESENTATION_CONTEXT() REPRESENTATION_CONTEXT('2D SPACE',''
  ) );
#1323 = PCURVE('',#297,#1324);
#1324 = DEFINITIONAL_REPRESENTATION('',(#1325),#1329);
#1325 = LINE('',#1326,#1327);
#1326 = CARTESIAN_POINT('',(9.424777960769,0.));
#1327 = VECTOR('',#1328,1.);
#1328 = DIRECTION('',(-1.,0.));
#1329 = ( GEOMETRIC_REPRESENTATION_CONTEXT(2) 
PARAMETRIC_REPRESENTATION_CONTEXT() REPRESENTATION_CONTEXT('2D SPACE',''
  ) );
#1330 = ORIENTED_EDGE('',*,*,#245,.T.);
#1331 = ADVANCED_FACE('',(#1332),#418,.T.);
#1332 = FACE_BOUND('',#1333,.T.);
#1333 = EDGE_LOOP('',(#1334,#1335,#1336,#1337));
#1334 = ORIENTED_EDGE('',*,*,#402,.F.);
#1335 = ORIENTED_EDGE('',*,*,#849,.F.);
#1336 = ORIENTED_EDGE('',*,*,#459,.T.);
#1337 = ORIENTED_EDGE('',*,*,#824,.F.);
#1338 = ADVANCED_FACE('',(#1339),#297,.T.);
#1339 = FACE_BOUND('',#1340,.T.);
#1340 = EDGE_LOOP('',(#1341,#1342,#1343,#1344));
#1341 = ORIENTED_EDGE('',*,*,#281,.F.);
#1342 = ORIENTED_EDGE('',*,*,#1309,.F.);
#1343 = ORIENTED_EDGE('',*,*,#338,.T.);
#1344 = ORIENTED_EDGE('',*,*,#1282,.F.);
#1345 = ADVANCED_FACE('',(#1346),#1200,.F.);
#1346 = FACE_BOUND('',#1347,.F.);
#1347 = EDGE_LOOP('',(#1348,#1349,#1372,#1396));
#1348 = ORIENTED_EDGE('',*,*,#1091,.T.);
#1349 = ORIENTED_EDGE('',*,*,#1350,.T.);
#1350 = EDGE_CURVE('',#916,#1351,#1353,.T.);
#1351 = VERTEX_POINT('',#1352);
#1352 = CARTESIAN_POINT('',(6.49999995,254.,-3.));
#1353 = SURFACE_CURVE('',#1354,(#1358,#1365),.PCURVE_S1.);
#1354 = LINE('',#1355,#1356);
#1355 = CARTESIAN_POINT('',(9.99999995,254.,-3.));
#1356 = VECTOR('',#1357,1.);
#1357 = DIRECTION('',(-1.,1.232595164408E-32,1.110223024625E-16));
#1358 = PCURVE('',#1200,#1359);
#1359 = DEFINITIONAL_REPRESENTATION('',(#1360),#1364);
#1360 = LINE('',#1361,#1362);
#1361 = CARTESIAN_POINT('',(4.712388980385,0.));
#1362 = VECTOR('',#1363,1.);
#1363 = DIRECTION('',(0.,1.));
#1364 = ( GEOMETRIC_REPRESENTATION_CONTEXT(2) 
PARAMETRIC_REPRESENTATION_CONTEXT() REPRESENTATION_CONTEXT('2D SPACE',''
  ) );
#1365 = PCURVE('',#933,#1366);
#1366 = DEFINITIONAL_REPRESENTATION('',(#1367),#1371);
#1367 = LINE('',#1368,#1369);
#1368 = CARTESIAN_POINT('',(0.,0.));
#1369 = VECTOR('',#1370,1.);
#1370 = DIRECTION('',(0.,1.));
#1371 = ( GEOMETRIC_REPRESENTATION_CONTEXT(2) 
PARAMETRIC_REPRESENTATION_CONTEXT() REPRESENTATION_CONTEXT('2D SPACE',''
  ) );
#1372 = ORIENTED_EDGE('',*,*,#1373,.F.);
#1373 = EDGE_CURVE('',#1374,#1351,#1376,.T.);
#1374 = VERTEX_POINT('',#1375);
#1375 = CARTESIAN_POINT('',(6.49999995,254.,3.));
#1376 = SURFACE_CURVE('',#1377,(#1382,#1389),.PCURVE_S1.);
#1377 = CIRCLE('',#1378,3.);
#1378 = AXIS2_PLACEMENT_3D('',#1379,#1380,#1381);
#1379 = CARTESIAN_POINT('',(6.49999995,254.,-2.892130978593E-14));
#1380 = DIRECTION('',(-1.,1.232595164408E-32,1.110223024625E-16));
#1381 = DIRECTION('',(0.,-1.,1.110223024625E-16));
#1382 = PCURVE('',#1200,#1383);
#1383 = DEFINITIONAL_REPRESENTATION('',(#1384),#1388);
#1384 = LINE('',#1385,#1386);
#1385 = CARTESIAN_POINT('',(0.,3.5));
#1386 = VECTOR('',#1387,1.);
#1387 = DIRECTION('',(1.,0.));
#1388 = ( GEOMETRIC_REPRESENTATION_CONTEXT(2) 
PARAMETRIC_REPRESENTATION_CONTEXT() REPRESENTATION_CONTEXT('2D SPACE',''
  ) );
#1389 = PCURVE('',#73,#1390);
#1390 = DEFINITIONAL_REPRESENTATION('',(#1391),#1395);
#1391 = CIRCLE('',#1392,3.);
#1392 = AXIS2_PLACEMENT_2D('',#1393,#1394);
#1393 = CARTESIAN_POINT('',(0.,0.));
#1394 = DIRECTION('',(1.,0.));
#1395 = ( GEOMETRIC_REPRESENTATION_CONTEXT(2) 
PARAMETRIC_REPRESENTATION_CONTEXT() REPRESENTATION_CONTEXT('2D SPACE',''
  ) );
#1396 = ORIENTED_EDGE('',*,*,#1397,.F.);
#1397 = EDGE_CURVE('',#1069,#1374,#1398,.T.);
#1398 = SURFACE_CURVE('',#1399,(#1403,#1410),.PCURVE_S1.);
#1399 = LINE('',#1400,#1401);
#1400 = CARTESIAN_POINT('',(9.99999995,254.,3.));
#1401 = VECTOR('',#1402,1.);
#1402 = DIRECTION('',(-1.,1.232595164408E-32,1.110223024625E-16));
#1403 = PCURVE('',#1200,#1404);
#1404 = DEFINITIONAL_REPRESENTATION('',(#1405),#1409);
#1405 = LINE('',#1406,#1407);
#1406 = CARTESIAN_POINT('',(1.570796326795,0.));
#1407 = VECTOR('',#1408,1.);
#1408 = DIRECTION('',(0.,1.));
#1409 = ( GEOMETRIC_REPRESENTATION_CONTEXT(2) 
PARAMETRIC_REPRESENTATION_CONTEXT() REPRESENTATION_CONTEXT('2D SPACE',''
  ) );
#1410 = PCURVE('',#44,#1411);
#1411 = DEFINITIONAL_REPRESENTATION('',(#1412),#1416);
#1412 = LINE('',#1413,#1414);
#1413 = CARTESIAN_POINT('',(0.,0.));
#1414 = VECTOR('',#1415,1.);
#1415 = DIRECTION('',(0.,1.));
#1416 = ( GEOMETRIC_REPRESENTATION_CONTEXT(2) 
PARAMETRIC_REPRESENTATION_CONTEXT() REPRESENTATION_CONTEXT('2D SPACE',''
  ) );
#1417 = ADVANCED_FACE('',(#1418),#44,.F.);
#1418 = FACE_BOUND('',#1419,.T.);
#1419 = EDGE_LOOP('',(#1420,#1421,#1442,#1443));
#1420 = ORIENTED_EDGE('',*,*,#21,.T.);
#1421 = ORIENTED_EDGE('',*,*,#1422,.T.);
#1422 = EDGE_CURVE('',#24,#1374,#1423,.T.);
#1423 = SURFACE_CURVE('',#1424,(#1428,#1435),.PCURVE_S1.);
#1424 = LINE('',#1425,#1426);
#1425 = CARTESIAN_POINT('',(6.49999995,254.,3.));
#1426 = VECTOR('',#1427,1.);
#1427 = DIRECTION('',(-1.3911686586E-32,1.,-2.363276355121E-16));
#1428 = PCURVE('',#44,#1429);
#1429 = DEFINITIONAL_REPRESENTATION('',(#1430),#1434);
#1430 = LINE('',#1431,#1432);
#1431 = CARTESIAN_POINT('',(-5.625964986931E-32,3.5));
#1432 = VECTOR('',#1433,1.);
#1433 = DIRECTION('',(1.,0.));
#1434 = ( GEOMETRIC_REPRESENTATION_CONTEXT(2) 
PARAMETRIC_REPRESENTATION_CONTEXT() REPRESENTATION_CONTEXT('2D SPACE',''
  ) );
#1435 = PCURVE('',#73,#1436);
#1436 = DEFINITIONAL_REPRESENTATION('',(#1437),#1441);
#1437 = LINE('',#1438,#1439);
#1438 = CARTESIAN_POINT('',(3.330669073875E-16,3.));
#1439 = VECTOR('',#1440,1.);
#1440 = DIRECTION('',(-1.,-1.253053330496E-16));
#1441 = ( GEOMETRIC_REPRESENTATION_CONTEXT(2) 
PARAMETRIC_REPRESENTATION_CONTEXT() REPRESENTATION_CONTEXT('2D SPACE',''
  ) );
#1442 = ORIENTED_EDGE('',*,*,#1397,.F.);
#1443 = ORIENTED_EDGE('',*,*,#1068,.F.);
#1444 = ADVANCED_FACE('',(#1445),#101,.F.);
#1445 = FACE_BOUND('',#1446,.F.);
#1446 = EDGE_LOOP('',(#1447,#1471,#1492,#1493));
#1447 = ORIENTED_EDGE('',*,*,#1448,.F.);
#1448 = EDGE_CURVE('',#1449,#57,#1451,.T.);
#1449 = VERTEX_POINT('',#1450);
#1450 = CARTESIAN_POINT('',(6.49999995,-234.,-3.));
#1451 = SURFACE_CURVE('',#1452,(#1457,#1464),.PCURVE_S1.);
#1452 = CIRCLE('',#1453,3.);
#1453 = AXIS2_PLACEMENT_3D('',#1454,#1455,#1456);
#1454 = CARTESIAN_POINT('',(6.49999995,-234.,8.423817199898E-14));
#1455 = DIRECTION('',(-1.,1.232595164408E-32,1.110223024625E-16));
#1456 = DIRECTION('',(0.,-1.,1.110223024625E-16));
#1457 = PCURVE('',#101,#1458);
#1458 = DEFINITIONAL_REPRESENTATION('',(#1459),#1463);
#1459 = LINE('',#1460,#1461);
#1460 = CARTESIAN_POINT('',(0.,3.5));
#1461 = VECTOR('',#1462,1.);
#1462 = DIRECTION('',(1.,0.));
#1463 = ( GEOMETRIC_REPRESENTATION_CONTEXT(2) 
PARAMETRIC_REPRESENTATION_CONTEXT() REPRESENTATION_CONTEXT('2D SPACE',''
  ) );
#1464 = PCURVE('',#73,#1465);
#1465 = DEFINITIONAL_REPRESENTATION('',(#1466),#1470);
#1466 = CIRCLE('',#1467,3.);
#1467 = AXIS2_PLACEMENT_2D('',#1468,#1469);
#1468 = CARTESIAN_POINT('',(488.,5.898059818321E-14));
#1469 = DIRECTION('',(1.,0.));
#1470 = ( GEOMETRIC_REPRESENTATION_CONTEXT(2) 
PARAMETRIC_REPRESENTATION_CONTEXT() REPRESENTATION_CONTEXT('2D SPACE',''
  ) );
#1471 = ORIENTED_EDGE('',*,*,#1472,.F.);
#1472 = EDGE_CURVE('',#918,#1449,#1473,.T.);
#1473 = SURFACE_CURVE('',#1474,(#1478,#1485),.PCURVE_S1.);
#1474 = LINE('',#1475,#1476);
#1475 = CARTESIAN_POINT('',(9.99999995,-234.,-3.));
#1476 = VECTOR('',#1477,1.);
#1477 = DIRECTION('',(-1.,1.232595164408E-32,1.110223024625E-16));
#1478 = PCURVE('',#101,#1479);
#1479 = DEFINITIONAL_REPRESENTATION('',(#1480),#1484);
#1480 = LINE('',#1481,#1482);
#1481 = CARTESIAN_POINT('',(4.712388980385,0.));
#1482 = VECTOR('',#1483,1.);
#1483 = DIRECTION('',(0.,1.));
#1484 = ( GEOMETRIC_REPRESENTATION_CONTEXT(2) 
PARAMETRIC_REPRESENTATION_CONTEXT() REPRESENTATION_CONTEXT('2D SPACE',''
  ) );
#1485 = PCURVE('',#933,#1486);
#1486 = DEFINITIONAL_REPRESENTATION('',(#1487),#1491);
#1487 = LINE('',#1488,#1489);
#1488 = CARTESIAN_POINT('',(488.,6.606710081226E-30));
#1489 = VECTOR('',#1490,1.);
#1490 = DIRECTION('',(0.,1.));
#1491 = ( GEOMETRIC_REPRESENTATION_CONTEXT(2) 
PARAMETRIC_REPRESENTATION_CONTEXT() REPRESENTATION_CONTEXT('2D SPACE',''
  ) );
#1492 = ORIENTED_EDGE('',*,*,#945,.T.);
#1493 = ORIENTED_EDGE('',*,*,#85,.T.);
#1494 = ADVANCED_FACE('',(#1495),#933,.F.);
#1495 = FACE_BOUND('',#1496,.T.);
#1496 = EDGE_LOOP('',(#1497,#1498,#1519,#1520));
#1497 = ORIENTED_EDGE('',*,*,#1350,.T.);
#1498 = ORIENTED_EDGE('',*,*,#1499,.T.);
#1499 = EDGE_CURVE('',#1351,#1449,#1500,.T.);
#1500 = SURFACE_CURVE('',#1501,(#1505,#1512),.PCURVE_S1.);
#1501 = LINE('',#1502,#1503);
#1502 = CARTESIAN_POINT('',(6.49999995,254.,-3.));
#1503 = VECTOR('',#1504,1.);
#1504 = DIRECTION('',(1.351702881051E-32,-1.,2.327728742908E-16));
#1505 = PCURVE('',#933,#1506);
#1506 = DEFINITIONAL_REPRESENTATION('',(#1507),#1511);
#1507 = LINE('',#1508,#1509);
#1508 = CARTESIAN_POINT('',(5.606232098157E-32,3.5));
#1509 = VECTOR('',#1510,1.);
#1510 = DIRECTION('',(1.,0.));
#1511 = ( GEOMETRIC_REPRESENTATION_CONTEXT(2) 
PARAMETRIC_REPRESENTATION_CONTEXT() REPRESENTATION_CONTEXT('2D SPACE',''
  ) );
#1512 = PCURVE('',#73,#1513);
#1513 = DEFINITIONAL_REPRESENTATION('',(#1514),#1518);
#1514 = LINE('',#1515,#1516);
#1515 = CARTESIAN_POINT('',(-3.330669073875E-16,-3.));
#1516 = VECTOR('',#1517,1.);
#1517 = DIRECTION('',(1.,1.217505718283E-16));
#1518 = ( GEOMETRIC_REPRESENTATION_CONTEXT(2) 
PARAMETRIC_REPRESENTATION_CONTEXT() REPRESENTATION_CONTEXT('2D SPACE',''
  ) );
#1519 = ORIENTED_EDGE('',*,*,#1472,.F.);
#1520 = ORIENTED_EDGE('',*,*,#915,.F.);
#1521 = ADVANCED_FACE('',(#1522),#73,.F.);
#1522 = FACE_BOUND('',#1523,.T.);
#1523 = EDGE_LOOP('',(#1524,#1525,#1526,#1527,#1528));
#1524 = ORIENTED_EDGE('',*,*,#1373,.F.);
#1525 = ORIENTED_EDGE('',*,*,#1422,.F.);
#1526 = ORIENTED_EDGE('',*,*,#56,.F.);
#1527 = ORIENTED_EDGE('',*,*,#1448,.F.);
#1528 = ORIENTED_EDGE('',*,*,#1499,.F.);
#1529 = ( GEOMETRIC_REPRESENTATION_CONTEXT(3) 
GLOBAL_UNCERTAINTY_ASSIGNED_CONTEXT((#1533)) 
GLOBAL_UNIT_ASSIGNED_CONTEXT((#1530,#1531,#1532)) REPRESENTATION_CONTEXT
('Context #1','3D Context with UNIT and UNCERTAINTY') );
#1530 = ( LENGTH_UNIT() NAMED_UNIT(*) SI_UNIT(.MILLI.,.METRE.) );
#1531 = ( NAMED_UNIT(*) PLANE_ANGLE_UNIT() SI_UNIT($,.RADIAN.) );
#1532 = ( NAMED_UNIT(*) SI_UNIT($,.STERADIAN.) SOLID_ANGLE_UNIT() );
#1533 = UNCERTAINTY_MEASURE_WITH_UNIT(LENGTH_MEASURE(5.E-05),#1530,
  'distance_accuracy_value','confusion accuracy');
#1534 = PRODUCT_RELATED_PRODUCT_CATEGORY('part',$,(#7));
ENDSEC;
END-ISO-10303-21;
