ISO-10303-21;
HEADER;
FILE_DESCRIPTION(('Open CASCADE Model'),'2;1');
FILE_NAME('Open CASCADE Shape Model','2026-09-10T20:57:33',('Author'),(
    'Open CASCADE'),'Open CASCADE STEP processor 7.9','Open CASCADE 7.9'
  ,'Unknown');
FILE_SCHEMA(('AUTOMOTIVE_DESIGN { 1 0 10303 214 1 1 1 1 }'));
ENDSEC;
DATA;
#1 = APPLICATION_PROTOCOL_DEFINITION('international standard',
  'automotive_design',2000,#2);
#2 = APPLICATION_CONTEXT(
  'core data for automotive mechanical design processes');
#3 = SHAPE_DEFINITION_REPRESENTATION(#4,#10);
#4 = PRODUCT_DEFINITION_SHAPE('','',#5);
#5 = PRODUCT_DEFINITION('design','',#6,#9);
#6 = PRODUCT_DEFINITION_FORMATION('','',#7);
#7 = PRODUCT('Open CASCADE STEP translator 7.9 2',
  'Open CASCADE STEP translator 7.9 2','',(#8));
#8 = PRODUCT_CONTEXT('',#2,'mechanical');
#9 = PRODUCT_DEFINITION_CONTEXT('part definition',#2,'design');
#10 = ADVANCED_BREP_SHAPE_REPRESENTATION('',(#11,#15),#1110);
#11 = AXIS2_PLACEMENT_3D('',#12,#13,#14);
#12 = CARTESIAN_POINT('',(0.,0.,0.));
#13 = DIRECTION('',(0.,0.,1.));
#14 = DIRECTION('',(1.,0.,-0.));
#15 = MANIFOLD_SOLID_BREP('',#16);
#16 = CLOSED_SHELL('',(#17,#258,#340,#416,#521,#658,#734,#810,#881,#953,
    #1013,#1073,#1101));
#17 = ADVANCED_FACE('',(#18),#32,.F.);
#18 = FACE_BOUND('',#19,.F.);
#19 = EDGE_LOOP('',(#20,#55,#115,#148,#208,#231));
#20 = ORIENTED_EDGE('',*,*,#21,.T.);
#21 = EDGE_CURVE('',#22,#24,#26,.T.);
#22 = VERTEX_POINT('',#23);
#23 = CARTESIAN_POINT('',(2.5,2.35,4.35));
#24 = VERTEX_POINT('',#25);
#25 = CARTESIAN_POINT('',(2.5,3.5,5.5));
#26 = SURFACE_CURVE('',#27,(#31,#43),.PCURVE_S1.);
#27 = LINE('',#28,#29);
#28 = CARTESIAN_POINT('',(2.5,4.,6.));
#29 = VECTOR('',#30,1.);
#30 = DIRECTION('',(0.,0.707106781187,0.707106781187));
#31 = PCURVE('',#32,#37);
#32 = CONICAL_SURFACE('',#33,3.25,0.785398163397);
#33 = AXIS2_PLACEMENT_3D('',#34,#35,#36);
#34 = CARTESIAN_POINT('',(2.5,4.,2.75));
#35 = DIRECTION('',(-0.,1.,-0.));
#36 = DIRECTION('',(0.,0.,1.));
#37 = DEFINITIONAL_REPRESENTATION('',(#38),#42);
#38 = LINE('',#39,#40);
#39 = CARTESIAN_POINT('',(6.28318530718,0.));
#40 = VECTOR('',#41,1.);
#41 = DIRECTION('',(0.,1.));
#42 = ( GEOMETRIC_REPRESENTATION_CONTEXT(2) 
PARAMETRIC_REPRESENTATION_CONTEXT() REPRESENTATION_CONTEXT('2D SPACE',''
  ) );
#43 = PCURVE('',#44,#49);
#44 = CONICAL_SURFACE('',#45,3.25,0.785398163397);
#45 = AXIS2_PLACEMENT_3D('',#46,#47,#48);
#46 = CARTESIAN_POINT('',(2.5,4.,2.75));
#47 = DIRECTION('',(-0.,1.,-0.));
#48 = DIRECTION('',(0.,0.,1.));
#49 = DEFINITIONAL_REPRESENTATION('',(#50),#54);
#50 = LINE('',#51,#52);
#51 = CARTESIAN_POINT('',(0.,0.));
#52 = VECTOR('',#53,1.);
#53 = DIRECTION('',(0.,1.));
#54 = ( GEOMETRIC_REPRESENTATION_CONTEXT(2) 
PARAMETRIC_REPRESENTATION_CONTEXT() REPRESENTATION_CONTEXT('2D SPACE',''
  ) );
#55 = ORIENTED_EDGE('',*,*,#56,.T.);
#56 = EDGE_CURVE('',#24,#57,#59,.T.);
#57 = VERTEX_POINT('',#58);
#58 = CARTESIAN_POINT('',(0.767949192431,4.,5.5));
#59 = SURFACE_CURVE('',#60,(#69,#98),.PCURVE_S1.);
#60 = B_SPLINE_CURVE_WITH_KNOTS('',3,(#61,#62,#63,#64,#65,#66,#67,#68),
  .UNSPECIFIED.,.F.,.F.,(4,2,2,4),(1.495166273839E-02,1.58568271143E-02,
    1.630940930225E-02,1.67619914902E-02),.UNSPECIFIED.);
#61 = CARTESIAN_POINT('',(2.5,3.5,5.5));
#62 = CARTESIAN_POINT('',(2.192576563367,3.5,5.5));
#63 = CARTESIAN_POINT('',(1.894676690656,3.55220979321,5.5));
#64 = CARTESIAN_POINT('',(1.458212925539,3.687462538075,5.5));
#65 = CARTESIAN_POINT('',(1.314424630242,3.742054085243,5.5));
#66 = CARTESIAN_POINT('',(1.036255789063,3.862771402897,5.5));
#67 = CARTESIAN_POINT('',(0.900797090617,3.929200212512,5.5));
#68 = CARTESIAN_POINT('',(0.767949192431,4.,5.5));
#69 = PCURVE('',#32,#70);
#70 = DEFINITIONAL_REPRESENTATION('',(#71),#97);
#71 = B_SPLINE_CURVE_WITH_KNOTS('',3,(#72,#73,#74,#75,#76,#77,#78,#79,
    #80,#81,#82,#83,#84,#85,#86,#87,#88,#89,#90,#91,#92,#93,#94,#95,#96)
  ,.UNSPECIFIED.,.F.,.F.,(4,1,1,1,1,1,1,1,1,1,1,1,1,1,1,1,1,1,1,1,1,1,4)
  ,(1.495166273839E-02,1.503395040893E-02,1.511623807947E-02,
    1.519852575E-02,1.528081342054E-02,1.536310109108E-02,
    1.544538876161E-02,1.552767643215E-02,1.560996410269E-02,
    1.569225177322E-02,1.577453944376E-02,1.58568271143E-02,
    1.593911478483E-02,1.602140245537E-02,1.610369012591E-02,
    1.618597779644E-02,1.626826546698E-02,1.635055313752E-02,
    1.643284080806E-02,1.651512847859E-02,1.659741614913E-02,
    1.667970381967E-02,1.67619914902E-02),.QUASI_UNIFORM_KNOTS.);
#72 = CARTESIAN_POINT('',(6.28318530718,-0.5));
#73 = CARTESIAN_POINT('',(6.273022340637,-0.500000206036));
#74 = CARTESIAN_POINT('',(6.252754427343,-0.499142307076));
#75 = CARTESIAN_POINT('',(6.222575276035,-0.495338301827));
#76 = CARTESIAN_POINT('',(6.192668585022,-0.489074000335));
#77 = CARTESIAN_POINT('',(6.163080307572,-0.480409468194));
#78 = CARTESIAN_POINT('',(6.133853429452,-0.469406549458));
#79 = CARTESIAN_POINT('',(6.105027357873,-0.456128902553));
#80 = CARTESIAN_POINT('',(6.076637794774,-0.44064163562));
#81 = CARTESIAN_POINT('',(6.048716566463,-0.423011023308));
#82 = CARTESIAN_POINT('',(6.021291601524,-0.40330427829));
#83 = CARTESIAN_POINT('',(5.994386798333,-0.381589038085));
#84 = CARTESIAN_POINT('',(5.968022593189,-0.357933983355));
#85 = CARTESIAN_POINT('',(5.942214202116,-0.332405289773));
#86 = CARTESIAN_POINT('',(5.917011532684,-0.305125735685));
#87 = CARTESIAN_POINT('',(5.892459353265,-0.276225451451));
#88 = CARTESIAN_POINT('',(5.868596769883,-0.245839862088));
#89 = CARTESIAN_POINT('',(5.845453089404,-0.214102814807));
#90 = CARTESIAN_POINT('',(5.823065913088,-0.181172143109));
#91 = CARTESIAN_POINT('',(5.801362415268,-0.147063668345));
#92 = CARTESIAN_POINT('',(5.780326880717,-0.111845063283));
#93 = CARTESIAN_POINT('',(5.759938246231,-7.557921813048E-02));
#94 = CARTESIAN_POINT('',(5.740175886254,-3.832694798983E-02));
#95 = CARTESIAN_POINT('',(5.727404136335,-1.287246882432E-02));
#96 = CARTESIAN_POINT('',(5.721115504174,-2.22044604925E-15));
#97 = ( GEOMETRIC_REPRESENTATION_CONTEXT(2) 
PARAMETRIC_REPRESENTATION_CONTEXT() REPRESENTATION_CONTEXT('2D SPACE',''
  ) );
#98 = PCURVE('',#99,#104);
#99 = PLANE('',#100);
#100 = AXIS2_PLACEMENT_3D('',#101,#102,#103);
#101 = CARTESIAN_POINT('',(5.,-3.,5.5));
#102 = DIRECTION('',(0.,0.,-1.));
#103 = DIRECTION('',(-1.,0.,-0.));
#104 = DEFINITIONAL_REPRESENTATION('',(#105),#114);
#105 = B_SPLINE_CURVE_WITH_KNOTS('',3,(#106,#107,#108,#109,#110,#111,
    #112,#113),.UNSPECIFIED.,.F.,.F.,(4,2,2,4),(1.495166273839E-02,
    1.58568271143E-02,1.630940930225E-02,1.67619914902E-02),
  .UNSPECIFIED.);
#106 = CARTESIAN_POINT('',(2.5,6.5));
#107 = CARTESIAN_POINT('',(2.807423436633,6.5));
#108 = CARTESIAN_POINT('',(3.105323309344,6.55220979321));
#109 = CARTESIAN_POINT('',(3.541787074461,6.687462538075));
#110 = CARTESIAN_POINT('',(3.685575369757,6.742054085243));
#111 = CARTESIAN_POINT('',(3.963744210937,6.862771402897));
#112 = CARTESIAN_POINT('',(4.099202909383,6.929200212512));
#113 = CARTESIAN_POINT('',(4.232050807569,7.));
#114 = ( GEOMETRIC_REPRESENTATION_CONTEXT(2) 
PARAMETRIC_REPRESENTATION_CONTEXT() REPRESENTATION_CONTEXT('2D SPACE',''
  ) );
#115 = ORIENTED_EDGE('',*,*,#116,.F.);
#116 = EDGE_CURVE('',#117,#57,#119,.T.);
#117 = VERTEX_POINT('',#118);
#118 = CARTESIAN_POINT('',(0.767949192431,4.,0.));
#119 = SURFACE_CURVE('',#120,(#125,#132),.PCURVE_S1.);
#120 = CIRCLE('',#121,3.25);
#121 = AXIS2_PLACEMENT_3D('',#122,#123,#124);
#122 = CARTESIAN_POINT('',(2.5,4.,2.75));
#123 = DIRECTION('',(-0.,1.,0.));
#124 = DIRECTION('',(0.,0.,1.));
#125 = PCURVE('',#32,#126);
#126 = DEFINITIONAL_REPRESENTATION('',(#127),#131);
#127 = LINE('',#128,#129);
#128 = CARTESIAN_POINT('',(0.,0.));
#129 = VECTOR('',#130,1.);
#130 = DIRECTION('',(1.,0.));
#131 = ( GEOMETRIC_REPRESENTATION_CONTEXT(2) 
PARAMETRIC_REPRESENTATION_CONTEXT() REPRESENTATION_CONTEXT('2D SPACE',''
  ) );
#132 = PCURVE('',#133,#138);
#133 = PLANE('',#134);
#134 = AXIS2_PLACEMENT_3D('',#135,#136,#137);
#135 = CARTESIAN_POINT('',(-2.5,4.,5.5));
#136 = DIRECTION('',(2.668805347657E-16,-1.,0.));
#137 = DIRECTION('',(1.,2.668805347657E-16,0.));
#138 = DEFINITIONAL_REPRESENTATION('',(#139),#147);
#139 = ( BOUNDED_CURVE() B_SPLINE_CURVE(2,(#140,#141,#142,#143,#144,#145
,#146),.UNSPECIFIED.,.T.,.F.) B_SPLINE_CURVE_WITH_KNOTS((1,2,2,2,2,1),(
    -2.094395102393,0.,2.094395102393,4.188790204786,6.28318530718,
8.377580409573),.UNSPECIFIED.) CURVE() GEOMETRIC_REPRESENTATION_ITEM() 
RATIONAL_B_SPLINE_CURVE((1.,0.5,1.,0.5,1.,0.5,1.)) REPRESENTATION_ITEM(
  '') );
#140 = CARTESIAN_POINT('',(5.,0.5));
#141 = CARTESIAN_POINT('',(10.629165124599,0.5));
#142 = CARTESIAN_POINT('',(7.814582562299,-4.375));
#143 = CARTESIAN_POINT('',(5.,-9.25));
#144 = CARTESIAN_POINT('',(2.185417437701,-4.375));
#145 = CARTESIAN_POINT('',(-0.629165124599,0.5));
#146 = CARTESIAN_POINT('',(5.,0.5));
#147 = ( GEOMETRIC_REPRESENTATION_CONTEXT(2) 
PARAMETRIC_REPRESENTATION_CONTEXT() REPRESENTATION_CONTEXT('2D SPACE',''
  ) );
#148 = ORIENTED_EDGE('',*,*,#149,.F.);
#149 = EDGE_CURVE('',#150,#117,#152,.T.);
#150 = VERTEX_POINT('',#151);
#151 = CARTESIAN_POINT('',(2.5,3.5,0.));
#152 = SURFACE_CURVE('',#153,(#162,#191),.PCURVE_S1.);
#153 = B_SPLINE_CURVE_WITH_KNOTS('',3,(#154,#155,#156,#157,#158,#159,
    #160,#161),.UNSPECIFIED.,.F.,.F.,(4,2,2,4),(1.495166273832E-02,
    1.585682711422E-02,1.630940930217E-02,1.676199149012E-02),
  .UNSPECIFIED.);
#154 = CARTESIAN_POINT('',(2.5,3.5,0.));
#155 = CARTESIAN_POINT('',(2.192576563367,3.5,-0.));
#156 = CARTESIAN_POINT('',(1.894676690656,3.55220979321,-0.));
#157 = CARTESIAN_POINT('',(1.458212925539,3.687462538075,-0.));
#158 = CARTESIAN_POINT('',(1.314424630242,3.742054085243,0.));
#159 = CARTESIAN_POINT('',(1.036255789063,3.862771402897,-0.));
#160 = CARTESIAN_POINT('',(0.900797090617,3.929200212512,-0.));
#161 = CARTESIAN_POINT('',(0.767949192431,4.,0.));
#162 = PCURVE('',#32,#163);
#163 = DEFINITIONAL_REPRESENTATION('',(#164),#190);
#164 = B_SPLINE_CURVE_WITH_KNOTS('',3,(#165,#166,#167,#168,#169,#170,
    #171,#172,#173,#174,#175,#176,#177,#178,#179,#180,#181,#182,#183,
    #184,#185,#186,#187,#188,#189),.UNSPECIFIED.,.F.,.F.,(4,1,1,1,1,1,1,
    1,1,1,1,1,1,1,1,1,1,1,1,1,1,1,4),(1.495166273832E-02,
    1.503395040885E-02,1.511623807939E-02,1.519852574993E-02,
    1.528081342046E-02,1.5363101091E-02,1.544538876154E-02,
    1.552767643207E-02,1.560996410261E-02,1.569225177315E-02,
    1.577453944368E-02,1.585682711422E-02,1.593911478476E-02,
    1.602140245529E-02,1.610369012583E-02,1.618597779637E-02,
    1.62682654669E-02,1.635055313744E-02,1.643284080798E-02,
    1.651512847851E-02,1.659741614905E-02,1.667970381959E-02,
    1.676199149012E-02),.QUASI_UNIFORM_KNOTS.);
#165 = CARTESIAN_POINT('',(3.14159265359,-0.5));
#166 = CARTESIAN_POINT('',(3.151755620132,-0.500000206036));
#167 = CARTESIAN_POINT('',(3.172023533427,-0.499142307076));
#168 = CARTESIAN_POINT('',(3.202202684735,-0.495338301827));
#169 = CARTESIAN_POINT('',(3.232109375748,-0.489074000335));
#170 = CARTESIAN_POINT('',(3.261697653197,-0.480409468194));
#171 = CARTESIAN_POINT('',(3.290924531318,-0.469406549458));
#172 = CARTESIAN_POINT('',(3.319750602896,-0.456128902553));
#173 = CARTESIAN_POINT('',(3.348140165995,-0.44064163562));
#174 = CARTESIAN_POINT('',(3.376061394307,-0.423011023308));
#175 = CARTESIAN_POINT('',(3.403486359246,-0.40330427829));
#176 = CARTESIAN_POINT('',(3.430391162436,-0.381589038085));
#177 = CARTESIAN_POINT('',(3.45675536758,-0.357933983355));
#178 = CARTESIAN_POINT('',(3.482563758654,-0.332405289773));
#179 = CARTESIAN_POINT('',(3.507766428085,-0.305125735685));
#180 = CARTESIAN_POINT('',(3.532318607504,-0.276225451451));
#181 = CARTESIAN_POINT('',(3.556181190886,-0.245839862088));
#182 = CARTESIAN_POINT('',(3.579324871365,-0.214102814807));
#183 = CARTESIAN_POINT('',(3.601712047682,-0.181172143109));
#184 = CARTESIAN_POINT('',(3.623415545501,-0.147063668345));
#185 = CARTESIAN_POINT('',(3.644451080052,-0.111845063283));
#186 = CARTESIAN_POINT('',(3.664839714538,-7.557921813048E-02));
#187 = CARTESIAN_POINT('',(3.684602074515,-3.832694798983E-02));
#188 = CARTESIAN_POINT('',(3.697373824434,-1.287246882432E-02));
#189 = CARTESIAN_POINT('',(3.703662456595,2.22044604925E-16));
#190 = ( GEOMETRIC_REPRESENTATION_CONTEXT(2) 
PARAMETRIC_REPRESENTATION_CONTEXT() REPRESENTATION_CONTEXT('2D SPACE',''
  ) );
#191 = PCURVE('',#192,#197);
#192 = PLANE('',#193);
#193 = AXIS2_PLACEMENT_3D('',#194,#195,#196);
#194 = CARTESIAN_POINT('',(5.,-3.,0.));
#195 = DIRECTION('',(0.,0.,-1.));
#196 = DIRECTION('',(-1.,0.,-0.));
#197 = DEFINITIONAL_REPRESENTATION('',(#198),#207);
#198 = B_SPLINE_CURVE_WITH_KNOTS('',3,(#199,#200,#201,#202,#203,#204,
    #205,#206),.UNSPECIFIED.,.F.,.F.,(4,2,2,4),(1.495166273832E-02,
    1.585682711422E-02,1.630940930217E-02,1.676199149012E-02),
  .UNSPECIFIED.);
#199 = CARTESIAN_POINT('',(2.5,6.5));
#200 = CARTESIAN_POINT('',(2.807423436633,6.5));
#201 = CARTESIAN_POINT('',(3.105323309344,6.55220979321));
#202 = CARTESIAN_POINT('',(3.541787074461,6.687462538075));
#203 = CARTESIAN_POINT('',(3.685575369757,6.742054085243));
#204 = CARTESIAN_POINT('',(3.963744210937,6.862771402897));
#205 = CARTESIAN_POINT('',(4.099202909383,6.929200212512));
#206 = CARTESIAN_POINT('',(4.232050807569,7.));
#207 = ( GEOMETRIC_REPRESENTATION_CONTEXT(2) 
PARAMETRIC_REPRESENTATION_CONTEXT() REPRESENTATION_CONTEXT('2D SPACE',''
  ) );
#208 = ORIENTED_EDGE('',*,*,#209,.F.);
#209 = EDGE_CURVE('',#210,#150,#212,.T.);
#210 = VERTEX_POINT('',#211);
#211 = CARTESIAN_POINT('',(2.5,2.35,1.15));
#212 = SURFACE_CURVE('',#213,(#217,#224),.PCURVE_S1.);
#213 = LINE('',#214,#215);
#214 = CARTESIAN_POINT('',(2.5,4.,-0.5));
#215 = VECTOR('',#216,1.);
#216 = DIRECTION('',(8.659560562355E-17,0.707106781187,-0.707106781187)
  );
#217 = PCURVE('',#32,#218);
#218 = DEFINITIONAL_REPRESENTATION('',(#219),#223);
#219 = LINE('',#220,#221);
#220 = CARTESIAN_POINT('',(3.14159265359,3.140184917368E-16));
#221 = VECTOR('',#222,1.);
#222 = DIRECTION('',(0.,1.));
#223 = ( GEOMETRIC_REPRESENTATION_CONTEXT(2) 
PARAMETRIC_REPRESENTATION_CONTEXT() REPRESENTATION_CONTEXT('2D SPACE',''
  ) );
#224 = PCURVE('',#44,#225);
#225 = DEFINITIONAL_REPRESENTATION('',(#226),#230);
#226 = LINE('',#227,#228);
#227 = CARTESIAN_POINT('',(3.14159265359,3.140184917368E-16));
#228 = VECTOR('',#229,1.);
#229 = DIRECTION('',(0.,1.));
#230 = ( GEOMETRIC_REPRESENTATION_CONTEXT(2) 
PARAMETRIC_REPRESENTATION_CONTEXT() REPRESENTATION_CONTEXT('2D SPACE',''
  ) );
#231 = ORIENTED_EDGE('',*,*,#232,.T.);
#232 = EDGE_CURVE('',#210,#22,#233,.T.);
#233 = SURFACE_CURVE('',#234,(#239,#246),.PCURVE_S1.);
#234 = CIRCLE('',#235,1.6);
#235 = AXIS2_PLACEMENT_3D('',#236,#237,#238);
#236 = CARTESIAN_POINT('',(2.5,2.35,2.75));
#237 = DIRECTION('',(-0.,1.,0.));
#238 = DIRECTION('',(0.,0.,1.));
#239 = PCURVE('',#32,#240);
#240 = DEFINITIONAL_REPRESENTATION('',(#241),#245);
#241 = LINE('',#242,#243);
#242 = CARTESIAN_POINT('',(0.,-1.65));
#243 = VECTOR('',#244,1.);
#244 = DIRECTION('',(1.,0.));
#245 = ( GEOMETRIC_REPRESENTATION_CONTEXT(2) 
PARAMETRIC_REPRESENTATION_CONTEXT() REPRESENTATION_CONTEXT('2D SPACE',''
  ) );
#246 = PCURVE('',#247,#252);
#247 = CYLINDRICAL_SURFACE('',#248,1.6);
#248 = AXIS2_PLACEMENT_3D('',#249,#250,#251);
#249 = CARTESIAN_POINT('',(2.5,4.,2.75));
#250 = DIRECTION('',(-0.,1.,-0.));
#251 = DIRECTION('',(0.,0.,1.));
#252 = DEFINITIONAL_REPRESENTATION('',(#253),#257);
#253 = LINE('',#254,#255);
#254 = CARTESIAN_POINT('',(0.,-1.65));
#255 = VECTOR('',#256,1.);
#256 = DIRECTION('',(1.,0.));
#257 = ( GEOMETRIC_REPRESENTATION_CONTEXT(2) 
PARAMETRIC_REPRESENTATION_CONTEXT() REPRESENTATION_CONTEXT('2D SPACE',''
  ) );
#258 = ADVANCED_FACE('',(#259),#247,.F.);
#259 = FACE_BOUND('',#260,.F.);
#260 = EDGE_LOOP('',(#261,#289,#290,#313));
#261 = ORIENTED_EDGE('',*,*,#262,.T.);
#262 = EDGE_CURVE('',#263,#22,#265,.T.);
#263 = VERTEX_POINT('',#264);
#264 = CARTESIAN_POINT('',(2.5,-3.,4.35));
#265 = SURFACE_CURVE('',#266,(#270,#277),.PCURVE_S1.);
#266 = LINE('',#267,#268);
#267 = CARTESIAN_POINT('',(2.5,4.,4.35));
#268 = VECTOR('',#269,1.);
#269 = DIRECTION('',(-0.,1.,-0.));
#270 = PCURVE('',#247,#271);
#271 = DEFINITIONAL_REPRESENTATION('',(#272),#276);
#272 = LINE('',#273,#274);
#273 = CARTESIAN_POINT('',(6.28318530718,0.));
#274 = VECTOR('',#275,1.);
#275 = DIRECTION('',(0.,1.));
#276 = ( GEOMETRIC_REPRESENTATION_CONTEXT(2) 
PARAMETRIC_REPRESENTATION_CONTEXT() REPRESENTATION_CONTEXT('2D SPACE',''
  ) );
#277 = PCURVE('',#278,#283);
#278 = CYLINDRICAL_SURFACE('',#279,1.6);
#279 = AXIS2_PLACEMENT_3D('',#280,#281,#282);
#280 = CARTESIAN_POINT('',(2.5,4.,2.75));
#281 = DIRECTION('',(-0.,1.,-0.));
#282 = DIRECTION('',(0.,0.,1.));
#283 = DEFINITIONAL_REPRESENTATION('',(#284),#288);
#284 = LINE('',#285,#286);
#285 = CARTESIAN_POINT('',(0.,0.));
#286 = VECTOR('',#287,1.);
#287 = DIRECTION('',(0.,1.));
#288 = ( GEOMETRIC_REPRESENTATION_CONTEXT(2) 
PARAMETRIC_REPRESENTATION_CONTEXT() REPRESENTATION_CONTEXT('2D SPACE',''
  ) );
#289 = ORIENTED_EDGE('',*,*,#232,.F.);
#290 = ORIENTED_EDGE('',*,*,#291,.F.);
#291 = EDGE_CURVE('',#292,#210,#294,.T.);
#292 = VERTEX_POINT('',#293);
#293 = CARTESIAN_POINT('',(2.5,-3.,1.15));
#294 = SURFACE_CURVE('',#295,(#299,#306),.PCURVE_S1.);
#295 = LINE('',#296,#297);
#296 = CARTESIAN_POINT('',(2.5,4.,1.15));
#297 = VECTOR('',#298,1.);
#298 = DIRECTION('',(-0.,1.,-0.));
#299 = PCURVE('',#247,#300);
#300 = DEFINITIONAL_REPRESENTATION('',(#301),#305);
#301 = LINE('',#302,#303);
#302 = CARTESIAN_POINT('',(3.14159265359,0.));
#303 = VECTOR('',#304,1.);
#304 = DIRECTION('',(0.,1.));
#305 = ( GEOMETRIC_REPRESENTATION_CONTEXT(2) 
PARAMETRIC_REPRESENTATION_CONTEXT() REPRESENTATION_CONTEXT('2D SPACE',''
  ) );
#306 = PCURVE('',#278,#307);
#307 = DEFINITIONAL_REPRESENTATION('',(#308),#312);
#308 = LINE('',#309,#310);
#309 = CARTESIAN_POINT('',(3.14159265359,0.));
#310 = VECTOR('',#311,1.);
#311 = DIRECTION('',(0.,1.));
#312 = ( GEOMETRIC_REPRESENTATION_CONTEXT(2) 
PARAMETRIC_REPRESENTATION_CONTEXT() REPRESENTATION_CONTEXT('2D SPACE',''
  ) );
#313 = ORIENTED_EDGE('',*,*,#314,.T.);
#314 = EDGE_CURVE('',#292,#263,#315,.T.);
#315 = SURFACE_CURVE('',#316,(#321,#328),.PCURVE_S1.);
#316 = CIRCLE('',#317,1.6);
#317 = AXIS2_PLACEMENT_3D('',#318,#319,#320);
#318 = CARTESIAN_POINT('',(2.5,-3.,2.75));
#319 = DIRECTION('',(-0.,1.,0.));
#320 = DIRECTION('',(0.,0.,1.));
#321 = PCURVE('',#247,#322);
#322 = DEFINITIONAL_REPRESENTATION('',(#323),#327);
#323 = LINE('',#324,#325);
#324 = CARTESIAN_POINT('',(0.,-7.));
#325 = VECTOR('',#326,1.);
#326 = DIRECTION('',(1.,0.));
#327 = ( GEOMETRIC_REPRESENTATION_CONTEXT(2) 
PARAMETRIC_REPRESENTATION_CONTEXT() REPRESENTATION_CONTEXT('2D SPACE',''
  ) );
#328 = PCURVE('',#329,#334);
#329 = PLANE('',#330);
#330 = AXIS2_PLACEMENT_3D('',#331,#332,#333);
#331 = CARTESIAN_POINT('',(5.,-3.,5.5));
#332 = DIRECTION('',(-1.734723475977E-16,1.,0.));
#333 = DIRECTION('',(-1.,-1.734723475977E-16,0.));
#334 = DEFINITIONAL_REPRESENTATION('',(#335),#339);
#335 = CIRCLE('',#336,1.6);
#336 = AXIS2_PLACEMENT_2D('',#337,#338);
#337 = CARTESIAN_POINT('',(2.5,-2.75));
#338 = DIRECTION('',(0.,1.));
#339 = ( GEOMETRIC_REPRESENTATION_CONTEXT(2) 
PARAMETRIC_REPRESENTATION_CONTEXT() REPRESENTATION_CONTEXT('2D SPACE',''
  ) );
#340 = ADVANCED_FACE('',(#341),#133,.F.);
#341 = FACE_BOUND('',#342,.T.);
#342 = EDGE_LOOP('',(#343,#344,#367,#395));
#343 = ORIENTED_EDGE('',*,*,#116,.F.);
#344 = ORIENTED_EDGE('',*,*,#345,.T.);
#345 = EDGE_CURVE('',#117,#346,#348,.T.);
#346 = VERTEX_POINT('',#347);
#347 = CARTESIAN_POINT('',(-2.5,4.,0.));
#348 = SURFACE_CURVE('',#349,(#353,#360),.PCURVE_S1.);
#349 = LINE('',#350,#351);
#350 = CARTESIAN_POINT('',(-2.5,4.,0.));
#351 = VECTOR('',#352,1.);
#352 = DIRECTION('',(-1.,-2.668805347657E-16,-0.));
#353 = PCURVE('',#133,#354);
#354 = DEFINITIONAL_REPRESENTATION('',(#355),#359);
#355 = LINE('',#356,#357);
#356 = CARTESIAN_POINT('',(0.,-5.5));
#357 = VECTOR('',#358,1.);
#358 = DIRECTION('',(-1.,0.));
#359 = ( GEOMETRIC_REPRESENTATION_CONTEXT(2) 
PARAMETRIC_REPRESENTATION_CONTEXT() REPRESENTATION_CONTEXT('2D SPACE',''
  ) );
#360 = PCURVE('',#192,#361);
#361 = DEFINITIONAL_REPRESENTATION('',(#362),#366);
#362 = LINE('',#363,#364);
#363 = CARTESIAN_POINT('',(7.5,7.));
#364 = VECTOR('',#365,1.);
#365 = DIRECTION('',(1.,-2.668805347657E-16));
#366 = ( GEOMETRIC_REPRESENTATION_CONTEXT(2) 
PARAMETRIC_REPRESENTATION_CONTEXT() REPRESENTATION_CONTEXT('2D SPACE',''
  ) );
#367 = ORIENTED_EDGE('',*,*,#368,.F.);
#368 = EDGE_CURVE('',#369,#346,#371,.T.);
#369 = VERTEX_POINT('',#370);
#370 = CARTESIAN_POINT('',(-2.5,4.,5.5));
#371 = SURFACE_CURVE('',#372,(#376,#383),.PCURVE_S1.);
#372 = LINE('',#373,#374);
#373 = CARTESIAN_POINT('',(-2.5,4.,5.5));
#374 = VECTOR('',#375,1.);
#375 = DIRECTION('',(-0.,-0.,-1.));
#376 = PCURVE('',#133,#377);
#377 = DEFINITIONAL_REPRESENTATION('',(#378),#382);
#378 = LINE('',#379,#380);
#379 = CARTESIAN_POINT('',(0.,0.));
#380 = VECTOR('',#381,1.);
#381 = DIRECTION('',(0.,-1.));
#382 = ( GEOMETRIC_REPRESENTATION_CONTEXT(2) 
PARAMETRIC_REPRESENTATION_CONTEXT() REPRESENTATION_CONTEXT('2D SPACE',''
  ) );
#383 = PCURVE('',#384,#389);
#384 = PLANE('',#385);
#385 = AXIS2_PLACEMENT_3D('',#386,#387,#388);
#386 = CARTESIAN_POINT('',(-2.5,-1.301042606983E-15,5.5));
#387 = DIRECTION('',(1.,2.168404344971E-16,-0.));
#388 = DIRECTION('',(-2.168404344971E-16,1.,0.));
#389 = DEFINITIONAL_REPRESENTATION('',(#390),#394);
#390 = LINE('',#391,#392);
#391 = CARTESIAN_POINT('',(4.,0.));
#392 = VECTOR('',#393,1.);
#393 = DIRECTION('',(0.,-1.));
#394 = ( GEOMETRIC_REPRESENTATION_CONTEXT(2) 
PARAMETRIC_REPRESENTATION_CONTEXT() REPRESENTATION_CONTEXT('2D SPACE',''
  ) );
#395 = ORIENTED_EDGE('',*,*,#396,.F.);
#396 = EDGE_CURVE('',#57,#369,#397,.T.);
#397 = SURFACE_CURVE('',#398,(#402,#409),.PCURVE_S1.);
#398 = LINE('',#399,#400);
#399 = CARTESIAN_POINT('',(-2.5,4.,5.5));
#400 = VECTOR('',#401,1.);
#401 = DIRECTION('',(-1.,-2.668805347657E-16,-0.));
#402 = PCURVE('',#133,#403);
#403 = DEFINITIONAL_REPRESENTATION('',(#404),#408);
#404 = LINE('',#405,#406);
#405 = CARTESIAN_POINT('',(0.,0.));
#406 = VECTOR('',#407,1.);
#407 = DIRECTION('',(-1.,0.));
#408 = ( GEOMETRIC_REPRESENTATION_CONTEXT(2) 
PARAMETRIC_REPRESENTATION_CONTEXT() REPRESENTATION_CONTEXT('2D SPACE',''
  ) );
#409 = PCURVE('',#99,#410);
#410 = DEFINITIONAL_REPRESENTATION('',(#411),#415);
#411 = LINE('',#412,#413);
#412 = CARTESIAN_POINT('',(7.5,7.));
#413 = VECTOR('',#414,1.);
#414 = DIRECTION('',(1.,-2.668805347657E-16));
#415 = ( GEOMETRIC_REPRESENTATION_CONTEXT(2) 
PARAMETRIC_REPRESENTATION_CONTEXT() REPRESENTATION_CONTEXT('2D SPACE',''
  ) );
#416 = ADVANCED_FACE('',(#417),#431,.F.);
#417 = FACE_BOUND('',#418,.T.);
#418 = EDGE_LOOP('',(#419,#449,#477,#500));
#419 = ORIENTED_EDGE('',*,*,#420,.T.);
#420 = EDGE_CURVE('',#421,#423,#425,.T.);
#421 = VERTEX_POINT('',#422);
#422 = CARTESIAN_POINT('',(5.,-3.,0.));
#423 = VERTEX_POINT('',#424);
#424 = CARTESIAN_POINT('',(5.,3.,0.));
#425 = SURFACE_CURVE('',#426,(#430,#442),.PCURVE_S1.);
#426 = LINE('',#427,#428);
#427 = CARTESIAN_POINT('',(5.,3.,0.));
#428 = VECTOR('',#429,1.);
#429 = DIRECTION('',(-1.445602896647E-16,1.,-0.));
#430 = PCURVE('',#431,#436);
#431 = PLANE('',#432);
#432 = AXIS2_PLACEMENT_3D('',#433,#434,#435);
#433 = CARTESIAN_POINT('',(5.,3.,5.5));
#434 = DIRECTION('',(-1.,-1.445602896647E-16,0.));
#435 = DIRECTION('',(1.445602896647E-16,-1.,0.));
#436 = DEFINITIONAL_REPRESENTATION('',(#437),#441);
#437 = LINE('',#438,#439);
#438 = CARTESIAN_POINT('',(0.,-5.5));
#439 = VECTOR('',#440,1.);
#440 = DIRECTION('',(-1.,0.));
#441 = ( GEOMETRIC_REPRESENTATION_CONTEXT(2) 
PARAMETRIC_REPRESENTATION_CONTEXT() REPRESENTATION_CONTEXT('2D SPACE',''
  ) );
#442 = PCURVE('',#192,#443);
#443 = DEFINITIONAL_REPRESENTATION('',(#444),#448);
#444 = LINE('',#445,#446);
#445 = CARTESIAN_POINT('',(8.881784197001E-16,6.));
#446 = VECTOR('',#447,1.);
#447 = DIRECTION('',(1.445602896647E-16,1.));
#448 = ( GEOMETRIC_REPRESENTATION_CONTEXT(2) 
PARAMETRIC_REPRESENTATION_CONTEXT() REPRESENTATION_CONTEXT('2D SPACE',''
  ) );
#449 = ORIENTED_EDGE('',*,*,#450,.F.);
#450 = EDGE_CURVE('',#451,#423,#453,.T.);
#451 = VERTEX_POINT('',#452);
#452 = CARTESIAN_POINT('',(5.,3.,5.5));
#453 = SURFACE_CURVE('',#454,(#458,#465),.PCURVE_S1.);
#454 = LINE('',#455,#456);
#455 = CARTESIAN_POINT('',(5.,3.,5.5));
#456 = VECTOR('',#457,1.);
#457 = DIRECTION('',(-0.,-0.,-1.));
#458 = PCURVE('',#431,#459);
#459 = DEFINITIONAL_REPRESENTATION('',(#460),#464);
#460 = LINE('',#461,#462);
#461 = CARTESIAN_POINT('',(0.,0.));
#462 = VECTOR('',#463,1.);
#463 = DIRECTION('',(0.,-1.));
#464 = ( GEOMETRIC_REPRESENTATION_CONTEXT(2) 
PARAMETRIC_REPRESENTATION_CONTEXT() REPRESENTATION_CONTEXT('2D SPACE',''
  ) );
#465 = PCURVE('',#466,#471);
#466 = PLANE('',#467);
#467 = AXIS2_PLACEMENT_3D('',#468,#469,#470);
#468 = CARTESIAN_POINT('',(4.,4.,5.5));
#469 = DIRECTION('',(-0.707106781187,-0.707106781187,0.));
#470 = DIRECTION('',(0.707106781187,-0.707106781187,0.));
#471 = DEFINITIONAL_REPRESENTATION('',(#472),#476);
#472 = LINE('',#473,#474);
#473 = CARTESIAN_POINT('',(1.414213562373,0.));
#474 = VECTOR('',#475,1.);
#475 = DIRECTION('',(0.,-1.));
#476 = ( GEOMETRIC_REPRESENTATION_CONTEXT(2) 
PARAMETRIC_REPRESENTATION_CONTEXT() REPRESENTATION_CONTEXT('2D SPACE',''
  ) );
#477 = ORIENTED_EDGE('',*,*,#478,.F.);
#478 = EDGE_CURVE('',#479,#451,#481,.T.);
#479 = VERTEX_POINT('',#480);
#480 = CARTESIAN_POINT('',(5.,-3.,5.5));
#481 = SURFACE_CURVE('',#482,(#486,#493),.PCURVE_S1.);
#482 = LINE('',#483,#484);
#483 = CARTESIAN_POINT('',(5.,3.,5.5));
#484 = VECTOR('',#485,1.);
#485 = DIRECTION('',(-1.445602896647E-16,1.,-0.));
#486 = PCURVE('',#431,#487);
#487 = DEFINITIONAL_REPRESENTATION('',(#488),#492);
#488 = LINE('',#489,#490);
#489 = CARTESIAN_POINT('',(0.,0.));
#490 = VECTOR('',#491,1.);
#491 = DIRECTION('',(-1.,0.));
#492 = ( GEOMETRIC_REPRESENTATION_CONTEXT(2) 
PARAMETRIC_REPRESENTATION_CONTEXT() REPRESENTATION_CONTEXT('2D SPACE',''
  ) );
#493 = PCURVE('',#99,#494);
#494 = DEFINITIONAL_REPRESENTATION('',(#495),#499);
#495 = LINE('',#496,#497);
#496 = CARTESIAN_POINT('',(8.881784197001E-16,6.));
#497 = VECTOR('',#498,1.);
#498 = DIRECTION('',(1.445602896647E-16,1.));
#499 = ( GEOMETRIC_REPRESENTATION_CONTEXT(2) 
PARAMETRIC_REPRESENTATION_CONTEXT() REPRESENTATION_CONTEXT('2D SPACE',''
  ) );
#500 = ORIENTED_EDGE('',*,*,#501,.T.);
#501 = EDGE_CURVE('',#479,#421,#502,.T.);
#502 = SURFACE_CURVE('',#503,(#507,#514),.PCURVE_S1.);
#503 = LINE('',#504,#505);
#504 = CARTESIAN_POINT('',(5.,-3.,5.5));
#505 = VECTOR('',#506,1.);
#506 = DIRECTION('',(-0.,-0.,-1.));
#507 = PCURVE('',#431,#508);
#508 = DEFINITIONAL_REPRESENTATION('',(#509),#513);
#509 = LINE('',#510,#511);
#510 = CARTESIAN_POINT('',(6.,0.));
#511 = VECTOR('',#512,1.);
#512 = DIRECTION('',(0.,-1.));
#513 = ( GEOMETRIC_REPRESENTATION_CONTEXT(2) 
PARAMETRIC_REPRESENTATION_CONTEXT() REPRESENTATION_CONTEXT('2D SPACE',''
  ) );
#514 = PCURVE('',#329,#515);
#515 = DEFINITIONAL_REPRESENTATION('',(#516),#520);
#516 = LINE('',#517,#518);
#517 = CARTESIAN_POINT('',(0.,0.));
#518 = VECTOR('',#519,1.);
#519 = DIRECTION('',(0.,-1.));
#520 = ( GEOMETRIC_REPRESENTATION_CONTEXT(2) 
PARAMETRIC_REPRESENTATION_CONTEXT() REPRESENTATION_CONTEXT('2D SPACE',''
  ) );
#521 = ADVANCED_FACE('',(#522),#466,.F.);
#522 = FACE_BOUND('',#523,.T.);
#523 = EDGE_LOOP('',(#524,#547,#636,#657));
#524 = ORIENTED_EDGE('',*,*,#525,.T.);
#525 = EDGE_CURVE('',#423,#526,#528,.T.);
#526 = VERTEX_POINT('',#527);
#527 = CARTESIAN_POINT('',(4.078947368421,3.921052631579,
    2.368949094411E-16));
#528 = SURFACE_CURVE('',#529,(#533,#540),.PCURVE_S1.);
#529 = LINE('',#530,#531);
#530 = CARTESIAN_POINT('',(4.,4.,0.));
#531 = VECTOR('',#532,1.);
#532 = DIRECTION('',(-0.707106781187,0.707106781187,-0.));
#533 = PCURVE('',#466,#534);
#534 = DEFINITIONAL_REPRESENTATION('',(#535),#539);
#535 = LINE('',#536,#537);
#536 = CARTESIAN_POINT('',(0.,-5.5));
#537 = VECTOR('',#538,1.);
#538 = DIRECTION('',(-1.,0.));
#539 = ( GEOMETRIC_REPRESENTATION_CONTEXT(2) 
PARAMETRIC_REPRESENTATION_CONTEXT() REPRESENTATION_CONTEXT('2D SPACE',''
  ) );
#540 = PCURVE('',#192,#541);
#541 = DEFINITIONAL_REPRESENTATION('',(#542),#546);
#542 = LINE('',#543,#544);
#543 = CARTESIAN_POINT('',(1.,7.));
#544 = VECTOR('',#545,1.);
#545 = DIRECTION('',(0.707106781187,0.707106781187));
#546 = ( GEOMETRIC_REPRESENTATION_CONTEXT(2) 
PARAMETRIC_REPRESENTATION_CONTEXT() REPRESENTATION_CONTEXT('2D SPACE',''
  ) );
#547 = ORIENTED_EDGE('',*,*,#548,.T.);
#548 = EDGE_CURVE('',#526,#549,#551,.T.);
#549 = VERTEX_POINT('',#550);
#550 = CARTESIAN_POINT('',(4.078947368421,3.921052631579,5.5));
#551 = SURFACE_CURVE('',#552,(#567,#585),.PCURVE_S1.);
#552 = B_SPLINE_CURVE_WITH_KNOTS('',3,(#553,#554,#555,#556,#557,#558,
    #559,#560,#561,#562,#563,#564,#565,#566),.UNSPECIFIED.,.F.,.F.,(4,2,
    2,2,2,2,4),(2.550391987472E-07,1.502119873189E-03,2.253052290184E-03
    ,3.003984707179E-03,3.754917124174E-03,4.50584954117E-03,
    6.00771437516E-03),.UNSPECIFIED.);
#553 = CARTESIAN_POINT('',(4.078947368421,3.921052631579,
    2.368949094411E-16));
#554 = CARTESIAN_POINT('',(4.30623552113,3.69376447887,0.392588627407));
#555 = CARTESIAN_POINT('',(4.501656011709,3.498343988291,0.811133561831)
  );
#556 = CARTESIAN_POINT('',(4.716772355548,3.283227644452,1.50249392131)
  );
#557 = CARTESIAN_POINT('',(4.775370805453,3.224629194547,1.746409920901)
  );
#558 = CARTESIAN_POINT('',(4.853928478749,3.146071521251,2.23922103552)
  );
#559 = CARTESIAN_POINT('',(4.874732993081,3.125267006919,2.489819220424)
  );
#560 = CARTESIAN_POINT('',(4.875261908427,3.124738091573,3.000338455439)
  );
#561 = CARTESIAN_POINT('',(4.854805975524,3.145194024476,3.252487403132)
  );
#562 = CARTESIAN_POINT('',(4.77716412095,3.22283587905,3.745033270176));
#563 = CARTESIAN_POINT('',(4.719125649094,3.280874350906,3.988749278564)
  );
#564 = CARTESIAN_POINT('',(4.503924907055,3.496075092945,4.683904638065)
  );
#565 = CARTESIAN_POINT('',(4.306762676557,3.693237323443,5.106500831402)
  );
#566 = CARTESIAN_POINT('',(4.078947368421,3.921052631579,5.5));
#567 = PCURVE('',#466,#568);
#568 = DEFINITIONAL_REPRESENTATION('',(#569),#584);
#569 = B_SPLINE_CURVE_WITH_KNOTS('',3,(#570,#571,#572,#573,#574,#575,
    #576,#577,#578,#579,#580,#581,#582,#583),.UNSPECIFIED.,.F.,.F.,(4,2,
    2,2,2,2,4),(2.550391987472E-07,1.502119873189E-03,2.253052290184E-03
    ,3.003984707179E-03,3.754917124174E-03,4.50584954117E-03,
    6.00771437516E-03),.UNSPECIFIED.);
#570 = CARTESIAN_POINT('',(0.111648439135,-5.5));
#571 = CARTESIAN_POINT('',(0.433082427263,-5.107411372593));
#572 = CARTESIAN_POINT('',(0.709448735405,-4.688866438169));
#573 = CARTESIAN_POINT('',(1.01366918635,-3.99750607869));
#574 = CARTESIAN_POINT('',(1.09653990894,-3.753590079099));
#575 = CARTESIAN_POINT('',(1.207637235944,-3.26077896448));
#576 = CARTESIAN_POINT('',(1.23705926227,-3.010180779576));
#577 = CARTESIAN_POINT('',(1.237807261526,-2.499661544561));
#578 = CARTESIAN_POINT('',(1.208878203784,-2.247512596868));
#579 = CARTESIAN_POINT('',(1.099076040038,-1.754966729824));
#580 = CARTESIAN_POINT('',(1.016997245999,-1.511250721436));
#581 = CARTESIAN_POINT('',(0.712657437975,-0.816095361935));
#582 = CARTESIAN_POINT('',(0.433827937616,-0.393499168598));
#583 = CARTESIAN_POINT('',(0.111648439135,0.));
#584 = ( GEOMETRIC_REPRESENTATION_CONTEXT(2) 
PARAMETRIC_REPRESENTATION_CONTEXT() REPRESENTATION_CONTEXT('2D SPACE',''
  ) );
#585 = PCURVE('',#44,#586);
#586 = DEFINITIONAL_REPRESENTATION('',(#587),#635);
#587 = B_SPLINE_CURVE_WITH_KNOTS('',3,(#588,#589,#590,#591,#592,#593,
    #594,#595,#596,#597,#598,#599,#600,#601,#602,#603,#604,#605,#606,
    #607,#608,#609,#610,#611,#612,#613,#614,#615,#616,#617,#618,#619,
    #620,#621,#622,#623,#624,#625,#626,#627,#628,#629,#630,#631,#632,
    #633,#634),.UNSPECIFIED.,.F.,.F.,(4,1,1,1,1,1,1,1,1,1,1,1,1,1,1,1,1,
    1,1,1,1,1,1,1,1,1,1,1,1,1,1,1,1,1,1,1,1,1,1,1,1,1,1,1,4),(
    2.550391987472E-07,1.367882059251E-04,2.733213726515E-04,
    4.098545393779E-04,5.463877061043E-04,6.829208728307E-04,
    8.194540395571E-04,9.559872062835E-04,1.09252037301E-03,
    1.229053539736E-03,1.365586706463E-03,1.502119873189E-03,
    1.638653039915E-03,1.775186206642E-03,1.911719373368E-03,
    2.048252540095E-03,2.184785706821E-03,2.321318873547E-03,
    2.457852040274E-03,2.594385207E-03,2.730918373727E-03,
    2.867451540453E-03,3.003984707179E-03,3.140517873906E-03,
    3.277051040632E-03,3.413584207358E-03,3.550117374085E-03,
    3.686650540811E-03,3.823183707538E-03,3.959716874264E-03,
    4.09625004099E-03,4.232783207717E-03,4.369316374443E-03,
    4.50584954117E-03,4.642382707896E-03,4.778915874622E-03,
    4.915449041349E-03,5.051982208075E-03,5.188515374802E-03,
    5.325048541528E-03,5.461581708254E-03,5.598114874981E-03,
    5.734648041707E-03,5.871181208433E-03,6.00771437516E-03),
  .QUASI_UNIFORM_KNOTS.);
#588 = CARTESIAN_POINT('',(2.620387870095,-7.894736842105E-02));
#589 = CARTESIAN_POINT('',(2.609132773235,-9.960960027675E-02));
#590 = CARTESIAN_POINT('',(2.586259997859,-0.140386561418));
#591 = CARTESIAN_POINT('',(2.550824770738,-0.199843759579));
#592 = CARTESIAN_POINT('',(2.514226080503,-0.257528681132));
#593 = CARTESIAN_POINT('',(2.476423307988,-0.313371333284));
#594 = CARTESIAN_POINT('',(2.437373935887,-0.36729684278));
#595 = CARTESIAN_POINT('',(2.397033493217,-0.419224184362));
#596 = CARTESIAN_POINT('',(2.355356370288,-0.469065210738));
#597 = CARTESIAN_POINT('',(2.312295557888,-0.516724513014));
#598 = CARTESIAN_POINT('',(2.267807078284,-0.562095415312));
#599 = CARTESIAN_POINT('',(2.22183823222,-0.605070464442));
#600 = CARTESIAN_POINT('',(2.174377652107,-0.645497812298));
#601 = CARTESIAN_POINT('',(2.125276318035,-0.683339731974));
#602 = CARTESIAN_POINT('',(2.07455470917,-0.718388644744));
#603 = CARTESIAN_POINT('',(2.022405019576,-0.750343959694));
#604 = CARTESIAN_POINT('',(1.969012336193,-0.778975111722));
#605 = CARTESIAN_POINT('',(1.914583646569,-0.804086998606));
#606 = CARTESIAN_POINT('',(1.859387231997,-0.825518958531));
#607 = CARTESIAN_POINT('',(1.803394655311,-0.84324821787));
#608 = CARTESIAN_POINT('',(1.746676597447,-0.857202214615));
#609 = CARTESIAN_POINT('',(1.689300248161,-0.867308959958));
#610 = CARTESIAN_POINT('',(1.631375962976,-0.873493126363));
#611 = CARTESIAN_POINT('',(1.572879814221,-0.875677687818));
#612 = CARTESIAN_POINT('',(1.514315145896,-0.873780826889));
#613 = CARTESIAN_POINT('',(1.456234415191,-0.867860657564));
#614 = CARTESIAN_POINT('',(1.398664887641,-0.857988557469));
#615 = CARTESIAN_POINT('',(1.341769915977,-0.844247876462));
#616 = CARTESIAN_POINT('',(1.285660138938,-0.82672850219));
#617 = CARTESIAN_POINT('',(1.230471301401,-0.805547673862));
#618 = CARTESIAN_POINT('',(1.176033902227,-0.780687769418));
#619 = CARTESIAN_POINT('',(1.122601548293,-0.752295273308));
#620 = CARTESIAN_POINT('',(1.070356681688,-0.720543300743));
#621 = CARTESIAN_POINT('',(1.019469446686,-0.685638609082));
#622 = CARTESIAN_POINT('',(0.970103074388,-0.647839183291));
#623 = CARTESIAN_POINT('',(0.922312759986,-0.607357068242));
#624 = CARTESIAN_POINT('',(0.876008955433,-0.564273534495));
#625 = CARTESIAN_POINT('',(0.831178694917,-0.518735247077));
#626 = CARTESIAN_POINT('',(0.787782930921,-0.470860554264));
#627 = CARTESIAN_POINT('',(0.745785919465,-0.420765463344));
#628 = CARTESIAN_POINT('',(0.705148877528,-0.368557598776));
#629 = CARTESIAN_POINT('',(0.665832906324,-0.314338745072));
#630 = CARTESIAN_POINT('',(0.62779914292,-0.258205109882));
#631 = CARTESIAN_POINT('',(0.591009478181,-0.200248039768));
#632 = CARTESIAN_POINT('',(0.555426712168,-0.140555031925));
#633 = CARTESIAN_POINT('',(0.532485905959,-9.965759187192E-02));
#634 = CARTESIAN_POINT('',(0.521204783495,-7.894736842105E-02));
#635 = ( GEOMETRIC_REPRESENTATION_CONTEXT(2) 
PARAMETRIC_REPRESENTATION_CONTEXT() REPRESENTATION_CONTEXT('2D SPACE',''
  ) );
#636 = ORIENTED_EDGE('',*,*,#637,.F.);
#637 = EDGE_CURVE('',#451,#549,#638,.T.);
#638 = SURFACE_CURVE('',#639,(#643,#650),.PCURVE_S1.);
#639 = LINE('',#640,#641);
#640 = CARTESIAN_POINT('',(4.,4.,5.5));
#641 = VECTOR('',#642,1.);
#642 = DIRECTION('',(-0.707106781187,0.707106781187,-0.));
#643 = PCURVE('',#466,#644);
#644 = DEFINITIONAL_REPRESENTATION('',(#645),#649);
#645 = LINE('',#646,#647);
#646 = CARTESIAN_POINT('',(0.,0.));
#647 = VECTOR('',#648,1.);
#648 = DIRECTION('',(-1.,0.));
#649 = ( GEOMETRIC_REPRESENTATION_CONTEXT(2) 
PARAMETRIC_REPRESENTATION_CONTEXT() REPRESENTATION_CONTEXT('2D SPACE',''
  ) );
#650 = PCURVE('',#99,#651);
#651 = DEFINITIONAL_REPRESENTATION('',(#652),#656);
#652 = LINE('',#653,#654);
#653 = CARTESIAN_POINT('',(1.,7.));
#654 = VECTOR('',#655,1.);
#655 = DIRECTION('',(0.707106781187,0.707106781187));
#656 = ( GEOMETRIC_REPRESENTATION_CONTEXT(2) 
PARAMETRIC_REPRESENTATION_CONTEXT() REPRESENTATION_CONTEXT('2D SPACE',''
  ) );
#657 = ORIENTED_EDGE('',*,*,#450,.T.);
#658 = ADVANCED_FACE('',(#659),#384,.F.);
#659 = FACE_BOUND('',#660,.T.);
#660 = EDGE_LOOP('',(#661,#684,#712,#733));
#661 = ORIENTED_EDGE('',*,*,#662,.T.);
#662 = EDGE_CURVE('',#346,#663,#665,.T.);
#663 = VERTEX_POINT('',#664);
#664 = CARTESIAN_POINT('',(-2.5,-1.301042606983E-15,0.));
#665 = SURFACE_CURVE('',#666,(#670,#677),.PCURVE_S1.);
#666 = LINE('',#667,#668);
#667 = CARTESIAN_POINT('',(-2.5,-1.301042606983E-15,0.));
#668 = VECTOR('',#669,1.);
#669 = DIRECTION('',(2.168404344971E-16,-1.,-0.));
#670 = PCURVE('',#384,#671);
#671 = DEFINITIONAL_REPRESENTATION('',(#672),#676);
#672 = LINE('',#673,#674);
#673 = CARTESIAN_POINT('',(0.,-5.5));
#674 = VECTOR('',#675,1.);
#675 = DIRECTION('',(-1.,0.));
#676 = ( GEOMETRIC_REPRESENTATION_CONTEXT(2) 
PARAMETRIC_REPRESENTATION_CONTEXT() REPRESENTATION_CONTEXT('2D SPACE',''
  ) );
#677 = PCURVE('',#192,#678);
#678 = DEFINITIONAL_REPRESENTATION('',(#679),#683);
#679 = LINE('',#680,#681);
#680 = CARTESIAN_POINT('',(7.5,3.));
#681 = VECTOR('',#682,1.);
#682 = DIRECTION('',(-2.168404344971E-16,-1.));
#683 = ( GEOMETRIC_REPRESENTATION_CONTEXT(2) 
PARAMETRIC_REPRESENTATION_CONTEXT() REPRESENTATION_CONTEXT('2D SPACE',''
  ) );
#684 = ORIENTED_EDGE('',*,*,#685,.F.);
#685 = EDGE_CURVE('',#686,#663,#688,.T.);
#686 = VERTEX_POINT('',#687);
#687 = CARTESIAN_POINT('',(-2.5,-1.301042606983E-15,5.5));
#688 = SURFACE_CURVE('',#689,(#693,#700),.PCURVE_S1.);
#689 = LINE('',#690,#691);
#690 = CARTESIAN_POINT('',(-2.5,-1.301042606983E-15,5.5));
#691 = VECTOR('',#692,1.);
#692 = DIRECTION('',(-0.,-0.,-1.));
#693 = PCURVE('',#384,#694);
#694 = DEFINITIONAL_REPRESENTATION('',(#695),#699);
#695 = LINE('',#696,#697);
#696 = CARTESIAN_POINT('',(0.,0.));
#697 = VECTOR('',#698,1.);
#698 = DIRECTION('',(0.,-1.));
#699 = ( GEOMETRIC_REPRESENTATION_CONTEXT(2) 
PARAMETRIC_REPRESENTATION_CONTEXT() REPRESENTATION_CONTEXT('2D SPACE',''
  ) );
#700 = PCURVE('',#701,#706);
#701 = PLANE('',#702);
#702 = AXIS2_PLACEMENT_3D('',#703,#704,#705);
#703 = CARTESIAN_POINT('',(0.,0.,5.5));
#704 = DIRECTION('',(-5.20417042793E-16,1.,0.));
#705 = DIRECTION('',(-1.,-5.20417042793E-16,0.));
#706 = DEFINITIONAL_REPRESENTATION('',(#707),#711);
#707 = LINE('',#708,#709);
#708 = CARTESIAN_POINT('',(2.5,0.));
#709 = VECTOR('',#710,1.);
#710 = DIRECTION('',(0.,-1.));
#711 = ( GEOMETRIC_REPRESENTATION_CONTEXT(2) 
PARAMETRIC_REPRESENTATION_CONTEXT() REPRESENTATION_CONTEXT('2D SPACE',''
  ) );
#712 = ORIENTED_EDGE('',*,*,#713,.F.);
#713 = EDGE_CURVE('',#369,#686,#714,.T.);
#714 = SURFACE_CURVE('',#715,(#719,#726),.PCURVE_S1.);
#715 = LINE('',#716,#717);
#716 = CARTESIAN_POINT('',(-2.5,-1.301042606983E-15,5.5));
#717 = VECTOR('',#718,1.);
#718 = DIRECTION('',(2.168404344971E-16,-1.,-0.));
#719 = PCURVE('',#384,#720);
#720 = DEFINITIONAL_REPRESENTATION('',(#721),#725);
#721 = LINE('',#722,#723);
#722 = CARTESIAN_POINT('',(0.,0.));
#723 = VECTOR('',#724,1.);
#724 = DIRECTION('',(-1.,0.));
#725 = ( GEOMETRIC_REPRESENTATION_CONTEXT(2) 
PARAMETRIC_REPRESENTATION_CONTEXT() REPRESENTATION_CONTEXT('2D SPACE',''
  ) );
#726 = PCURVE('',#99,#727);
#727 = DEFINITIONAL_REPRESENTATION('',(#728),#732);
#728 = LINE('',#729,#730);
#729 = CARTESIAN_POINT('',(7.5,3.));
#730 = VECTOR('',#731,1.);
#731 = DIRECTION('',(-2.168404344971E-16,-1.));
#732 = ( GEOMETRIC_REPRESENTATION_CONTEXT(2) 
PARAMETRIC_REPRESENTATION_CONTEXT() REPRESENTATION_CONTEXT('2D SPACE',''
  ) );
#733 = ORIENTED_EDGE('',*,*,#368,.T.);
#734 = ADVANCED_FACE('',(#735),#701,.F.);
#735 = FACE_BOUND('',#736,.T.);
#736 = EDGE_LOOP('',(#737,#760,#788,#809));
#737 = ORIENTED_EDGE('',*,*,#738,.T.);
#738 = EDGE_CURVE('',#663,#739,#741,.T.);
#739 = VERTEX_POINT('',#740);
#740 = CARTESIAN_POINT('',(0.,0.,0.));
#741 = SURFACE_CURVE('',#742,(#746,#753),.PCURVE_S1.);
#742 = LINE('',#743,#744);
#743 = CARTESIAN_POINT('',(0.,0.,0.));
#744 = VECTOR('',#745,1.);
#745 = DIRECTION('',(1.,5.20417042793E-16,-0.));
#746 = PCURVE('',#701,#747);
#747 = DEFINITIONAL_REPRESENTATION('',(#748),#752);
#748 = LINE('',#749,#750);
#749 = CARTESIAN_POINT('',(-0.,-5.5));
#750 = VECTOR('',#751,1.);
#751 = DIRECTION('',(-1.,0.));
#752 = ( GEOMETRIC_REPRESENTATION_CONTEXT(2) 
PARAMETRIC_REPRESENTATION_CONTEXT() REPRESENTATION_CONTEXT('2D SPACE',''
  ) );
#753 = PCURVE('',#192,#754);
#754 = DEFINITIONAL_REPRESENTATION('',(#755),#759);
#755 = LINE('',#756,#757);
#756 = CARTESIAN_POINT('',(5.,3.));
#757 = VECTOR('',#758,1.);
#758 = DIRECTION('',(-1.,5.20417042793E-16));
#759 = ( GEOMETRIC_REPRESENTATION_CONTEXT(2) 
PARAMETRIC_REPRESENTATION_CONTEXT() REPRESENTATION_CONTEXT('2D SPACE',''
  ) );
#760 = ORIENTED_EDGE('',*,*,#761,.F.);
#761 = EDGE_CURVE('',#762,#739,#764,.T.);
#762 = VERTEX_POINT('',#763);
#763 = CARTESIAN_POINT('',(0.,0.,5.5));
#764 = SURFACE_CURVE('',#765,(#769,#776),.PCURVE_S1.);
#765 = LINE('',#766,#767);
#766 = CARTESIAN_POINT('',(0.,0.,5.5));
#767 = VECTOR('',#768,1.);
#768 = DIRECTION('',(-0.,-0.,-1.));
#769 = PCURVE('',#701,#770);
#770 = DEFINITIONAL_REPRESENTATION('',(#771),#775);
#771 = LINE('',#772,#773);
#772 = CARTESIAN_POINT('',(0.,0.));
#773 = VECTOR('',#774,1.);
#774 = DIRECTION('',(0.,-1.));
#775 = ( GEOMETRIC_REPRESENTATION_CONTEXT(2) 
PARAMETRIC_REPRESENTATION_CONTEXT() REPRESENTATION_CONTEXT('2D SPACE',''
  ) );
#776 = PCURVE('',#777,#782);
#777 = PLANE('',#778);
#778 = AXIS2_PLACEMENT_3D('',#779,#780,#781);
#779 = CARTESIAN_POINT('',(9.285940779458E-16,-3.,5.5));
#780 = DIRECTION('',(1.,3.095313593153E-16,-0.));
#781 = DIRECTION('',(-3.095313593153E-16,1.,0.));
#782 = DEFINITIONAL_REPRESENTATION('',(#783),#787);
#783 = LINE('',#784,#785);
#784 = CARTESIAN_POINT('',(3.,0.));
#785 = VECTOR('',#786,1.);
#786 = DIRECTION('',(0.,-1.));
#787 = ( GEOMETRIC_REPRESENTATION_CONTEXT(2) 
PARAMETRIC_REPRESENTATION_CONTEXT() REPRESENTATION_CONTEXT('2D SPACE',''
  ) );
#788 = ORIENTED_EDGE('',*,*,#789,.F.);
#789 = EDGE_CURVE('',#686,#762,#790,.T.);
#790 = SURFACE_CURVE('',#791,(#795,#802),.PCURVE_S1.);
#791 = LINE('',#792,#793);
#792 = CARTESIAN_POINT('',(0.,0.,5.5));
#793 = VECTOR('',#794,1.);
#794 = DIRECTION('',(1.,5.20417042793E-16,-0.));
#795 = PCURVE('',#701,#796);
#796 = DEFINITIONAL_REPRESENTATION('',(#797),#801);
#797 = LINE('',#798,#799);
#798 = CARTESIAN_POINT('',(0.,0.));
#799 = VECTOR('',#800,1.);
#800 = DIRECTION('',(-1.,0.));
#801 = ( GEOMETRIC_REPRESENTATION_CONTEXT(2) 
PARAMETRIC_REPRESENTATION_CONTEXT() REPRESENTATION_CONTEXT('2D SPACE',''
  ) );
#802 = PCURVE('',#99,#803);
#803 = DEFINITIONAL_REPRESENTATION('',(#804),#808);
#804 = LINE('',#805,#806);
#805 = CARTESIAN_POINT('',(5.,3.));
#806 = VECTOR('',#807,1.);
#807 = DIRECTION('',(-1.,5.20417042793E-16));
#808 = ( GEOMETRIC_REPRESENTATION_CONTEXT(2) 
PARAMETRIC_REPRESENTATION_CONTEXT() REPRESENTATION_CONTEXT('2D SPACE',''
  ) );
#809 = ORIENTED_EDGE('',*,*,#685,.T.);
#810 = ADVANCED_FACE('',(#811),#777,.F.);
#811 = FACE_BOUND('',#812,.T.);
#812 = EDGE_LOOP('',(#813,#836,#859,#880));
#813 = ORIENTED_EDGE('',*,*,#814,.T.);
#814 = EDGE_CURVE('',#739,#815,#817,.T.);
#815 = VERTEX_POINT('',#816);
#816 = CARTESIAN_POINT('',(9.285940779458E-16,-3.,0.));
#817 = SURFACE_CURVE('',#818,(#822,#829),.PCURVE_S1.);
#818 = LINE('',#819,#820);
#819 = CARTESIAN_POINT('',(9.285940779458E-16,-3.,0.));
#820 = VECTOR('',#821,1.);
#821 = DIRECTION('',(3.095313593153E-16,-1.,-0.));
#822 = PCURVE('',#777,#823);
#823 = DEFINITIONAL_REPRESENTATION('',(#824),#828);
#824 = LINE('',#825,#826);
#825 = CARTESIAN_POINT('',(0.,-5.5));
#826 = VECTOR('',#827,1.);
#827 = DIRECTION('',(-1.,0.));
#828 = ( GEOMETRIC_REPRESENTATION_CONTEXT(2) 
PARAMETRIC_REPRESENTATION_CONTEXT() REPRESENTATION_CONTEXT('2D SPACE',''
  ) );
#829 = PCURVE('',#192,#830);
#830 = DEFINITIONAL_REPRESENTATION('',(#831),#835);
#831 = LINE('',#832,#833);
#832 = CARTESIAN_POINT('',(5.,-8.881784197001E-16));
#833 = VECTOR('',#834,1.);
#834 = DIRECTION('',(-3.095313593153E-16,-1.));
#835 = ( GEOMETRIC_REPRESENTATION_CONTEXT(2) 
PARAMETRIC_REPRESENTATION_CONTEXT() REPRESENTATION_CONTEXT('2D SPACE',''
  ) );
#836 = ORIENTED_EDGE('',*,*,#837,.F.);
#837 = EDGE_CURVE('',#838,#815,#840,.T.);
#838 = VERTEX_POINT('',#839);
#839 = CARTESIAN_POINT('',(9.285940779458E-16,-3.,5.5));
#840 = SURFACE_CURVE('',#841,(#845,#852),.PCURVE_S1.);
#841 = LINE('',#842,#843);
#842 = CARTESIAN_POINT('',(9.285940779458E-16,-3.,5.5));
#843 = VECTOR('',#844,1.);
#844 = DIRECTION('',(-0.,-0.,-1.));
#845 = PCURVE('',#777,#846);
#846 = DEFINITIONAL_REPRESENTATION('',(#847),#851);
#847 = LINE('',#848,#849);
#848 = CARTESIAN_POINT('',(0.,0.));
#849 = VECTOR('',#850,1.);
#850 = DIRECTION('',(0.,-1.));
#851 = ( GEOMETRIC_REPRESENTATION_CONTEXT(2) 
PARAMETRIC_REPRESENTATION_CONTEXT() REPRESENTATION_CONTEXT('2D SPACE',''
  ) );
#852 = PCURVE('',#329,#853);
#853 = DEFINITIONAL_REPRESENTATION('',(#854),#858);
#854 = LINE('',#855,#856);
#855 = CARTESIAN_POINT('',(5.,0.));
#856 = VECTOR('',#857,1.);
#857 = DIRECTION('',(0.,-1.));
#858 = ( GEOMETRIC_REPRESENTATION_CONTEXT(2) 
PARAMETRIC_REPRESENTATION_CONTEXT() REPRESENTATION_CONTEXT('2D SPACE',''
  ) );
#859 = ORIENTED_EDGE('',*,*,#860,.F.);
#860 = EDGE_CURVE('',#762,#838,#861,.T.);
#861 = SURFACE_CURVE('',#862,(#866,#873),.PCURVE_S1.);
#862 = LINE('',#863,#864);
#863 = CARTESIAN_POINT('',(9.285940779458E-16,-3.,5.5));
#864 = VECTOR('',#865,1.);
#865 = DIRECTION('',(3.095313593153E-16,-1.,-0.));
#866 = PCURVE('',#777,#867);
#867 = DEFINITIONAL_REPRESENTATION('',(#868),#872);
#868 = LINE('',#869,#870);
#869 = CARTESIAN_POINT('',(0.,0.));
#870 = VECTOR('',#871,1.);
#871 = DIRECTION('',(-1.,0.));
#872 = ( GEOMETRIC_REPRESENTATION_CONTEXT(2) 
PARAMETRIC_REPRESENTATION_CONTEXT() REPRESENTATION_CONTEXT('2D SPACE',''
  ) );
#873 = PCURVE('',#99,#874);
#874 = DEFINITIONAL_REPRESENTATION('',(#875),#879);
#875 = LINE('',#876,#877);
#876 = CARTESIAN_POINT('',(5.,-8.881784197001E-16));
#877 = VECTOR('',#878,1.);
#878 = DIRECTION('',(-3.095313593153E-16,-1.));
#879 = ( GEOMETRIC_REPRESENTATION_CONTEXT(2) 
PARAMETRIC_REPRESENTATION_CONTEXT() REPRESENTATION_CONTEXT('2D SPACE',''
  ) );
#880 = ORIENTED_EDGE('',*,*,#761,.T.);
#881 = ADVANCED_FACE('',(#882,#907),#329,.F.);
#882 = FACE_BOUND('',#883,.T.);
#883 = EDGE_LOOP('',(#884,#906));
#884 = ORIENTED_EDGE('',*,*,#885,.T.);
#885 = EDGE_CURVE('',#263,#292,#886,.T.);
#886 = SURFACE_CURVE('',#887,(#892,#899),.PCURVE_S1.);
#887 = CIRCLE('',#888,1.6);
#888 = AXIS2_PLACEMENT_3D('',#889,#890,#891);
#889 = CARTESIAN_POINT('',(2.5,-3.,2.75));
#890 = DIRECTION('',(-0.,1.,0.));
#891 = DIRECTION('',(0.,0.,1.));
#892 = PCURVE('',#329,#893);
#893 = DEFINITIONAL_REPRESENTATION('',(#894),#898);
#894 = CIRCLE('',#895,1.6);
#895 = AXIS2_PLACEMENT_2D('',#896,#897);
#896 = CARTESIAN_POINT('',(2.5,-2.75));
#897 = DIRECTION('',(0.,1.));
#898 = ( GEOMETRIC_REPRESENTATION_CONTEXT(2) 
PARAMETRIC_REPRESENTATION_CONTEXT() REPRESENTATION_CONTEXT('2D SPACE',''
  ) );
#899 = PCURVE('',#278,#900);
#900 = DEFINITIONAL_REPRESENTATION('',(#901),#905);
#901 = LINE('',#902,#903);
#902 = CARTESIAN_POINT('',(0.,-7.));
#903 = VECTOR('',#904,1.);
#904 = DIRECTION('',(1.,0.));
#905 = ( GEOMETRIC_REPRESENTATION_CONTEXT(2) 
PARAMETRIC_REPRESENTATION_CONTEXT() REPRESENTATION_CONTEXT('2D SPACE',''
  ) );
#906 = ORIENTED_EDGE('',*,*,#314,.T.);
#907 = FACE_BOUND('',#908,.T.);
#908 = EDGE_LOOP('',(#909,#930,#931,#952));
#909 = ORIENTED_EDGE('',*,*,#910,.T.);
#910 = EDGE_CURVE('',#815,#421,#911,.T.);
#911 = SURFACE_CURVE('',#912,(#916,#923),.PCURVE_S1.);
#912 = LINE('',#913,#914);
#913 = CARTESIAN_POINT('',(5.,-3.,0.));
#914 = VECTOR('',#915,1.);
#915 = DIRECTION('',(1.,1.734723475977E-16,-0.));
#916 = PCURVE('',#329,#917);
#917 = DEFINITIONAL_REPRESENTATION('',(#918),#922);
#918 = LINE('',#919,#920);
#919 = CARTESIAN_POINT('',(-0.,-5.5));
#920 = VECTOR('',#921,1.);
#921 = DIRECTION('',(-1.,0.));
#922 = ( GEOMETRIC_REPRESENTATION_CONTEXT(2) 
PARAMETRIC_REPRESENTATION_CONTEXT() REPRESENTATION_CONTEXT('2D SPACE',''
  ) );
#923 = PCURVE('',#192,#924);
#924 = DEFINITIONAL_REPRESENTATION('',(#925),#929);
#925 = LINE('',#926,#927);
#926 = CARTESIAN_POINT('',(0.,0.));
#927 = VECTOR('',#928,1.);
#928 = DIRECTION('',(-1.,1.734723475977E-16));
#929 = ( GEOMETRIC_REPRESENTATION_CONTEXT(2) 
PARAMETRIC_REPRESENTATION_CONTEXT() REPRESENTATION_CONTEXT('2D SPACE',''
  ) );
#930 = ORIENTED_EDGE('',*,*,#501,.F.);
#931 = ORIENTED_EDGE('',*,*,#932,.F.);
#932 = EDGE_CURVE('',#838,#479,#933,.T.);
#933 = SURFACE_CURVE('',#934,(#938,#945),.PCURVE_S1.);
#934 = LINE('',#935,#936);
#935 = CARTESIAN_POINT('',(5.,-3.,5.5));
#936 = VECTOR('',#937,1.);
#937 = DIRECTION('',(1.,1.734723475977E-16,-0.));
#938 = PCURVE('',#329,#939);
#939 = DEFINITIONAL_REPRESENTATION('',(#940),#944);
#940 = LINE('',#941,#942);
#941 = CARTESIAN_POINT('',(0.,0.));
#942 = VECTOR('',#943,1.);
#943 = DIRECTION('',(-1.,0.));
#944 = ( GEOMETRIC_REPRESENTATION_CONTEXT(2) 
PARAMETRIC_REPRESENTATION_CONTEXT() REPRESENTATION_CONTEXT('2D SPACE',''
  ) );
#945 = PCURVE('',#99,#946);
#946 = DEFINITIONAL_REPRESENTATION('',(#947),#951);
#947 = LINE('',#948,#949);
#948 = CARTESIAN_POINT('',(0.,0.));
#949 = VECTOR('',#950,1.);
#950 = DIRECTION('',(-1.,1.734723475977E-16));
#951 = ( GEOMETRIC_REPRESENTATION_CONTEXT(2) 
PARAMETRIC_REPRESENTATION_CONTEXT() REPRESENTATION_CONTEXT('2D SPACE',''
  ) );
#952 = ORIENTED_EDGE('',*,*,#837,.T.);
#953 = ADVANCED_FACE('',(#954),#99,.F.);
#954 = FACE_BOUND('',#955,.T.);
#955 = EDGE_LOOP('',(#956,#957,#1006,#1007,#1008,#1009,#1010,#1011,#1012
    ));
#956 = ORIENTED_EDGE('',*,*,#637,.T.);
#957 = ORIENTED_EDGE('',*,*,#958,.T.);
#958 = EDGE_CURVE('',#549,#24,#959,.T.);
#959 = SURFACE_CURVE('',#960,(#967,#977),.PCURVE_S1.);
#960 = B_SPLINE_CURVE_WITH_KNOTS('',3,(#961,#962,#963,#964,#965,#966),
  .UNSPECIFIED.,.F.,.F.,(4,2,4),(1.331549968037E-02,1.413358120938E-02,
    1.495166273839E-02),.UNSPECIFIED.);
#961 = CARTESIAN_POINT('',(4.078947368421,3.921052631579,5.5));
#962 = CARTESIAN_POINT('',(3.834620256194,3.799395978188,5.5));
#963 = CARTESIAN_POINT('',(3.577546527618,3.692674727693,5.5));
#964 = CARTESIAN_POINT('',(3.048805296177,3.542743326361,5.5));
#965 = CARTESIAN_POINT('',(2.777847252709,3.5,5.5));
#966 = CARTESIAN_POINT('',(2.5,3.5,5.5));
#967 = PCURVE('',#99,#968);
#968 = DEFINITIONAL_REPRESENTATION('',(#969),#976);
#969 = B_SPLINE_CURVE_WITH_KNOTS('',3,(#970,#971,#972,#973,#974,#975),
  .UNSPECIFIED.,.F.,.F.,(4,2,4),(1.331549968037E-02,1.413358120938E-02,
    1.495166273839E-02),.UNSPECIFIED.);
#970 = CARTESIAN_POINT('',(0.921052631579,6.921052631579));
#971 = CARTESIAN_POINT('',(1.165379743806,6.799395978188));
#972 = CARTESIAN_POINT('',(1.422453472382,6.692674727693));
#973 = CARTESIAN_POINT('',(1.951194703823,6.542743326361));
#974 = CARTESIAN_POINT('',(2.222152747291,6.5));
#975 = CARTESIAN_POINT('',(2.5,6.5));
#976 = ( GEOMETRIC_REPRESENTATION_CONTEXT(2) 
PARAMETRIC_REPRESENTATION_CONTEXT() REPRESENTATION_CONTEXT('2D SPACE',''
  ) );
#977 = PCURVE('',#44,#978);
#978 = DEFINITIONAL_REPRESENTATION('',(#979),#1005);
#979 = B_SPLINE_CURVE_WITH_KNOTS('',3,(#980,#981,#982,#983,#984,#985,
    #986,#987,#988,#989,#990,#991,#992,#993,#994,#995,#996,#997,#998,
    #999,#1000,#1001,#1002,#1003,#1004),.UNSPECIFIED.,.F.,.F.,(4,1,1,1,1
    ,1,1,1,1,1,1,1,1,1,1,1,1,1,1,1,1,1,4),(1.331549968037E-02,
    1.338987072846E-02,1.346424177655E-02,1.353861282464E-02,
    1.361298387273E-02,1.368735492083E-02,1.376172596892E-02,
    1.383609701701E-02,1.39104680651E-02,1.39848391132E-02,
    1.405921016129E-02,1.413358120938E-02,1.420795225747E-02,
    1.428232330556E-02,1.435669435366E-02,1.443106540175E-02,
    1.450543644984E-02,1.457980749793E-02,1.465417854603E-02,
    1.472854959412E-02,1.480292064221E-02,1.48772916903E-02,
    1.495166273839E-02),.QUASI_UNIFORM_KNOTS.);
#980 = CARTESIAN_POINT('',(0.521204783495,-7.894736842105E-02));
#981 = CARTESIAN_POINT('',(0.515130507847,-9.000703455039E-02));
#982 = CARTESIAN_POINT('',(0.502796682611,-0.111879991438));
#983 = CARTESIAN_POINT('',(0.483738780333,-0.143874144142));
#984 = CARTESIAN_POINT('',(0.464121647601,-0.174976971848));
#985 = CARTESIAN_POINT('',(0.443945750391,-0.205112032683));
#986 = CARTESIAN_POINT('',(0.423213473467,-0.234202782319));
#987 = CARTESIAN_POINT('',(0.401929548346,-0.26217266852));
#988 = CARTESIAN_POINT('',(0.380101176662,-0.288945329684));
#989 = CARTESIAN_POINT('',(0.357738295891,-0.314444686127));
#990 = CARTESIAN_POINT('',(0.334853515188,-0.33859546189));
#991 = CARTESIAN_POINT('',(0.311463129849,-0.361322193659));
#992 = CARTESIAN_POINT('',(0.287584016355,-0.382553956107));
#993 = CARTESIAN_POINT('',(0.26324575368,-0.402207819755));
#994 = CARTESIAN_POINT('',(0.238472738641,-0.420220854229));
#995 = CARTESIAN_POINT('',(0.21328263899,-0.436543889528));
#996 = CARTESIAN_POINT('',(0.187698459461,-0.451124913869));
#997 = CARTESIAN_POINT('',(0.16174530622,-0.463913761533));
#998 = CARTESIAN_POINT('',(0.135451198264,-0.474861099263));
#999 = CARTESIAN_POINT('',(0.108846743294,-0.483918947275));
#1000 = CARTESIAN_POINT('',(8.196504330294E-02,-0.491040763291));
#1001 = CARTESIAN_POINT('',(5.484154185286E-02,-0.496181719264));
#1002 = CARTESIAN_POINT('',(2.7513598353E-02,-0.499298601935));
#1003 = CARTESIAN_POINT('',(9.18516153952E-03,-0.500000174414));
#1004 = CARTESIAN_POINT('',(0.,-0.5));
#1005 = ( GEOMETRIC_REPRESENTATION_CONTEXT(2) 
PARAMETRIC_REPRESENTATION_CONTEXT() REPRESENTATION_CONTEXT('2D SPACE',''
  ) );
#1006 = ORIENTED_EDGE('',*,*,#56,.T.);
#1007 = ORIENTED_EDGE('',*,*,#396,.T.);
#1008 = ORIENTED_EDGE('',*,*,#713,.T.);
#1009 = ORIENTED_EDGE('',*,*,#789,.T.);
#1010 = ORIENTED_EDGE('',*,*,#860,.T.);
#1011 = ORIENTED_EDGE('',*,*,#932,.T.);
#1012 = ORIENTED_EDGE('',*,*,#478,.T.);
#1013 = ADVANCED_FACE('',(#1014),#192,.T.);
#1014 = FACE_BOUND('',#1015,.T.);
#1015 = EDGE_LOOP('',(#1016,#1065,#1066,#1067,#1068,#1069,#1070,#1071,
    #1072));
#1016 = ORIENTED_EDGE('',*,*,#1017,.F.);
#1017 = EDGE_CURVE('',#526,#150,#1018,.T.);
#1018 = SURFACE_CURVE('',#1019,(#1026,#1036),.PCURVE_S1.);
#1019 = B_SPLINE_CURVE_WITH_KNOTS('',3,(#1020,#1021,#1022,#1023,#1024,
    #1025),.UNSPECIFIED.,.F.,.F.,(4,2,4),(1.331549968029E-02,
    1.41335812093E-02,1.495166273832E-02),.UNSPECIFIED.);
#1020 = CARTESIAN_POINT('',(4.078947368421,3.921052631579,
    2.368949094411E-16));
#1021 = CARTESIAN_POINT('',(3.834620256194,3.799395978188,0.));
#1022 = CARTESIAN_POINT('',(3.577546527618,3.692674727693,-0.));
#1023 = CARTESIAN_POINT('',(3.048805296176,3.54274332636,-0.));
#1024 = CARTESIAN_POINT('',(2.77784725271,3.5,0.));
#1025 = CARTESIAN_POINT('',(2.5,3.5,0.));
#1026 = PCURVE('',#192,#1027);
#1027 = DEFINITIONAL_REPRESENTATION('',(#1028),#1035);
#1028 = B_SPLINE_CURVE_WITH_KNOTS('',3,(#1029,#1030,#1031,#1032,#1033,
    #1034),.UNSPECIFIED.,.F.,.F.,(4,2,4),(1.331549968029E-02,
    1.41335812093E-02,1.495166273832E-02),.UNSPECIFIED.);
#1029 = CARTESIAN_POINT('',(0.921052631579,6.921052631579));
#1030 = CARTESIAN_POINT('',(1.165379743806,6.799395978188));
#1031 = CARTESIAN_POINT('',(1.422453472382,6.692674727693));
#1032 = CARTESIAN_POINT('',(1.951194703824,6.54274332636));
#1033 = CARTESIAN_POINT('',(2.22215274729,6.5));
#1034 = CARTESIAN_POINT('',(2.5,6.5));
#1035 = ( GEOMETRIC_REPRESENTATION_CONTEXT(2) 
PARAMETRIC_REPRESENTATION_CONTEXT() REPRESENTATION_CONTEXT('2D SPACE',''
  ) );
#1036 = PCURVE('',#44,#1037);
#1037 = DEFINITIONAL_REPRESENTATION('',(#1038),#1064);
#1038 = B_SPLINE_CURVE_WITH_KNOTS('',3,(#1039,#1040,#1041,#1042,#1043,
    #1044,#1045,#1046,#1047,#1048,#1049,#1050,#1051,#1052,#1053,#1054,
    #1055,#1056,#1057,#1058,#1059,#1060,#1061,#1062,#1063),
  .UNSPECIFIED.,.F.,.F.,(4,1,1,1,1,1,1,1,1,1,1,1,1,1,1,1,1,1,1,1,1,1,4),
  (1.331549968029E-02,1.338987072838E-02,1.346424177647E-02,
    1.353861282456E-02,1.361298387266E-02,1.368735492075E-02,
    1.376172596884E-02,1.383609701693E-02,1.391046806503E-02,
    1.398483911312E-02,1.405921016121E-02,1.41335812093E-02,
    1.420795225739E-02,1.428232330549E-02,1.435669435358E-02,
    1.443106540167E-02,1.450543644976E-02,1.457980749786E-02,
    1.465417854595E-02,1.472854959404E-02,1.480292064213E-02,
    1.487729169022E-02,1.495166273832E-02),.QUASI_UNIFORM_KNOTS.);
#1039 = CARTESIAN_POINT('',(2.620387870095,-7.894736842105E-02));
#1040 = CARTESIAN_POINT('',(2.626462145742,-9.000703455039E-02));
#1041 = CARTESIAN_POINT('',(2.638795970979,-0.111879991438));
#1042 = CARTESIAN_POINT('',(2.657853873257,-0.143874144142));
#1043 = CARTESIAN_POINT('',(2.677471005989,-0.174976971848));
#1044 = CARTESIAN_POINT('',(2.697646903199,-0.205112032683));
#1045 = CARTESIAN_POINT('',(2.718379180123,-0.234202782319));
#1046 = CARTESIAN_POINT('',(2.739663105244,-0.26217266852));
#1047 = CARTESIAN_POINT('',(2.761491476928,-0.288945329684));
#1048 = CARTESIAN_POINT('',(2.783854357699,-0.314444686127));
#1049 = CARTESIAN_POINT('',(2.806739138401,-0.33859546189));
#1050 = CARTESIAN_POINT('',(2.830129523741,-0.361322193659));
#1051 = CARTESIAN_POINT('',(2.854008637234,-0.382553956107));
#1052 = CARTESIAN_POINT('',(2.87834689991,-0.402207819755));
#1053 = CARTESIAN_POINT('',(2.903119914949,-0.420220854229));
#1054 = CARTESIAN_POINT('',(2.9283100146,-0.436543889528));
#1055 = CARTESIAN_POINT('',(2.953894194128,-0.451124913869));
#1056 = CARTESIAN_POINT('',(2.97984734737,-0.463913761533));
#1057 = CARTESIAN_POINT('',(3.006141455325,-0.474861099263));
#1058 = CARTESIAN_POINT('',(3.032745910296,-0.483918947275));
#1059 = CARTESIAN_POINT('',(3.059627610287,-0.491040763291));
#1060 = CARTESIAN_POINT('',(3.086751111737,-0.496181719264));
#1061 = CARTESIAN_POINT('',(3.114079055237,-0.499298601935));
#1062 = CARTESIAN_POINT('',(3.13240749205,-0.500000174414));
#1063 = CARTESIAN_POINT('',(3.14159265359,-0.5));
#1064 = ( GEOMETRIC_REPRESENTATION_CONTEXT(2) 
PARAMETRIC_REPRESENTATION_CONTEXT() REPRESENTATION_CONTEXT('2D SPACE',''
  ) );
#1065 = ORIENTED_EDGE('',*,*,#525,.F.);
#1066 = ORIENTED_EDGE('',*,*,#420,.F.);
#1067 = ORIENTED_EDGE('',*,*,#910,.F.);
#1068 = ORIENTED_EDGE('',*,*,#814,.F.);
#1069 = ORIENTED_EDGE('',*,*,#738,.F.);
#1070 = ORIENTED_EDGE('',*,*,#662,.F.);
#1071 = ORIENTED_EDGE('',*,*,#345,.F.);
#1072 = ORIENTED_EDGE('',*,*,#149,.F.);
#1073 = ADVANCED_FACE('',(#1074),#278,.F.);
#1074 = FACE_BOUND('',#1075,.F.);
#1075 = EDGE_LOOP('',(#1076,#1098,#1099,#1100));
#1076 = ORIENTED_EDGE('',*,*,#1077,.F.);
#1077 = EDGE_CURVE('',#22,#210,#1078,.T.);
#1078 = SURFACE_CURVE('',#1079,(#1084,#1091),.PCURVE_S1.);
#1079 = CIRCLE('',#1080,1.6);
#1080 = AXIS2_PLACEMENT_3D('',#1081,#1082,#1083);
#1081 = CARTESIAN_POINT('',(2.5,2.35,2.75));
#1082 = DIRECTION('',(-0.,1.,0.));
#1083 = DIRECTION('',(0.,0.,1.));
#1084 = PCURVE('',#278,#1085);
#1085 = DEFINITIONAL_REPRESENTATION('',(#1086),#1090);
#1086 = LINE('',#1087,#1088);
#1087 = CARTESIAN_POINT('',(0.,-1.65));
#1088 = VECTOR('',#1089,1.);
#1089 = DIRECTION('',(1.,0.));
#1090 = ( GEOMETRIC_REPRESENTATION_CONTEXT(2) 
PARAMETRIC_REPRESENTATION_CONTEXT() REPRESENTATION_CONTEXT('2D SPACE',''
  ) );
#1091 = PCURVE('',#44,#1092);
#1092 = DEFINITIONAL_REPRESENTATION('',(#1093),#1097);
#1093 = LINE('',#1094,#1095);
#1094 = CARTESIAN_POINT('',(0.,-1.65));
#1095 = VECTOR('',#1096,1.);
#1096 = DIRECTION('',(1.,0.));
#1097 = ( GEOMETRIC_REPRESENTATION_CONTEXT(2) 
PARAMETRIC_REPRESENTATION_CONTEXT() REPRESENTATION_CONTEXT('2D SPACE',''
  ) );
#1098 = ORIENTED_EDGE('',*,*,#262,.F.);
#1099 = ORIENTED_EDGE('',*,*,#885,.T.);
#1100 = ORIENTED_EDGE('',*,*,#291,.T.);
#1101 = ADVANCED_FACE('',(#1102),#44,.F.);
#1102 = FACE_BOUND('',#1103,.F.);
#1103 = EDGE_LOOP('',(#1104,#1105,#1106,#1107,#1108,#1109));
#1104 = ORIENTED_EDGE('',*,*,#1017,.F.);
#1105 = ORIENTED_EDGE('',*,*,#548,.T.);
#1106 = ORIENTED_EDGE('',*,*,#958,.T.);
#1107 = ORIENTED_EDGE('',*,*,#21,.F.);
#1108 = ORIENTED_EDGE('',*,*,#1077,.T.);
#1109 = ORIENTED_EDGE('',*,*,#209,.T.);
#1110 = ( GEOMETRIC_REPRESENTATION_CONTEXT(3) 
GLOBAL_UNCERTAINTY_ASSIGNED_CONTEXT((#1114)) 
GLOBAL_UNIT_ASSIGNED_CONTEXT((#1111,#1112,#1113)) REPRESENTATION_CONTEXT
('Context #1','3D Context with UNIT and UNCERTAINTY') );
#1111 = ( LENGTH_UNIT() NAMED_UNIT(*) SI_UNIT(.MILLI.,.METRE.) );
#1112 = ( NAMED_UNIT(*) PLANE_ANGLE_UNIT() SI_UNIT($,.RADIAN.) );
#1113 = ( NAMED_UNIT(*) SI_UNIT($,.STERADIAN.) SOLID_ANGLE_UNIT() );
#1114 = UNCERTAINTY_MEASURE_WITH_UNIT(LENGTH_MEASURE(5.E-05),#1111,
  'distance_accuracy_value','confusion accuracy');
#1115 = PRODUCT_RELATED_PRODUCT_CATEGORY('part',$,(#7));
ENDSEC;
END-ISO-10303-21;
