ISO-10303-21;
HEADER;
FILE_DESCRIPTION(('Open CASCADE Model'),'2;1');
FILE_NAME('Open CASCADE Shape Model','2026-09-11T14:25:09',('Author'),(
    'Open CASCADE'),'Open CASCADE STEP processor 7.9','Open CASCADE 7.9'
  ,'Unknown');
FILE_SCHEMA(('AUTOMOTIVE_DESIGN { 1 0 10303 214 1 1 1 1 }'));
ENDSEC;
DATA;
#1 = APPLICATION_PROTOCOL_DEFINITION('international standard',
  'automotive_design',2000,#2);
#2 = APPLICATION_CONTEXT(
  'core data for automotive mechanical design processes');
#3 = SHAPE_DEFINITION_REPRESENTATION(#4,#10);
#4 = PRODUCT_DEFINITION_SHAPE('','',#5);
#5 = PRODUCT_DEFINITION('design','',#6,#9);
#6 = PRODUCT_DEFINITION_FORMATION('','',#7);
#7 = PRODUCT('Open CASCADE STEP translator 7.9 12',
  'Open CASCADE STEP translator 7.9 12','',(#8));
#8 = PRODUCT_CONTEXT('',#2,'mechanical');
#9 = PRODUCT_DEFINITION_CONTEXT('part definition',#2,'design');
#10 = ADVANCED_BREP_SHAPE_REPRESENTATION('',(#11,#15),#689);
#11 = AXIS2_PLACEMENT_3D('',#12,#13,#14);
#12 = CARTESIAN_POINT('',(0.,0.,0.));
#13 = DIRECTION('',(0.,0.,1.));
#14 = DIRECTION('',(1.,0.,-0.));
#15 = MANIFOLD_SOLID_BREP('',#16);
#16 = CLOSED_SHELL('',(#17,#134,#231,#343,#459,#511,#560,#611,#641,#648,
    #655,#682));
#17 = ADVANCED_FACE('',(#18),#32,.F.);
#18 = FACE_BOUND('',#19,.F.);
#19 = EDGE_LOOP('',(#20,#55,#84,#107));
#20 = ORIENTED_EDGE('',*,*,#21,.T.);
#21 = EDGE_CURVE('',#22,#24,#26,.T.);
#22 = VERTEX_POINT('',#23);
#23 = CARTESIAN_POINT('',(1.873298793101E-16,28.5,-1.25));
#24 = VERTEX_POINT('',#25);
#25 = CARTESIAN_POINT('',(3.303595974629E-16,41.,-1.25));
#26 = SURFACE_CURVE('',#27,(#31,#43),.PCURVE_S1.);
#27 = LINE('',#28,#29);
#28 = CARTESIAN_POINT('',(3.303595974629E-16,41.,-1.25));
#29 = VECTOR('',#30,1.);
#30 = DIRECTION('',(1.144237745222E-17,1.,1.232595164408E-32));
#31 = PCURVE('',#32,#37);
#32 = CYLINDRICAL_SURFACE('',#33,1.25);
#33 = AXIS2_PLACEMENT_3D('',#34,#35,#36);
#34 = CARTESIAN_POINT('',(4.69137475541E-16,41.,5.053640174072E-31));
#35 = DIRECTION('',(1.144237745222E-17,1.,1.232595164408E-32));
#36 = DIRECTION('',(-1.110223024625E-16,1.359631073447E-32,-1.));
#37 = DEFINITIONAL_REPRESENTATION('',(#38),#42);
#38 = LINE('',#39,#40);
#39 = CARTESIAN_POINT('',(6.28318530718,0.));
#40 = VECTOR('',#41,1.);
#41 = DIRECTION('',(0.,1.));
#42 = ( GEOMETRIC_REPRESENTATION_CONTEXT(2) 
PARAMETRIC_REPRESENTATION_CONTEXT() REPRESENTATION_CONTEXT('2D SPACE',''
  ) );
#43 = PCURVE('',#44,#49);
#44 = CYLINDRICAL_SURFACE('',#45,1.25);
#45 = AXIS2_PLACEMENT_3D('',#46,#47,#48);
#46 = CARTESIAN_POINT('',(4.69137475541E-16,41.,5.053640174072E-31));
#47 = DIRECTION('',(1.144237745222E-17,1.,1.232595164408E-32));
#48 = DIRECTION('',(-1.110223024625E-16,1.359631073447E-32,-1.));
#49 = DEFINITIONAL_REPRESENTATION('',(#50),#54);
#50 = LINE('',#51,#52);
#51 = CARTESIAN_POINT('',(0.,0.));
#52 = VECTOR('',#53,1.);
#53 = DIRECTION('',(0.,1.));
#54 = ( GEOMETRIC_REPRESENTATION_CONTEXT(2) 
PARAMETRIC_REPRESENTATION_CONTEXT() REPRESENTATION_CONTEXT('2D SPACE',''
  ) );
#55 = ORIENTED_EDGE('',*,*,#56,.F.);
#56 = EDGE_CURVE('',#57,#24,#59,.T.);
#57 = VERTEX_POINT('',#58);
#58 = CARTESIAN_POINT('',(4.548345037258E-16,41.,1.25));
#59 = SURFACE_CURVE('',#60,(#65,#72),.PCURVE_S1.);
#60 = CIRCLE('',#61,1.25);
#61 = AXIS2_PLACEMENT_3D('',#62,#63,#64);
#62 = CARTESIAN_POINT('',(4.69137475541E-16,41.,5.053640174072E-31));
#63 = DIRECTION('',(1.144237745222E-17,1.,1.232595164408E-32));
#64 = DIRECTION('',(-1.110223024625E-16,1.359631073447E-32,-1.));
#65 = PCURVE('',#32,#66);
#66 = DEFINITIONAL_REPRESENTATION('',(#67),#71);
#67 = LINE('',#68,#69);
#68 = CARTESIAN_POINT('',(0.,0.));
#69 = VECTOR('',#70,1.);
#70 = DIRECTION('',(1.,0.));
#71 = ( GEOMETRIC_REPRESENTATION_CONTEXT(2) 
PARAMETRIC_REPRESENTATION_CONTEXT() REPRESENTATION_CONTEXT('2D SPACE',''
  ) );
#72 = PCURVE('',#73,#78);
#73 = PLANE('',#74);
#74 = AXIS2_PLACEMENT_3D('',#75,#76,#77);
#75 = CARTESIAN_POINT('',(4.69137475541E-16,41.,5.053640174072E-31));
#76 = DIRECTION('',(1.144237745222E-17,1.,1.232595164408E-32));
#77 = DIRECTION('',(-1.110223024625E-16,1.359631073447E-32,-1.));
#78 = DEFINITIONAL_REPRESENTATION('',(#79),#83);
#79 = CIRCLE('',#80,1.25);
#80 = AXIS2_PLACEMENT_2D('',#81,#82);
#81 = CARTESIAN_POINT('',(0.,0.));
#82 = DIRECTION('',(1.,0.));
#83 = ( GEOMETRIC_REPRESENTATION_CONTEXT(2) 
PARAMETRIC_REPRESENTATION_CONTEXT() REPRESENTATION_CONTEXT('2D SPACE',''
  ) );
#84 = ORIENTED_EDGE('',*,*,#85,.F.);
#85 = EDGE_CURVE('',#86,#57,#88,.T.);
#86 = VERTEX_POINT('',#87);
#87 = CARTESIAN_POINT('',(3.11804785573E-16,28.5,1.25));
#88 = SURFACE_CURVE('',#89,(#93,#100),.PCURVE_S1.);
#89 = LINE('',#90,#91);
#90 = CARTESIAN_POINT('',(4.548345037258E-16,41.,1.25));
#91 = VECTOR('',#92,1.);
#92 = DIRECTION('',(1.144237745222E-17,1.,1.232595164408E-32));
#93 = PCURVE('',#32,#94);
#94 = DEFINITIONAL_REPRESENTATION('',(#95),#99);
#95 = LINE('',#96,#97);
#96 = CARTESIAN_POINT('',(3.14159265359,0.));
#97 = VECTOR('',#98,1.);
#98 = DIRECTION('',(0.,1.));
#99 = ( GEOMETRIC_REPRESENTATION_CONTEXT(2) 
PARAMETRIC_REPRESENTATION_CONTEXT() REPRESENTATION_CONTEXT('2D SPACE',''
  ) );
#100 = PCURVE('',#44,#101);
#101 = DEFINITIONAL_REPRESENTATION('',(#102),#106);
#102 = LINE('',#103,#104);
#103 = CARTESIAN_POINT('',(3.14159265359,0.));
#104 = VECTOR('',#105,1.);
#105 = DIRECTION('',(0.,1.));
#106 = ( GEOMETRIC_REPRESENTATION_CONTEXT(2) 
PARAMETRIC_REPRESENTATION_CONTEXT() REPRESENTATION_CONTEXT('2D SPACE',''
  ) );
#107 = ORIENTED_EDGE('',*,*,#108,.T.);
#108 = EDGE_CURVE('',#86,#22,#109,.T.);
#109 = SURFACE_CURVE('',#110,(#115,#122),.PCURVE_S1.);
#110 = CIRCLE('',#111,1.25);
#111 = AXIS2_PLACEMENT_3D('',#112,#113,#114);
#112 = CARTESIAN_POINT('',(3.261077573883E-16,28.5,3.512896218562E-31));
#113 = DIRECTION('',(1.144237745222E-17,1.,1.232595164408E-32));
#114 = DIRECTION('',(-1.110223024625E-16,1.359631073447E-32,-1.));
#115 = PCURVE('',#32,#116);
#116 = DEFINITIONAL_REPRESENTATION('',(#117),#121);
#117 = LINE('',#118,#119);
#118 = CARTESIAN_POINT('',(0.,-12.5));
#119 = VECTOR('',#120,1.);
#120 = DIRECTION('',(1.,0.));
#121 = ( GEOMETRIC_REPRESENTATION_CONTEXT(2) 
PARAMETRIC_REPRESENTATION_CONTEXT() REPRESENTATION_CONTEXT('2D SPACE',''
  ) );
#122 = PCURVE('',#123,#128);
#123 = CONICAL_SURFACE('',#124,1.25,1.029744258677);
#124 = AXIS2_PLACEMENT_3D('',#125,#126,#127);
#125 = CARTESIAN_POINT('',(3.261077573883E-16,28.5,3.512896218562E-31));
#126 = DIRECTION('',(1.144237745222E-17,1.,1.232595164408E-32));
#127 = DIRECTION('',(-1.110223024625E-16,1.359631073447E-32,-1.));
#128 = DEFINITIONAL_REPRESENTATION('',(#129),#133);
#129 = LINE('',#130,#131);
#130 = CARTESIAN_POINT('',(0.,0.));
#131 = VECTOR('',#132,1.);
#132 = DIRECTION('',(1.,0.));
#133 = ( GEOMETRIC_REPRESENTATION_CONTEXT(2) 
PARAMETRIC_REPRESENTATION_CONTEXT() REPRESENTATION_CONTEXT('2D SPACE',''
  ) );
#134 = ADVANCED_FACE('',(#135),#123,.F.);
#135 = FACE_BOUND('',#136,.F.);
#136 = EDGE_LOOP('',(#137,#138,#166));
#137 = ORIENTED_EDGE('',*,*,#108,.F.);
#138 = ORIENTED_EDGE('',*,*,#139,.F.);
#139 = EDGE_CURVE('',#140,#86,#142,.T.);
#140 = VERTEX_POINT('',#141);
#141 = CARTESIAN_POINT('',(3.175136648894E-16,27.748924226216,
    3.245577506325E-15));
#142 = SURFACE_CURVE('',#143,(#147,#154),.PCURVE_S1.);
#143 = LINE('',#144,#145);
#144 = CARTESIAN_POINT('',(3.11804785573E-16,28.5,1.25));
#145 = VECTOR('',#146,1.);
#146 = DIRECTION('',(-3.914771739E-18,0.51503807491,0.857167300702));
#147 = PCURVE('',#123,#148);
#148 = DEFINITIONAL_REPRESENTATION('',(#149),#153);
#149 = LINE('',#150,#151);
#150 = CARTESIAN_POINT('',(3.14159265359,1.372337110377E-15));
#151 = VECTOR('',#152,1.);
#152 = DIRECTION('',(0.,1.));
#153 = ( GEOMETRIC_REPRESENTATION_CONTEXT(2) 
PARAMETRIC_REPRESENTATION_CONTEXT() REPRESENTATION_CONTEXT('2D SPACE',''
  ) );
#154 = PCURVE('',#155,#160);
#155 = CONICAL_SURFACE('',#156,1.25,1.029744258677);
#156 = AXIS2_PLACEMENT_3D('',#157,#158,#159);
#157 = CARTESIAN_POINT('',(3.261077573883E-16,28.5,3.512896218562E-31));
#158 = DIRECTION('',(1.144237745222E-17,1.,1.232595164408E-32));
#159 = DIRECTION('',(-1.110223024625E-16,1.359631073447E-32,-1.));
#160 = DEFINITIONAL_REPRESENTATION('',(#161),#165);
#161 = LINE('',#162,#163);
#162 = CARTESIAN_POINT('',(3.14159265359,1.372337110377E-15));
#163 = VECTOR('',#164,1.);
#164 = DIRECTION('',(0.,1.));
#165 = ( GEOMETRIC_REPRESENTATION_CONTEXT(2) 
PARAMETRIC_REPRESENTATION_CONTEXT() REPRESENTATION_CONTEXT('2D SPACE',''
  ) );
#166 = ORIENTED_EDGE('',*,*,#167,.T.);
#167 = EDGE_CURVE('',#140,#22,#168,.T.);
#168 = SURFACE_CURVE('',#169,(#173,#202),.PCURVE_S1.);
#169 = LINE('',#170,#171);
#170 = CARTESIAN_POINT('',(1.873298793101E-16,28.5,-1.25));
#171 = VECTOR('',#172,1.);
#172 = DIRECTION('',(-8.927142726414E-17,0.51503807491,-0.857167300702)
  );
#173 = PCURVE('',#123,#174);
#174 = DEFINITIONAL_REPRESENTATION('',(#175),#201);
#175 = B_SPLINE_CURVE_WITH_KNOTS('',3,(#176,#177,#178,#179,#180,#181,
    #182,#183,#184,#185,#186,#187,#188,#189,#190,#191,#192,#193,#194,
    #195,#196,#197,#198,#199,#200),.UNSPECIFIED.,.F.,.F.,(4,1,1,1,1,1,1,
    1,1,1,1,1,1,1,1,1,1,1,1,1,1,1,4),(-1.458291746519,-1.392005758041,
    -1.325719769563,-1.259433781085,-1.193147792607,-1.126861804128,
    -1.06057581565,-0.994289827172,-0.928003838694,-0.861717850216,
    -0.795431861738,-0.72914587326,-0.662859884781,-0.596573896303,
    -0.530287907825,-0.464001919347,-0.397715930869,-0.331429942391,
    -0.265143953913,-0.198857965434,-0.132571976956,-6.628598847814E-02,
    0.),.UNSPECIFIED.);
#176 = CARTESIAN_POINT('',(6.28318530718,-0.751075773784));
#177 = CARTESIAN_POINT('',(6.28318530718,-0.739695837818));
#178 = CARTESIAN_POINT('',(6.28318530718,-0.716935965885));
#179 = CARTESIAN_POINT('',(6.28318530718,-0.682796157986));
#180 = CARTESIAN_POINT('',(6.28318530718,-0.648656350087));
#181 = CARTESIAN_POINT('',(6.28318530718,-0.614516542187));
#182 = CARTESIAN_POINT('',(6.28318530718,-0.580376734288));
#183 = CARTESIAN_POINT('',(6.28318530718,-0.546236926389));
#184 = CARTESIAN_POINT('',(6.28318530718,-0.512097118489));
#185 = CARTESIAN_POINT('',(6.28318530718,-0.47795731059));
#186 = CARTESIAN_POINT('',(6.28318530718,-0.443817502691));
#187 = CARTESIAN_POINT('',(6.28318530718,-0.409677694792));
#188 = CARTESIAN_POINT('',(6.28318530718,-0.375537886892));
#189 = CARTESIAN_POINT('',(6.28318530718,-0.341398078993));
#190 = CARTESIAN_POINT('',(6.28318530718,-0.307258271094));
#191 = CARTESIAN_POINT('',(6.28318530718,-0.273118463194));
#192 = CARTESIAN_POINT('',(6.28318530718,-0.238978655295));
#193 = CARTESIAN_POINT('',(6.28318530718,-0.204838847396));
#194 = CARTESIAN_POINT('',(6.28318530718,-0.170699039496));
#195 = CARTESIAN_POINT('',(6.28318530718,-0.136559231597));
#196 = CARTESIAN_POINT('',(6.28318530718,-0.102419423698));
#197 = CARTESIAN_POINT('',(6.28318530718,-6.827961579859E-02));
#198 = CARTESIAN_POINT('',(6.28318530718,-3.413980789929E-02));
#199 = CARTESIAN_POINT('',(6.28318530718,-1.137993596643E-02));
#200 = CARTESIAN_POINT('',(6.28318530718,0.));
#201 = ( GEOMETRIC_REPRESENTATION_CONTEXT(2) 
PARAMETRIC_REPRESENTATION_CONTEXT() REPRESENTATION_CONTEXT('2D SPACE',''
  ) );
#202 = PCURVE('',#155,#203);
#203 = DEFINITIONAL_REPRESENTATION('',(#204),#230);
#204 = B_SPLINE_CURVE_WITH_KNOTS('',3,(#205,#206,#207,#208,#209,#210,
    #211,#212,#213,#214,#215,#216,#217,#218,#219,#220,#221,#222,#223,
    #224,#225,#226,#227,#228,#229),.UNSPECIFIED.,.F.,.F.,(4,1,1,1,1,1,1,
    1,1,1,1,1,1,1,1,1,1,1,1,1,1,1,4),(-1.458291746519,-1.392005758041,
    -1.325719769563,-1.259433781085,-1.193147792607,-1.126861804128,
    -1.06057581565,-0.994289827172,-0.928003838694,-0.861717850216,
    -0.795431861738,-0.72914587326,-0.662859884781,-0.596573896303,
    -0.530287907825,-0.464001919347,-0.397715930869,-0.331429942391,
    -0.265143953913,-0.198857965434,-0.132571976956,-6.628598847814E-02,
    0.),.UNSPECIFIED.);
#205 = CARTESIAN_POINT('',(0.,-0.751075773784));
#206 = CARTESIAN_POINT('',(0.,-0.739695837818));
#207 = CARTESIAN_POINT('',(0.,-0.716935965885));
#208 = CARTESIAN_POINT('',(0.,-0.682796157986));
#209 = CARTESIAN_POINT('',(0.,-0.648656350087));
#210 = CARTESIAN_POINT('',(0.,-0.614516542187));
#211 = CARTESIAN_POINT('',(0.,-0.580376734288));
#212 = CARTESIAN_POINT('',(0.,-0.546236926389));
#213 = CARTESIAN_POINT('',(0.,-0.512097118489));
#214 = CARTESIAN_POINT('',(0.,-0.47795731059));
#215 = CARTESIAN_POINT('',(0.,-0.443817502691));
#216 = CARTESIAN_POINT('',(0.,-0.409677694792));
#217 = CARTESIAN_POINT('',(0.,-0.375537886892));
#218 = CARTESIAN_POINT('',(0.,-0.341398078993));
#219 = CARTESIAN_POINT('',(0.,-0.307258271094));
#220 = CARTESIAN_POINT('',(0.,-0.273118463194));
#221 = CARTESIAN_POINT('',(0.,-0.238978655295));
#222 = CARTESIAN_POINT('',(0.,-0.204838847396));
#223 = CARTESIAN_POINT('',(0.,-0.170699039496));
#224 = CARTESIAN_POINT('',(0.,-0.136559231597));
#225 = CARTESIAN_POINT('',(0.,-0.102419423698));
#226 = CARTESIAN_POINT('',(0.,-6.827961579859E-02));
#227 = CARTESIAN_POINT('',(0.,-3.413980789929E-02));
#228 = CARTESIAN_POINT('',(0.,-1.137993596643E-02));
#229 = CARTESIAN_POINT('',(0.,0.));
#230 = ( GEOMETRIC_REPRESENTATION_CONTEXT(2) 
PARAMETRIC_REPRESENTATION_CONTEXT() REPRESENTATION_CONTEXT('2D SPACE',''
  ) );
#231 = ADVANCED_FACE('',(#232),#247,.T.);
#232 = FACE_BOUND('',#233,.T.);
#233 = EDGE_LOOP('',(#234,#265,#293,#322));
#234 = ORIENTED_EDGE('',*,*,#235,.F.);
#235 = EDGE_CURVE('',#236,#238,#240,.T.);
#236 = VERTEX_POINT('',#237);
#237 = CARTESIAN_POINT('',(-1.451961503808E-16,41.,-2.5));
#238 = VERTEX_POINT('',#239);
#239 = CARTESIAN_POINT('',(7.466932316973E-16,41.,2.5));
#240 = SURFACE_CURVE('',#241,(#246,#258),.PCURVE_S1.);
#241 = CIRCLE('',#242,2.5);
#242 = AXIS2_PLACEMENT_3D('',#243,#244,#245);
#243 = CARTESIAN_POINT('',(4.69137475541E-16,41.,5.053640174072E-31));
#244 = DIRECTION('',(1.144237745222E-17,1.,1.232595164408E-32));
#245 = DIRECTION('',(-1.110223024625E-16,1.359631073447E-32,-1.));
#246 = PCURVE('',#247,#252);
#247 = CONICAL_SURFACE('',#248,2.5,0.785398163397);
#248 = AXIS2_PLACEMENT_3D('',#249,#250,#251);
#249 = CARTESIAN_POINT('',(4.69137475541E-16,41.,5.053640174072E-31));
#250 = DIRECTION('',(-1.144237745222E-17,-1.,-1.232595164408E-32));
#251 = DIRECTION('',(1.110223024625E-16,-1.359631073447E-32,1.));
#252 = DEFINITIONAL_REPRESENTATION('',(#253),#257);
#253 = LINE('',#254,#255);
#254 = CARTESIAN_POINT('',(3.14159265359,0.));
#255 = VECTOR('',#256,1.);
#256 = DIRECTION('',(-1.,0.));
#257 = ( GEOMETRIC_REPRESENTATION_CONTEXT(2) 
PARAMETRIC_REPRESENTATION_CONTEXT() REPRESENTATION_CONTEXT('2D SPACE',''
  ) );
#258 = PCURVE('',#73,#259);
#259 = DEFINITIONAL_REPRESENTATION('',(#260),#264);
#260 = CIRCLE('',#261,2.5);
#261 = AXIS2_PLACEMENT_2D('',#262,#263);
#262 = CARTESIAN_POINT('',(0.,0.));
#263 = DIRECTION('',(1.,0.));
#264 = ( GEOMETRIC_REPRESENTATION_CONTEXT(2) 
PARAMETRIC_REPRESENTATION_CONTEXT() REPRESENTATION_CONTEXT('2D SPACE',''
  ) );
#265 = ORIENTED_EDGE('',*,*,#266,.T.);
#266 = EDGE_CURVE('',#236,#267,#269,.T.);
#267 = VERTEX_POINT('',#268);
#268 = CARTESIAN_POINT('',(-2.370446603169E-16,40.5,-3.));
#269 = SURFACE_CURVE('',#270,(#274,#281),.PCURVE_S1.);
#270 = LINE('',#271,#272);
#271 = CARTESIAN_POINT('',(-1.145799804021E-16,41.,-2.5));
#272 = VECTOR('',#273,1.);
#273 = DIRECTION('',(-1.73191211247E-16,-0.707106781187,-0.707106781187)
  );
#274 = PCURVE('',#247,#275);
#275 = DEFINITIONAL_REPRESENTATION('',(#276),#280);
#276 = LINE('',#277,#278);
#277 = CARTESIAN_POINT('',(3.14159265359,-1.874699728327E-33));
#278 = VECTOR('',#279,1.);
#279 = DIRECTION('',(0.,1.));
#280 = ( GEOMETRIC_REPRESENTATION_CONTEXT(2) 
PARAMETRIC_REPRESENTATION_CONTEXT() REPRESENTATION_CONTEXT('2D SPACE',''
  ) );
#281 = PCURVE('',#282,#287);
#282 = CONICAL_SURFACE('',#283,2.5,0.785398163397);
#283 = AXIS2_PLACEMENT_3D('',#284,#285,#286);
#284 = CARTESIAN_POINT('',(4.69137475541E-16,41.,5.053640174072E-31));
#285 = DIRECTION('',(-1.144237745222E-17,-1.,-1.232595164408E-32));
#286 = DIRECTION('',(1.110223024625E-16,-1.359631073447E-32,1.));
#287 = DEFINITIONAL_REPRESENTATION('',(#288),#292);
#288 = LINE('',#289,#290);
#289 = CARTESIAN_POINT('',(3.14159265359,-1.874699728327E-33));
#290 = VECTOR('',#291,1.);
#291 = DIRECTION('',(0.,1.));
#292 = ( GEOMETRIC_REPRESENTATION_CONTEXT(2) 
PARAMETRIC_REPRESENTATION_CONTEXT() REPRESENTATION_CONTEXT('2D SPACE',''
  ) );
#293 = ORIENTED_EDGE('',*,*,#294,.F.);
#294 = EDGE_CURVE('',#295,#267,#297,.T.);
#295 = VERTEX_POINT('',#296);
#296 = CARTESIAN_POINT('',(7.964831942024E-16,40.5,3.));
#297 = SURFACE_CURVE('',#298,(#303,#310),.PCURVE_S1.);
#298 = CIRCLE('',#299,3.);
#299 = AXIS2_PLACEMENT_3D('',#300,#301,#302);
#300 = CARTESIAN_POINT('',(4.634162868149E-16,40.5,4.992010415852E-31));
#301 = DIRECTION('',(-1.144237745222E-17,-1.,-1.232595164408E-32));
#302 = DIRECTION('',(-1.110223024625E-16,1.359631073447E-32,-1.));
#303 = PCURVE('',#247,#304);
#304 = DEFINITIONAL_REPRESENTATION('',(#305),#309);
#305 = LINE('',#306,#307);
#306 = CARTESIAN_POINT('',(-3.14159265359,0.5));
#307 = VECTOR('',#308,1.);
#308 = DIRECTION('',(1.,0.));
#309 = ( GEOMETRIC_REPRESENTATION_CONTEXT(2) 
PARAMETRIC_REPRESENTATION_CONTEXT() REPRESENTATION_CONTEXT('2D SPACE',''
  ) );
#310 = PCURVE('',#311,#316);
#311 = CYLINDRICAL_SURFACE('',#312,3.);
#312 = AXIS2_PLACEMENT_3D('',#313,#314,#315);
#313 = CARTESIAN_POINT('',(4.69137475541E-16,41.,5.053640174072E-31));
#314 = DIRECTION('',(-1.144237745222E-17,-1.,-1.232595164408E-32));
#315 = DIRECTION('',(1.110223024625E-16,-1.359631073447E-32,1.));
#316 = DEFINITIONAL_REPRESENTATION('',(#317),#321);
#317 = LINE('',#318,#319);
#318 = CARTESIAN_POINT('',(-3.14159265359,0.5));
#319 = VECTOR('',#320,1.);
#320 = DIRECTION('',(1.,0.));
#321 = ( GEOMETRIC_REPRESENTATION_CONTEXT(2) 
PARAMETRIC_REPRESENTATION_CONTEXT() REPRESENTATION_CONTEXT('2D SPACE',''
  ) );
#322 = ORIENTED_EDGE('',*,*,#323,.F.);
#323 = EDGE_CURVE('',#238,#295,#324,.T.);
#324 = SURFACE_CURVE('',#325,(#329,#336),.PCURVE_S1.);
#325 = LINE('',#326,#327);
#326 = CARTESIAN_POINT('',(7.466932316973E-16,41.,2.5));
#327 = VECTOR('',#328,1.);
#328 = DIRECTION('',(7.041364024483E-17,-0.707106781187,0.707106781187)
  );
#329 = PCURVE('',#247,#330);
#330 = DEFINITIONAL_REPRESENTATION('',(#331),#335);
#331 = LINE('',#332,#333);
#332 = CARTESIAN_POINT('',(0.,0.));
#333 = VECTOR('',#334,1.);
#334 = DIRECTION('',(0.,1.));
#335 = ( GEOMETRIC_REPRESENTATION_CONTEXT(2) 
PARAMETRIC_REPRESENTATION_CONTEXT() REPRESENTATION_CONTEXT('2D SPACE',''
  ) );
#336 = PCURVE('',#282,#337);
#337 = DEFINITIONAL_REPRESENTATION('',(#338),#342);
#338 = LINE('',#339,#340);
#339 = CARTESIAN_POINT('',(6.28318530718,0.));
#340 = VECTOR('',#341,1.);
#341 = DIRECTION('',(0.,1.));
#342 = ( GEOMETRIC_REPRESENTATION_CONTEXT(2) 
PARAMETRIC_REPRESENTATION_CONTEXT() REPRESENTATION_CONTEXT('2D SPACE',''
  ) );
#343 = ADVANCED_FACE('',(#344),#359,.T.);
#344 = FACE_BOUND('',#345,.T.);
#345 = EDGE_LOOP('',(#346,#386,#414,#438));
#346 = ORIENTED_EDGE('',*,*,#347,.F.);
#347 = EDGE_CURVE('',#348,#350,#352,.T.);
#348 = VERTEX_POINT('',#349);
#349 = CARTESIAN_POINT('',(-5.283595891502E-16,-41.,2.5));
#350 = VERTEX_POINT('',#351);
#351 = CARTESIAN_POINT('',(-7.466932316973E-16,-41.,-2.5));
#352 = SURFACE_CURVE('',#353,(#358,#370),.PCURVE_S1.);
#353 = CIRCLE('',#354,2.5);
#354 = AXIS2_PLACEMENT_3D('',#355,#356,#357);
#355 = CARTESIAN_POINT('',(-4.69137475541E-16,-41.,-5.053640174072E-31)
  );
#356 = DIRECTION('',(-1.144237745222E-17,-1.,-1.232595164408E-32));
#357 = DIRECTION('',(-1.110223024625E-16,1.359631073447E-32,-1.));
#358 = PCURVE('',#359,#364);
#359 = CONICAL_SURFACE('',#360,3.,0.785398163397);
#360 = AXIS2_PLACEMENT_3D('',#361,#362,#363);
#361 = CARTESIAN_POINT('',(-4.634162868149E-16,-40.5,-4.992010415852E-31
    ));
#362 = DIRECTION('',(1.144237745222E-17,1.,1.232595164408E-32));
#363 = DIRECTION('',(-1.110223024625E-16,1.359631073447E-32,-1.));
#364 = DEFINITIONAL_REPRESENTATION('',(#365),#369);
#365 = LINE('',#366,#367);
#366 = CARTESIAN_POINT('',(6.28318530718,-0.5));
#367 = VECTOR('',#368,1.);
#368 = DIRECTION('',(-1.,0.));
#369 = ( GEOMETRIC_REPRESENTATION_CONTEXT(2) 
PARAMETRIC_REPRESENTATION_CONTEXT() REPRESENTATION_CONTEXT('2D SPACE',''
  ) );
#370 = PCURVE('',#371,#376);
#371 = PLANE('',#372);
#372 = AXIS2_PLACEMENT_3D('',#373,#374,#375);
#373 = CARTESIAN_POINT('',(-4.69137475541E-16,-41.,-5.053640174072E-31)
  );
#374 = DIRECTION('',(1.144237745222E-17,1.,1.232595164408E-32));
#375 = DIRECTION('',(-1.110223024625E-16,1.359631073447E-32,-1.));
#376 = DEFINITIONAL_REPRESENTATION('',(#377),#385);
#377 = ( BOUNDED_CURVE() B_SPLINE_CURVE(2,(#378,#379,#380,#381,#382,#383
,#384),.UNSPECIFIED.,.T.,.F.) B_SPLINE_CURVE_WITH_KNOTS((1,2,2,2,2,1),(
    -2.094395102393,0.,2.094395102393,4.188790204786,6.28318530718,
8.377580409573),.UNSPECIFIED.) CURVE() GEOMETRIC_REPRESENTATION_ITEM() 
RATIONAL_B_SPLINE_CURVE((1.,0.5,1.,0.5,1.,0.5,1.)) REPRESENTATION_ITEM(
  '') );
#378 = CARTESIAN_POINT('',(2.5,0.));
#379 = CARTESIAN_POINT('',(2.5,-4.330127018922));
#380 = CARTESIAN_POINT('',(-1.25,-2.165063509461));
#381 = CARTESIAN_POINT('',(-5.,-6.123233995737E-16));
#382 = CARTESIAN_POINT('',(-1.25,2.165063509461));
#383 = CARTESIAN_POINT('',(2.5,4.330127018922));
#384 = CARTESIAN_POINT('',(2.5,0.));
#385 = ( GEOMETRIC_REPRESENTATION_CONTEXT(2) 
PARAMETRIC_REPRESENTATION_CONTEXT() REPRESENTATION_CONTEXT('2D SPACE',''
  ) );
#386 = ORIENTED_EDGE('',*,*,#387,.T.);
#387 = EDGE_CURVE('',#348,#388,#390,.T.);
#388 = VERTEX_POINT('',#389);
#389 = CARTESIAN_POINT('',(-1.303493794273E-16,-40.5,3.));
#390 = SURFACE_CURVE('',#391,(#395,#402),.PCURVE_S1.);
#391 = LINE('',#392,#393);
#392 = CARTESIAN_POINT('',(-4.977434191715E-16,-40.5,3.));
#393 = VECTOR('',#394,1.);
#394 = DIRECTION('',(5.4751877203E-29,0.707106781187,0.707106781187));
#395 = PCURVE('',#359,#396);
#396 = DEFINITIONAL_REPRESENTATION('',(#397),#401);
#397 = LINE('',#398,#399);
#398 = CARTESIAN_POINT('',(3.14159265359,0.));
#399 = VECTOR('',#400,1.);
#400 = DIRECTION('',(0.,1.));
#401 = ( GEOMETRIC_REPRESENTATION_CONTEXT(2) 
PARAMETRIC_REPRESENTATION_CONTEXT() REPRESENTATION_CONTEXT('2D SPACE',''
  ) );
#402 = PCURVE('',#403,#408);
#403 = CONICAL_SURFACE('',#404,3.,0.785398163397);
#404 = AXIS2_PLACEMENT_3D('',#405,#406,#407);
#405 = CARTESIAN_POINT('',(-4.634162868149E-16,-40.5,-4.992010415852E-31
    ));
#406 = DIRECTION('',(1.144237745222E-17,1.,1.232595164408E-32));
#407 = DIRECTION('',(-1.110223024625E-16,1.359631073447E-32,-1.));
#408 = DEFINITIONAL_REPRESENTATION('',(#409),#413);
#409 = LINE('',#410,#411);
#410 = CARTESIAN_POINT('',(3.14159265359,0.));
#411 = VECTOR('',#412,1.);
#412 = DIRECTION('',(0.,1.));
#413 = ( GEOMETRIC_REPRESENTATION_CONTEXT(2) 
PARAMETRIC_REPRESENTATION_CONTEXT() REPRESENTATION_CONTEXT('2D SPACE',''
  ) );
#414 = ORIENTED_EDGE('',*,*,#415,.F.);
#415 = EDGE_CURVE('',#416,#388,#418,.T.);
#416 = VERTEX_POINT('',#417);
#417 = CARTESIAN_POINT('',(-1.163877233947E-15,-40.5,-3.));
#418 = SURFACE_CURVE('',#419,(#424,#431),.PCURVE_S1.);
#419 = CIRCLE('',#420,3.);
#420 = AXIS2_PLACEMENT_3D('',#421,#422,#423);
#421 = CARTESIAN_POINT('',(-4.634162868149E-16,-40.5,-4.992010415852E-31
    ));
#422 = DIRECTION('',(1.144237745222E-17,1.,1.232595164408E-32));
#423 = DIRECTION('',(-1.110223024625E-16,1.359631073447E-32,-1.));
#424 = PCURVE('',#359,#425);
#425 = DEFINITIONAL_REPRESENTATION('',(#426),#430);
#426 = LINE('',#427,#428);
#427 = CARTESIAN_POINT('',(0.,0.));
#428 = VECTOR('',#429,1.);
#429 = DIRECTION('',(1.,0.));
#430 = ( GEOMETRIC_REPRESENTATION_CONTEXT(2) 
PARAMETRIC_REPRESENTATION_CONTEXT() REPRESENTATION_CONTEXT('2D SPACE',''
  ) );
#431 = PCURVE('',#311,#432);
#432 = DEFINITIONAL_REPRESENTATION('',(#433),#437);
#433 = LINE('',#434,#435);
#434 = CARTESIAN_POINT('',(3.14159265359,81.5));
#435 = VECTOR('',#436,1.);
#436 = DIRECTION('',(-1.,0.));
#437 = ( GEOMETRIC_REPRESENTATION_CONTEXT(2) 
PARAMETRIC_REPRESENTATION_CONTEXT() REPRESENTATION_CONTEXT('2D SPACE',''
  ) );
#438 = ORIENTED_EDGE('',*,*,#439,.F.);
#439 = EDGE_CURVE('',#350,#416,#440,.T.);
#440 = SURFACE_CURVE('',#441,(#445,#452),.PCURVE_S1.);
#441 = LINE('',#442,#443);
#442 = CARTESIAN_POINT('',(-7.964831942024E-16,-40.5,-3.));
#443 = VECTOR('',#444,1.);
#444 = DIRECTION('',(-7.041364024483E-17,0.707106781187,-0.707106781187)
  );
#445 = PCURVE('',#359,#446);
#446 = DEFINITIONAL_REPRESENTATION('',(#447),#451);
#447 = LINE('',#448,#449);
#448 = CARTESIAN_POINT('',(0.,0.));
#449 = VECTOR('',#450,1.);
#450 = DIRECTION('',(0.,1.));
#451 = ( GEOMETRIC_REPRESENTATION_CONTEXT(2) 
PARAMETRIC_REPRESENTATION_CONTEXT() REPRESENTATION_CONTEXT('2D SPACE',''
  ) );
#452 = PCURVE('',#403,#453);
#453 = DEFINITIONAL_REPRESENTATION('',(#454),#458);
#454 = LINE('',#455,#456);
#455 = CARTESIAN_POINT('',(6.28318530718,0.));
#456 = VECTOR('',#457,1.);
#457 = DIRECTION('',(0.,1.));
#458 = ( GEOMETRIC_REPRESENTATION_CONTEXT(2) 
PARAMETRIC_REPRESENTATION_CONTEXT() REPRESENTATION_CONTEXT('2D SPACE',''
  ) );
#459 = ADVANCED_FACE('',(#460),#311,.T.);
#460 = FACE_BOUND('',#461,.T.);
#461 = EDGE_LOOP('',(#462,#463,#489,#490));
#462 = ORIENTED_EDGE('',*,*,#294,.T.);
#463 = ORIENTED_EDGE('',*,*,#464,.T.);
#464 = EDGE_CURVE('',#267,#416,#465,.T.);
#465 = SURFACE_CURVE('',#466,(#470,#477),.PCURVE_S1.);
#466 = LINE('',#467,#468);
#467 = CARTESIAN_POINT('',(-2.313234715907E-16,41.,-3.));
#468 = VECTOR('',#469,1.);
#469 = DIRECTION('',(-1.144237745222E-17,-1.,-1.232595164408E-32));
#470 = PCURVE('',#311,#471);
#471 = DEFINITIONAL_REPRESENTATION('',(#472),#476);
#472 = LINE('',#473,#474);
#473 = CARTESIAN_POINT('',(3.14159265359,0.));
#474 = VECTOR('',#475,1.);
#475 = DIRECTION('',(0.,1.));
#476 = ( GEOMETRIC_REPRESENTATION_CONTEXT(2) 
PARAMETRIC_REPRESENTATION_CONTEXT() REPRESENTATION_CONTEXT('2D SPACE',''
  ) );
#477 = PCURVE('',#478,#483);
#478 = CYLINDRICAL_SURFACE('',#479,3.);
#479 = AXIS2_PLACEMENT_3D('',#480,#481,#482);
#480 = CARTESIAN_POINT('',(4.69137475541E-16,41.,5.053640174072E-31));
#481 = DIRECTION('',(-1.144237745222E-17,-1.,-1.232595164408E-32));
#482 = DIRECTION('',(1.110223024625E-16,-1.359631073447E-32,1.));
#483 = DEFINITIONAL_REPRESENTATION('',(#484),#488);
#484 = LINE('',#485,#486);
#485 = CARTESIAN_POINT('',(3.14159265359,0.));
#486 = VECTOR('',#487,1.);
#487 = DIRECTION('',(0.,1.));
#488 = ( GEOMETRIC_REPRESENTATION_CONTEXT(2) 
PARAMETRIC_REPRESENTATION_CONTEXT() REPRESENTATION_CONTEXT('2D SPACE',''
  ) );
#489 = ORIENTED_EDGE('',*,*,#415,.T.);
#490 = ORIENTED_EDGE('',*,*,#491,.F.);
#491 = EDGE_CURVE('',#295,#388,#492,.T.);
#492 = SURFACE_CURVE('',#493,(#497,#504),.PCURVE_S1.);
#493 = LINE('',#494,#495);
#494 = CARTESIAN_POINT('',(8.022043829286E-16,41.,3.));
#495 = VECTOR('',#496,1.);
#496 = DIRECTION('',(-1.144237745222E-17,-1.,-1.232595164408E-32));
#497 = PCURVE('',#311,#498);
#498 = DEFINITIONAL_REPRESENTATION('',(#499),#503);
#499 = LINE('',#500,#501);
#500 = CARTESIAN_POINT('',(0.,0.));
#501 = VECTOR('',#502,1.);
#502 = DIRECTION('',(0.,1.));
#503 = ( GEOMETRIC_REPRESENTATION_CONTEXT(2) 
PARAMETRIC_REPRESENTATION_CONTEXT() REPRESENTATION_CONTEXT('2D SPACE',''
  ) );
#504 = PCURVE('',#478,#505);
#505 = DEFINITIONAL_REPRESENTATION('',(#506),#510);
#506 = LINE('',#507,#508);
#507 = CARTESIAN_POINT('',(6.28318530718,0.));
#508 = VECTOR('',#509,1.);
#509 = DIRECTION('',(0.,1.));
#510 = ( GEOMETRIC_REPRESENTATION_CONTEXT(2) 
PARAMETRIC_REPRESENTATION_CONTEXT() REPRESENTATION_CONTEXT('2D SPACE',''
  ) );
#511 = ADVANCED_FACE('',(#512),#478,.T.);
#512 = FACE_BOUND('',#513,.T.);
#513 = EDGE_LOOP('',(#514,#515,#537,#538));
#514 = ORIENTED_EDGE('',*,*,#464,.F.);
#515 = ORIENTED_EDGE('',*,*,#516,.T.);
#516 = EDGE_CURVE('',#267,#295,#517,.T.);
#517 = SURFACE_CURVE('',#518,(#523,#530),.PCURVE_S1.);
#518 = CIRCLE('',#519,3.);
#519 = AXIS2_PLACEMENT_3D('',#520,#521,#522);
#520 = CARTESIAN_POINT('',(4.634162868149E-16,40.5,4.992010415852E-31));
#521 = DIRECTION('',(-1.144237745222E-17,-1.,-1.232595164408E-32));
#522 = DIRECTION('',(-1.110223024625E-16,1.359631073447E-32,-1.));
#523 = PCURVE('',#478,#524);
#524 = DEFINITIONAL_REPRESENTATION('',(#525),#529);
#525 = LINE('',#526,#527);
#526 = CARTESIAN_POINT('',(3.14159265359,0.5));
#527 = VECTOR('',#528,1.);
#528 = DIRECTION('',(1.,0.));
#529 = ( GEOMETRIC_REPRESENTATION_CONTEXT(2) 
PARAMETRIC_REPRESENTATION_CONTEXT() REPRESENTATION_CONTEXT('2D SPACE',''
  ) );
#530 = PCURVE('',#282,#531);
#531 = DEFINITIONAL_REPRESENTATION('',(#532),#536);
#532 = LINE('',#533,#534);
#533 = CARTESIAN_POINT('',(3.14159265359,0.5));
#534 = VECTOR('',#535,1.);
#535 = DIRECTION('',(1.,0.));
#536 = ( GEOMETRIC_REPRESENTATION_CONTEXT(2) 
PARAMETRIC_REPRESENTATION_CONTEXT() REPRESENTATION_CONTEXT('2D SPACE',''
  ) );
#537 = ORIENTED_EDGE('',*,*,#491,.T.);
#538 = ORIENTED_EDGE('',*,*,#539,.T.);
#539 = EDGE_CURVE('',#388,#416,#540,.T.);
#540 = SURFACE_CURVE('',#541,(#546,#553),.PCURVE_S1.);
#541 = CIRCLE('',#542,3.);
#542 = AXIS2_PLACEMENT_3D('',#543,#544,#545);
#543 = CARTESIAN_POINT('',(-4.634162868149E-16,-40.5,-4.992010415852E-31
    ));
#544 = DIRECTION('',(1.144237745222E-17,1.,1.232595164408E-32));
#545 = DIRECTION('',(-1.110223024625E-16,1.359631073447E-32,-1.));
#546 = PCURVE('',#478,#547);
#547 = DEFINITIONAL_REPRESENTATION('',(#548),#552);
#548 = LINE('',#549,#550);
#549 = CARTESIAN_POINT('',(9.424777960769,81.5));
#550 = VECTOR('',#551,1.);
#551 = DIRECTION('',(-1.,0.));
#552 = ( GEOMETRIC_REPRESENTATION_CONTEXT(2) 
PARAMETRIC_REPRESENTATION_CONTEXT() REPRESENTATION_CONTEXT('2D SPACE',''
  ) );
#553 = PCURVE('',#403,#554);
#554 = DEFINITIONAL_REPRESENTATION('',(#555),#559);
#555 = LINE('',#556,#557);
#556 = CARTESIAN_POINT('',(0.,0.));
#557 = VECTOR('',#558,1.);
#558 = DIRECTION('',(1.,0.));
#559 = ( GEOMETRIC_REPRESENTATION_CONTEXT(2) 
PARAMETRIC_REPRESENTATION_CONTEXT() REPRESENTATION_CONTEXT('2D SPACE',''
  ) );
#560 = ADVANCED_FACE('',(#561,#586),#73,.T.);
#561 = FACE_BOUND('',#562,.T.);
#562 = EDGE_LOOP('',(#563,#585));
#563 = ORIENTED_EDGE('',*,*,#564,.F.);
#564 = EDGE_CURVE('',#24,#57,#565,.T.);
#565 = SURFACE_CURVE('',#566,(#571,#578),.PCURVE_S1.);
#566 = CIRCLE('',#567,1.25);
#567 = AXIS2_PLACEMENT_3D('',#568,#569,#570);
#568 = CARTESIAN_POINT('',(4.69137475541E-16,41.,5.053640174072E-31));
#569 = DIRECTION('',(1.144237745222E-17,1.,1.232595164408E-32));
#570 = DIRECTION('',(-1.110223024625E-16,1.359631073447E-32,-1.));
#571 = PCURVE('',#73,#572);
#572 = DEFINITIONAL_REPRESENTATION('',(#573),#577);
#573 = CIRCLE('',#574,1.25);
#574 = AXIS2_PLACEMENT_2D('',#575,#576);
#575 = CARTESIAN_POINT('',(0.,0.));
#576 = DIRECTION('',(1.,0.));
#577 = ( GEOMETRIC_REPRESENTATION_CONTEXT(2) 
PARAMETRIC_REPRESENTATION_CONTEXT() REPRESENTATION_CONTEXT('2D SPACE',''
  ) );
#578 = PCURVE('',#44,#579);
#579 = DEFINITIONAL_REPRESENTATION('',(#580),#584);
#580 = LINE('',#581,#582);
#581 = CARTESIAN_POINT('',(0.,0.));
#582 = VECTOR('',#583,1.);
#583 = DIRECTION('',(1.,0.));
#584 = ( GEOMETRIC_REPRESENTATION_CONTEXT(2) 
PARAMETRIC_REPRESENTATION_CONTEXT() REPRESENTATION_CONTEXT('2D SPACE',''
  ) );
#585 = ORIENTED_EDGE('',*,*,#56,.F.);
#586 = FACE_BOUND('',#587,.T.);
#587 = EDGE_LOOP('',(#588,#610));
#588 = ORIENTED_EDGE('',*,*,#589,.T.);
#589 = EDGE_CURVE('',#238,#236,#590,.T.);
#590 = SURFACE_CURVE('',#591,(#596,#603),.PCURVE_S1.);
#591 = CIRCLE('',#592,2.5);
#592 = AXIS2_PLACEMENT_3D('',#593,#594,#595);
#593 = CARTESIAN_POINT('',(4.69137475541E-16,41.,5.053640174072E-31));
#594 = DIRECTION('',(1.144237745222E-17,1.,1.232595164408E-32));
#595 = DIRECTION('',(-1.110223024625E-16,1.359631073447E-32,-1.));
#596 = PCURVE('',#73,#597);
#597 = DEFINITIONAL_REPRESENTATION('',(#598),#602);
#598 = CIRCLE('',#599,2.5);
#599 = AXIS2_PLACEMENT_2D('',#600,#601);
#600 = CARTESIAN_POINT('',(0.,0.));
#601 = DIRECTION('',(1.,0.));
#602 = ( GEOMETRIC_REPRESENTATION_CONTEXT(2) 
PARAMETRIC_REPRESENTATION_CONTEXT() REPRESENTATION_CONTEXT('2D SPACE',''
  ) );
#603 = PCURVE('',#282,#604);
#604 = DEFINITIONAL_REPRESENTATION('',(#605),#609);
#605 = LINE('',#606,#607);
#606 = CARTESIAN_POINT('',(9.424777960769,0.));
#607 = VECTOR('',#608,1.);
#608 = DIRECTION('',(-1.,0.));
#609 = ( GEOMETRIC_REPRESENTATION_CONTEXT(2) 
PARAMETRIC_REPRESENTATION_CONTEXT() REPRESENTATION_CONTEXT('2D SPACE',''
  ) );
#610 = ORIENTED_EDGE('',*,*,#235,.T.);
#611 = ADVANCED_FACE('',(#612),#371,.F.);
#612 = FACE_BOUND('',#613,.T.);
#613 = EDGE_LOOP('',(#614,#640));
#614 = ORIENTED_EDGE('',*,*,#615,.T.);
#615 = EDGE_CURVE('',#350,#348,#616,.T.);
#616 = SURFACE_CURVE('',#617,(#622,#633),.PCURVE_S1.);
#617 = CIRCLE('',#618,2.5);
#618 = AXIS2_PLACEMENT_3D('',#619,#620,#621);
#619 = CARTESIAN_POINT('',(-4.69137475541E-16,-41.,-5.053640174072E-31)
  );
#620 = DIRECTION('',(-1.144237745222E-17,-1.,-1.232595164408E-32));
#621 = DIRECTION('',(-1.110223024625E-16,1.359631073447E-32,-1.));
#622 = PCURVE('',#371,#623);
#623 = DEFINITIONAL_REPRESENTATION('',(#624),#632);
#624 = ( BOUNDED_CURVE() B_SPLINE_CURVE(2,(#625,#626,#627,#628,#629,#630
,#631),.UNSPECIFIED.,.T.,.F.) B_SPLINE_CURVE_WITH_KNOTS((1,2,2,2,2,1),(
    -2.094395102393,0.,2.094395102393,4.188790204786,6.28318530718,
8.377580409573),.UNSPECIFIED.) CURVE() GEOMETRIC_REPRESENTATION_ITEM() 
RATIONAL_B_SPLINE_CURVE((1.,0.5,1.,0.5,1.,0.5,1.)) REPRESENTATION_ITEM(
  '') );
#625 = CARTESIAN_POINT('',(2.5,0.));
#626 = CARTESIAN_POINT('',(2.5,-4.330127018922));
#627 = CARTESIAN_POINT('',(-1.25,-2.165063509461));
#628 = CARTESIAN_POINT('',(-5.,-6.123233995737E-16));
#629 = CARTESIAN_POINT('',(-1.25,2.165063509461));
#630 = CARTESIAN_POINT('',(2.5,4.330127018922));
#631 = CARTESIAN_POINT('',(2.5,0.));
#632 = ( GEOMETRIC_REPRESENTATION_CONTEXT(2) 
PARAMETRIC_REPRESENTATION_CONTEXT() REPRESENTATION_CONTEXT('2D SPACE',''
  ) );
#633 = PCURVE('',#403,#634);
#634 = DEFINITIONAL_REPRESENTATION('',(#635),#639);
#635 = LINE('',#636,#637);
#636 = CARTESIAN_POINT('',(6.28318530718,-0.5));
#637 = VECTOR('',#638,1.);
#638 = DIRECTION('',(-1.,0.));
#639 = ( GEOMETRIC_REPRESENTATION_CONTEXT(2) 
PARAMETRIC_REPRESENTATION_CONTEXT() REPRESENTATION_CONTEXT('2D SPACE',''
  ) );
#640 = ORIENTED_EDGE('',*,*,#347,.T.);
#641 = ADVANCED_FACE('',(#642),#403,.T.);
#642 = FACE_BOUND('',#643,.T.);
#643 = EDGE_LOOP('',(#644,#645,#646,#647));
#644 = ORIENTED_EDGE('',*,*,#387,.F.);
#645 = ORIENTED_EDGE('',*,*,#615,.F.);
#646 = ORIENTED_EDGE('',*,*,#439,.T.);
#647 = ORIENTED_EDGE('',*,*,#539,.F.);
#648 = ADVANCED_FACE('',(#649),#282,.T.);
#649 = FACE_BOUND('',#650,.T.);
#650 = EDGE_LOOP('',(#651,#652,#653,#654));
#651 = ORIENTED_EDGE('',*,*,#266,.F.);
#652 = ORIENTED_EDGE('',*,*,#589,.F.);
#653 = ORIENTED_EDGE('',*,*,#323,.T.);
#654 = ORIENTED_EDGE('',*,*,#516,.F.);
#655 = ADVANCED_FACE('',(#656),#155,.F.);
#656 = FACE_BOUND('',#657,.F.);
#657 = EDGE_LOOP('',(#658,#680,#681));
#658 = ORIENTED_EDGE('',*,*,#659,.F.);
#659 = EDGE_CURVE('',#22,#86,#660,.T.);
#660 = SURFACE_CURVE('',#661,(#666,#673),.PCURVE_S1.);
#661 = CIRCLE('',#662,1.25);
#662 = AXIS2_PLACEMENT_3D('',#663,#664,#665);
#663 = CARTESIAN_POINT('',(3.261077573883E-16,28.5,3.512896218562E-31));
#664 = DIRECTION('',(1.144237745222E-17,1.,1.232595164408E-32));
#665 = DIRECTION('',(-1.110223024625E-16,1.359631073447E-32,-1.));
#666 = PCURVE('',#155,#667);
#667 = DEFINITIONAL_REPRESENTATION('',(#668),#672);
#668 = LINE('',#669,#670);
#669 = CARTESIAN_POINT('',(0.,0.));
#670 = VECTOR('',#671,1.);
#671 = DIRECTION('',(1.,0.));
#672 = ( GEOMETRIC_REPRESENTATION_CONTEXT(2) 
PARAMETRIC_REPRESENTATION_CONTEXT() REPRESENTATION_CONTEXT('2D SPACE',''
  ) );
#673 = PCURVE('',#44,#674);
#674 = DEFINITIONAL_REPRESENTATION('',(#675),#679);
#675 = LINE('',#676,#677);
#676 = CARTESIAN_POINT('',(0.,-12.5));
#677 = VECTOR('',#678,1.);
#678 = DIRECTION('',(1.,0.));
#679 = ( GEOMETRIC_REPRESENTATION_CONTEXT(2) 
PARAMETRIC_REPRESENTATION_CONTEXT() REPRESENTATION_CONTEXT('2D SPACE',''
  ) );
#680 = ORIENTED_EDGE('',*,*,#167,.F.);
#681 = ORIENTED_EDGE('',*,*,#139,.T.);
#682 = ADVANCED_FACE('',(#683),#44,.F.);
#683 = FACE_BOUND('',#684,.F.);
#684 = EDGE_LOOP('',(#685,#686,#687,#688));
#685 = ORIENTED_EDGE('',*,*,#564,.F.);
#686 = ORIENTED_EDGE('',*,*,#21,.F.);
#687 = ORIENTED_EDGE('',*,*,#659,.T.);
#688 = ORIENTED_EDGE('',*,*,#85,.T.);
#689 = ( GEOMETRIC_REPRESENTATION_CONTEXT(3) 
GLOBAL_UNCERTAINTY_ASSIGNED_CONTEXT((#693)) GLOBAL_UNIT_ASSIGNED_CONTEXT
((#690,#691,#692)) REPRESENTATION_CONTEXT('Context #1',
  '3D Context with UNIT and UNCERTAINTY') );
#690 = ( LENGTH_UNIT() NAMED_UNIT(*) SI_UNIT(.MILLI.,.METRE.) );
#691 = ( NAMED_UNIT(*) PLANE_ANGLE_UNIT() SI_UNIT($,.RADIAN.) );
#692 = ( NAMED_UNIT(*) SI_UNIT($,.STERADIAN.) SOLID_ANGLE_UNIT() );
#693 = UNCERTAINTY_MEASURE_WITH_UNIT(LENGTH_MEASURE(1.E-07),#690,
  'distance_accuracy_value','confusion accuracy');
#694 = PRODUCT_RELATED_PRODUCT_CATEGORY('part',$,(#7));
ENDSEC;
END-ISO-10303-21;
