ISO-10303-21;
HEADER;
FILE_DESCRIPTION(('Open CASCADE Model'),'2;1');
FILE_NAME('Open CASCADE Shape Model','2026-09-11T11:57:33',('Author'),(
    'Open CASCADE'),'Open CASCADE STEP processor 7.9','Open CASCADE 7.9'
  ,'Unknown');
FILE_SCHEMA(('AUTOMOTIVE_DESIGN { 1 0 10303 214 1 1 1 1 }'));
ENDSEC;
DATA;
#1 = APPLICATION_PROTOCOL_DEFINITION('international standard',
  'automotive_design',2000,#2);
#2 = APPLICATION_CONTEXT(
  'core data for automotive mechanical design processes');
#3 = SHAPE_DEFINITION_REPRESENTATION(#4,#10);
#4 = PRODUCT_DEFINITION_SHAPE('','',#5);
#5 = PRODUCT_DEFINITION('design','',#6,#9);
#6 = PRODUCT_DEFINITION_FORMATION('','',#7);
#7 = PRODUCT('Open CASCADE STEP translator 7.9 17',
  'Open CASCADE STEP translator 7.9 17','',(#8));
#8 = PRODUCT_CONTEXT('',#2,'mechanical');
#9 = PRODUCT_DEFINITION_CONTEXT('part definition',#2,'design');
#10 = ADVANCED_BREP_SHAPE_REPRESENTATION('',(#11,#15),#1157);
#11 = AXIS2_PLACEMENT_3D('',#12,#13,#14);
#12 = CARTESIAN_POINT('',(0.,0.,0.));
#13 = DIRECTION('',(0.,0.,1.));
#14 = DIRECTION('',(1.,0.,-0.));
#15 = MANIFOLD_SOLID_BREP('',#16);
#16 = CLOSED_SHELL('',(#17,#138,#564,#650,#680,#708,#972,#1006,#1034,
    #1039,#1065,#1092,#1098,#1124,#1151));
#17 = ADVANCED_FACE('',(#18),#33,.T.);
#18 = FACE_BOUND('',#19,.T.);
#19 = EDGE_LOOP('',(#20,#56,#84,#117));
#20 = ORIENTED_EDGE('',*,*,#21,.T.);
#21 = EDGE_CURVE('',#22,#24,#26,.T.);
#22 = VERTEX_POINT('',#23);
#23 = CARTESIAN_POINT('',(-9.75,8.511295254074E-15,-69.5));
#24 = VERTEX_POINT('',#25);
#25 = CARTESIAN_POINT('',(9.75,7.317264624905E-15,-69.5));
#26 = SURFACE_CURVE('',#27,(#32,#44),.PCURVE_S1.);
#27 = CIRCLE('',#28,9.75);
#28 = AXIS2_PLACEMENT_3D('',#29,#30,#31);
#29 = CARTESIAN_POINT('',(1.543210004229E-14,8.511295254074E-15,-69.5));
#30 = DIRECTION('',(-2.22044604925E-16,-1.224646799147E-16,1.));
#31 = DIRECTION('',(-1.,0.,-2.22044604925E-16));
#32 = PCURVE('',#33,#38);
#33 = CYLINDRICAL_SURFACE('',#34,9.75);
#34 = AXIS2_PLACEMENT_3D('',#35,#36,#37);
#35 = CARTESIAN_POINT('',(1.543210004229E-14,8.511295254074E-15,-69.5));
#36 = DIRECTION('',(-2.22044604925E-16,-1.224646799147E-16,1.));
#37 = DIRECTION('',(-1.,0.,-2.22044604925E-16));
#38 = DEFINITIONAL_REPRESENTATION('',(#39),#43);
#39 = LINE('',#40,#41);
#40 = CARTESIAN_POINT('',(0.,0.));
#41 = VECTOR('',#42,1.);
#42 = DIRECTION('',(1.,0.));
#43 = ( GEOMETRIC_REPRESENTATION_CONTEXT(2) 
PARAMETRIC_REPRESENTATION_CONTEXT() REPRESENTATION_CONTEXT('2D SPACE',''
  ) );
#44 = PCURVE('',#45,#50);
#45 = PLANE('',#46);
#46 = AXIS2_PLACEMENT_3D('',#47,#48,#49);
#47 = CARTESIAN_POINT('',(1.543210004229E-14,-9.75,-69.5));
#48 = DIRECTION('',(-2.22044604925E-16,-1.224646799147E-16,1.));
#49 = DIRECTION('',(-1.,0.,-2.22044604925E-16));
#50 = DEFINITIONAL_REPRESENTATION('',(#51),#55);
#51 = CIRCLE('',#52,9.75);
#52 = AXIS2_PLACEMENT_2D('',#53,#54);
#53 = CARTESIAN_POINT('',(0.,-9.75));
#54 = DIRECTION('',(1.,0.));
#55 = ( GEOMETRIC_REPRESENTATION_CONTEXT(2) 
PARAMETRIC_REPRESENTATION_CONTEXT() REPRESENTATION_CONTEXT('2D SPACE',''
  ) );
#56 = ORIENTED_EDGE('',*,*,#57,.T.);
#57 = EDGE_CURVE('',#24,#58,#60,.T.);
#58 = VERTEX_POINT('',#59);
#59 = CARTESIAN_POINT('',(9.75,4.623041666781E-15,-47.5));
#60 = SURFACE_CURVE('',#61,(#65,#72),.PCURVE_S1.);
#61 = LINE('',#62,#63);
#62 = CARTESIAN_POINT('',(9.75,7.317264624905E-15,-69.5));
#63 = VECTOR('',#64,1.);
#64 = DIRECTION('',(-2.22044604925E-16,-1.224646799147E-16,1.));
#65 = PCURVE('',#33,#66);
#66 = DEFINITIONAL_REPRESENTATION('',(#67),#71);
#67 = LINE('',#68,#69);
#68 = CARTESIAN_POINT('',(3.14159265359,0.));
#69 = VECTOR('',#70,1.);
#70 = DIRECTION('',(0.,1.));
#71 = ( GEOMETRIC_REPRESENTATION_CONTEXT(2) 
PARAMETRIC_REPRESENTATION_CONTEXT() REPRESENTATION_CONTEXT('2D SPACE',''
  ) );
#72 = PCURVE('',#73,#78);
#73 = CYLINDRICAL_SURFACE('',#74,9.75);
#74 = AXIS2_PLACEMENT_3D('',#75,#76,#77);
#75 = CARTESIAN_POINT('',(1.543210004229E-14,8.511295254074E-15,-69.5));
#76 = DIRECTION('',(-2.22044604925E-16,-1.224646799147E-16,1.));
#77 = DIRECTION('',(-1.,0.,-2.22044604925E-16));
#78 = DEFINITIONAL_REPRESENTATION('',(#79),#83);
#79 = LINE('',#80,#81);
#80 = CARTESIAN_POINT('',(3.14159265359,0.));
#81 = VECTOR('',#82,1.);
#82 = DIRECTION('',(0.,1.));
#83 = ( GEOMETRIC_REPRESENTATION_CONTEXT(2) 
PARAMETRIC_REPRESENTATION_CONTEXT() REPRESENTATION_CONTEXT('2D SPACE',''
  ) );
#84 = ORIENTED_EDGE('',*,*,#85,.F.);
#85 = EDGE_CURVE('',#86,#58,#88,.T.);
#86 = VERTEX_POINT('',#87);
#87 = CARTESIAN_POINT('',(-9.75,5.81707229595E-15,-47.5));
#88 = SURFACE_CURVE('',#89,(#94,#101),.PCURVE_S1.);
#89 = CIRCLE('',#90,9.75);
#90 = AXIS2_PLACEMENT_3D('',#91,#92,#93);
#91 = CARTESIAN_POINT('',(1.054711873394E-14,5.81707229595E-15,-47.5));
#92 = DIRECTION('',(-2.22044604925E-16,-1.224646799147E-16,1.));
#93 = DIRECTION('',(-1.,0.,-2.22044604925E-16));
#94 = PCURVE('',#33,#95);
#95 = DEFINITIONAL_REPRESENTATION('',(#96),#100);
#96 = LINE('',#97,#98);
#97 = CARTESIAN_POINT('',(0.,22.));
#98 = VECTOR('',#99,1.);
#99 = DIRECTION('',(1.,0.));
#100 = ( GEOMETRIC_REPRESENTATION_CONTEXT(2) 
PARAMETRIC_REPRESENTATION_CONTEXT() REPRESENTATION_CONTEXT('2D SPACE',''
  ) );
#101 = PCURVE('',#102,#107);
#102 = PLANE('',#103);
#103 = AXIS2_PLACEMENT_3D('',#104,#105,#106);
#104 = CARTESIAN_POINT('',(1.054711873394E-14,-4.,-47.5));
#105 = DIRECTION('',(2.22044604925E-16,1.224646799147E-16,-1.));
#106 = DIRECTION('',(1.,0.,2.22044604925E-16));
#107 = DEFINITIONAL_REPRESENTATION('',(#108),#116);
#108 = ( BOUNDED_CURVE() B_SPLINE_CURVE(2,(#109,#110,#111,#112,#113,#114
,#115),.UNSPECIFIED.,.T.,.F.) B_SPLINE_CURVE_WITH_KNOTS((1,2,2,2,2,1),(
    -2.094395102393,0.,2.094395102393,4.188790204786,6.28318530718,
8.377580409573),.UNSPECIFIED.) CURVE() GEOMETRIC_REPRESENTATION_ITEM() 
RATIONAL_B_SPLINE_CURVE((1.,0.5,1.,0.5,1.,0.5,1.)) REPRESENTATION_ITEM(
  '') );
#109 = CARTESIAN_POINT('',(-9.75,-4.));
#110 = CARTESIAN_POINT('',(-9.75,12.887495373797));
#111 = CARTESIAN_POINT('',(4.875,4.443747686898));
#112 = CARTESIAN_POINT('',(19.5,-4.));
#113 = CARTESIAN_POINT('',(4.875,-12.44374768689));
#114 = CARTESIAN_POINT('',(-9.75,-20.88749537379));
#115 = CARTESIAN_POINT('',(-9.75,-4.));
#116 = ( GEOMETRIC_REPRESENTATION_CONTEXT(2) 
PARAMETRIC_REPRESENTATION_CONTEXT() REPRESENTATION_CONTEXT('2D SPACE',''
  ) );
#117 = ORIENTED_EDGE('',*,*,#118,.F.);
#118 = EDGE_CURVE('',#22,#86,#119,.T.);
#119 = SURFACE_CURVE('',#120,(#124,#131),.PCURVE_S1.);
#120 = LINE('',#121,#122);
#121 = CARTESIAN_POINT('',(-9.75,8.511295254074E-15,-69.5));
#122 = VECTOR('',#123,1.);
#123 = DIRECTION('',(-2.22044604925E-16,-1.224646799147E-16,1.));
#124 = PCURVE('',#33,#125);
#125 = DEFINITIONAL_REPRESENTATION('',(#126),#130);
#126 = LINE('',#127,#128);
#127 = CARTESIAN_POINT('',(0.,0.));
#128 = VECTOR('',#129,1.);
#129 = DIRECTION('',(0.,1.));
#130 = ( GEOMETRIC_REPRESENTATION_CONTEXT(2) 
PARAMETRIC_REPRESENTATION_CONTEXT() REPRESENTATION_CONTEXT('2D SPACE',''
  ) );
#131 = PCURVE('',#73,#132);
#132 = DEFINITIONAL_REPRESENTATION('',(#133),#137);
#133 = LINE('',#134,#135);
#134 = CARTESIAN_POINT('',(6.28318530718,0.));
#135 = VECTOR('',#136,1.);
#136 = DIRECTION('',(0.,1.));
#137 = ( GEOMETRIC_REPRESENTATION_CONTEXT(2) 
PARAMETRIC_REPRESENTATION_CONTEXT() REPRESENTATION_CONTEXT('2D SPACE',''
  ) );
#138 = ADVANCED_FACE('',(#139),#154,.T.);
#139 = FACE_BOUND('',#140,.T.);
#140 = EDGE_LOOP('',(#141,#176,#204,#256,#284,#336,#359,#388,#411,#463,
    #491,#543));
#141 = ORIENTED_EDGE('',*,*,#142,.T.);
#142 = EDGE_CURVE('',#143,#145,#147,.T.);
#143 = VERTEX_POINT('',#144);
#144 = CARTESIAN_POINT('',(-4.,5.81707229595E-15,-47.5));
#145 = VERTEX_POINT('',#146);
#146 = CARTESIAN_POINT('',(4.,5.327213576291E-15,-47.5));
#147 = SURFACE_CURVE('',#148,(#153,#165),.PCURVE_S1.);
#148 = CIRCLE('',#149,4.);
#149 = AXIS2_PLACEMENT_3D('',#150,#151,#152);
#150 = CARTESIAN_POINT('',(1.054711873394E-14,5.81707229595E-15,-47.5));
#151 = DIRECTION('',(-2.22044604925E-16,-1.224646799147E-16,1.));
#152 = DIRECTION('',(-1.,0.,-2.22044604925E-16));
#153 = PCURVE('',#154,#159);
#154 = CYLINDRICAL_SURFACE('',#155,4.);
#155 = AXIS2_PLACEMENT_3D('',#156,#157,#158);
#156 = CARTESIAN_POINT('',(1.543210004229E-14,8.511295254074E-15,-69.5)
  );
#157 = DIRECTION('',(-2.22044604925E-16,-1.224646799147E-16,1.));
#158 = DIRECTION('',(-1.,0.,-2.22044604925E-16));
#159 = DEFINITIONAL_REPRESENTATION('',(#160),#164);
#160 = LINE('',#161,#162);
#161 = CARTESIAN_POINT('',(0.,22.));
#162 = VECTOR('',#163,1.);
#163 = DIRECTION('',(1.,0.));
#164 = ( GEOMETRIC_REPRESENTATION_CONTEXT(2) 
PARAMETRIC_REPRESENTATION_CONTEXT() REPRESENTATION_CONTEXT('2D SPACE',''
  ) );
#165 = PCURVE('',#102,#166);
#166 = DEFINITIONAL_REPRESENTATION('',(#167),#175);
#167 = ( BOUNDED_CURVE() B_SPLINE_CURVE(2,(#168,#169,#170,#171,#172,#173
,#174),.UNSPECIFIED.,.T.,.F.) B_SPLINE_CURVE_WITH_KNOTS((1,2,2,2,2,1),(
    -2.094395102393,0.,2.094395102393,4.188790204786,6.28318530718,
8.377580409573),.UNSPECIFIED.) CURVE() GEOMETRIC_REPRESENTATION_ITEM() 
RATIONAL_B_SPLINE_CURVE((1.,0.5,1.,0.5,1.,0.5,1.)) REPRESENTATION_ITEM(
  '') );
#168 = CARTESIAN_POINT('',(-4.,-4.));
#169 = CARTESIAN_POINT('',(-4.,2.928203230276));
#170 = CARTESIAN_POINT('',(2.,-0.535898384862));
#171 = CARTESIAN_POINT('',(8.,-4.));
#172 = CARTESIAN_POINT('',(2.,-7.464101615138));
#173 = CARTESIAN_POINT('',(-4.,-10.92820323027));
#174 = CARTESIAN_POINT('',(-4.,-4.));
#175 = ( GEOMETRIC_REPRESENTATION_CONTEXT(2) 
PARAMETRIC_REPRESENTATION_CONTEXT() REPRESENTATION_CONTEXT('2D SPACE',''
  ) );
#176 = ORIENTED_EDGE('',*,*,#177,.T.);
#177 = EDGE_CURVE('',#145,#178,#180,.T.);
#178 = VERTEX_POINT('',#179);
#179 = CARTESIAN_POINT('',(4.,-5.645621744069E-15,42.1));
#180 = SURFACE_CURVE('',#181,(#185,#192),.PCURVE_S1.);
#181 = LINE('',#182,#183);
#182 = CARTESIAN_POINT('',(4.,8.021436534415E-15,-69.5));
#183 = VECTOR('',#184,1.);
#184 = DIRECTION('',(-2.22044604925E-16,-1.224646799147E-16,1.));
#185 = PCURVE('',#154,#186);
#186 = DEFINITIONAL_REPRESENTATION('',(#187),#191);
#187 = LINE('',#188,#189);
#188 = CARTESIAN_POINT('',(3.14159265359,0.));
#189 = VECTOR('',#190,1.);
#190 = DIRECTION('',(0.,1.));
#191 = ( GEOMETRIC_REPRESENTATION_CONTEXT(2) 
PARAMETRIC_REPRESENTATION_CONTEXT() REPRESENTATION_CONTEXT('2D SPACE',''
  ) );
#192 = PCURVE('',#193,#198);
#193 = CYLINDRICAL_SURFACE('',#194,4.);
#194 = AXIS2_PLACEMENT_3D('',#195,#196,#197);
#195 = CARTESIAN_POINT('',(1.543210004229E-14,8.511295254074E-15,-69.5)
  );
#196 = DIRECTION('',(-2.22044604925E-16,-1.224646799147E-16,1.));
#197 = DIRECTION('',(-1.,0.,-2.22044604925E-16));
#198 = DEFINITIONAL_REPRESENTATION('',(#199),#203);
#199 = LINE('',#200,#201);
#200 = CARTESIAN_POINT('',(3.14159265359,0.));
#201 = VECTOR('',#202,1.);
#202 = DIRECTION('',(0.,1.));
#203 = ( GEOMETRIC_REPRESENTATION_CONTEXT(2) 
PARAMETRIC_REPRESENTATION_CONTEXT() REPRESENTATION_CONTEXT('2D SPACE',''
  ) );
#204 = ORIENTED_EDGE('',*,*,#205,.T.);
#205 = EDGE_CURVE('',#178,#206,#208,.T.);
#206 = VERTEX_POINT('',#207);
#207 = CARTESIAN_POINT('',(3.,-2.645751311065,43.1));
#208 = SURFACE_CURVE('',#209,(#214,#243),.PCURVE_S1.);
#209 = ( BOUNDED_CURVE() B_SPLINE_CURVE(3,(#210,#211,#212,#213),
.UNSPECIFIED.,.F.,.F.) B_SPLINE_CURVE_WITH_KNOTS((4,4),(3.14159265359,
3.864326901403),.PIECEWISE_BEZIER_KNOTS.) CURVE() 
GEOMETRIC_REPRESENTATION_ITEM() RATIONAL_B_SPLINE_CURVE((1.,
0.956942897796,0.956942897796,1.)) REPRESENTATION_ITEM('') );
#210 = CARTESIAN_POINT('',(4.,-5.645621744069E-15,42.1));
#211 = CARTESIAN_POINT('',(4.,-0.985230198953,42.1));
#212 = CARTESIAN_POINT('',(3.651668522645,-1.90682866185,42.448331477355
    ));
#213 = CARTESIAN_POINT('',(3.,-2.645751311065,43.1));
#214 = PCURVE('',#154,#215);
#215 = DEFINITIONAL_REPRESENTATION('',(#216),#242);
#216 = B_SPLINE_CURVE_WITH_KNOTS('',3,(#217,#218,#219,#220,#221,#222,
    #223,#224,#225,#226,#227,#228,#229,#230,#231,#232,#233,#234,#235,
    #236,#237,#238,#239,#240,#241),.UNSPECIFIED.,.F.,.F.,(4,1,1,1,1,1,1,
    1,1,1,1,1,1,1,1,1,1,1,1,1,1,1,4),(3.14159265359,3.174444210309,
    3.207295767027,3.240147323746,3.272998880465,3.305850437184,
    3.338701993903,3.371553550621,3.40440510734,3.437256664059,
    3.470108220778,3.502959777497,3.535811334215,3.568662890934,
    3.601514447653,3.634366004372,3.66721756109,3.700069117809,
    3.732920674528,3.765772231247,3.798623787966,3.831475344684,
    3.864326901403),.QUASI_UNIFORM_KNOTS.);
#217 = CARTESIAN_POINT('',(3.14159265359,111.6));
#218 = CARTESIAN_POINT('',(3.130878957861,111.59999897195));
#219 = CARTESIAN_POINT('',(3.10938849575,111.60137821244));
#220 = CARTESIAN_POINT('',(3.076979381018,111.60764436209));
#221 = CARTESIAN_POINT('',(3.044412440188,111.61816618248));
#222 = CARTESIAN_POINT('',(3.011703950998,111.63298461641));
#223 = CARTESIAN_POINT('',(2.978870583493,111.65212848343));
#224 = CARTESIAN_POINT('',(2.945929418425,111.67561248278));
#225 = CARTESIAN_POINT('',(2.912897879025,111.70343728519));
#226 = CARTESIAN_POINT('',(2.879793682416,111.73558920299));
#227 = CARTESIAN_POINT('',(2.84663478269,111.77204011767));
#228 = CARTESIAN_POINT('',(2.813439313652,111.81274748754));
#229 = CARTESIAN_POINT('',(2.780225529683,111.85765448514));
#230 = CARTESIAN_POINT('',(2.747011745714,111.90669025122));
#231 = CARTESIAN_POINT('',(2.713816276676,111.95977026628));
#232 = CARTESIAN_POINT('',(2.68065737695,112.01679683486));
#233 = CARTESIAN_POINT('',(2.647553180341,112.07765967718));
#234 = CARTESIAN_POINT('',(2.614521640941,112.14223661918));
#235 = CARTESIAN_POINT('',(2.581580475873,112.21039437784));
#236 = CARTESIAN_POINT('',(2.548747108368,112.28198941039));
#237 = CARTESIAN_POINT('',(2.516038619178,112.35686889507));
#238 = CARTESIAN_POINT('',(2.483471678348,112.43487153731));
#239 = CARTESIAN_POINT('',(2.451062563616,112.51582928616));
#240 = CARTESIAN_POINT('',(2.429572101505,112.57165366397));
#241 = CARTESIAN_POINT('',(2.418858405776,112.6));
#242 = ( GEOMETRIC_REPRESENTATION_CONTEXT(2) 
PARAMETRIC_REPRESENTATION_CONTEXT() REPRESENTATION_CONTEXT('2D SPACE',''
  ) );
#243 = PCURVE('',#244,#249);
#244 = PLANE('',#245);
#245 = AXIS2_PLACEMENT_3D('',#246,#247,#248);
#246 = CARTESIAN_POINT('',(3.,3.,43.1));
#247 = DIRECTION('',(-0.707106781187,8.659560562355E-17,-0.707106781187)
  );
#248 = DIRECTION('',(0.707106781187,8.659560562355E-17,-0.707106781187)
  );
#249 = DEFINITIONAL_REPRESENTATION('',(#250),#255);
#250 = ( BOUNDED_CURVE() B_SPLINE_CURVE(3,(#251,#252,#253,#254),
.UNSPECIFIED.,.F.,.F.) B_SPLINE_CURVE_WITH_KNOTS((4,4),(3.14159265359,
3.864326901403),.PIECEWISE_BEZIER_KNOTS.) CURVE() 
GEOMETRIC_REPRESENTATION_ITEM() RATIONAL_B_SPLINE_CURVE((1.,
0.956942897796,0.956942897796,1.)) REPRESENTATION_ITEM('') );
#251 = CARTESIAN_POINT('',(1.414213562373,3.));
#252 = CARTESIAN_POINT('',(1.414213562373,3.985230198953));
#253 = CARTESIAN_POINT('',(0.921598462896,4.90682866185));
#254 = CARTESIAN_POINT('',(0.,5.645751311065));
#255 = ( GEOMETRIC_REPRESENTATION_CONTEXT(2) 
PARAMETRIC_REPRESENTATION_CONTEXT() REPRESENTATION_CONTEXT('2D SPACE',''
  ) );
#256 = ORIENTED_EDGE('',*,*,#257,.T.);
#257 = EDGE_CURVE('',#206,#258,#260,.T.);
#258 = VERTEX_POINT('',#259);
#259 = CARTESIAN_POINT('',(3.,-2.645751311065,49.5));
#260 = SURFACE_CURVE('',#261,(#265,#272),.PCURVE_S1.);
#261 = LINE('',#262,#263);
#262 = CARTESIAN_POINT('',(3.,-2.645751311065,-69.5));
#263 = VECTOR('',#264,1.);
#264 = DIRECTION('',(-2.22044604925E-16,-1.224646799147E-16,1.));
#265 = PCURVE('',#154,#266);
#266 = DEFINITIONAL_REPRESENTATION('',(#267),#271);
#267 = LINE('',#268,#269);
#268 = CARTESIAN_POINT('',(2.418858405776,0.));
#269 = VECTOR('',#270,1.);
#270 = DIRECTION('',(0.,1.));
#271 = ( GEOMETRIC_REPRESENTATION_CONTEXT(2) 
PARAMETRIC_REPRESENTATION_CONTEXT() REPRESENTATION_CONTEXT('2D SPACE',''
  ) );
#272 = PCURVE('',#273,#278);
#273 = PLANE('',#274);
#274 = AXIS2_PLACEMENT_3D('',#275,#276,#277);
#275 = CARTESIAN_POINT('',(3.,3.,49.5));
#276 = DIRECTION('',(-1.,0.,-2.22044604925E-16));
#277 = DIRECTION('',(2.22044604925E-16,1.224646799147E-16,-1.));
#278 = DEFINITIONAL_REPRESENTATION('',(#279),#283);
#279 = LINE('',#280,#281);
#280 = CARTESIAN_POINT('',(119.,5.645751311065));
#281 = VECTOR('',#282,1.);
#282 = DIRECTION('',(-1.,0.));
#283 = ( GEOMETRIC_REPRESENTATION_CONTEXT(2) 
PARAMETRIC_REPRESENTATION_CONTEXT() REPRESENTATION_CONTEXT('2D SPACE',''
  ) );
#284 = ORIENTED_EDGE('',*,*,#285,.T.);
#285 = EDGE_CURVE('',#258,#286,#288,.T.);
#286 = VERTEX_POINT('',#287);
#287 = CARTESIAN_POINT('',(4.,-6.674325055353E-15,50.5));
#288 = SURFACE_CURVE('',#289,(#294,#323),.PCURVE_S1.);
#289 = ( BOUNDED_CURVE() B_SPLINE_CURVE(3,(#290,#291,#292,#293),
.UNSPECIFIED.,.F.,.F.) B_SPLINE_CURVE_WITH_KNOTS((4,4),(5.560451059366,
6.28318530718),.PIECEWISE_BEZIER_KNOTS.) CURVE() 
GEOMETRIC_REPRESENTATION_ITEM() RATIONAL_B_SPLINE_CURVE((1.,
0.956942897796,0.956942897796,1.)) REPRESENTATION_ITEM('') );
#290 = CARTESIAN_POINT('',(3.,-2.645751311065,49.5));
#291 = CARTESIAN_POINT('',(3.651668522645,-1.90682866185,50.151668522645
    ));
#292 = CARTESIAN_POINT('',(4.,-0.985230198953,50.5));
#293 = CARTESIAN_POINT('',(4.,-6.674325055353E-15,50.5));
#294 = PCURVE('',#154,#295);
#295 = DEFINITIONAL_REPRESENTATION('',(#296),#322);
#296 = B_SPLINE_CURVE_WITH_KNOTS('',3,(#297,#298,#299,#300,#301,#302,
    #303,#304,#305,#306,#307,#308,#309,#310,#311,#312,#313,#314,#315,
    #316,#317,#318,#319,#320,#321),.UNSPECIFIED.,.F.,.F.,(4,1,1,1,1,1,1,
    1,1,1,1,1,1,1,1,1,1,1,1,1,1,1,4),(5.560451059366,5.593302616085,
    5.626154172804,5.659005729523,5.691857286241,5.72470884296,
    5.757560399679,5.790411956398,5.823263513117,5.856115069835,
    5.888966626554,5.921818183273,5.954669739992,5.98752129671,
    6.020372853429,6.053224410148,6.086075966867,6.118927523586,
    6.151779080304,6.184630637023,6.217482193742,6.250333750461,
    6.28318530718),.QUASI_UNIFORM_KNOTS.);
#297 = CARTESIAN_POINT('',(2.418858405776,119.));
#298 = CARTESIAN_POINT('',(2.429572101505,119.02834633602));
#299 = CARTESIAN_POINT('',(2.451062563616,119.08417071383));
#300 = CARTESIAN_POINT('',(2.483471678348,119.16512846268));
#301 = CARTESIAN_POINT('',(2.516038619178,119.24313110492));
#302 = CARTESIAN_POINT('',(2.548747108368,119.3180105896));
#303 = CARTESIAN_POINT('',(2.581580475873,119.38960562215));
#304 = CARTESIAN_POINT('',(2.614521640941,119.45776338081));
#305 = CARTESIAN_POINT('',(2.647553180341,119.52234032281));
#306 = CARTESIAN_POINT('',(2.68065737695,119.58320316513));
#307 = CARTESIAN_POINT('',(2.713816276676,119.64022973371));
#308 = CARTESIAN_POINT('',(2.747011745714,119.69330974878));
#309 = CARTESIAN_POINT('',(2.780225529683,119.74234551485));
#310 = CARTESIAN_POINT('',(2.813439313652,119.78725251245));
#311 = CARTESIAN_POINT('',(2.84663478269,119.82795988232));
#312 = CARTESIAN_POINT('',(2.879793682416,119.864410797));
#313 = CARTESIAN_POINT('',(2.912897879025,119.8965627148));
#314 = CARTESIAN_POINT('',(2.945929418425,119.92438751721));
#315 = CARTESIAN_POINT('',(2.978870583493,119.94787151656));
#316 = CARTESIAN_POINT('',(3.011703950998,119.96701538358));
#317 = CARTESIAN_POINT('',(3.044412440188,119.98183381751));
#318 = CARTESIAN_POINT('',(3.076979381018,119.9923556379));
#319 = CARTESIAN_POINT('',(3.10938849575,119.99862178756));
#320 = CARTESIAN_POINT('',(3.130878957861,120.00000102804));
#321 = CARTESIAN_POINT('',(3.14159265359,120.));
#322 = ( GEOMETRIC_REPRESENTATION_CONTEXT(2) 
PARAMETRIC_REPRESENTATION_CONTEXT() REPRESENTATION_CONTEXT('2D SPACE',''
  ) );
#323 = PCURVE('',#324,#329);
#324 = PLANE('',#325);
#325 = AXIS2_PLACEMENT_3D('',#326,#327,#328);
#326 = CARTESIAN_POINT('',(5.,3.,51.5));
#327 = DIRECTION('',(-0.707106781187,-8.659560562355E-17,0.707106781187)
  );
#328 = DIRECTION('',(-0.707106781187,8.659560562355E-17,-0.707106781187)
  );
#329 = DEFINITIONAL_REPRESENTATION('',(#330),#335);
#330 = ( BOUNDED_CURVE() B_SPLINE_CURVE(3,(#331,#332,#333,#334),
.UNSPECIFIED.,.F.,.F.) B_SPLINE_CURVE_WITH_KNOTS((4,4),(5.560451059366,
6.28318530718),.PIECEWISE_BEZIER_KNOTS.) CURVE() 
GEOMETRIC_REPRESENTATION_ITEM() RATIONAL_B_SPLINE_CURVE((1.,
0.956942897796,0.956942897796,1.)) REPRESENTATION_ITEM('') );
#331 = CARTESIAN_POINT('',(2.828427124746,5.645751311065));
#332 = CARTESIAN_POINT('',(1.90682866185,4.90682866185));
#333 = CARTESIAN_POINT('',(1.414213562373,3.985230198953));
#334 = CARTESIAN_POINT('',(1.414213562373,3.));
#335 = ( GEOMETRIC_REPRESENTATION_CONTEXT(2) 
PARAMETRIC_REPRESENTATION_CONTEXT() REPRESENTATION_CONTEXT('2D SPACE',''
  ) );
#336 = ORIENTED_EDGE('',*,*,#337,.T.);
#337 = EDGE_CURVE('',#286,#338,#340,.T.);
#338 = VERTEX_POINT('',#339);
#339 = CARTESIAN_POINT('',(4.,-8.41736484458E-15,68.733));
#340 = SURFACE_CURVE('',#341,(#345,#352),.PCURVE_S1.);
#341 = LINE('',#342,#343);
#342 = CARTESIAN_POINT('',(4.,8.021436534415E-15,-69.5));
#343 = VECTOR('',#344,1.);
#344 = DIRECTION('',(-2.22044604925E-16,-1.224646799147E-16,1.));
#345 = PCURVE('',#154,#346);
#346 = DEFINITIONAL_REPRESENTATION('',(#347),#351);
#347 = LINE('',#348,#349);
#348 = CARTESIAN_POINT('',(3.14159265359,0.));
#349 = VECTOR('',#350,1.);
#350 = DIRECTION('',(0.,1.));
#351 = ( GEOMETRIC_REPRESENTATION_CONTEXT(2) 
PARAMETRIC_REPRESENTATION_CONTEXT() REPRESENTATION_CONTEXT('2D SPACE',''
  ) );
#352 = PCURVE('',#193,#353);
#353 = DEFINITIONAL_REPRESENTATION('',(#354),#358);
#354 = LINE('',#355,#356);
#355 = CARTESIAN_POINT('',(3.14159265359,0.));
#356 = VECTOR('',#357,1.);
#357 = DIRECTION('',(0.,1.));
#358 = ( GEOMETRIC_REPRESENTATION_CONTEXT(2) 
PARAMETRIC_REPRESENTATION_CONTEXT() REPRESENTATION_CONTEXT('2D SPACE',''
  ) );
#359 = ORIENTED_EDGE('',*,*,#360,.F.);
#360 = EDGE_CURVE('',#361,#338,#363,.T.);
#361 = VERTEX_POINT('',#362);
#362 = CARTESIAN_POINT('',(-4.,-8.907223564238E-15,68.733));
#363 = SURFACE_CURVE('',#364,(#369,#376),.PCURVE_S1.);
#364 = CIRCLE('',#365,4.);
#365 = AXIS2_PLACEMENT_3D('',#366,#367,#368);
#366 = CARTESIAN_POINT('',(-1.526179183031E-14,-8.41736484458E-15,68.733
    ));
#367 = DIRECTION('',(-2.22044604925E-16,-1.224646799147E-16,1.));
#368 = DIRECTION('',(-1.,0.,-2.22044604925E-16));
#369 = PCURVE('',#154,#370);
#370 = DEFINITIONAL_REPRESENTATION('',(#371),#375);
#371 = LINE('',#372,#373);
#372 = CARTESIAN_POINT('',(0.,138.233));
#373 = VECTOR('',#374,1.);
#374 = DIRECTION('',(1.,0.));
#375 = ( GEOMETRIC_REPRESENTATION_CONTEXT(2) 
PARAMETRIC_REPRESENTATION_CONTEXT() REPRESENTATION_CONTEXT('2D SPACE',''
  ) );
#376 = PCURVE('',#377,#382);
#377 = CONICAL_SURFACE('',#378,4.,0.785398163397);
#378 = AXIS2_PLACEMENT_3D('',#379,#380,#381);
#379 = CARTESIAN_POINT('',(-1.526179183031E-14,-8.41736484458E-15,68.733
    ));
#380 = DIRECTION('',(2.22044604925E-16,1.224646799147E-16,-1.));
#381 = DIRECTION('',(1.,0.,2.22044604925E-16));
#382 = DEFINITIONAL_REPRESENTATION('',(#383),#387);
#383 = LINE('',#384,#385);
#384 = CARTESIAN_POINT('',(3.14159265359,0.));
#385 = VECTOR('',#386,1.);
#386 = DIRECTION('',(-1.,0.));
#387 = ( GEOMETRIC_REPRESENTATION_CONTEXT(2) 
PARAMETRIC_REPRESENTATION_CONTEXT() REPRESENTATION_CONTEXT('2D SPACE',''
  ) );
#388 = ORIENTED_EDGE('',*,*,#389,.F.);
#389 = EDGE_CURVE('',#390,#361,#392,.T.);
#390 = VERTEX_POINT('',#391);
#391 = CARTESIAN_POINT('',(-4.,-6.184466335694E-15,50.5));
#392 = SURFACE_CURVE('',#393,(#397,#404),.PCURVE_S1.);
#393 = LINE('',#394,#395);
#394 = CARTESIAN_POINT('',(-4.,8.511295254074E-15,-69.5));
#395 = VECTOR('',#396,1.);
#396 = DIRECTION('',(-2.22044604925E-16,-1.224646799147E-16,1.));
#397 = PCURVE('',#154,#398);
#398 = DEFINITIONAL_REPRESENTATION('',(#399),#403);
#399 = LINE('',#400,#401);
#400 = CARTESIAN_POINT('',(0.,0.));
#401 = VECTOR('',#402,1.);
#402 = DIRECTION('',(0.,1.));
#403 = ( GEOMETRIC_REPRESENTATION_CONTEXT(2) 
PARAMETRIC_REPRESENTATION_CONTEXT() REPRESENTATION_CONTEXT('2D SPACE',''
  ) );
#404 = PCURVE('',#193,#405);
#405 = DEFINITIONAL_REPRESENTATION('',(#406),#410);
#406 = LINE('',#407,#408);
#407 = CARTESIAN_POINT('',(6.28318530718,0.));
#408 = VECTOR('',#409,1.);
#409 = DIRECTION('',(0.,1.));
#410 = ( GEOMETRIC_REPRESENTATION_CONTEXT(2) 
PARAMETRIC_REPRESENTATION_CONTEXT() REPRESENTATION_CONTEXT('2D SPACE',''
  ) );
#411 = ORIENTED_EDGE('',*,*,#412,.T.);
#412 = EDGE_CURVE('',#390,#413,#415,.T.);
#413 = VERTEX_POINT('',#414);
#414 = CARTESIAN_POINT('',(-3.,-2.645751311065,49.5));
#415 = SURFACE_CURVE('',#416,(#421,#450),.PCURVE_S1.);
#416 = ( BOUNDED_CURVE() B_SPLINE_CURVE(3,(#417,#418,#419,#420),
.UNSPECIFIED.,.F.,.F.) B_SPLINE_CURVE_WITH_KNOTS((4,4),(0.,
0.722734247813),.PIECEWISE_BEZIER_KNOTS.) CURVE() 
GEOMETRIC_REPRESENTATION_ITEM() RATIONAL_B_SPLINE_CURVE((1.,
0.956942897796,0.956942897796,1.)) REPRESENTATION_ITEM('') );
#417 = CARTESIAN_POINT('',(-4.,-6.184466335694E-15,50.5));
#418 = CARTESIAN_POINT('',(-4.,-0.985230198953,50.5));
#419 = CARTESIAN_POINT('',(-3.651668522645,-1.90682866185,
    50.151668522645));
#420 = CARTESIAN_POINT('',(-3.,-2.645751311065,49.5));
#421 = PCURVE('',#154,#422);
#422 = DEFINITIONAL_REPRESENTATION('',(#423),#449);
#423 = B_SPLINE_CURVE_WITH_KNOTS('',3,(#424,#425,#426,#427,#428,#429,
    #430,#431,#432,#433,#434,#435,#436,#437,#438,#439,#440,#441,#442,
    #443,#444,#445,#446,#447,#448),.UNSPECIFIED.,.F.,.F.,(4,1,1,1,1,1,1,
    1,1,1,1,1,1,1,1,1,1,1,1,1,1,1,4),(0.,3.285155671879E-02,
    6.570311343758E-02,9.855467015637E-02,0.131406226875,0.164257783594,
    0.197109340313,0.229960897032,0.26281245375,0.295664010469,
    0.328515567188,0.361367123907,0.394218680625,0.427070237344,
    0.459921794063,0.492773350782,0.525624907501,0.558476464219,
    0.591328020938,0.624179577657,0.657031134376,0.689882691095,
    0.722734247813),.QUASI_UNIFORM_KNOTS.);
#424 = CARTESIAN_POINT('',(0.,120.));
#425 = CARTESIAN_POINT('',(1.071369572835E-02,120.00000102804));
#426 = CARTESIAN_POINT('',(3.220415783998E-02,119.99862178756));
#427 = CARTESIAN_POINT('',(6.461327257156E-02,119.9923556379));
#428 = CARTESIAN_POINT('',(9.718021340168E-02,119.98183381751));
#429 = CARTESIAN_POINT('',(0.129888702592,119.96701538358));
#430 = CARTESIAN_POINT('',(0.162722070097,119.94787151656));
#431 = CARTESIAN_POINT('',(0.195663235164,119.92438751721));
#432 = CARTESIAN_POINT('',(0.228694774565,119.8965627148));
#433 = CARTESIAN_POINT('',(0.261798971173,119.864410797));
#434 = CARTESIAN_POINT('',(0.2949578709,119.82795988232));
#435 = CARTESIAN_POINT('',(0.328153339938,119.78725251245));
#436 = CARTESIAN_POINT('',(0.361367123907,119.74234551485));
#437 = CARTESIAN_POINT('',(0.394580907875,119.69330974878));
#438 = CARTESIAN_POINT('',(0.427776376913,119.64022973371));
#439 = CARTESIAN_POINT('',(0.46093527664,119.58320316513));
#440 = CARTESIAN_POINT('',(0.494039473248,119.52234032281));
#441 = CARTESIAN_POINT('',(0.527071012649,119.45776338081));
#442 = CARTESIAN_POINT('',(0.560012177717,119.38960562215));
#443 = CARTESIAN_POINT('',(0.592845545222,119.3180105896));
#444 = CARTESIAN_POINT('',(0.625554034412,119.24313110492));
#445 = CARTESIAN_POINT('',(0.658120975242,119.16512846268));
#446 = CARTESIAN_POINT('',(0.690530089973,119.08417071383));
#447 = CARTESIAN_POINT('',(0.712020552085,119.02834633602));
#448 = CARTESIAN_POINT('',(0.722734247813,119.));
#449 = ( GEOMETRIC_REPRESENTATION_CONTEXT(2) 
PARAMETRIC_REPRESENTATION_CONTEXT() REPRESENTATION_CONTEXT('2D SPACE',''
  ) );
#450 = PCURVE('',#451,#456);
#451 = PLANE('',#452);
#452 = AXIS2_PLACEMENT_3D('',#453,#454,#455);
#453 = CARTESIAN_POINT('',(-3.,3.,49.5));
#454 = DIRECTION('',(0.707106781187,-8.659560562355E-17,0.707106781187)
  );
#455 = DIRECTION('',(-0.707106781187,-8.659560562355E-17,0.707106781187)
  );
#456 = DEFINITIONAL_REPRESENTATION('',(#457),#462);
#457 = ( BOUNDED_CURVE() B_SPLINE_CURVE(3,(#458,#459,#460,#461),
.UNSPECIFIED.,.F.,.F.) B_SPLINE_CURVE_WITH_KNOTS((4,4),(0.,
0.722734247813),.PIECEWISE_BEZIER_KNOTS.) CURVE() 
GEOMETRIC_REPRESENTATION_ITEM() RATIONAL_B_SPLINE_CURVE((1.,
0.956942897796,0.956942897796,1.)) REPRESENTATION_ITEM('') );
#458 = CARTESIAN_POINT('',(1.414213562373,3.));
#459 = CARTESIAN_POINT('',(1.414213562373,3.985230198953));
#460 = CARTESIAN_POINT('',(0.921598462896,4.90682866185));
#461 = CARTESIAN_POINT('',(7.105427357601E-15,5.645751311065));
#462 = ( GEOMETRIC_REPRESENTATION_CONTEXT(2) 
PARAMETRIC_REPRESENTATION_CONTEXT() REPRESENTATION_CONTEXT('2D SPACE',''
  ) );
#463 = ORIENTED_EDGE('',*,*,#464,.T.);
#464 = EDGE_CURVE('',#413,#465,#467,.T.);
#465 = VERTEX_POINT('',#466);
#466 = CARTESIAN_POINT('',(-3.,-2.645751311065,43.1));
#467 = SURFACE_CURVE('',#468,(#472,#479),.PCURVE_S1.);
#468 = LINE('',#469,#470);
#469 = CARTESIAN_POINT('',(-3.,-2.645751311065,-69.5));
#470 = VECTOR('',#471,1.);
#471 = DIRECTION('',(2.22044604925E-16,1.224646799147E-16,-1.));
#472 = PCURVE('',#154,#473);
#473 = DEFINITIONAL_REPRESENTATION('',(#474),#478);
#474 = LINE('',#475,#476);
#475 = CARTESIAN_POINT('',(0.722734247813,0.));
#476 = VECTOR('',#477,1.);
#477 = DIRECTION('',(0.,-1.));
#478 = ( GEOMETRIC_REPRESENTATION_CONTEXT(2) 
PARAMETRIC_REPRESENTATION_CONTEXT() REPRESENTATION_CONTEXT('2D SPACE',''
  ) );
#479 = PCURVE('',#480,#485);
#480 = PLANE('',#481);
#481 = AXIS2_PLACEMENT_3D('',#482,#483,#484);
#482 = CARTESIAN_POINT('',(-3.,3.,43.1));
#483 = DIRECTION('',(1.,0.,2.22044604925E-16));
#484 = DIRECTION('',(-2.22044604925E-16,-1.224646799147E-16,1.));
#485 = DEFINITIONAL_REPRESENTATION('',(#486),#490);
#486 = LINE('',#487,#488);
#487 = CARTESIAN_POINT('',(-112.6,5.645751311065));
#488 = VECTOR('',#489,1.);
#489 = DIRECTION('',(-1.,0.));
#490 = ( GEOMETRIC_REPRESENTATION_CONTEXT(2) 
PARAMETRIC_REPRESENTATION_CONTEXT() REPRESENTATION_CONTEXT('2D SPACE',''
  ) );
#491 = ORIENTED_EDGE('',*,*,#492,.T.);
#492 = EDGE_CURVE('',#465,#493,#495,.T.);
#493 = VERTEX_POINT('',#494);
#494 = CARTESIAN_POINT('',(-4.,-5.15576302441E-15,42.1));
#495 = SURFACE_CURVE('',#496,(#501,#530),.PCURVE_S1.);
#496 = ( BOUNDED_CURVE() B_SPLINE_CURVE(3,(#497,#498,#499,#500),
.UNSPECIFIED.,.F.,.F.) B_SPLINE_CURVE_WITH_KNOTS((4,4),(2.418858405776,
3.14159265359),.PIECEWISE_BEZIER_KNOTS.) CURVE() 
GEOMETRIC_REPRESENTATION_ITEM() RATIONAL_B_SPLINE_CURVE((1.,
0.956942897796,0.956942897796,1.)) REPRESENTATION_ITEM('') );
#497 = CARTESIAN_POINT('',(-3.,-2.645751311065,43.1));
#498 = CARTESIAN_POINT('',(-3.651668522645,-1.90682866185,
    42.448331477355));
#499 = CARTESIAN_POINT('',(-4.,-0.985230198953,42.1));
#500 = CARTESIAN_POINT('',(-4.,-5.15576302441E-15,42.1));
#501 = PCURVE('',#154,#502);
#502 = DEFINITIONAL_REPRESENTATION('',(#503),#529);
#503 = B_SPLINE_CURVE_WITH_KNOTS('',3,(#504,#505,#506,#507,#508,#509,
    #510,#511,#512,#513,#514,#515,#516,#517,#518,#519,#520,#521,#522,
    #523,#524,#525,#526,#527,#528),.UNSPECIFIED.,.F.,.F.,(4,1,1,1,1,1,1,
    1,1,1,1,1,1,1,1,1,1,1,1,1,1,1,4),(2.418858405776,2.451709962495,
    2.484561519214,2.517413075933,2.550264632652,2.58311618937,
    2.615967746089,2.648819302808,2.681670859527,2.714522416246,
    2.747373972964,2.780225529683,2.813077086402,2.845928643121,
    2.878780199839,2.911631756558,2.944483313277,2.977334869996,
    3.010186426715,3.043037983433,3.075889540152,3.108741096871,
    3.14159265359),.QUASI_UNIFORM_KNOTS.);
#504 = CARTESIAN_POINT('',(0.722734247813,112.6));
#505 = CARTESIAN_POINT('',(0.712020552085,112.57165366397));
#506 = CARTESIAN_POINT('',(0.690530089973,112.51582928616));
#507 = CARTESIAN_POINT('',(0.658120975242,112.43487153731));
#508 = CARTESIAN_POINT('',(0.625554034412,112.35686889507));
#509 = CARTESIAN_POINT('',(0.592845545222,112.28198941039));
#510 = CARTESIAN_POINT('',(0.560012177717,112.21039437784));
#511 = CARTESIAN_POINT('',(0.527071012649,112.14223661918));
#512 = CARTESIAN_POINT('',(0.494039473248,112.07765967718));
#513 = CARTESIAN_POINT('',(0.46093527664,112.01679683486));
#514 = CARTESIAN_POINT('',(0.427776376913,111.95977026628));
#515 = CARTESIAN_POINT('',(0.394580907875,111.90669025122));
#516 = CARTESIAN_POINT('',(0.361367123907,111.85765448514));
#517 = CARTESIAN_POINT('',(0.328153339938,111.81274748754));
#518 = CARTESIAN_POINT('',(0.2949578709,111.77204011767));
#519 = CARTESIAN_POINT('',(0.261798971173,111.73558920299));
#520 = CARTESIAN_POINT('',(0.228694774565,111.70343728519));
#521 = CARTESIAN_POINT('',(0.195663235164,111.67561248278));
#522 = CARTESIAN_POINT('',(0.162722070097,111.65212848343));
#523 = CARTESIAN_POINT('',(0.129888702592,111.63298461641));
#524 = CARTESIAN_POINT('',(9.718021340168E-02,111.61816618248));
#525 = CARTESIAN_POINT('',(6.461327257156E-02,111.60764436209));
#526 = CARTESIAN_POINT('',(3.220415783998E-02,111.60137821244));
#527 = CARTESIAN_POINT('',(1.071369572835E-02,111.59999897195));
#528 = CARTESIAN_POINT('',(0.,111.6));
#529 = ( GEOMETRIC_REPRESENTATION_CONTEXT(2) 
PARAMETRIC_REPRESENTATION_CONTEXT() REPRESENTATION_CONTEXT('2D SPACE',''
  ) );
#530 = PCURVE('',#531,#536);
#531 = PLANE('',#532);
#532 = AXIS2_PLACEMENT_3D('',#533,#534,#535);
#533 = CARTESIAN_POINT('',(-12.,3.,34.1));
#534 = DIRECTION('',(0.707106781187,8.659560562355E-17,-0.707106781187)
  );
#535 = DIRECTION('',(0.707106781187,-8.659560562355E-17,0.707106781187)
  );
#536 = DEFINITIONAL_REPRESENTATION('',(#537),#542);
#537 = ( BOUNDED_CURVE() B_SPLINE_CURVE(3,(#538,#539,#540,#541),
.UNSPECIFIED.,.F.,.F.) B_SPLINE_CURVE_WITH_KNOTS((4,4),(2.418858405776,
3.14159265359),.PIECEWISE_BEZIER_KNOTS.) CURVE() 
GEOMETRIC_REPRESENTATION_ITEM() RATIONAL_B_SPLINE_CURVE((1.,
0.956942897796,0.956942897796,1.)) REPRESENTATION_ITEM('') );
#538 = CARTESIAN_POINT('',(12.727922061358,5.645751311065));
#539 = CARTESIAN_POINT('',(11.806323598461,4.90682866185));
#540 = CARTESIAN_POINT('',(11.313708498985,3.985230198953));
#541 = CARTESIAN_POINT('',(11.313708498985,3.));
#542 = ( GEOMETRIC_REPRESENTATION_CONTEXT(2) 
PARAMETRIC_REPRESENTATION_CONTEXT() REPRESENTATION_CONTEXT('2D SPACE',''
  ) );
#543 = ORIENTED_EDGE('',*,*,#544,.F.);
#544 = EDGE_CURVE('',#143,#493,#545,.T.);
#545 = SURFACE_CURVE('',#546,(#550,#557),.PCURVE_S1.);
#546 = LINE('',#547,#548);
#547 = CARTESIAN_POINT('',(-4.,8.511295254074E-15,-69.5));
#548 = VECTOR('',#549,1.);
#549 = DIRECTION('',(-2.22044604925E-16,-1.224646799147E-16,1.));
#550 = PCURVE('',#154,#551);
#551 = DEFINITIONAL_REPRESENTATION('',(#552),#556);
#552 = LINE('',#553,#554);
#553 = CARTESIAN_POINT('',(0.,0.));
#554 = VECTOR('',#555,1.);
#555 = DIRECTION('',(0.,1.));
#556 = ( GEOMETRIC_REPRESENTATION_CONTEXT(2) 
PARAMETRIC_REPRESENTATION_CONTEXT() REPRESENTATION_CONTEXT('2D SPACE',''
  ) );
#557 = PCURVE('',#193,#558);
#558 = DEFINITIONAL_REPRESENTATION('',(#559),#563);
#559 = LINE('',#560,#561);
#560 = CARTESIAN_POINT('',(6.28318530718,0.));
#561 = VECTOR('',#562,1.);
#562 = DIRECTION('',(0.,1.));
#563 = ( GEOMETRIC_REPRESENTATION_CONTEXT(2) 
PARAMETRIC_REPRESENTATION_CONTEXT() REPRESENTATION_CONTEXT('2D SPACE',''
  ) );
#564 = ADVANCED_FACE('',(#565),#377,.T.);
#565 = FACE_BOUND('',#566,.T.);
#566 = EDGE_LOOP('',(#567,#602,#628,#629));
#567 = ORIENTED_EDGE('',*,*,#568,.F.);
#568 = EDGE_CURVE('',#569,#571,#573,.T.);
#569 = VERTEX_POINT('',#570);
#570 = CARTESIAN_POINT('',(-3.233,-8.954188768986E-15,69.5));
#571 = VERTEX_POINT('',#572);
#572 = CARTESIAN_POINT('',(3.233,-8.511295254074E-15,69.5));
#573 = SURFACE_CURVE('',#574,(#579,#586),.PCURVE_S1.);
#574 = CIRCLE('',#575,3.233);
#575 = AXIS2_PLACEMENT_3D('',#576,#577,#578);
#576 = CARTESIAN_POINT('',(-1.543210004229E-14,-8.511295254074E-15,69.5)
  );
#577 = DIRECTION('',(-2.22044604925E-16,-1.224646799147E-16,1.));
#578 = DIRECTION('',(-1.,0.,-2.22044604925E-16));
#579 = PCURVE('',#377,#580);
#580 = DEFINITIONAL_REPRESENTATION('',(#581),#585);
#581 = LINE('',#582,#583);
#582 = CARTESIAN_POINT('',(3.14159265359,-0.767));
#583 = VECTOR('',#584,1.);
#584 = DIRECTION('',(-1.,0.));
#585 = ( GEOMETRIC_REPRESENTATION_CONTEXT(2) 
PARAMETRIC_REPRESENTATION_CONTEXT() REPRESENTATION_CONTEXT('2D SPACE',''
  ) );
#586 = PCURVE('',#587,#592);
#587 = PLANE('',#588);
#588 = AXIS2_PLACEMENT_3D('',#589,#590,#591);
#589 = CARTESIAN_POINT('',(-1.543210004229E-14,-8.511295254074E-15,69.5)
  );
#590 = DIRECTION('',(2.22044604925E-16,1.224646799147E-16,-1.));
#591 = DIRECTION('',(1.,0.,2.22044604925E-16));
#592 = DEFINITIONAL_REPRESENTATION('',(#593),#601);
#593 = ( BOUNDED_CURVE() B_SPLINE_CURVE(2,(#594,#595,#596,#597,#598,#599
,#600),.UNSPECIFIED.,.T.,.F.) B_SPLINE_CURVE_WITH_KNOTS((1,2,2,2,2,1),(
    -2.094395102393,0.,2.094395102393,4.188790204786,6.28318530718,
8.377580409573),.UNSPECIFIED.) CURVE() GEOMETRIC_REPRESENTATION_ITEM() 
RATIONAL_B_SPLINE_CURVE((1.,0.5,1.,0.5,1.,0.5,1.)) REPRESENTATION_ITEM(
  '') );
#594 = CARTESIAN_POINT('',(-3.233,0.));
#595 = CARTESIAN_POINT('',(-3.233,5.59972026087));
#596 = CARTESIAN_POINT('',(1.6165,2.799860130435));
#597 = CARTESIAN_POINT('',(6.466,7.918566203287E-16));
#598 = CARTESIAN_POINT('',(1.6165,-2.799860130435));
#599 = CARTESIAN_POINT('',(-3.233,-5.59972026087));
#600 = CARTESIAN_POINT('',(-3.233,0.));
#601 = ( GEOMETRIC_REPRESENTATION_CONTEXT(2) 
PARAMETRIC_REPRESENTATION_CONTEXT() REPRESENTATION_CONTEXT('2D SPACE',''
  ) );
#602 = ORIENTED_EDGE('',*,*,#603,.T.);
#603 = EDGE_CURVE('',#569,#361,#604,.T.);
#604 = SURFACE_CURVE('',#605,(#609,#616),.PCURVE_S1.);
#605 = LINE('',#606,#607);
#606 = CARTESIAN_POINT('',(-4.,-8.907223564238E-15,68.733));
#607 = VECTOR('',#608,1.);
#608 = DIRECTION('',(-0.707106781187,-1.133987551255E-30,-0.707106781187
    ));
#609 = PCURVE('',#377,#610);
#610 = DEFINITIONAL_REPRESENTATION('',(#611),#615);
#611 = LINE('',#612,#613);
#612 = CARTESIAN_POINT('',(3.14159265359,0.));
#613 = VECTOR('',#614,1.);
#614 = DIRECTION('',(0.,1.));
#615 = ( GEOMETRIC_REPRESENTATION_CONTEXT(2) 
PARAMETRIC_REPRESENTATION_CONTEXT() REPRESENTATION_CONTEXT('2D SPACE',''
  ) );
#616 = PCURVE('',#617,#622);
#617 = CONICAL_SURFACE('',#618,4.,0.785398163397);
#618 = AXIS2_PLACEMENT_3D('',#619,#620,#621);
#619 = CARTESIAN_POINT('',(-1.526179183031E-14,-8.41736484458E-15,68.733
    ));
#620 = DIRECTION('',(2.22044604925E-16,1.224646799147E-16,-1.));
#621 = DIRECTION('',(1.,0.,2.22044604925E-16));
#622 = DEFINITIONAL_REPRESENTATION('',(#623),#627);
#623 = LINE('',#624,#625);
#624 = CARTESIAN_POINT('',(3.14159265359,0.));
#625 = VECTOR('',#626,1.);
#626 = DIRECTION('',(0.,1.));
#627 = ( GEOMETRIC_REPRESENTATION_CONTEXT(2) 
PARAMETRIC_REPRESENTATION_CONTEXT() REPRESENTATION_CONTEXT('2D SPACE',''
  ) );
#628 = ORIENTED_EDGE('',*,*,#360,.T.);
#629 = ORIENTED_EDGE('',*,*,#630,.F.);
#630 = EDGE_CURVE('',#571,#338,#631,.T.);
#631 = SURFACE_CURVE('',#632,(#636,#643),.PCURVE_S1.);
#632 = LINE('',#633,#634);
#633 = CARTESIAN_POINT('',(4.,-8.41736484458E-15,68.733));
#634 = VECTOR('',#635,1.);
#635 = DIRECTION('',(0.707106781187,8.659560562355E-17,-0.707106781187)
  );
#636 = PCURVE('',#377,#637);
#637 = DEFINITIONAL_REPRESENTATION('',(#638),#642);
#638 = LINE('',#639,#640);
#639 = CARTESIAN_POINT('',(0.,0.));
#640 = VECTOR('',#641,1.);
#641 = DIRECTION('',(0.,1.));
#642 = ( GEOMETRIC_REPRESENTATION_CONTEXT(2) 
PARAMETRIC_REPRESENTATION_CONTEXT() REPRESENTATION_CONTEXT('2D SPACE',''
  ) );
#643 = PCURVE('',#617,#644);
#644 = DEFINITIONAL_REPRESENTATION('',(#645),#649);
#645 = LINE('',#646,#647);
#646 = CARTESIAN_POINT('',(6.28318530718,0.));
#647 = VECTOR('',#648,1.);
#648 = DIRECTION('',(0.,1.));
#649 = ( GEOMETRIC_REPRESENTATION_CONTEXT(2) 
PARAMETRIC_REPRESENTATION_CONTEXT() REPRESENTATION_CONTEXT('2D SPACE',''
  ) );
#650 = ADVANCED_FACE('',(#651),#587,.F.);
#651 = FACE_BOUND('',#652,.T.);
#652 = EDGE_LOOP('',(#653,#679));
#653 = ORIENTED_EDGE('',*,*,#654,.T.);
#654 = EDGE_CURVE('',#571,#569,#655,.T.);
#655 = SURFACE_CURVE('',#656,(#661,#672),.PCURVE_S1.);
#656 = CIRCLE('',#657,3.233);
#657 = AXIS2_PLACEMENT_3D('',#658,#659,#660);
#658 = CARTESIAN_POINT('',(-1.543210004229E-14,-8.511295254074E-15,69.5)
  );
#659 = DIRECTION('',(-2.22044604925E-16,-1.224646799147E-16,1.));
#660 = DIRECTION('',(-1.,0.,-2.22044604925E-16));
#661 = PCURVE('',#587,#662);
#662 = DEFINITIONAL_REPRESENTATION('',(#663),#671);
#663 = ( BOUNDED_CURVE() B_SPLINE_CURVE(2,(#664,#665,#666,#667,#668,#669
,#670),.UNSPECIFIED.,.T.,.F.) B_SPLINE_CURVE_WITH_KNOTS((1,2,2,2,2,1),(
    -2.094395102393,0.,2.094395102393,4.188790204786,6.28318530718,
8.377580409573),.UNSPECIFIED.) CURVE() GEOMETRIC_REPRESENTATION_ITEM() 
RATIONAL_B_SPLINE_CURVE((1.,0.5,1.,0.5,1.,0.5,1.)) REPRESENTATION_ITEM(
  '') );
#664 = CARTESIAN_POINT('',(-3.233,0.));
#665 = CARTESIAN_POINT('',(-3.233,5.59972026087));
#666 = CARTESIAN_POINT('',(1.6165,2.799860130435));
#667 = CARTESIAN_POINT('',(6.466,7.918566203287E-16));
#668 = CARTESIAN_POINT('',(1.6165,-2.799860130435));
#669 = CARTESIAN_POINT('',(-3.233,-5.59972026087));
#670 = CARTESIAN_POINT('',(-3.233,0.));
#671 = ( GEOMETRIC_REPRESENTATION_CONTEXT(2) 
PARAMETRIC_REPRESENTATION_CONTEXT() REPRESENTATION_CONTEXT('2D SPACE',''
  ) );
#672 = PCURVE('',#617,#673);
#673 = DEFINITIONAL_REPRESENTATION('',(#674),#678);
#674 = LINE('',#675,#676);
#675 = CARTESIAN_POINT('',(9.424777960769,-0.767));
#676 = VECTOR('',#677,1.);
#677 = DIRECTION('',(-1.,0.));
#678 = ( GEOMETRIC_REPRESENTATION_CONTEXT(2) 
PARAMETRIC_REPRESENTATION_CONTEXT() REPRESENTATION_CONTEXT('2D SPACE',''
  ) );
#679 = ORIENTED_EDGE('',*,*,#568,.T.);
#680 = ADVANCED_FACE('',(#681),#617,.T.);
#681 = FACE_BOUND('',#682,.T.);
#682 = EDGE_LOOP('',(#683,#684,#685,#686));
#683 = ORIENTED_EDGE('',*,*,#603,.F.);
#684 = ORIENTED_EDGE('',*,*,#654,.F.);
#685 = ORIENTED_EDGE('',*,*,#630,.T.);
#686 = ORIENTED_EDGE('',*,*,#687,.T.);
#687 = EDGE_CURVE('',#338,#361,#688,.T.);
#688 = SURFACE_CURVE('',#689,(#694,#701),.PCURVE_S1.);
#689 = CIRCLE('',#690,4.);
#690 = AXIS2_PLACEMENT_3D('',#691,#692,#693);
#691 = CARTESIAN_POINT('',(-1.526179183031E-14,-8.41736484458E-15,68.733
    ));
#692 = DIRECTION('',(-2.22044604925E-16,-1.224646799147E-16,1.));
#693 = DIRECTION('',(-1.,0.,-2.22044604925E-16));
#694 = PCURVE('',#617,#695);
#695 = DEFINITIONAL_REPRESENTATION('',(#696),#700);
#696 = LINE('',#697,#698);
#697 = CARTESIAN_POINT('',(9.424777960769,0.));
#698 = VECTOR('',#699,1.);
#699 = DIRECTION('',(-1.,0.));
#700 = ( GEOMETRIC_REPRESENTATION_CONTEXT(2) 
PARAMETRIC_REPRESENTATION_CONTEXT() REPRESENTATION_CONTEXT('2D SPACE',''
  ) );
#701 = PCURVE('',#193,#702);
#702 = DEFINITIONAL_REPRESENTATION('',(#703),#707);
#703 = LINE('',#704,#705);
#704 = CARTESIAN_POINT('',(0.,138.233));
#705 = VECTOR('',#706,1.);
#706 = DIRECTION('',(1.,0.));
#707 = ( GEOMETRIC_REPRESENTATION_CONTEXT(2) 
PARAMETRIC_REPRESENTATION_CONTEXT() REPRESENTATION_CONTEXT('2D SPACE',''
  ) );
#708 = ADVANCED_FACE('',(#709),#193,.T.);
#709 = FACE_BOUND('',#710,.T.);
#710 = EDGE_LOOP('',(#711,#712,#738,#739,#786,#809,#854,#855,#856,#857,
    #904,#927));
#711 = ORIENTED_EDGE('',*,*,#177,.F.);
#712 = ORIENTED_EDGE('',*,*,#713,.T.);
#713 = EDGE_CURVE('',#145,#143,#714,.T.);
#714 = SURFACE_CURVE('',#715,(#720,#727),.PCURVE_S1.);
#715 = CIRCLE('',#716,4.);
#716 = AXIS2_PLACEMENT_3D('',#717,#718,#719);
#717 = CARTESIAN_POINT('',(1.054711873394E-14,5.81707229595E-15,-47.5));
#718 = DIRECTION('',(-2.22044604925E-16,-1.224646799147E-16,1.));
#719 = DIRECTION('',(-1.,0.,-2.22044604925E-16));
#720 = PCURVE('',#193,#721);
#721 = DEFINITIONAL_REPRESENTATION('',(#722),#726);
#722 = LINE('',#723,#724);
#723 = CARTESIAN_POINT('',(0.,22.));
#724 = VECTOR('',#725,1.);
#725 = DIRECTION('',(1.,0.));
#726 = ( GEOMETRIC_REPRESENTATION_CONTEXT(2) 
PARAMETRIC_REPRESENTATION_CONTEXT() REPRESENTATION_CONTEXT('2D SPACE',''
  ) );
#727 = PCURVE('',#102,#728);
#728 = DEFINITIONAL_REPRESENTATION('',(#729),#737);
#729 = ( BOUNDED_CURVE() B_SPLINE_CURVE(2,(#730,#731,#732,#733,#734,#735
,#736),.UNSPECIFIED.,.T.,.F.) B_SPLINE_CURVE_WITH_KNOTS((1,2,2,2,2,1),(
    -2.094395102393,0.,2.094395102393,4.188790204786,6.28318530718,
8.377580409573),.UNSPECIFIED.) CURVE() GEOMETRIC_REPRESENTATION_ITEM() 
RATIONAL_B_SPLINE_CURVE((1.,0.5,1.,0.5,1.,0.5,1.)) REPRESENTATION_ITEM(
  '') );
#730 = CARTESIAN_POINT('',(-4.,-4.));
#731 = CARTESIAN_POINT('',(-4.,2.928203230276));
#732 = CARTESIAN_POINT('',(2.,-0.535898384862));
#733 = CARTESIAN_POINT('',(8.,-4.));
#734 = CARTESIAN_POINT('',(2.,-7.464101615138));
#735 = CARTESIAN_POINT('',(-4.,-10.92820323027));
#736 = CARTESIAN_POINT('',(-4.,-4.));
#737 = ( GEOMETRIC_REPRESENTATION_CONTEXT(2) 
PARAMETRIC_REPRESENTATION_CONTEXT() REPRESENTATION_CONTEXT('2D SPACE',''
  ) );
#738 = ORIENTED_EDGE('',*,*,#544,.T.);
#739 = ORIENTED_EDGE('',*,*,#740,.T.);
#740 = EDGE_CURVE('',#493,#741,#743,.T.);
#741 = VERTEX_POINT('',#742);
#742 = CARTESIAN_POINT('',(-3.,2.645751311065,43.1));
#743 = SURFACE_CURVE('',#744,(#749,#778),.PCURVE_S1.);
#744 = ( BOUNDED_CURVE() B_SPLINE_CURVE(3,(#745,#746,#747,#748),
.UNSPECIFIED.,.F.,.F.) B_SPLINE_CURVE_WITH_KNOTS((4,4),(3.14159265359,
3.864326901403),.PIECEWISE_BEZIER_KNOTS.) CURVE() 
GEOMETRIC_REPRESENTATION_ITEM() RATIONAL_B_SPLINE_CURVE((1.,
0.956942897796,0.956942897796,1.)) REPRESENTATION_ITEM('') );
#745 = CARTESIAN_POINT('',(-4.,-5.15576302441E-15,42.1));
#746 = CARTESIAN_POINT('',(-4.,0.985230198953,42.1));
#747 = CARTESIAN_POINT('',(-3.651668522645,1.90682866185,42.448331477355
    ));
#748 = CARTESIAN_POINT('',(-3.,2.645751311065,43.1));
#749 = PCURVE('',#193,#750);
#750 = DEFINITIONAL_REPRESENTATION('',(#751),#777);
#751 = B_SPLINE_CURVE_WITH_KNOTS('',3,(#752,#753,#754,#755,#756,#757,
    #758,#759,#760,#761,#762,#763,#764,#765,#766,#767,#768,#769,#770,
    #771,#772,#773,#774,#775,#776),.UNSPECIFIED.,.F.,.F.,(4,1,1,1,1,1,1,
    1,1,1,1,1,1,1,1,1,1,1,1,1,1,1,4),(3.14159265359,3.174444210309,
    3.207295767027,3.240147323746,3.272998880465,3.305850437184,
    3.338701993903,3.371553550621,3.40440510734,3.437256664059,
    3.470108220778,3.502959777497,3.535811334215,3.568662890934,
    3.601514447653,3.634366004372,3.66721756109,3.700069117809,
    3.732920674528,3.765772231247,3.798623787966,3.831475344684,
    3.864326901403),.QUASI_UNIFORM_KNOTS.);
#752 = CARTESIAN_POINT('',(6.28318530718,111.6));
#753 = CARTESIAN_POINT('',(6.272471611451,111.59999897195));
#754 = CARTESIAN_POINT('',(6.25098114934,111.60137821244));
#755 = CARTESIAN_POINT('',(6.218572034608,111.60764436209));
#756 = CARTESIAN_POINT('',(6.186005093778,111.61816618248));
#757 = CARTESIAN_POINT('',(6.153296604588,111.63298461641));
#758 = CARTESIAN_POINT('',(6.120463237083,111.65212848343));
#759 = CARTESIAN_POINT('',(6.087522072015,111.67561248278));
#760 = CARTESIAN_POINT('',(6.054490532615,111.70343728519));
#761 = CARTESIAN_POINT('',(6.021386336006,111.73558920299));
#762 = CARTESIAN_POINT('',(5.988227436279,111.77204011767));
#763 = CARTESIAN_POINT('',(5.955031967242,111.81274748754));
#764 = CARTESIAN_POINT('',(5.921818183273,111.85765448514));
#765 = CARTESIAN_POINT('',(5.888604399304,111.90669025122));
#766 = CARTESIAN_POINT('',(5.855408930266,111.95977026628));
#767 = CARTESIAN_POINT('',(5.822250030539,112.01679683486));
#768 = CARTESIAN_POINT('',(5.789145833931,112.07765967718));
#769 = CARTESIAN_POINT('',(5.756114294531,112.14223661918));
#770 = CARTESIAN_POINT('',(5.723173129463,112.21039437784));
#771 = CARTESIAN_POINT('',(5.690339761958,112.28198941039));
#772 = CARTESIAN_POINT('',(5.657631272768,112.35686889507));
#773 = CARTESIAN_POINT('',(5.625064331938,112.43487153731));
#774 = CARTESIAN_POINT('',(5.592655217206,112.51582928616));
#775 = CARTESIAN_POINT('',(5.571164755095,112.57165366397));
#776 = CARTESIAN_POINT('',(5.560451059366,112.6));
#777 = ( GEOMETRIC_REPRESENTATION_CONTEXT(2) 
PARAMETRIC_REPRESENTATION_CONTEXT() REPRESENTATION_CONTEXT('2D SPACE',''
  ) );
#778 = PCURVE('',#531,#779);
#779 = DEFINITIONAL_REPRESENTATION('',(#780),#785);
#780 = ( BOUNDED_CURVE() B_SPLINE_CURVE(3,(#781,#782,#783,#784),
.UNSPECIFIED.,.F.,.F.) B_SPLINE_CURVE_WITH_KNOTS((4,4),(3.14159265359,
3.864326901403),.PIECEWISE_BEZIER_KNOTS.) CURVE() 
GEOMETRIC_REPRESENTATION_ITEM() RATIONAL_B_SPLINE_CURVE((1.,
0.956942897796,0.956942897796,1.)) REPRESENTATION_ITEM('') );
#781 = CARTESIAN_POINT('',(11.313708498985,3.));
#782 = CARTESIAN_POINT('',(11.313708498985,2.014769801047));
#783 = CARTESIAN_POINT('',(11.806323598461,1.09317133815));
#784 = CARTESIAN_POINT('',(12.727922061358,0.354248688935));
#785 = ( GEOMETRIC_REPRESENTATION_CONTEXT(2) 
PARAMETRIC_REPRESENTATION_CONTEXT() REPRESENTATION_CONTEXT('2D SPACE',''
  ) );
#786 = ORIENTED_EDGE('',*,*,#787,.T.);
#787 = EDGE_CURVE('',#741,#788,#790,.T.);
#788 = VERTEX_POINT('',#789);
#789 = CARTESIAN_POINT('',(-3.,2.645751311065,49.5));
#790 = SURFACE_CURVE('',#791,(#795,#802),.PCURVE_S1.);
#791 = LINE('',#792,#793);
#792 = CARTESIAN_POINT('',(-3.,2.645751311065,-69.5));
#793 = VECTOR('',#794,1.);
#794 = DIRECTION('',(-2.22044604925E-16,-1.224646799147E-16,1.));
#795 = PCURVE('',#193,#796);
#796 = DEFINITIONAL_REPRESENTATION('',(#797),#801);
#797 = LINE('',#798,#799);
#798 = CARTESIAN_POINT('',(5.560451059366,0.));
#799 = VECTOR('',#800,1.);
#800 = DIRECTION('',(0.,1.));
#801 = ( GEOMETRIC_REPRESENTATION_CONTEXT(2) 
PARAMETRIC_REPRESENTATION_CONTEXT() REPRESENTATION_CONTEXT('2D SPACE',''
  ) );
#802 = PCURVE('',#480,#803);
#803 = DEFINITIONAL_REPRESENTATION('',(#804),#808);
#804 = LINE('',#805,#806);
#805 = CARTESIAN_POINT('',(-112.6,0.354248688935));
#806 = VECTOR('',#807,1.);
#807 = DIRECTION('',(1.,0.));
#808 = ( GEOMETRIC_REPRESENTATION_CONTEXT(2) 
PARAMETRIC_REPRESENTATION_CONTEXT() REPRESENTATION_CONTEXT('2D SPACE',''
  ) );
#809 = ORIENTED_EDGE('',*,*,#810,.T.);
#810 = EDGE_CURVE('',#788,#390,#811,.T.);
#811 = SURFACE_CURVE('',#812,(#817,#846),.PCURVE_S1.);
#812 = ( BOUNDED_CURVE() B_SPLINE_CURVE(3,(#813,#814,#815,#816),
.UNSPECIFIED.,.F.,.F.) B_SPLINE_CURVE_WITH_KNOTS((4,4),(5.560451059366,
6.28318530718),.PIECEWISE_BEZIER_KNOTS.) CURVE() 
GEOMETRIC_REPRESENTATION_ITEM() RATIONAL_B_SPLINE_CURVE((1.,
0.956942897796,0.956942897796,1.)) REPRESENTATION_ITEM('') );
#813 = CARTESIAN_POINT('',(-3.,2.645751311065,49.5));
#814 = CARTESIAN_POINT('',(-3.651668522645,1.90682866185,50.151668522645
    ));
#815 = CARTESIAN_POINT('',(-4.,0.985230198953,50.5));
#816 = CARTESIAN_POINT('',(-4.,-6.184466335694E-15,50.5));
#817 = PCURVE('',#193,#818);
#818 = DEFINITIONAL_REPRESENTATION('',(#819),#845);
#819 = B_SPLINE_CURVE_WITH_KNOTS('',3,(#820,#821,#822,#823,#824,#825,
    #826,#827,#828,#829,#830,#831,#832,#833,#834,#835,#836,#837,#838,
    #839,#840,#841,#842,#843,#844),.UNSPECIFIED.,.F.,.F.,(4,1,1,1,1,1,1,
    1,1,1,1,1,1,1,1,1,1,1,1,1,1,1,4),(5.560451059366,5.593302616085,
    5.626154172804,5.659005729523,5.691857286241,5.72470884296,
    5.757560399679,5.790411956398,5.823263513117,5.856115069835,
    5.888966626554,5.921818183273,5.954669739992,5.98752129671,
    6.020372853429,6.053224410148,6.086075966867,6.118927523586,
    6.151779080304,6.184630637023,6.217482193742,6.250333750461,
    6.28318530718),.QUASI_UNIFORM_KNOTS.);
#820 = CARTESIAN_POINT('',(5.560451059366,119.));
#821 = CARTESIAN_POINT('',(5.571164755095,119.02834633602));
#822 = CARTESIAN_POINT('',(5.592655217206,119.08417071383));
#823 = CARTESIAN_POINT('',(5.625064331938,119.16512846268));
#824 = CARTESIAN_POINT('',(5.657631272768,119.24313110492));
#825 = CARTESIAN_POINT('',(5.690339761958,119.3180105896));
#826 = CARTESIAN_POINT('',(5.723173129463,119.38960562215));
#827 = CARTESIAN_POINT('',(5.756114294531,119.45776338081));
#828 = CARTESIAN_POINT('',(5.789145833931,119.52234032281));
#829 = CARTESIAN_POINT('',(5.822250030539,119.58320316513));
#830 = CARTESIAN_POINT('',(5.855408930266,119.64022973371));
#831 = CARTESIAN_POINT('',(5.888604399304,119.69330974878));
#832 = CARTESIAN_POINT('',(5.921818183273,119.74234551485));
#833 = CARTESIAN_POINT('',(5.955031967242,119.78725251245));
#834 = CARTESIAN_POINT('',(5.988227436279,119.82795988232));
#835 = CARTESIAN_POINT('',(6.021386336006,119.864410797));
#836 = CARTESIAN_POINT('',(6.054490532615,119.8965627148));
#837 = CARTESIAN_POINT('',(6.087522072015,119.92438751721));
#838 = CARTESIAN_POINT('',(6.120463237083,119.94787151656));
#839 = CARTESIAN_POINT('',(6.153296604588,119.96701538358));
#840 = CARTESIAN_POINT('',(6.186005093778,119.98183381751));
#841 = CARTESIAN_POINT('',(6.218572034608,119.9923556379));
#842 = CARTESIAN_POINT('',(6.25098114934,119.99862178756));
#843 = CARTESIAN_POINT('',(6.272471611451,120.00000102804));
#844 = CARTESIAN_POINT('',(6.28318530718,120.));
#845 = ( GEOMETRIC_REPRESENTATION_CONTEXT(2) 
PARAMETRIC_REPRESENTATION_CONTEXT() REPRESENTATION_CONTEXT('2D SPACE',''
  ) );
#846 = PCURVE('',#451,#847);
#847 = DEFINITIONAL_REPRESENTATION('',(#848),#853);
#848 = ( BOUNDED_CURVE() B_SPLINE_CURVE(3,(#849,#850,#851,#852),
.UNSPECIFIED.,.F.,.F.) B_SPLINE_CURVE_WITH_KNOTS((4,4),(5.560451059366,
6.28318530718),.PIECEWISE_BEZIER_KNOTS.) CURVE() 
GEOMETRIC_REPRESENTATION_ITEM() RATIONAL_B_SPLINE_CURVE((1.,
0.956942897796,0.956942897796,1.)) REPRESENTATION_ITEM('') );
#849 = CARTESIAN_POINT('',(0.,0.354248688935));
#850 = CARTESIAN_POINT('',(0.921598462896,1.09317133815));
#851 = CARTESIAN_POINT('',(1.414213562373,2.014769801047));
#852 = CARTESIAN_POINT('',(1.414213562373,3.));
#853 = ( GEOMETRIC_REPRESENTATION_CONTEXT(2) 
PARAMETRIC_REPRESENTATION_CONTEXT() REPRESENTATION_CONTEXT('2D SPACE',''
  ) );
#854 = ORIENTED_EDGE('',*,*,#389,.T.);
#855 = ORIENTED_EDGE('',*,*,#687,.F.);
#856 = ORIENTED_EDGE('',*,*,#337,.F.);
#857 = ORIENTED_EDGE('',*,*,#858,.T.);
#858 = EDGE_CURVE('',#286,#859,#861,.T.);
#859 = VERTEX_POINT('',#860);
#860 = CARTESIAN_POINT('',(3.,2.645751311065,49.5));
#861 = SURFACE_CURVE('',#862,(#867,#896),.PCURVE_S1.);
#862 = ( BOUNDED_CURVE() B_SPLINE_CURVE(3,(#863,#864,#865,#866),
.UNSPECIFIED.,.F.,.F.) B_SPLINE_CURVE_WITH_KNOTS((4,4),(0.,
0.722734247813),.PIECEWISE_BEZIER_KNOTS.) CURVE() 
GEOMETRIC_REPRESENTATION_ITEM() RATIONAL_B_SPLINE_CURVE((1.,
0.956942897796,0.956942897796,1.)) REPRESENTATION_ITEM('') );
#863 = CARTESIAN_POINT('',(4.,-6.674325055353E-15,50.5));
#864 = CARTESIAN_POINT('',(4.,0.985230198953,50.5));
#865 = CARTESIAN_POINT('',(3.651668522645,1.90682866185,50.151668522645)
  );
#866 = CARTESIAN_POINT('',(3.,2.645751311065,49.5));
#867 = PCURVE('',#193,#868);
#868 = DEFINITIONAL_REPRESENTATION('',(#869),#895);
#869 = B_SPLINE_CURVE_WITH_KNOTS('',3,(#870,#871,#872,#873,#874,#875,
    #876,#877,#878,#879,#880,#881,#882,#883,#884,#885,#886,#887,#888,
    #889,#890,#891,#892,#893,#894),.UNSPECIFIED.,.F.,.F.,(4,1,1,1,1,1,1,
    1,1,1,1,1,1,1,1,1,1,1,1,1,1,1,4),(0.,3.285155671879E-02,
    6.570311343758E-02,9.855467015638E-02,0.131406226875,0.164257783594,
    0.197109340313,0.229960897032,0.26281245375,0.295664010469,
    0.328515567188,0.361367123907,0.394218680626,0.427070237344,
    0.459921794063,0.492773350782,0.525624907501,0.558476464219,
    0.591328020938,0.624179577657,0.657031134376,0.689882691095,
    0.722734247813),.QUASI_UNIFORM_KNOTS.);
#870 = CARTESIAN_POINT('',(3.14159265359,120.));
#871 = CARTESIAN_POINT('',(3.152306349318,120.00000102804));
#872 = CARTESIAN_POINT('',(3.17379681143,119.99862178756));
#873 = CARTESIAN_POINT('',(3.206205926161,119.9923556379));
#874 = CARTESIAN_POINT('',(3.238772866991,119.98183381751));
#875 = CARTESIAN_POINT('',(3.271481356182,119.96701538358));
#876 = CARTESIAN_POINT('',(3.304314723686,119.94787151656));
#877 = CARTESIAN_POINT('',(3.337255888754,119.92438751721));
#878 = CARTESIAN_POINT('',(3.370287428155,119.8965627148));
#879 = CARTESIAN_POINT('',(3.403391624763,119.864410797));
#880 = CARTESIAN_POINT('',(3.43655052449,119.82795988232));
#881 = CARTESIAN_POINT('',(3.469745993528,119.78725251245));
#882 = CARTESIAN_POINT('',(3.502959777497,119.74234551485));
#883 = CARTESIAN_POINT('',(3.536173561465,119.69330974878));
#884 = CARTESIAN_POINT('',(3.569369030503,119.64022973371));
#885 = CARTESIAN_POINT('',(3.60252793023,119.58320316513));
#886 = CARTESIAN_POINT('',(3.635632126838,119.52234032281));
#887 = CARTESIAN_POINT('',(3.668663666239,119.45776338081));
#888 = CARTESIAN_POINT('',(3.701604831307,119.38960562215));
#889 = CARTESIAN_POINT('',(3.734438198811,119.3180105896));
#890 = CARTESIAN_POINT('',(3.767146688002,119.24313110492));
#891 = CARTESIAN_POINT('',(3.799713628832,119.16512846268));
#892 = CARTESIAN_POINT('',(3.832122743563,119.08417071383));
#893 = CARTESIAN_POINT('',(3.853613205675,119.02834633602));
#894 = CARTESIAN_POINT('',(3.864326901403,119.));
#895 = ( GEOMETRIC_REPRESENTATION_CONTEXT(2) 
PARAMETRIC_REPRESENTATION_CONTEXT() REPRESENTATION_CONTEXT('2D SPACE',''
  ) );
#896 = PCURVE('',#324,#897);
#897 = DEFINITIONAL_REPRESENTATION('',(#898),#903);
#898 = ( BOUNDED_CURVE() B_SPLINE_CURVE(3,(#899,#900,#901,#902),
.UNSPECIFIED.,.F.,.F.) B_SPLINE_CURVE_WITH_KNOTS((4,4),(0.,
0.722734247813),.PIECEWISE_BEZIER_KNOTS.) CURVE() 
GEOMETRIC_REPRESENTATION_ITEM() RATIONAL_B_SPLINE_CURVE((1.,
0.956942897796,0.956942897796,1.)) REPRESENTATION_ITEM('') );
#899 = CARTESIAN_POINT('',(1.414213562373,3.));
#900 = CARTESIAN_POINT('',(1.414213562373,2.014769801047));
#901 = CARTESIAN_POINT('',(1.90682866185,1.09317133815));
#902 = CARTESIAN_POINT('',(2.828427124746,0.354248688935));
#903 = ( GEOMETRIC_REPRESENTATION_CONTEXT(2) 
PARAMETRIC_REPRESENTATION_CONTEXT() REPRESENTATION_CONTEXT('2D SPACE',''
  ) );
#904 = ORIENTED_EDGE('',*,*,#905,.T.);
#905 = EDGE_CURVE('',#859,#906,#908,.T.);
#906 = VERTEX_POINT('',#907);
#907 = CARTESIAN_POINT('',(3.,2.645751311065,43.1));
#908 = SURFACE_CURVE('',#909,(#913,#920),.PCURVE_S1.);
#909 = LINE('',#910,#911);
#910 = CARTESIAN_POINT('',(3.,2.645751311065,-69.5));
#911 = VECTOR('',#912,1.);
#912 = DIRECTION('',(2.22044604925E-16,1.224646799147E-16,-1.));
#913 = PCURVE('',#193,#914);
#914 = DEFINITIONAL_REPRESENTATION('',(#915),#919);
#915 = LINE('',#916,#917);
#916 = CARTESIAN_POINT('',(3.864326901403,0.));
#917 = VECTOR('',#918,1.);
#918 = DIRECTION('',(0.,-1.));
#919 = ( GEOMETRIC_REPRESENTATION_CONTEXT(2) 
PARAMETRIC_REPRESENTATION_CONTEXT() REPRESENTATION_CONTEXT('2D SPACE',''
  ) );
#920 = PCURVE('',#273,#921);
#921 = DEFINITIONAL_REPRESENTATION('',(#922),#926);
#922 = LINE('',#923,#924);
#923 = CARTESIAN_POINT('',(119.,0.354248688935));
#924 = VECTOR('',#925,1.);
#925 = DIRECTION('',(1.,0.));
#926 = ( GEOMETRIC_REPRESENTATION_CONTEXT(2) 
PARAMETRIC_REPRESENTATION_CONTEXT() REPRESENTATION_CONTEXT('2D SPACE',''
  ) );
#927 = ORIENTED_EDGE('',*,*,#928,.T.);
#928 = EDGE_CURVE('',#906,#178,#929,.T.);
#929 = SURFACE_CURVE('',#930,(#935,#964),.PCURVE_S1.);
#930 = ( BOUNDED_CURVE() B_SPLINE_CURVE(3,(#931,#932,#933,#934),
.UNSPECIFIED.,.F.,.F.) B_SPLINE_CURVE_WITH_KNOTS((4,4),(2.418858405776,
3.14159265359),.PIECEWISE_BEZIER_KNOTS.) CURVE() 
GEOMETRIC_REPRESENTATION_ITEM() RATIONAL_B_SPLINE_CURVE((1.,
0.956942897796,0.956942897796,1.)) REPRESENTATION_ITEM('') );
#931 = CARTESIAN_POINT('',(3.,2.645751311065,43.1));
#932 = CARTESIAN_POINT('',(3.651668522645,1.90682866185,42.448331477355)
  );
#933 = CARTESIAN_POINT('',(4.,0.985230198953,42.1));
#934 = CARTESIAN_POINT('',(4.,-5.645621744069E-15,42.1));
#935 = PCURVE('',#193,#936);
#936 = DEFINITIONAL_REPRESENTATION('',(#937),#963);
#937 = B_SPLINE_CURVE_WITH_KNOTS('',3,(#938,#939,#940,#941,#942,#943,
    #944,#945,#946,#947,#948,#949,#950,#951,#952,#953,#954,#955,#956,
    #957,#958,#959,#960,#961,#962),.UNSPECIFIED.,.F.,.F.,(4,1,1,1,1,1,1,
    1,1,1,1,1,1,1,1,1,1,1,1,1,1,1,4),(2.418858405776,2.451709962495,
    2.484561519214,2.517413075933,2.550264632652,2.58311618937,
    2.615967746089,2.648819302808,2.681670859527,2.714522416246,
    2.747373972964,2.780225529683,2.813077086402,2.845928643121,
    2.878780199839,2.911631756558,2.944483313277,2.977334869996,
    3.010186426715,3.043037983433,3.075889540152,3.108741096871,
    3.14159265359),.QUASI_UNIFORM_KNOTS.);
#938 = CARTESIAN_POINT('',(3.864326901403,112.6));
#939 = CARTESIAN_POINT('',(3.853613205675,112.57165366397));
#940 = CARTESIAN_POINT('',(3.832122743563,112.51582928616));
#941 = CARTESIAN_POINT('',(3.799713628832,112.43487153731));
#942 = CARTESIAN_POINT('',(3.767146688002,112.35686889507));
#943 = CARTESIAN_POINT('',(3.734438198811,112.28198941039));
#944 = CARTESIAN_POINT('',(3.701604831307,112.21039437784));
#945 = CARTESIAN_POINT('',(3.668663666239,112.14223661918));
#946 = CARTESIAN_POINT('',(3.635632126838,112.07765967718));
#947 = CARTESIAN_POINT('',(3.60252793023,112.01679683486));
#948 = CARTESIAN_POINT('',(3.569369030503,111.95977026628));
#949 = CARTESIAN_POINT('',(3.536173561465,111.90669025122));
#950 = CARTESIAN_POINT('',(3.502959777497,111.85765448514));
#951 = CARTESIAN_POINT('',(3.469745993528,111.81274748754));
#952 = CARTESIAN_POINT('',(3.43655052449,111.77204011767));
#953 = CARTESIAN_POINT('',(3.403391624763,111.73558920299));
#954 = CARTESIAN_POINT('',(3.370287428155,111.70343728519));
#955 = CARTESIAN_POINT('',(3.337255888754,111.67561248278));
#956 = CARTESIAN_POINT('',(3.304314723686,111.65212848343));
#957 = CARTESIAN_POINT('',(3.271481356182,111.63298461641));
#958 = CARTESIAN_POINT('',(3.238772866991,111.61816618248));
#959 = CARTESIAN_POINT('',(3.206205926161,111.60764436209));
#960 = CARTESIAN_POINT('',(3.17379681143,111.60137821244));
#961 = CARTESIAN_POINT('',(3.152306349318,111.59999897195));
#962 = CARTESIAN_POINT('',(3.14159265359,111.6));
#963 = ( GEOMETRIC_REPRESENTATION_CONTEXT(2) 
PARAMETRIC_REPRESENTATION_CONTEXT() REPRESENTATION_CONTEXT('2D SPACE',''
  ) );
#964 = PCURVE('',#244,#965);
#965 = DEFINITIONAL_REPRESENTATION('',(#966),#971);
#966 = ( BOUNDED_CURVE() B_SPLINE_CURVE(3,(#967,#968,#969,#970),
.UNSPECIFIED.,.F.,.F.) B_SPLINE_CURVE_WITH_KNOTS((4,4),(2.418858405776,
3.14159265359),.PIECEWISE_BEZIER_KNOTS.) CURVE() 
GEOMETRIC_REPRESENTATION_ITEM() RATIONAL_B_SPLINE_CURVE((1.,
0.956942897796,0.956942897796,1.)) REPRESENTATION_ITEM('') );
#967 = CARTESIAN_POINT('',(0.,0.354248688935));
#968 = CARTESIAN_POINT('',(0.921598462896,1.09317133815));
#969 = CARTESIAN_POINT('',(1.414213562373,2.014769801047));
#970 = CARTESIAN_POINT('',(1.414213562373,3.));
#971 = ( GEOMETRIC_REPRESENTATION_CONTEXT(2) 
PARAMETRIC_REPRESENTATION_CONTEXT() REPRESENTATION_CONTEXT('2D SPACE',''
  ) );
#972 = ADVANCED_FACE('',(#973,#977),#102,.F.);
#973 = FACE_BOUND('',#974,.T.);
#974 = EDGE_LOOP('',(#975,#976));
#975 = ORIENTED_EDGE('',*,*,#142,.F.);
#976 = ORIENTED_EDGE('',*,*,#713,.F.);
#977 = FACE_BOUND('',#978,.T.);
#978 = EDGE_LOOP('',(#979,#980));
#979 = ORIENTED_EDGE('',*,*,#85,.T.);
#980 = ORIENTED_EDGE('',*,*,#981,.T.);
#981 = EDGE_CURVE('',#58,#86,#982,.T.);
#982 = SURFACE_CURVE('',#983,(#988,#999),.PCURVE_S1.);
#983 = CIRCLE('',#984,9.75);
#984 = AXIS2_PLACEMENT_3D('',#985,#986,#987);
#985 = CARTESIAN_POINT('',(1.054711873394E-14,5.81707229595E-15,-47.5));
#986 = DIRECTION('',(-2.22044604925E-16,-1.224646799147E-16,1.));
#987 = DIRECTION('',(-1.,0.,-2.22044604925E-16));
#988 = PCURVE('',#102,#989);
#989 = DEFINITIONAL_REPRESENTATION('',(#990),#998);
#990 = ( BOUNDED_CURVE() B_SPLINE_CURVE(2,(#991,#992,#993,#994,#995,#996
,#997),.UNSPECIFIED.,.T.,.F.) B_SPLINE_CURVE_WITH_KNOTS((1,2,2,2,2,1),(
    -2.094395102393,0.,2.094395102393,4.188790204786,6.28318530718,
8.377580409573),.UNSPECIFIED.) CURVE() GEOMETRIC_REPRESENTATION_ITEM() 
RATIONAL_B_SPLINE_CURVE((1.,0.5,1.,0.5,1.,0.5,1.)) REPRESENTATION_ITEM(
  '') );
#991 = CARTESIAN_POINT('',(-9.75,-4.));
#992 = CARTESIAN_POINT('',(-9.75,12.887495373797));
#993 = CARTESIAN_POINT('',(4.875,4.443747686898));
#994 = CARTESIAN_POINT('',(19.5,-4.));
#995 = CARTESIAN_POINT('',(4.875,-12.44374768689));
#996 = CARTESIAN_POINT('',(-9.75,-20.88749537379));
#997 = CARTESIAN_POINT('',(-9.75,-4.));
#998 = ( GEOMETRIC_REPRESENTATION_CONTEXT(2) 
PARAMETRIC_REPRESENTATION_CONTEXT() REPRESENTATION_CONTEXT('2D SPACE',''
  ) );
#999 = PCURVE('',#73,#1000);
#1000 = DEFINITIONAL_REPRESENTATION('',(#1001),#1005);
#1001 = LINE('',#1002,#1003);
#1002 = CARTESIAN_POINT('',(0.,22.));
#1003 = VECTOR('',#1004,1.);
#1004 = DIRECTION('',(1.,0.));
#1005 = ( GEOMETRIC_REPRESENTATION_CONTEXT(2) 
PARAMETRIC_REPRESENTATION_CONTEXT() REPRESENTATION_CONTEXT('2D SPACE',''
  ) );
#1006 = ADVANCED_FACE('',(#1007),#73,.T.);
#1007 = FACE_BOUND('',#1008,.T.);
#1008 = EDGE_LOOP('',(#1009,#1010,#1032,#1033));
#1009 = ORIENTED_EDGE('',*,*,#57,.F.);
#1010 = ORIENTED_EDGE('',*,*,#1011,.T.);
#1011 = EDGE_CURVE('',#24,#22,#1012,.T.);
#1012 = SURFACE_CURVE('',#1013,(#1018,#1025),.PCURVE_S1.);
#1013 = CIRCLE('',#1014,9.75);
#1014 = AXIS2_PLACEMENT_3D('',#1015,#1016,#1017);
#1015 = CARTESIAN_POINT('',(1.543210004229E-14,8.511295254074E-15,-69.5)
  );
#1016 = DIRECTION('',(-2.22044604925E-16,-1.224646799147E-16,1.));
#1017 = DIRECTION('',(-1.,0.,-2.22044604925E-16));
#1018 = PCURVE('',#73,#1019);
#1019 = DEFINITIONAL_REPRESENTATION('',(#1020),#1024);
#1020 = LINE('',#1021,#1022);
#1021 = CARTESIAN_POINT('',(0.,0.));
#1022 = VECTOR('',#1023,1.);
#1023 = DIRECTION('',(1.,0.));
#1024 = ( GEOMETRIC_REPRESENTATION_CONTEXT(2) 
PARAMETRIC_REPRESENTATION_CONTEXT() REPRESENTATION_CONTEXT('2D SPACE',''
  ) );
#1025 = PCURVE('',#45,#1026);
#1026 = DEFINITIONAL_REPRESENTATION('',(#1027),#1031);
#1027 = CIRCLE('',#1028,9.75);
#1028 = AXIS2_PLACEMENT_2D('',#1029,#1030);
#1029 = CARTESIAN_POINT('',(0.,-9.75));
#1030 = DIRECTION('',(1.,0.));
#1031 = ( GEOMETRIC_REPRESENTATION_CONTEXT(2) 
PARAMETRIC_REPRESENTATION_CONTEXT() REPRESENTATION_CONTEXT('2D SPACE',''
  ) );
#1032 = ORIENTED_EDGE('',*,*,#118,.T.);
#1033 = ORIENTED_EDGE('',*,*,#981,.F.);
#1034 = ADVANCED_FACE('',(#1035),#45,.F.);
#1035 = FACE_BOUND('',#1036,.T.);
#1036 = EDGE_LOOP('',(#1037,#1038));
#1037 = ORIENTED_EDGE('',*,*,#21,.F.);
#1038 = ORIENTED_EDGE('',*,*,#1011,.F.);
#1039 = ADVANCED_FACE('',(#1040),#531,.F.);
#1040 = FACE_BOUND('',#1041,.T.);
#1041 = EDGE_LOOP('',(#1042,#1063,#1064));
#1042 = ORIENTED_EDGE('',*,*,#1043,.F.);
#1043 = EDGE_CURVE('',#741,#465,#1044,.T.);
#1044 = SURFACE_CURVE('',#1045,(#1049,#1056),.PCURVE_S1.);
#1045 = LINE('',#1046,#1047);
#1046 = CARTESIAN_POINT('',(-3.,3.,43.1));
#1047 = VECTOR('',#1048,1.);
#1048 = DIRECTION('',(2.719262146894E-32,-1.,-1.224646799147E-16));
#1049 = PCURVE('',#531,#1050);
#1050 = DEFINITIONAL_REPRESENTATION('',(#1051),#1055);
#1051 = LINE('',#1052,#1053);
#1052 = CARTESIAN_POINT('',(12.727922061358,2.300855103176E-16));
#1053 = VECTOR('',#1054,1.);
#1054 = DIRECTION('',(1.232595164408E-32,1.));
#1055 = ( GEOMETRIC_REPRESENTATION_CONTEXT(2) 
PARAMETRIC_REPRESENTATION_CONTEXT() REPRESENTATION_CONTEXT('2D SPACE',''
  ) );
#1056 = PCURVE('',#480,#1057);
#1057 = DEFINITIONAL_REPRESENTATION('',(#1058),#1062);
#1058 = LINE('',#1059,#1060);
#1059 = CARTESIAN_POINT('',(0.,0.));
#1060 = VECTOR('',#1061,1.);
#1061 = DIRECTION('',(0.,1.));
#1062 = ( GEOMETRIC_REPRESENTATION_CONTEXT(2) 
PARAMETRIC_REPRESENTATION_CONTEXT() REPRESENTATION_CONTEXT('2D SPACE',''
  ) );
#1063 = ORIENTED_EDGE('',*,*,#740,.F.);
#1064 = ORIENTED_EDGE('',*,*,#492,.F.);
#1065 = ADVANCED_FACE('',(#1066),#480,.F.);
#1066 = FACE_BOUND('',#1067,.T.);
#1067 = EDGE_LOOP('',(#1068,#1069,#1070,#1091));
#1068 = ORIENTED_EDGE('',*,*,#1043,.T.);
#1069 = ORIENTED_EDGE('',*,*,#464,.F.);
#1070 = ORIENTED_EDGE('',*,*,#1071,.F.);
#1071 = EDGE_CURVE('',#788,#413,#1072,.T.);
#1072 = SURFACE_CURVE('',#1073,(#1077,#1084),.PCURVE_S1.);
#1073 = LINE('',#1074,#1075);
#1074 = CARTESIAN_POINT('',(-3.,3.,49.5));
#1075 = VECTOR('',#1076,1.);
#1076 = DIRECTION('',(2.719262146894E-32,-1.,-1.224646799147E-16));
#1077 = PCURVE('',#480,#1078);
#1078 = DEFINITIONAL_REPRESENTATION('',(#1079),#1083);
#1079 = LINE('',#1080,#1081);
#1080 = CARTESIAN_POINT('',(6.4,1.044044682458E-16));
#1081 = VECTOR('',#1082,1.);
#1082 = DIRECTION('',(0.,1.));
#1083 = ( GEOMETRIC_REPRESENTATION_CONTEXT(2) 
PARAMETRIC_REPRESENTATION_CONTEXT() REPRESENTATION_CONTEXT('2D SPACE',''
  ) );
#1084 = PCURVE('',#451,#1085);
#1085 = DEFINITIONAL_REPRESENTATION('',(#1086),#1090);
#1086 = LINE('',#1087,#1088);
#1087 = CARTESIAN_POINT('',(0.,0.));
#1088 = VECTOR('',#1089,1.);
#1089 = DIRECTION('',(0.,1.));
#1090 = ( GEOMETRIC_REPRESENTATION_CONTEXT(2) 
PARAMETRIC_REPRESENTATION_CONTEXT() REPRESENTATION_CONTEXT('2D SPACE',''
  ) );
#1091 = ORIENTED_EDGE('',*,*,#787,.F.);
#1092 = ADVANCED_FACE('',(#1093),#451,.F.);
#1093 = FACE_BOUND('',#1094,.T.);
#1094 = EDGE_LOOP('',(#1095,#1096,#1097));
#1095 = ORIENTED_EDGE('',*,*,#1071,.T.);
#1096 = ORIENTED_EDGE('',*,*,#412,.F.);
#1097 = ORIENTED_EDGE('',*,*,#810,.F.);
#1098 = ADVANCED_FACE('',(#1099),#244,.F.);
#1099 = FACE_BOUND('',#1100,.T.);
#1100 = EDGE_LOOP('',(#1101,#1122,#1123));
#1101 = ORIENTED_EDGE('',*,*,#1102,.T.);
#1102 = EDGE_CURVE('',#906,#206,#1103,.T.);
#1103 = SURFACE_CURVE('',#1104,(#1108,#1115),.PCURVE_S1.);
#1104 = LINE('',#1105,#1106);
#1105 = CARTESIAN_POINT('',(3.,3.,43.1));
#1106 = VECTOR('',#1107,1.);
#1107 = DIRECTION('',(2.719262146894E-32,-1.,-1.224646799147E-16));
#1108 = PCURVE('',#244,#1109);
#1109 = DEFINITIONAL_REPRESENTATION('',(#1110),#1114);
#1110 = LINE('',#1111,#1112);
#1111 = CARTESIAN_POINT('',(0.,0.));
#1112 = VECTOR('',#1113,1.);
#1113 = DIRECTION('',(-1.232595164408E-32,1.));
#1114 = ( GEOMETRIC_REPRESENTATION_CONTEXT(2) 
PARAMETRIC_REPRESENTATION_CONTEXT() REPRESENTATION_CONTEXT('2D SPACE',''
  ) );
#1115 = PCURVE('',#273,#1116);
#1116 = DEFINITIONAL_REPRESENTATION('',(#1117),#1121);
#1117 = LINE('',#1118,#1119);
#1118 = CARTESIAN_POINT('',(6.4,-1.044044682458E-16));
#1119 = VECTOR('',#1120,1.);
#1120 = DIRECTION('',(0.,1.));
#1121 = ( GEOMETRIC_REPRESENTATION_CONTEXT(2) 
PARAMETRIC_REPRESENTATION_CONTEXT() REPRESENTATION_CONTEXT('2D SPACE',''
  ) );
#1122 = ORIENTED_EDGE('',*,*,#205,.F.);
#1123 = ORIENTED_EDGE('',*,*,#928,.F.);
#1124 = ADVANCED_FACE('',(#1125),#273,.F.);
#1125 = FACE_BOUND('',#1126,.T.);
#1126 = EDGE_LOOP('',(#1127,#1128,#1129,#1150));
#1127 = ORIENTED_EDGE('',*,*,#1102,.F.);
#1128 = ORIENTED_EDGE('',*,*,#905,.F.);
#1129 = ORIENTED_EDGE('',*,*,#1130,.T.);
#1130 = EDGE_CURVE('',#859,#258,#1131,.T.);
#1131 = SURFACE_CURVE('',#1132,(#1136,#1143),.PCURVE_S1.);
#1132 = LINE('',#1133,#1134);
#1133 = CARTESIAN_POINT('',(3.,3.,49.5));
#1134 = VECTOR('',#1135,1.);
#1135 = DIRECTION('',(2.719262146894E-32,-1.,-1.224646799147E-16));
#1136 = PCURVE('',#273,#1137);
#1137 = DEFINITIONAL_REPRESENTATION('',(#1138),#1142);
#1138 = LINE('',#1139,#1140);
#1139 = CARTESIAN_POINT('',(0.,0.));
#1140 = VECTOR('',#1141,1.);
#1141 = DIRECTION('',(0.,1.));
#1142 = ( GEOMETRIC_REPRESENTATION_CONTEXT(2) 
PARAMETRIC_REPRESENTATION_CONTEXT() REPRESENTATION_CONTEXT('2D SPACE',''
  ) );
#1143 = PCURVE('',#324,#1144);
#1144 = DEFINITIONAL_REPRESENTATION('',(#1145),#1149);
#1145 = LINE('',#1146,#1147);
#1146 = CARTESIAN_POINT('',(2.828427124746,2.449293598295E-16));
#1147 = VECTOR('',#1148,1.);
#1148 = DIRECTION('',(1.232595164408E-32,1.));
#1149 = ( GEOMETRIC_REPRESENTATION_CONTEXT(2) 
PARAMETRIC_REPRESENTATION_CONTEXT() REPRESENTATION_CONTEXT('2D SPACE',''
  ) );
#1150 = ORIENTED_EDGE('',*,*,#257,.F.);
#1151 = ADVANCED_FACE('',(#1152),#324,.F.);
#1152 = FACE_BOUND('',#1153,.T.);
#1153 = EDGE_LOOP('',(#1154,#1155,#1156));
#1154 = ORIENTED_EDGE('',*,*,#1130,.F.);
#1155 = ORIENTED_EDGE('',*,*,#858,.F.);
#1156 = ORIENTED_EDGE('',*,*,#285,.F.);
#1157 = ( GEOMETRIC_REPRESENTATION_CONTEXT(3) 
GLOBAL_UNCERTAINTY_ASSIGNED_CONTEXT((#1161)) 
GLOBAL_UNIT_ASSIGNED_CONTEXT((#1158,#1159,#1160)) REPRESENTATION_CONTEXT
('Context #1','3D Context with UNIT and UNCERTAINTY') );
#1158 = ( LENGTH_UNIT() NAMED_UNIT(*) SI_UNIT(.MILLI.,.METRE.) );
#1159 = ( NAMED_UNIT(*) PLANE_ANGLE_UNIT() SI_UNIT($,.RADIAN.) );
#1160 = ( NAMED_UNIT(*) SI_UNIT($,.STERADIAN.) SOLID_ANGLE_UNIT() );
#1161 = UNCERTAINTY_MEASURE_WITH_UNIT(LENGTH_MEASURE(1.E-07),#1158,
  'distance_accuracy_value','confusion accuracy');
#1162 = PRODUCT_RELATED_PRODUCT_CATEGORY('part',$,(#7));
ENDSEC;
END-ISO-10303-21;
