ISO-10303-21;
HEADER;
FILE_DESCRIPTION(('Open CASCADE Model'),'2;1');
FILE_NAME('Open CASCADE Shape Model','2026-09-11T11:57:33',('Author'),(
    'Open CASCADE'),'Open CASCADE STEP processor 7.9','Open CASCADE 7.9'
  ,'Unknown');
FILE_SCHEMA(('AUTOMOTIVE_DESIGN { 1 0 10303 214 1 1 1 1 }'));
ENDSEC;
DATA;
#1 = APPLICATION_PROTOCOL_DEFINITION('international standard',
  'automotive_design',2000,#2);
#2 = APPLICATION_CONTEXT(
  'core data for automotive mechanical design processes');
#3 = SHAPE_DEFINITION_REPRESENTATION(#4,#10);
#4 = PRODUCT_DEFINITION_SHAPE('','',#5);
#5 = PRODUCT_DEFINITION('design','',#6,#9);
#6 = PRODUCT_DEFINITION_FORMATION('','',#7);
#7 = PRODUCT('Open CASCADE STEP translator 7.9 15',
  'Open CASCADE STEP translator 7.9 15','',(#8));
#8 = PRODUCT_CONTEXT('',#2,'mechanical');
#9 = PRODUCT_DEFINITION_CONTEXT('part definition',#2,'design');
#10 = ADVANCED_BREP_SHAPE_REPRESENTATION('',(#11,#15),#1469);
#11 = AXIS2_PLACEMENT_3D('',#12,#13,#14);
#12 = CARTESIAN_POINT('',(0.,0.,0.));
#13 = DIRECTION('',(0.,0.,1.));
#14 = DIRECTION('',(1.,0.,-0.));
#15 = MANIFOLD_SOLID_BREP('',#16);
#16 = CLOSED_SHELL('',(#17,#138,#254,#366,#418,#504,#620,#737,#857,#963,
    #1065,#1137,#1169,#1203,#1231,#1286,#1335,#1342,#1349,#1356,#1451,
    #1460));
#17 = ADVANCED_FACE('',(#18),#32,.F.);
#18 = FACE_BOUND('',#19,.F.);
#19 = EDGE_LOOP('',(#20,#55,#88,#111));
#20 = ORIENTED_EDGE('',*,*,#21,.T.);
#21 = EDGE_CURVE('',#22,#24,#26,.T.);
#22 = VERTEX_POINT('',#23);
#23 = CARTESIAN_POINT('',(1.021405171553E-15,4.59999995,3.5));
#24 = VERTEX_POINT('',#25);
#25 = CARTESIAN_POINT('',(1.132427474015E-15,5.09999995,4.));
#26 = SURFACE_CURVE('',#27,(#31,#43),.PCURVE_S1.);
#27 = LINE('',#28,#29);
#28 = CARTESIAN_POINT('',(1.021405171553E-15,4.59999995,3.5));
#29 = VECTOR('',#30,1.);
#30 = DIRECTION('',(1.570092458684E-16,0.707106781187,0.707106781187));
#31 = PCURVE('',#32,#37);
#32 = CONICAL_SURFACE('',#33,3.5,0.785398163397);
#33 = AXIS2_PLACEMENT_3D('',#34,#35,#36);
#34 = CARTESIAN_POINT('',(1.021405171553E-15,4.59999995,
    8.465450562769E-16));
#35 = DIRECTION('',(2.22044604925E-16,1.,0.));
#36 = DIRECTION('',(0.,0.,1.));
#37 = DEFINITIONAL_REPRESENTATION('',(#38),#42);
#38 = LINE('',#39,#40);
#39 = CARTESIAN_POINT('',(6.28318530718,0.));
#40 = VECTOR('',#41,1.);
#41 = DIRECTION('',(0.,1.));
#42 = ( GEOMETRIC_REPRESENTATION_CONTEXT(2) 
PARAMETRIC_REPRESENTATION_CONTEXT() REPRESENTATION_CONTEXT('2D SPACE',''
  ) );
#43 = PCURVE('',#44,#49);
#44 = CONICAL_SURFACE('',#45,3.5,0.785398163397);
#45 = AXIS2_PLACEMENT_3D('',#46,#47,#48);
#46 = CARTESIAN_POINT('',(1.021405171553E-15,4.59999995,
    8.465450562769E-16));
#47 = DIRECTION('',(2.22044604925E-16,1.,0.));
#48 = DIRECTION('',(0.,0.,1.));
#49 = DEFINITIONAL_REPRESENTATION('',(#50),#54);
#50 = LINE('',#51,#52);
#51 = CARTESIAN_POINT('',(0.,0.));
#52 = VECTOR('',#53,1.);
#53 = DIRECTION('',(0.,1.));
#54 = ( GEOMETRIC_REPRESENTATION_CONTEXT(2) 
PARAMETRIC_REPRESENTATION_CONTEXT() REPRESENTATION_CONTEXT('2D SPACE',''
  ) );
#55 = ORIENTED_EDGE('',*,*,#56,.T.);
#56 = EDGE_CURVE('',#24,#57,#59,.T.);
#57 = VERTEX_POINT('',#58);
#58 = CARTESIAN_POINT('',(1.622286193674E-15,5.09999995,-4.));
#59 = SURFACE_CURVE('',#60,(#65,#72),.PCURVE_S1.);
#60 = CIRCLE('',#61,4.);
#61 = AXIS2_PLACEMENT_3D('',#62,#63,#64);
#62 = CARTESIAN_POINT('',(1.132427474015E-15,5.09999995,
    8.465450562769E-16));
#63 = DIRECTION('',(-2.22044604925E-16,-1.,0.));
#64 = DIRECTION('',(0.,0.,1.));
#65 = PCURVE('',#32,#66);
#66 = DEFINITIONAL_REPRESENTATION('',(#67),#71);
#67 = LINE('',#68,#69);
#68 = CARTESIAN_POINT('',(6.28318530718,0.5));
#69 = VECTOR('',#70,1.);
#70 = DIRECTION('',(-1.,0.));
#71 = ( GEOMETRIC_REPRESENTATION_CONTEXT(2) 
PARAMETRIC_REPRESENTATION_CONTEXT() REPRESENTATION_CONTEXT('2D SPACE',''
  ) );
#72 = PCURVE('',#73,#78);
#73 = PLANE('',#74);
#74 = AXIS2_PLACEMENT_3D('',#75,#76,#77);
#75 = CARTESIAN_POINT('',(1.132427474015E-15,5.09999995,
    2.997289754729E-16));
#76 = DIRECTION('',(2.22044604925E-16,1.,0.));
#77 = DIRECTION('',(0.,0.,1.));
#78 = DEFINITIONAL_REPRESENTATION('',(#79),#87);
#79 = ( BOUNDED_CURVE() B_SPLINE_CURVE(2,(#80,#81,#82,#83,#84,#85,#86),
.UNSPECIFIED.,.T.,.F.) B_SPLINE_CURVE_WITH_KNOTS((1,2,2,2,2,1),(
    -2.094395102393,0.,2.094395102393,4.188790204786,6.28318530718,
8.377580409573),.UNSPECIFIED.) CURVE() GEOMETRIC_REPRESENTATION_ITEM() 
RATIONAL_B_SPLINE_CURVE((1.,0.5,1.,0.5,1.,0.5,1.)) REPRESENTATION_ITEM(
  '') );
#80 = CARTESIAN_POINT('',(4.,0.));
#81 = CARTESIAN_POINT('',(4.,-6.928203230276));
#82 = CARTESIAN_POINT('',(-2.,-3.464101615138));
#83 = CARTESIAN_POINT('',(-8.,-9.797174393179E-16));
#84 = CARTESIAN_POINT('',(-2.,3.464101615138));
#85 = CARTESIAN_POINT('',(4.,6.928203230276));
#86 = CARTESIAN_POINT('',(4.,0.));
#87 = ( GEOMETRIC_REPRESENTATION_CONTEXT(2) 
PARAMETRIC_REPRESENTATION_CONTEXT() REPRESENTATION_CONTEXT('2D SPACE',''
  ) );
#88 = ORIENTED_EDGE('',*,*,#89,.F.);
#89 = EDGE_CURVE('',#90,#57,#92,.T.);
#90 = VERTEX_POINT('',#91);
#91 = CARTESIAN_POINT('',(1.450031551255E-15,4.59999995,-3.5));
#92 = SURFACE_CURVE('',#93,(#97,#104),.PCURVE_S1.);
#93 = LINE('',#94,#95);
#94 = CARTESIAN_POINT('',(1.450031551255E-15,4.59999995,-3.5));
#95 = VECTOR('',#96,1.);
#96 = DIRECTION('',(2.436048514919E-16,0.707106781187,-0.707106781187));
#97 = PCURVE('',#32,#98);
#98 = DEFINITIONAL_REPRESENTATION('',(#99),#103);
#99 = LINE('',#100,#101);
#100 = CARTESIAN_POINT('',(3.14159265359,0.));
#101 = VECTOR('',#102,1.);
#102 = DIRECTION('',(0.,1.));
#103 = ( GEOMETRIC_REPRESENTATION_CONTEXT(2) 
PARAMETRIC_REPRESENTATION_CONTEXT() REPRESENTATION_CONTEXT('2D SPACE',''
  ) );
#104 = PCURVE('',#44,#105);
#105 = DEFINITIONAL_REPRESENTATION('',(#106),#110);
#106 = LINE('',#107,#108);
#107 = CARTESIAN_POINT('',(3.14159265359,0.));
#108 = VECTOR('',#109,1.);
#109 = DIRECTION('',(0.,1.));
#110 = ( GEOMETRIC_REPRESENTATION_CONTEXT(2) 
PARAMETRIC_REPRESENTATION_CONTEXT() REPRESENTATION_CONTEXT('2D SPACE',''
  ) );
#111 = ORIENTED_EDGE('',*,*,#112,.T.);
#112 = EDGE_CURVE('',#90,#22,#113,.T.);
#113 = SURFACE_CURVE('',#114,(#119,#126),.PCURVE_S1.);
#114 = CIRCLE('',#115,3.5);
#115 = AXIS2_PLACEMENT_3D('',#116,#117,#118);
#116 = CARTESIAN_POINT('',(1.021405171553E-15,4.59999995,
    8.465450562769E-16));
#117 = DIRECTION('',(2.22044604925E-16,1.,-0.));
#118 = DIRECTION('',(0.,0.,1.));
#119 = PCURVE('',#32,#120);
#120 = DEFINITIONAL_REPRESENTATION('',(#121),#125);
#121 = LINE('',#122,#123);
#122 = CARTESIAN_POINT('',(0.,0.));
#123 = VECTOR('',#124,1.);
#124 = DIRECTION('',(1.,0.));
#125 = ( GEOMETRIC_REPRESENTATION_CONTEXT(2) 
PARAMETRIC_REPRESENTATION_CONTEXT() REPRESENTATION_CONTEXT('2D SPACE',''
  ) );
#126 = PCURVE('',#127,#132);
#127 = CYLINDRICAL_SURFACE('',#128,3.5);
#128 = AXIS2_PLACEMENT_3D('',#129,#130,#131);
#129 = CARTESIAN_POINT('',(1.132427474015E-15,5.09999995,
    8.465450562769E-16));
#130 = DIRECTION('',(2.22044604925E-16,1.,-3.209883240645E-32));
#131 = DIRECTION('',(7.127372560245E-48,3.209883240645E-32,1.));
#132 = DEFINITIONAL_REPRESENTATION('',(#133),#137);
#133 = LINE('',#134,#135);
#134 = CARTESIAN_POINT('',(0.,-0.5));
#135 = VECTOR('',#136,1.);
#136 = DIRECTION('',(1.,0.));
#137 = ( GEOMETRIC_REPRESENTATION_CONTEXT(2) 
PARAMETRIC_REPRESENTATION_CONTEXT() REPRESENTATION_CONTEXT('2D SPACE',''
  ) );
#138 = ADVANCED_FACE('',(#139),#153,.F.);
#139 = FACE_BOUND('',#140,.F.);
#140 = EDGE_LOOP('',(#141,#176,#209,#232));
#141 = ORIENTED_EDGE('',*,*,#142,.T.);
#142 = EDGE_CURVE('',#143,#145,#147,.T.);
#143 = VERTEX_POINT('',#144);
#144 = CARTESIAN_POINT('',(-5.927788140558E-16,-4.60000005,-3.5));
#145 = VERTEX_POINT('',#146);
#146 = CARTESIAN_POINT('',(-1.13242749622E-15,-5.10000005,-4.));
#147 = SURFACE_CURVE('',#148,(#152,#164),.PCURVE_S1.);
#148 = LINE('',#149,#150);
#149 = CARTESIAN_POINT('',(-1.13242749622E-15,-5.10000005,-4.));
#150 = VECTOR('',#151,1.);
#151 = DIRECTION('',(-1.570092458684E-16,-0.707106781187,-0.707106781187
    ));
#152 = PCURVE('',#153,#158);
#153 = CONICAL_SURFACE('',#154,4.,0.785398163397);
#154 = AXIS2_PLACEMENT_3D('',#155,#156,#157);
#155 = CARTESIAN_POINT('',(-1.13242749622E-15,-5.10000005,
    8.465450562769E-16));
#156 = DIRECTION('',(-2.22044604925E-16,-1.,0.));
#157 = DIRECTION('',(0.,-0.,-1.));
#158 = DEFINITIONAL_REPRESENTATION('',(#159),#163);
#159 = LINE('',#160,#161);
#160 = CARTESIAN_POINT('',(6.28318530718,-7.850462293419E-17));
#161 = VECTOR('',#162,1.);
#162 = DIRECTION('',(0.,1.));
#163 = ( GEOMETRIC_REPRESENTATION_CONTEXT(2) 
PARAMETRIC_REPRESENTATION_CONTEXT() REPRESENTATION_CONTEXT('2D SPACE',''
  ) );
#164 = PCURVE('',#165,#170);
#165 = CONICAL_SURFACE('',#166,4.,0.785398163397);
#166 = AXIS2_PLACEMENT_3D('',#167,#168,#169);
#167 = CARTESIAN_POINT('',(-1.13242749622E-15,-5.10000005,
    8.465450562769E-16));
#168 = DIRECTION('',(-2.22044604925E-16,-1.,0.));
#169 = DIRECTION('',(0.,-0.,-1.));
#170 = DEFINITIONAL_REPRESENTATION('',(#171),#175);
#171 = LINE('',#172,#173);
#172 = CARTESIAN_POINT('',(0.,-7.850462293419E-17));
#173 = VECTOR('',#174,1.);
#174 = DIRECTION('',(0.,1.));
#175 = ( GEOMETRIC_REPRESENTATION_CONTEXT(2) 
PARAMETRIC_REPRESENTATION_CONTEXT() REPRESENTATION_CONTEXT('2D SPACE',''
  ) );
#176 = ORIENTED_EDGE('',*,*,#177,.T.);
#177 = EDGE_CURVE('',#145,#178,#180,.T.);
#178 = VERTEX_POINT('',#179);
#179 = CARTESIAN_POINT('',(-6.42568776561E-16,-5.10000005,4.));
#180 = SURFACE_CURVE('',#181,(#186,#193),.PCURVE_S1.);
#181 = CIRCLE('',#182,4.);
#182 = AXIS2_PLACEMENT_3D('',#183,#184,#185);
#183 = CARTESIAN_POINT('',(-1.13242749622E-15,-5.10000005,
    8.465450562769E-16));
#184 = DIRECTION('',(2.22044604925E-16,1.,0.));
#185 = DIRECTION('',(0.,-0.,-1.));
#186 = PCURVE('',#153,#187);
#187 = DEFINITIONAL_REPRESENTATION('',(#188),#192);
#188 = LINE('',#189,#190);
#189 = CARTESIAN_POINT('',(6.28318530718,0.));
#190 = VECTOR('',#191,1.);
#191 = DIRECTION('',(-1.,0.));
#192 = ( GEOMETRIC_REPRESENTATION_CONTEXT(2) 
PARAMETRIC_REPRESENTATION_CONTEXT() REPRESENTATION_CONTEXT('2D SPACE',''
  ) );
#193 = PCURVE('',#194,#199);
#194 = PLANE('',#195);
#195 = AXIS2_PLACEMENT_3D('',#196,#197,#198);
#196 = CARTESIAN_POINT('',(-1.13242749622E-15,-5.10000005,-8.));
#197 = DIRECTION('',(-2.22044604925E-16,-1.,0.));
#198 = DIRECTION('',(0.,0.,-1.));
#199 = DEFINITIONAL_REPRESENTATION('',(#200),#208);
#200 = ( BOUNDED_CURVE() B_SPLINE_CURVE(2,(#201,#202,#203,#204,#205,#206
,#207),.UNSPECIFIED.,.T.,.F.) B_SPLINE_CURVE_WITH_KNOTS((1,2,2,2,2,1),(
    -2.094395102393,0.,2.094395102393,4.188790204786,6.28318530718,
8.377580409573),.UNSPECIFIED.) CURVE() GEOMETRIC_REPRESENTATION_ITEM() 
RATIONAL_B_SPLINE_CURVE((1.,0.5,1.,0.5,1.,0.5,1.)) REPRESENTATION_ITEM(
  '') );
#201 = CARTESIAN_POINT('',(-4.,0.));
#202 = CARTESIAN_POINT('',(-4.,-6.928203230276));
#203 = CARTESIAN_POINT('',(-10.,-3.464101615138));
#204 = CARTESIAN_POINT('',(-16.,-9.797174393179E-16));
#205 = CARTESIAN_POINT('',(-10.,3.464101615138));
#206 = CARTESIAN_POINT('',(-4.,6.928203230276));
#207 = CARTESIAN_POINT('',(-4.,0.));
#208 = ( GEOMETRIC_REPRESENTATION_CONTEXT(2) 
PARAMETRIC_REPRESENTATION_CONTEXT() REPRESENTATION_CONTEXT('2D SPACE',''
  ) );
#209 = ORIENTED_EDGE('',*,*,#210,.F.);
#210 = EDGE_CURVE('',#211,#178,#213,.T.);
#211 = VERTEX_POINT('',#212);
#212 = CARTESIAN_POINT('',(-1.021405193757E-15,-4.60000005,3.5));
#213 = SURFACE_CURVE('',#214,(#218,#225),.PCURVE_S1.);
#214 = LINE('',#215,#216);
#215 = CARTESIAN_POINT('',(-6.42568776561E-16,-5.10000005,4.));
#216 = VECTOR('',#217,1.);
#217 = DIRECTION('',(-7.041364024488E-17,-0.707106781187,0.707106781187)
  );
#218 = PCURVE('',#153,#219);
#219 = DEFINITIONAL_REPRESENTATION('',(#220),#224);
#220 = LINE('',#221,#222);
#221 = CARTESIAN_POINT('',(3.14159265359,-7.850462293419E-17));
#222 = VECTOR('',#223,1.);
#223 = DIRECTION('',(0.,1.));
#224 = ( GEOMETRIC_REPRESENTATION_CONTEXT(2) 
PARAMETRIC_REPRESENTATION_CONTEXT() REPRESENTATION_CONTEXT('2D SPACE',''
  ) );
#225 = PCURVE('',#165,#226);
#226 = DEFINITIONAL_REPRESENTATION('',(#227),#231);
#227 = LINE('',#228,#229);
#228 = CARTESIAN_POINT('',(3.14159265359,-7.850462293419E-17));
#229 = VECTOR('',#230,1.);
#230 = DIRECTION('',(0.,1.));
#231 = ( GEOMETRIC_REPRESENTATION_CONTEXT(2) 
PARAMETRIC_REPRESENTATION_CONTEXT() REPRESENTATION_CONTEXT('2D SPACE',''
  ) );
#232 = ORIENTED_EDGE('',*,*,#233,.T.);
#233 = EDGE_CURVE('',#211,#143,#234,.T.);
#234 = SURFACE_CURVE('',#235,(#240,#247),.PCURVE_S1.);
#235 = CIRCLE('',#236,3.5);
#236 = AXIS2_PLACEMENT_3D('',#237,#238,#239);
#237 = CARTESIAN_POINT('',(-1.021405193757E-15,-4.60000005,
    8.465450562769E-16));
#238 = DIRECTION('',(-2.22044604925E-16,-1.,0.));
#239 = DIRECTION('',(0.,-0.,-1.));
#240 = PCURVE('',#153,#241);
#241 = DEFINITIONAL_REPRESENTATION('',(#242),#246);
#242 = LINE('',#243,#244);
#243 = CARTESIAN_POINT('',(0.,-0.5));
#244 = VECTOR('',#245,1.);
#245 = DIRECTION('',(1.,0.));
#246 = ( GEOMETRIC_REPRESENTATION_CONTEXT(2) 
PARAMETRIC_REPRESENTATION_CONTEXT() REPRESENTATION_CONTEXT('2D SPACE',''
  ) );
#247 = PCURVE('',#127,#248);
#248 = DEFINITIONAL_REPRESENTATION('',(#249),#253);
#249 = LINE('',#250,#251);
#250 = CARTESIAN_POINT('',(9.424777960769,-9.7));
#251 = VECTOR('',#252,1.);
#252 = DIRECTION('',(-1.,0.));
#253 = ( GEOMETRIC_REPRESENTATION_CONTEXT(2) 
PARAMETRIC_REPRESENTATION_CONTEXT() REPRESENTATION_CONTEXT('2D SPACE',''
  ) );
#254 = ADVANCED_FACE('',(#255),#270,.T.);
#255 = FACE_BOUND('',#256,.T.);
#256 = EDGE_LOOP('',(#257,#288,#316,#345));
#257 = ORIENTED_EDGE('',*,*,#258,.F.);
#258 = EDGE_CURVE('',#259,#261,#263,.T.);
#259 = VERTEX_POINT('',#260);
#260 = CARTESIAN_POINT('',(-1.833262268807E-16,-5.10000005,-7.5));
#261 = VERTEX_POINT('',#262);
#262 = CARTESIAN_POINT('',(-1.13242749622E-15,-5.10000005,7.5));
#263 = SURFACE_CURVE('',#264,(#269,#281),.PCURVE_S1.);
#264 = CIRCLE('',#265,7.5);
#265 = AXIS2_PLACEMENT_3D('',#266,#267,#268);
#266 = CARTESIAN_POINT('',(-1.13242749622E-15,-5.10000005,
    2.997289754729E-16));
#267 = DIRECTION('',(-2.22044604925E-16,-1.,0.));
#268 = DIRECTION('',(0.,-0.,-1.));
#269 = PCURVE('',#270,#275);
#270 = CONICAL_SURFACE('',#271,7.5,0.785398163397);
#271 = AXIS2_PLACEMENT_3D('',#272,#273,#274);
#272 = CARTESIAN_POINT('',(-1.13242749622E-15,-5.10000005,
    2.997289754729E-16));
#273 = DIRECTION('',(2.22044604925E-16,1.,0.));
#274 = DIRECTION('',(0.,0.,1.));
#275 = DEFINITIONAL_REPRESENTATION('',(#276),#280);
#276 = LINE('',#277,#278);
#277 = CARTESIAN_POINT('',(3.14159265359,0.));
#278 = VECTOR('',#279,1.);
#279 = DIRECTION('',(-1.,0.));
#280 = ( GEOMETRIC_REPRESENTATION_CONTEXT(2) 
PARAMETRIC_REPRESENTATION_CONTEXT() REPRESENTATION_CONTEXT('2D SPACE',''
  ) );
#281 = PCURVE('',#194,#282);
#282 = DEFINITIONAL_REPRESENTATION('',(#283),#287);
#283 = CIRCLE('',#284,7.5);
#284 = AXIS2_PLACEMENT_2D('',#285,#286);
#285 = CARTESIAN_POINT('',(-8.,0.));
#286 = DIRECTION('',(1.,0.));
#287 = ( GEOMETRIC_REPRESENTATION_CONTEXT(2) 
PARAMETRIC_REPRESENTATION_CONTEXT() REPRESENTATION_CONTEXT('2D SPACE',''
  ) );
#288 = ORIENTED_EDGE('',*,*,#289,.T.);
#289 = EDGE_CURVE('',#259,#290,#292,.T.);
#290 = VERTEX_POINT('',#291);
#291 = CARTESIAN_POINT('',(-1.021405193757E-15,-4.60000005,-8.));
#292 = SURFACE_CURVE('',#293,(#297,#304),.PCURVE_S1.);
#293 = LINE('',#294,#295);
#294 = CARTESIAN_POINT('',(-2.139423968594E-16,-5.10000005,-7.5));
#295 = VECTOR('',#296,1.);
#296 = DIRECTION('',(2.436048514919E-16,0.707106781187,-0.707106781187)
  );
#297 = PCURVE('',#270,#298);
#298 = DEFINITIONAL_REPRESENTATION('',(#299),#303);
#299 = LINE('',#300,#301);
#300 = CARTESIAN_POINT('',(3.14159265359,-1.874699728327E-33));
#301 = VECTOR('',#302,1.);
#302 = DIRECTION('',(0.,1.));
#303 = ( GEOMETRIC_REPRESENTATION_CONTEXT(2) 
PARAMETRIC_REPRESENTATION_CONTEXT() REPRESENTATION_CONTEXT('2D SPACE',''
  ) );
#304 = PCURVE('',#305,#310);
#305 = CONICAL_SURFACE('',#306,7.5,0.785398163397);
#306 = AXIS2_PLACEMENT_3D('',#307,#308,#309);
#307 = CARTESIAN_POINT('',(-1.13242749622E-15,-5.10000005,
    2.997289754729E-16));
#308 = DIRECTION('',(2.22044604925E-16,1.,0.));
#309 = DIRECTION('',(0.,0.,1.));
#310 = DEFINITIONAL_REPRESENTATION('',(#311),#315);
#311 = LINE('',#312,#313);
#312 = CARTESIAN_POINT('',(3.14159265359,-1.874699728327E-33));
#313 = VECTOR('',#314,1.);
#314 = DIRECTION('',(0.,1.));
#315 = ( GEOMETRIC_REPRESENTATION_CONTEXT(2) 
PARAMETRIC_REPRESENTATION_CONTEXT() REPRESENTATION_CONTEXT('2D SPACE',''
  ) );
#316 = ORIENTED_EDGE('',*,*,#317,.F.);
#317 = EDGE_CURVE('',#318,#290,#320,.T.);
#318 = VERTEX_POINT('',#319);
#319 = CARTESIAN_POINT('',(-4.168775443947E-17,-4.60000005,8.));
#320 = SURFACE_CURVE('',#321,(#326,#333),.PCURVE_S1.);
#321 = CIRCLE('',#322,8.);
#322 = AXIS2_PLACEMENT_3D('',#323,#324,#325);
#323 = CARTESIAN_POINT('',(-1.021405193757E-15,-4.60000005,
    2.997289754729E-16));
#324 = DIRECTION('',(2.22044604925E-16,1.,0.));
#325 = DIRECTION('',(0.,-0.,-1.));
#326 = PCURVE('',#270,#327);
#327 = DEFINITIONAL_REPRESENTATION('',(#328),#332);
#328 = LINE('',#329,#330);
#329 = CARTESIAN_POINT('',(-3.14159265359,0.5));
#330 = VECTOR('',#331,1.);
#331 = DIRECTION('',(1.,0.));
#332 = ( GEOMETRIC_REPRESENTATION_CONTEXT(2) 
PARAMETRIC_REPRESENTATION_CONTEXT() REPRESENTATION_CONTEXT('2D SPACE',''
  ) );
#333 = PCURVE('',#334,#339);
#334 = CYLINDRICAL_SURFACE('',#335,8.);
#335 = AXIS2_PLACEMENT_3D('',#336,#337,#338);
#336 = CARTESIAN_POINT('',(-1.13242749622E-15,-5.10000005,
    2.997289754729E-16));
#337 = DIRECTION('',(-2.22044604925E-16,-1.,0.));
#338 = DIRECTION('',(0.,-0.,-1.));
#339 = DEFINITIONAL_REPRESENTATION('',(#340),#344);
#340 = LINE('',#341,#342);
#341 = CARTESIAN_POINT('',(6.28318530718,-0.5));
#342 = VECTOR('',#343,1.);
#343 = DIRECTION('',(-1.,0.));
#344 = ( GEOMETRIC_REPRESENTATION_CONTEXT(2) 
PARAMETRIC_REPRESENTATION_CONTEXT() REPRESENTATION_CONTEXT('2D SPACE',''
  ) );
#345 = ORIENTED_EDGE('',*,*,#346,.F.);
#346 = EDGE_CURVE('',#261,#318,#347,.T.);
#347 = SURFACE_CURVE('',#348,(#352,#359),.PCURVE_S1.);
#348 = LINE('',#349,#350);
#349 = CARTESIAN_POINT('',(-1.13242749622E-15,-5.10000005,7.5));
#350 = VECTOR('',#351,1.);
#351 = DIRECTION('',(1.570092458684E-16,0.707106781187,0.707106781187));
#352 = PCURVE('',#270,#353);
#353 = DEFINITIONAL_REPRESENTATION('',(#354),#358);
#354 = LINE('',#355,#356);
#355 = CARTESIAN_POINT('',(0.,0.));
#356 = VECTOR('',#357,1.);
#357 = DIRECTION('',(0.,1.));
#358 = ( GEOMETRIC_REPRESENTATION_CONTEXT(2) 
PARAMETRIC_REPRESENTATION_CONTEXT() REPRESENTATION_CONTEXT('2D SPACE',''
  ) );
#359 = PCURVE('',#305,#360);
#360 = DEFINITIONAL_REPRESENTATION('',(#361),#365);
#361 = LINE('',#362,#363);
#362 = CARTESIAN_POINT('',(6.28318530718,0.));
#363 = VECTOR('',#364,1.);
#364 = DIRECTION('',(0.,1.));
#365 = ( GEOMETRIC_REPRESENTATION_CONTEXT(2) 
PARAMETRIC_REPRESENTATION_CONTEXT() REPRESENTATION_CONTEXT('2D SPACE',''
  ) );
#366 = ADVANCED_FACE('',(#367),#127,.F.);
#367 = FACE_BOUND('',#368,.F.);
#368 = EDGE_LOOP('',(#369,#395,#396,#417));
#369 = ORIENTED_EDGE('',*,*,#370,.T.);
#370 = EDGE_CURVE('',#211,#22,#371,.T.);
#371 = SURFACE_CURVE('',#372,(#376,#383),.PCURVE_S1.);
#372 = LINE('',#373,#374);
#373 = CARTESIAN_POINT('',(1.132427474015E-15,5.09999995,3.5));
#374 = VECTOR('',#375,1.);
#375 = DIRECTION('',(2.22044604925E-16,1.,-3.209883240645E-32));
#376 = PCURVE('',#127,#377);
#377 = DEFINITIONAL_REPRESENTATION('',(#378),#382);
#378 = LINE('',#379,#380);
#379 = CARTESIAN_POINT('',(6.28318530718,0.));
#380 = VECTOR('',#381,1.);
#381 = DIRECTION('',(0.,1.));
#382 = ( GEOMETRIC_REPRESENTATION_CONTEXT(2) 
PARAMETRIC_REPRESENTATION_CONTEXT() REPRESENTATION_CONTEXT('2D SPACE',''
  ) );
#383 = PCURVE('',#384,#389);
#384 = CYLINDRICAL_SURFACE('',#385,3.5);
#385 = AXIS2_PLACEMENT_3D('',#386,#387,#388);
#386 = CARTESIAN_POINT('',(1.132427474015E-15,5.09999995,
    8.465450562769E-16));
#387 = DIRECTION('',(2.22044604925E-16,1.,-3.209883240645E-32));
#388 = DIRECTION('',(7.127372560245E-48,3.209883240645E-32,1.));
#389 = DEFINITIONAL_REPRESENTATION('',(#390),#394);
#390 = LINE('',#391,#392);
#391 = CARTESIAN_POINT('',(0.,0.));
#392 = VECTOR('',#393,1.);
#393 = DIRECTION('',(0.,1.));
#394 = ( GEOMETRIC_REPRESENTATION_CONTEXT(2) 
PARAMETRIC_REPRESENTATION_CONTEXT() REPRESENTATION_CONTEXT('2D SPACE',''
  ) );
#395 = ORIENTED_EDGE('',*,*,#112,.F.);
#396 = ORIENTED_EDGE('',*,*,#397,.F.);
#397 = EDGE_CURVE('',#143,#90,#398,.T.);
#398 = SURFACE_CURVE('',#399,(#403,#410),.PCURVE_S1.);
#399 = LINE('',#400,#401);
#400 = CARTESIAN_POINT('',(1.561053853717E-15,5.09999995,-3.5));
#401 = VECTOR('',#402,1.);
#402 = DIRECTION('',(2.22044604925E-16,1.,-3.209883240645E-32));
#403 = PCURVE('',#127,#404);
#404 = DEFINITIONAL_REPRESENTATION('',(#405),#409);
#405 = LINE('',#406,#407);
#406 = CARTESIAN_POINT('',(3.14159265359,0.));
#407 = VECTOR('',#408,1.);
#408 = DIRECTION('',(0.,1.));
#409 = ( GEOMETRIC_REPRESENTATION_CONTEXT(2) 
PARAMETRIC_REPRESENTATION_CONTEXT() REPRESENTATION_CONTEXT('2D SPACE',''
  ) );
#410 = PCURVE('',#384,#411);
#411 = DEFINITIONAL_REPRESENTATION('',(#412),#416);
#412 = LINE('',#413,#414);
#413 = CARTESIAN_POINT('',(3.14159265359,0.));
#414 = VECTOR('',#415,1.);
#415 = DIRECTION('',(0.,1.));
#416 = ( GEOMETRIC_REPRESENTATION_CONTEXT(2) 
PARAMETRIC_REPRESENTATION_CONTEXT() REPRESENTATION_CONTEXT('2D SPACE',''
  ) );
#417 = ORIENTED_EDGE('',*,*,#233,.F.);
#418 = ADVANCED_FACE('',(#419),#334,.T.);
#419 = FACE_BOUND('',#420,.T.);
#420 = EDGE_LOOP('',(#421,#456,#482,#483));
#421 = ORIENTED_EDGE('',*,*,#422,.T.);
#422 = EDGE_CURVE('',#423,#425,#427,.T.);
#423 = VERTEX_POINT('',#424);
#424 = CARTESIAN_POINT('',(-6.883382863698E-16,-3.10000005,-8.));
#425 = VERTEX_POINT('',#426);
#426 = CARTESIAN_POINT('',(2.913791529481E-16,-3.10000005,8.));
#427 = SURFACE_CURVE('',#428,(#433,#440),.PCURVE_S1.);
#428 = CIRCLE('',#429,8.);
#429 = AXIS2_PLACEMENT_3D('',#430,#431,#432);
#430 = CARTESIAN_POINT('',(-6.883382863698E-16,-3.10000005,
    2.997289754729E-16));
#431 = DIRECTION('',(-2.22044604925E-16,-1.,0.));
#432 = DIRECTION('',(0.,-0.,-1.));
#433 = PCURVE('',#334,#434);
#434 = DEFINITIONAL_REPRESENTATION('',(#435),#439);
#435 = LINE('',#436,#437);
#436 = CARTESIAN_POINT('',(0.,-2.));
#437 = VECTOR('',#438,1.);
#438 = DIRECTION('',(1.,0.));
#439 = ( GEOMETRIC_REPRESENTATION_CONTEXT(2) 
PARAMETRIC_REPRESENTATION_CONTEXT() REPRESENTATION_CONTEXT('2D SPACE',''
  ) );
#440 = PCURVE('',#441,#446);
#441 = PLANE('',#442);
#442 = AXIS2_PLACEMENT_3D('',#443,#444,#445);
#443 = CARTESIAN_POINT('',(-6.883382863698E-16,-3.10000005,-6.));
#444 = DIRECTION('',(2.22044604925E-16,1.,0.));
#445 = DIRECTION('',(0.,0.,1.));
#446 = DEFINITIONAL_REPRESENTATION('',(#447),#455);
#447 = ( BOUNDED_CURVE() B_SPLINE_CURVE(2,(#448,#449,#450,#451,#452,#453
,#454),.UNSPECIFIED.,.T.,.F.) B_SPLINE_CURVE_WITH_KNOTS((1,2,2,2,2,1),(
    -2.094395102393,0.,2.094395102393,4.188790204786,6.28318530718,
8.377580409573),.UNSPECIFIED.) CURVE() GEOMETRIC_REPRESENTATION_ITEM() 
RATIONAL_B_SPLINE_CURVE((1.,0.5,1.,0.5,1.,0.5,1.)) REPRESENTATION_ITEM(
  '') );
#448 = CARTESIAN_POINT('',(-2.,0.));
#449 = CARTESIAN_POINT('',(-2.,13.856406460551));
#450 = CARTESIAN_POINT('',(10.,6.928203230276));
#451 = CARTESIAN_POINT('',(22.,1.959434878636E-15));
#452 = CARTESIAN_POINT('',(10.,-6.928203230276));
#453 = CARTESIAN_POINT('',(-2.,-13.85640646055));
#454 = CARTESIAN_POINT('',(-2.,0.));
#455 = ( GEOMETRIC_REPRESENTATION_CONTEXT(2) 
PARAMETRIC_REPRESENTATION_CONTEXT() REPRESENTATION_CONTEXT('2D SPACE',''
  ) );
#456 = ORIENTED_EDGE('',*,*,#457,.T.);
#457 = EDGE_CURVE('',#425,#318,#458,.T.);
#458 = SURFACE_CURVE('',#459,(#463,#470),.PCURVE_S1.);
#459 = LINE('',#460,#461);
#460 = CARTESIAN_POINT('',(-1.52710056902E-16,-5.10000005,8.));
#461 = VECTOR('',#462,1.);
#462 = DIRECTION('',(-2.22044604925E-16,-1.,0.));
#463 = PCURVE('',#334,#464);
#464 = DEFINITIONAL_REPRESENTATION('',(#465),#469);
#465 = LINE('',#466,#467);
#466 = CARTESIAN_POINT('',(3.14159265359,0.));
#467 = VECTOR('',#468,1.);
#468 = DIRECTION('',(0.,1.));
#469 = ( GEOMETRIC_REPRESENTATION_CONTEXT(2) 
PARAMETRIC_REPRESENTATION_CONTEXT() REPRESENTATION_CONTEXT('2D SPACE',''
  ) );
#470 = PCURVE('',#471,#476);
#471 = CYLINDRICAL_SURFACE('',#472,8.);
#472 = AXIS2_PLACEMENT_3D('',#473,#474,#475);
#473 = CARTESIAN_POINT('',(-1.13242749622E-15,-5.10000005,
    2.997289754729E-16));
#474 = DIRECTION('',(-2.22044604925E-16,-1.,0.));
#475 = DIRECTION('',(0.,-0.,-1.));
#476 = DEFINITIONAL_REPRESENTATION('',(#477),#481);
#477 = LINE('',#478,#479);
#478 = CARTESIAN_POINT('',(3.14159265359,0.));
#479 = VECTOR('',#480,1.);
#480 = DIRECTION('',(0.,1.));
#481 = ( GEOMETRIC_REPRESENTATION_CONTEXT(2) 
PARAMETRIC_REPRESENTATION_CONTEXT() REPRESENTATION_CONTEXT('2D SPACE',''
  ) );
#482 = ORIENTED_EDGE('',*,*,#317,.T.);
#483 = ORIENTED_EDGE('',*,*,#484,.F.);
#484 = EDGE_CURVE('',#423,#290,#485,.T.);
#485 = SURFACE_CURVE('',#486,(#490,#497),.PCURVE_S1.);
#486 = LINE('',#487,#488);
#487 = CARTESIAN_POINT('',(-1.13242749622E-15,-5.10000005,-8.));
#488 = VECTOR('',#489,1.);
#489 = DIRECTION('',(-2.22044604925E-16,-1.,0.));
#490 = PCURVE('',#334,#491);
#491 = DEFINITIONAL_REPRESENTATION('',(#492),#496);
#492 = LINE('',#493,#494);
#493 = CARTESIAN_POINT('',(0.,0.));
#494 = VECTOR('',#495,1.);
#495 = DIRECTION('',(0.,1.));
#496 = ( GEOMETRIC_REPRESENTATION_CONTEXT(2) 
PARAMETRIC_REPRESENTATION_CONTEXT() REPRESENTATION_CONTEXT('2D SPACE',''
  ) );
#497 = PCURVE('',#471,#498);
#498 = DEFINITIONAL_REPRESENTATION('',(#499),#503);
#499 = LINE('',#500,#501);
#500 = CARTESIAN_POINT('',(6.28318530718,0.));
#501 = VECTOR('',#502,1.);
#502 = DIRECTION('',(0.,1.));
#503 = ( GEOMETRIC_REPRESENTATION_CONTEXT(2) 
PARAMETRIC_REPRESENTATION_CONTEXT() REPRESENTATION_CONTEXT('2D SPACE',''
  ) );
#504 = ADVANCED_FACE('',(#505),#520,.T.);
#505 = FACE_BOUND('',#506,.T.);
#506 = EDGE_LOOP('',(#507,#543,#571,#599));
#507 = ORIENTED_EDGE('',*,*,#508,.T.);
#508 = EDGE_CURVE('',#509,#511,#513,.T.);
#509 = VERTEX_POINT('',#510);
#510 = CARTESIAN_POINT('',(2.442490543153E-16,1.09999995,-6.));
#511 = VERTEX_POINT('',#512);
#512 = CARTESIAN_POINT('',(9.790371338037E-16,1.09999995,6.));
#513 = SURFACE_CURVE('',#514,(#519,#531),.PCURVE_S1.);
#514 = CIRCLE('',#515,6.);
#515 = AXIS2_PLACEMENT_3D('',#516,#517,#518);
#516 = CARTESIAN_POINT('',(2.442490543153E-16,1.09999995,
    2.997289754729E-16));
#517 = DIRECTION('',(-2.22044604925E-16,-1.,0.));
#518 = DIRECTION('',(0.,-0.,-1.));
#519 = PCURVE('',#520,#525);
#520 = CYLINDRICAL_SURFACE('',#521,6.);
#521 = AXIS2_PLACEMENT_3D('',#522,#523,#524);
#522 = CARTESIAN_POINT('',(-1.13242749622E-15,-5.10000005,
    2.997289754729E-16));
#523 = DIRECTION('',(-2.22044604925E-16,-1.,0.));
#524 = DIRECTION('',(0.,-0.,-1.));
#525 = DEFINITIONAL_REPRESENTATION('',(#526),#530);
#526 = LINE('',#527,#528);
#527 = CARTESIAN_POINT('',(0.,-6.2));
#528 = VECTOR('',#529,1.);
#529 = DIRECTION('',(1.,0.));
#530 = ( GEOMETRIC_REPRESENTATION_CONTEXT(2) 
PARAMETRIC_REPRESENTATION_CONTEXT() REPRESENTATION_CONTEXT('2D SPACE',''
  ) );
#531 = PCURVE('',#532,#537);
#532 = PLANE('',#533);
#533 = AXIS2_PLACEMENT_3D('',#534,#535,#536);
#534 = CARTESIAN_POINT('',(2.442490543153E-16,1.09999995,-8.));
#535 = DIRECTION('',(-2.22044604925E-16,-1.,0.));
#536 = DIRECTION('',(0.,0.,-1.));
#537 = DEFINITIONAL_REPRESENTATION('',(#538),#542);
#538 = CIRCLE('',#539,6.);
#539 = AXIS2_PLACEMENT_2D('',#540,#541);
#540 = CARTESIAN_POINT('',(-8.,0.));
#541 = DIRECTION('',(1.,0.));
#542 = ( GEOMETRIC_REPRESENTATION_CONTEXT(2) 
PARAMETRIC_REPRESENTATION_CONTEXT() REPRESENTATION_CONTEXT('2D SPACE',''
  ) );
#543 = ORIENTED_EDGE('',*,*,#544,.T.);
#544 = EDGE_CURVE('',#511,#545,#547,.T.);
#545 = VERTEX_POINT('',#546);
#546 = CARTESIAN_POINT('',(4.644979311857E-17,-3.10000005,6.));
#547 = SURFACE_CURVE('',#548,(#552,#559),.PCURVE_S1.);
#548 = LINE('',#549,#550);
#549 = CARTESIAN_POINT('',(-3.976394167315E-16,-5.10000005,6.));
#550 = VECTOR('',#551,1.);
#551 = DIRECTION('',(-2.22044604925E-16,-1.,0.));
#552 = PCURVE('',#520,#553);
#553 = DEFINITIONAL_REPRESENTATION('',(#554),#558);
#554 = LINE('',#555,#556);
#555 = CARTESIAN_POINT('',(3.14159265359,0.));
#556 = VECTOR('',#557,1.);
#557 = DIRECTION('',(0.,1.));
#558 = ( GEOMETRIC_REPRESENTATION_CONTEXT(2) 
PARAMETRIC_REPRESENTATION_CONTEXT() REPRESENTATION_CONTEXT('2D SPACE',''
  ) );
#559 = PCURVE('',#560,#565);
#560 = CYLINDRICAL_SURFACE('',#561,6.);
#561 = AXIS2_PLACEMENT_3D('',#562,#563,#564);
#562 = CARTESIAN_POINT('',(-1.13242749622E-15,-5.10000005,
    2.997289754729E-16));
#563 = DIRECTION('',(-2.22044604925E-16,-1.,0.));
#564 = DIRECTION('',(0.,-0.,-1.));
#565 = DEFINITIONAL_REPRESENTATION('',(#566),#570);
#566 = LINE('',#567,#568);
#567 = CARTESIAN_POINT('',(3.14159265359,0.));
#568 = VECTOR('',#569,1.);
#569 = DIRECTION('',(0.,1.));
#570 = ( GEOMETRIC_REPRESENTATION_CONTEXT(2) 
PARAMETRIC_REPRESENTATION_CONTEXT() REPRESENTATION_CONTEXT('2D SPACE',''
  ) );
#571 = ORIENTED_EDGE('',*,*,#572,.F.);
#572 = EDGE_CURVE('',#573,#545,#575,.T.);
#573 = VERTEX_POINT('',#574);
#574 = CARTESIAN_POINT('',(-6.883382863698E-16,-3.10000005,-6.));
#575 = SURFACE_CURVE('',#576,(#581,#588),.PCURVE_S1.);
#576 = CIRCLE('',#577,6.);
#577 = AXIS2_PLACEMENT_3D('',#578,#579,#580);
#578 = CARTESIAN_POINT('',(-6.883382863698E-16,-3.10000005,
    2.997289754729E-16));
#579 = DIRECTION('',(-2.22044604925E-16,-1.,0.));
#580 = DIRECTION('',(0.,-0.,-1.));
#581 = PCURVE('',#520,#582);
#582 = DEFINITIONAL_REPRESENTATION('',(#583),#587);
#583 = LINE('',#584,#585);
#584 = CARTESIAN_POINT('',(0.,-2.));
#585 = VECTOR('',#586,1.);
#586 = DIRECTION('',(1.,0.));
#587 = ( GEOMETRIC_REPRESENTATION_CONTEXT(2) 
PARAMETRIC_REPRESENTATION_CONTEXT() REPRESENTATION_CONTEXT('2D SPACE',''
  ) );
#588 = PCURVE('',#441,#589);
#589 = DEFINITIONAL_REPRESENTATION('',(#590),#598);
#590 = ( BOUNDED_CURVE() B_SPLINE_CURVE(2,(#591,#592,#593,#594,#595,#596
,#597),.UNSPECIFIED.,.T.,.F.) B_SPLINE_CURVE_WITH_KNOTS((1,2,2,2,2,1),(
    -2.094395102393,0.,2.094395102393,4.188790204786,6.28318530718,
8.377580409573),.UNSPECIFIED.) CURVE() GEOMETRIC_REPRESENTATION_ITEM() 
RATIONAL_B_SPLINE_CURVE((1.,0.5,1.,0.5,1.,0.5,1.)) REPRESENTATION_ITEM(
  '') );
#591 = CARTESIAN_POINT('',(8.881784197001E-16,0.));
#592 = CARTESIAN_POINT('',(8.881784197001E-16,10.392304845413));
#593 = CARTESIAN_POINT('',(9.,5.196152422707));
#594 = CARTESIAN_POINT('',(18.,1.469576158977E-15));
#595 = CARTESIAN_POINT('',(9.,-5.196152422707));
#596 = CARTESIAN_POINT('',(9.769962616701E-15,-10.39230484541));
#597 = CARTESIAN_POINT('',(8.881784197001E-16,0.));
#598 = ( GEOMETRIC_REPRESENTATION_CONTEXT(2) 
PARAMETRIC_REPRESENTATION_CONTEXT() REPRESENTATION_CONTEXT('2D SPACE',''
  ) );
#599 = ORIENTED_EDGE('',*,*,#600,.F.);
#600 = EDGE_CURVE('',#509,#573,#601,.T.);
#601 = SURFACE_CURVE('',#602,(#606,#613),.PCURVE_S1.);
#602 = LINE('',#603,#604);
#603 = CARTESIAN_POINT('',(-1.13242749622E-15,-5.10000005,-6.));
#604 = VECTOR('',#605,1.);
#605 = DIRECTION('',(-2.22044604925E-16,-1.,0.));
#606 = PCURVE('',#520,#607);
#607 = DEFINITIONAL_REPRESENTATION('',(#608),#612);
#608 = LINE('',#609,#610);
#609 = CARTESIAN_POINT('',(0.,0.));
#610 = VECTOR('',#611,1.);
#611 = DIRECTION('',(0.,1.));
#612 = ( GEOMETRIC_REPRESENTATION_CONTEXT(2) 
PARAMETRIC_REPRESENTATION_CONTEXT() REPRESENTATION_CONTEXT('2D SPACE',''
  ) );
#613 = PCURVE('',#560,#614);
#614 = DEFINITIONAL_REPRESENTATION('',(#615),#619);
#615 = LINE('',#616,#617);
#616 = CARTESIAN_POINT('',(6.28318530718,0.));
#617 = VECTOR('',#618,1.);
#618 = DIRECTION('',(0.,1.));
#619 = ( GEOMETRIC_REPRESENTATION_CONTEXT(2) 
PARAMETRIC_REPRESENTATION_CONTEXT() REPRESENTATION_CONTEXT('2D SPACE',''
  ) );
#620 = ADVANCED_FACE('',(#621),#635,.T.);
#621 = FACE_BOUND('',#622,.T.);
#622 = EDGE_LOOP('',(#623,#658,#682,#710));
#623 = ORIENTED_EDGE('',*,*,#624,.F.);
#624 = EDGE_CURVE('',#625,#627,#629,.T.);
#625 = VERTEX_POINT('',#626);
#626 = CARTESIAN_POINT('',(-3.872983346207,1.09999995,-7.));
#627 = VERTEX_POINT('',#628);
#628 = CARTESIAN_POINT('',(-3.872983346207,4.59999995,-7.));
#629 = SURFACE_CURVE('',#630,(#634,#646),.PCURVE_S1.);
#630 = LINE('',#631,#632);
#631 = CARTESIAN_POINT('',(-3.872983346207,-6.710249725907,-7.));
#632 = VECTOR('',#633,1.);
#633 = DIRECTION('',(2.22044604925E-16,1.,-0.));
#634 = PCURVE('',#635,#640);
#635 = CYLINDRICAL_SURFACE('',#636,8.);
#636 = AXIS2_PLACEMENT_3D('',#637,#638,#639);
#637 = CARTESIAN_POINT('',(-1.13242749622E-15,-5.10000005,
    2.997289754729E-16));
#638 = DIRECTION('',(-2.22044604925E-16,-1.,0.));
#639 = DIRECTION('',(0.,-0.,-1.));
#640 = DEFINITIONAL_REPRESENTATION('',(#641),#645);
#641 = LINE('',#642,#643);
#642 = CARTESIAN_POINT('',(5.777824796895,1.610249675907));
#643 = VECTOR('',#644,1.);
#644 = DIRECTION('',(0.,-1.));
#645 = ( GEOMETRIC_REPRESENTATION_CONTEXT(2) 
PARAMETRIC_REPRESENTATION_CONTEXT() REPRESENTATION_CONTEXT('2D SPACE',''
  ) );
#646 = PCURVE('',#647,#652);
#647 = PLANE('',#648);
#648 = AXIS2_PLACEMENT_3D('',#649,#650,#651);
#649 = CARTESIAN_POINT('',(3.872983346207,-6.710249725907,-7.));
#650 = DIRECTION('',(0.,0.,1.));
#651 = DIRECTION('',(-2.22044604925E-16,-1.,0.));
#652 = DEFINITIONAL_REPRESENTATION('',(#653),#657);
#653 = LINE('',#654,#655);
#654 = CARTESIAN_POINT('',(-5.640672542073E-17,-7.745966692414));
#655 = VECTOR('',#656,1.);
#656 = DIRECTION('',(-1.,0.));
#657 = ( GEOMETRIC_REPRESENTATION_CONTEXT(2) 
PARAMETRIC_REPRESENTATION_CONTEXT() REPRESENTATION_CONTEXT('2D SPACE',''
  ) );
#658 = ORIENTED_EDGE('',*,*,#659,.F.);
#659 = EDGE_CURVE('',#660,#625,#662,.T.);
#660 = VERTEX_POINT('',#661);
#661 = CARTESIAN_POINT('',(-3.872983346207,1.09999995,7.));
#662 = SURFACE_CURVE('',#663,(#668,#675),.PCURVE_S1.);
#663 = CIRCLE('',#664,8.);
#664 = AXIS2_PLACEMENT_3D('',#665,#666,#667);
#665 = CARTESIAN_POINT('',(2.442490543153E-16,1.09999995,
    2.997289754729E-16));
#666 = DIRECTION('',(-2.22044604925E-16,-1.,0.));
#667 = DIRECTION('',(0.,-0.,-1.));
#668 = PCURVE('',#635,#669);
#669 = DEFINITIONAL_REPRESENTATION('',(#670),#674);
#670 = LINE('',#671,#672);
#671 = CARTESIAN_POINT('',(-4.440892098501E-16,-6.2));
#672 = VECTOR('',#673,1.);
#673 = DIRECTION('',(1.,0.));
#674 = ( GEOMETRIC_REPRESENTATION_CONTEXT(2) 
PARAMETRIC_REPRESENTATION_CONTEXT() REPRESENTATION_CONTEXT('2D SPACE',''
  ) );
#675 = PCURVE('',#532,#676);
#676 = DEFINITIONAL_REPRESENTATION('',(#677),#681);
#677 = CIRCLE('',#678,8.);
#678 = AXIS2_PLACEMENT_2D('',#679,#680);
#679 = CARTESIAN_POINT('',(-8.,0.));
#680 = DIRECTION('',(1.,0.));
#681 = ( GEOMETRIC_REPRESENTATION_CONTEXT(2) 
PARAMETRIC_REPRESENTATION_CONTEXT() REPRESENTATION_CONTEXT('2D SPACE',''
  ) );
#682 = ORIENTED_EDGE('',*,*,#683,.T.);
#683 = EDGE_CURVE('',#660,#684,#686,.T.);
#684 = VERTEX_POINT('',#685);
#685 = CARTESIAN_POINT('',(-3.872983346207,4.59999995,7.));
#686 = SURFACE_CURVE('',#687,(#691,#698),.PCURVE_S1.);
#687 = LINE('',#688,#689);
#688 = CARTESIAN_POINT('',(-3.872983346207,-6.710249725907,7.));
#689 = VECTOR('',#690,1.);
#690 = DIRECTION('',(2.22044604925E-16,1.,-0.));
#691 = PCURVE('',#635,#692);
#692 = DEFINITIONAL_REPRESENTATION('',(#693),#697);
#693 = LINE('',#694,#695);
#694 = CARTESIAN_POINT('',(3.646953163874,1.610249675907));
#695 = VECTOR('',#696,1.);
#696 = DIRECTION('',(0.,-1.));
#697 = ( GEOMETRIC_REPRESENTATION_CONTEXT(2) 
PARAMETRIC_REPRESENTATION_CONTEXT() REPRESENTATION_CONTEXT('2D SPACE',''
  ) );
#698 = PCURVE('',#699,#704);
#699 = PLANE('',#700);
#700 = AXIS2_PLACEMENT_3D('',#701,#702,#703);
#701 = CARTESIAN_POINT('',(-3.872983346207,-6.710249725907,7.));
#702 = DIRECTION('',(0.,-0.,-1.));
#703 = DIRECTION('',(2.22044604925E-16,1.,0.));
#704 = DEFINITIONAL_REPRESENTATION('',(#705),#709);
#705 = LINE('',#706,#707);
#706 = CARTESIAN_POINT('',(0.,0.));
#707 = VECTOR('',#708,1.);
#708 = DIRECTION('',(1.,0.));
#709 = ( GEOMETRIC_REPRESENTATION_CONTEXT(2) 
PARAMETRIC_REPRESENTATION_CONTEXT() REPRESENTATION_CONTEXT('2D SPACE',''
  ) );
#710 = ORIENTED_EDGE('',*,*,#711,.T.);
#711 = EDGE_CURVE('',#684,#627,#712,.T.);
#712 = SURFACE_CURVE('',#713,(#718,#725),.PCURVE_S1.);
#713 = CIRCLE('',#714,8.);
#714 = AXIS2_PLACEMENT_3D('',#715,#716,#717);
#715 = CARTESIAN_POINT('',(1.021405171553E-15,4.59999995,
    2.997289754729E-16));
#716 = DIRECTION('',(-2.22044604925E-16,-1.,0.));
#717 = DIRECTION('',(0.,0.,1.));
#718 = PCURVE('',#635,#719);
#719 = DEFINITIONAL_REPRESENTATION('',(#720),#724);
#720 = LINE('',#721,#722);
#721 = CARTESIAN_POINT('',(3.14159265359,-9.7));
#722 = VECTOR('',#723,1.);
#723 = DIRECTION('',(1.,0.));
#724 = ( GEOMETRIC_REPRESENTATION_CONTEXT(2) 
PARAMETRIC_REPRESENTATION_CONTEXT() REPRESENTATION_CONTEXT('2D SPACE',''
  ) );
#725 = PCURVE('',#726,#731);
#726 = CONICAL_SURFACE('',#727,8.,0.785398163397);
#727 = AXIS2_PLACEMENT_3D('',#728,#729,#730);
#728 = CARTESIAN_POINT('',(1.021405171553E-15,4.59999995,
    2.997289754729E-16));
#729 = DIRECTION('',(-2.22044604925E-16,-1.,0.));
#730 = DIRECTION('',(0.,-0.,-1.));
#731 = DEFINITIONAL_REPRESENTATION('',(#732),#736);
#732 = LINE('',#733,#734);
#733 = CARTESIAN_POINT('',(3.14159265359,0.));
#734 = VECTOR('',#735,1.);
#735 = DIRECTION('',(1.,0.));
#736 = ( GEOMETRIC_REPRESENTATION_CONTEXT(2) 
PARAMETRIC_REPRESENTATION_CONTEXT() REPRESENTATION_CONTEXT('2D SPACE',''
  ) );
#737 = ADVANCED_FACE('',(#738),#726,.T.);
#738 = FACE_BOUND('',#739,.T.);
#739 = EDGE_LOOP('',(#740,#787,#788,#835));
#740 = ORIENTED_EDGE('',*,*,#741,.F.);
#741 = EDGE_CURVE('',#627,#742,#744,.T.);
#742 = VERTEX_POINT('',#743);
#743 = CARTESIAN_POINT('',(-2.692582403567,5.09999995,-7.));
#744 = SURFACE_CURVE('',#745,(#750,#779),.PCURVE_S1.);
#745 = B_SPLINE_CURVE_WITH_KNOTS('',3,(#746,#747,#748,#749),
  .UNSPECIFIED.,.F.,.F.,(4,4),(5.55741930979E-03,6.826150460984E-03),
  .PIECEWISE_BEZIER_KNOTS.);
#746 = CARTESIAN_POINT('',(-3.872983346207,4.59999995,-7.));
#747 = CARTESIAN_POINT('',(-3.490309118906,4.78526131367,-7.));
#748 = CARTESIAN_POINT('',(-3.094953232275,4.955544401588,-7.));
#749 = CARTESIAN_POINT('',(-2.692582403567,5.09999995,-7.));
#750 = PCURVE('',#726,#751);
#751 = DEFINITIONAL_REPRESENTATION('',(#752),#778);
#752 = B_SPLINE_CURVE_WITH_KNOTS('',3,(#753,#754,#755,#756,#757,#758,
    #759,#760,#761,#762,#763,#764,#765,#766,#767,#768,#769,#770,#771,
    #772,#773,#774,#775,#776,#777),.UNSPECIFIED.,.F.,.F.,(4,1,1,1,1,1,1,
    1,1,1,1,1,1,1,1,1,1,1,1,1,1,1,4),(5.55741930979E-03,
    5.615088907571E-03,5.672758505353E-03,5.730428103134E-03,
    5.788097700916E-03,5.845767298697E-03,5.903436896479E-03,
    5.96110649426E-03,6.018776092042E-03,6.076445689824E-03,
    6.134115287605E-03,6.191784885387E-03,6.249454483168E-03,
    6.30712408095E-03,6.364793678731E-03,6.422463276513E-03,
    6.480132874294E-03,6.537802472076E-03,6.595472069857E-03,
    6.653141667639E-03,6.710811265421E-03,6.768480863202E-03,
    6.826150460984E-03),.UNSPECIFIED.);
#753 = CARTESIAN_POINT('',(5.777824796895,0.));
#754 = CARTESIAN_POINT('',(5.779727295033,-8.420971452849E-03));
#755 = CARTESIAN_POINT('',(5.783550044572,-2.520121692518E-02));
#756 = CARTESIAN_POINT('',(5.789337345004,-5.018025776085E-02));
#757 = CARTESIAN_POINT('',(5.795177745429,-7.496173410979E-02));
#758 = CARTESIAN_POINT('',(5.801071143353,-9.953941600207E-02));
#759 = CARTESIAN_POINT('',(5.807017418271,-0.123907079656));
#760 = CARTESIAN_POINT('',(5.813016428708,-0.14805850929));
#761 = CARTESIAN_POINT('',(5.81906801229,-0.17198749824));
#762 = CARTESIAN_POINT('',(5.825171985013,-0.195687850317));
#763 = CARTESIAN_POINT('',(5.831328140737,-0.219153381144));
#764 = CARTESIAN_POINT('',(5.837536250631,-0.24237791955));
#765 = CARTESIAN_POINT('',(5.843796062638,-0.265355308998));
#766 = CARTESIAN_POINT('',(5.850107300957,-0.28807940905));
#767 = CARTESIAN_POINT('',(5.856469665528,-0.310544096868));
#768 = CARTESIAN_POINT('',(5.862882831541,-0.332743268753));
#769 = CARTESIAN_POINT('',(5.869346448956,-0.35467084172));
#770 = CARTESIAN_POINT('',(5.875860142037,-0.376320755108));
#771 = CARTESIAN_POINT('',(5.882423508928,-0.397686972202));
#772 = CARTESIAN_POINT('',(5.889036121168,-0.418763481985));
#773 = CARTESIAN_POINT('',(5.895697523541,-0.439544300539));
#774 = CARTESIAN_POINT('',(5.902407232751,-0.460023473926));
#775 = CARTESIAN_POINT('',(5.909164740649,-0.480195075643));
#776 = CARTESIAN_POINT('',(5.913701247259,-0.493433841548));
#777 = CARTESIAN_POINT('',(5.915977286622,-0.5));
#778 = ( GEOMETRIC_REPRESENTATION_CONTEXT(2) 
PARAMETRIC_REPRESENTATION_CONTEXT() REPRESENTATION_CONTEXT('2D SPACE',''
  ) );
#779 = PCURVE('',#647,#780);
#780 = DEFINITIONAL_REPRESENTATION('',(#781),#786);
#781 = B_SPLINE_CURVE_WITH_KNOTS('',3,(#782,#783,#784,#785),
  .UNSPECIFIED.,.F.,.F.,(4,4),(5.55741930979E-03,6.826150460984E-03),
  .PIECEWISE_BEZIER_KNOTS.);
#782 = CARTESIAN_POINT('',(-11.3102496759,-7.745966692414));
#783 = CARTESIAN_POINT('',(-11.49551103957,-7.363292465113));
#784 = CARTESIAN_POINT('',(-11.66579412749,-6.967936578482));
#785 = CARTESIAN_POINT('',(-11.8102496759,-6.565565749774));
#786 = ( GEOMETRIC_REPRESENTATION_CONTEXT(2) 
PARAMETRIC_REPRESENTATION_CONTEXT() REPRESENTATION_CONTEXT('2D SPACE',''
  ) );
#787 = ORIENTED_EDGE('',*,*,#711,.F.);
#788 = ORIENTED_EDGE('',*,*,#789,.F.);
#789 = EDGE_CURVE('',#790,#684,#792,.T.);
#790 = VERTEX_POINT('',#791);
#791 = CARTESIAN_POINT('',(-2.692582403567,5.09999995,7.));
#792 = SURFACE_CURVE('',#793,(#798,#827),.PCURVE_S1.);
#793 = B_SPLINE_CURVE_WITH_KNOTS('',3,(#794,#795,#796,#797),
  .UNSPECIFIED.,.F.,.F.,(4,4),(1.230128422746E-02,1.35690966371E-02),
  .PIECEWISE_BEZIER_KNOTS.);
#794 = CARTESIAN_POINT('',(-2.692582403567,5.09999995,7.));
#795 = CARTESIAN_POINT('',(-3.093399998982,4.956102029406,7.));
#796 = CARTESIAN_POINT('',(-3.489428730905,4.785687529678,7.));
#797 = CARTESIAN_POINT('',(-3.872983346207,4.59999995,7.));
#798 = PCURVE('',#726,#799);
#799 = DEFINITIONAL_REPRESENTATION('',(#800),#826);
#800 = B_SPLINE_CURVE_WITH_KNOTS('',3,(#801,#802,#803,#804,#805,#806,
    #807,#808,#809,#810,#811,#812,#813,#814,#815,#816,#817,#818,#819,
    #820,#821,#822,#823,#824,#825),.UNSPECIFIED.,.F.,.F.,(4,1,1,1,1,1,1,
    1,1,1,1,1,1,1,1,1,1,1,1,1,1,1,4),(1.230128422746E-02,
    1.235891206426E-02,1.241653990106E-02,1.247416773787E-02,
    1.253179557467E-02,1.258942341147E-02,1.264705124827E-02,
    1.270467908507E-02,1.276230692187E-02,1.281993475868E-02,
    1.287756259548E-02,1.293519043228E-02,1.299281826908E-02,
    1.305044610588E-02,1.310807394269E-02,1.316570177949E-02,
    1.322332961629E-02,1.328095745309E-02,1.333858528989E-02,
    1.339621312669E-02,1.34538409635E-02,1.35114688003E-02,
    1.35690966371E-02),.QUASI_UNIFORM_KNOTS.);
#801 = CARTESIAN_POINT('',(3.508800674148,-0.5));
#802 = CARTESIAN_POINT('',(3.511067927705,-0.493459189831));
#803 = CARTESIAN_POINT('',(3.515588098948,-0.480268488767));
#804 = CARTESIAN_POINT('',(3.522324623497,-0.460161152612));
#805 = CARTESIAN_POINT('',(3.529016679235,-0.439738469267));
#806 = CARTESIAN_POINT('',(3.535663570955,-0.419006446993));
#807 = CARTESIAN_POINT('',(3.542264630309,-0.397971137914));
#808 = CARTESIAN_POINT('',(3.548819219421,-0.376638642679));
#809 = CARTESIAN_POINT('',(3.555326729612,-0.355015106638));
#810 = CARTESIAN_POINT('',(3.561786581399,-0.33310671832));
#811 = CARTESIAN_POINT('',(3.568198224111,-0.31091970732));
#812 = CARTESIAN_POINT('',(3.57456113556,-0.288460342371));
#813 = CARTESIAN_POINT('',(3.58087482167,-0.265734929395));
#814 = CARTESIAN_POINT('',(3.587138816077,-0.242749809597));
#815 = CARTESIAN_POINT('',(3.593352679707,-0.219511357582));
#816 = CARTESIAN_POINT('',(3.599516000327,-0.196025979503));
#817 = CARTESIAN_POINT('',(3.605628392078,-0.172300111242));
#818 = CARTESIAN_POINT('',(3.611689494988,-0.148340216625));
#819 = CARTESIAN_POINT('',(3.617698974452,-0.124152785659));
#820 = CARTESIAN_POINT('',(3.62365652076,-9.974433286251E-02));
#821 = CARTESIAN_POINT('',(3.62956184836,-7.512139542684E-02));
#822 = CARTESIAN_POINT('',(3.635414696058,-5.029053215161E-02));
#823 = CARTESIAN_POINT('',(3.641214823643,-2.525831971031E-02));
#824 = CARTESIAN_POINT('',(3.645046289082,-8.440345928804E-03));
#825 = CARTESIAN_POINT('',(3.646953163874,-1.012523398458E-13));
#826 = ( GEOMETRIC_REPRESENTATION_CONTEXT(2) 
PARAMETRIC_REPRESENTATION_CONTEXT() REPRESENTATION_CONTEXT('2D SPACE',''
  ) );
#827 = PCURVE('',#699,#828);
#828 = DEFINITIONAL_REPRESENTATION('',(#829),#834);
#829 = B_SPLINE_CURVE_WITH_KNOTS('',3,(#830,#831,#832,#833),
  .UNSPECIFIED.,.F.,.F.,(4,4),(1.230128422746E-02,1.35690966371E-02),
  .PIECEWISE_BEZIER_KNOTS.);
#830 = CARTESIAN_POINT('',(11.810249675907,1.18040094264));
#831 = CARTESIAN_POINT('',(11.666351755313,0.779583347225));
#832 = CARTESIAN_POINT('',(11.495937255585,0.383554615302));
#833 = CARTESIAN_POINT('',(11.310249675907,0.));
#834 = ( GEOMETRIC_REPRESENTATION_CONTEXT(2) 
PARAMETRIC_REPRESENTATION_CONTEXT() REPRESENTATION_CONTEXT('2D SPACE',''
  ) );
#835 = ORIENTED_EDGE('',*,*,#836,.F.);
#836 = EDGE_CURVE('',#742,#790,#837,.T.);
#837 = SURFACE_CURVE('',#838,(#843,#850),.PCURVE_S1.);
#838 = CIRCLE('',#839,7.5);
#839 = AXIS2_PLACEMENT_3D('',#840,#841,#842);
#840 = CARTESIAN_POINT('',(1.132427474015E-15,5.09999995,
    2.997289754729E-16));
#841 = DIRECTION('',(2.22044604925E-16,1.,-0.));
#842 = DIRECTION('',(0.,0.,1.));
#843 = PCURVE('',#726,#844);
#844 = DEFINITIONAL_REPRESENTATION('',(#845),#849);
#845 = LINE('',#846,#847);
#846 = CARTESIAN_POINT('',(9.424777960769,-0.5));
#847 = VECTOR('',#848,1.);
#848 = DIRECTION('',(-1.,0.));
#849 = ( GEOMETRIC_REPRESENTATION_CONTEXT(2) 
PARAMETRIC_REPRESENTATION_CONTEXT() REPRESENTATION_CONTEXT('2D SPACE',''
  ) );
#850 = PCURVE('',#73,#851);
#851 = DEFINITIONAL_REPRESENTATION('',(#852),#856);
#852 = CIRCLE('',#853,7.5);
#853 = AXIS2_PLACEMENT_2D('',#854,#855);
#854 = CARTESIAN_POINT('',(0.,0.));
#855 = DIRECTION('',(1.,0.));
#856 = ( GEOMETRIC_REPRESENTATION_CONTEXT(2) 
PARAMETRIC_REPRESENTATION_CONTEXT() REPRESENTATION_CONTEXT('2D SPACE',''
  ) );
#857 = ADVANCED_FACE('',(#858,#934),#73,.T.);
#858 = FACE_BOUND('',#859,.T.);
#859 = EDGE_LOOP('',(#860,#883,#884,#907));
#860 = ORIENTED_EDGE('',*,*,#861,.F.);
#861 = EDGE_CURVE('',#742,#862,#864,.T.);
#862 = VERTEX_POINT('',#863);
#863 = CARTESIAN_POINT('',(2.692582403567,5.09999995,-7.));
#864 = SURFACE_CURVE('',#865,(#869,#876),.PCURVE_S1.);
#865 = LINE('',#866,#867);
#866 = CARTESIAN_POINT('',(3.872983346207,5.09999995,-7.));
#867 = VECTOR('',#868,1.);
#868 = DIRECTION('',(1.,-2.22044604925E-16,0.));
#869 = PCURVE('',#73,#870);
#870 = DEFINITIONAL_REPRESENTATION('',(#871),#875);
#871 = LINE('',#872,#873);
#872 = CARTESIAN_POINT('',(-7.,3.872983346207));
#873 = VECTOR('',#874,1.);
#874 = DIRECTION('',(0.,1.));
#875 = ( GEOMETRIC_REPRESENTATION_CONTEXT(2) 
PARAMETRIC_REPRESENTATION_CONTEXT() REPRESENTATION_CONTEXT('2D SPACE',''
  ) );
#876 = PCURVE('',#647,#877);
#877 = DEFINITIONAL_REPRESENTATION('',(#878),#882);
#878 = LINE('',#879,#880);
#879 = CARTESIAN_POINT('',(-11.8102496759,4.213303574763E-17));
#880 = VECTOR('',#881,1.);
#881 = DIRECTION('',(0.,1.));
#882 = ( GEOMETRIC_REPRESENTATION_CONTEXT(2) 
PARAMETRIC_REPRESENTATION_CONTEXT() REPRESENTATION_CONTEXT('2D SPACE',''
  ) );
#883 = ORIENTED_EDGE('',*,*,#836,.T.);
#884 = ORIENTED_EDGE('',*,*,#885,.F.);
#885 = EDGE_CURVE('',#886,#790,#888,.T.);
#886 = VERTEX_POINT('',#887);
#887 = CARTESIAN_POINT('',(2.692582403567,5.09999995,7.));
#888 = SURFACE_CURVE('',#889,(#893,#900),.PCURVE_S1.);
#889 = LINE('',#890,#891);
#890 = CARTESIAN_POINT('',(-3.872983346207,5.09999995,7.));
#891 = VECTOR('',#892,1.);
#892 = DIRECTION('',(-1.,2.22044604925E-16,-0.));
#893 = PCURVE('',#73,#894);
#894 = DEFINITIONAL_REPRESENTATION('',(#895),#899);
#895 = LINE('',#896,#897);
#896 = CARTESIAN_POINT('',(7.,-3.872983346207));
#897 = VECTOR('',#898,1.);
#898 = DIRECTION('',(0.,-1.));
#899 = ( GEOMETRIC_REPRESENTATION_CONTEXT(2) 
PARAMETRIC_REPRESENTATION_CONTEXT() REPRESENTATION_CONTEXT('2D SPACE',''
  ) );
#900 = PCURVE('',#699,#901);
#901 = DEFINITIONAL_REPRESENTATION('',(#902),#906);
#902 = LINE('',#903,#904);
#903 = CARTESIAN_POINT('',(11.810249675907,4.213303574763E-17));
#904 = VECTOR('',#905,1.);
#905 = DIRECTION('',(0.,-1.));
#906 = ( GEOMETRIC_REPRESENTATION_CONTEXT(2) 
PARAMETRIC_REPRESENTATION_CONTEXT() REPRESENTATION_CONTEXT('2D SPACE',''
  ) );
#907 = ORIENTED_EDGE('',*,*,#908,.T.);
#908 = EDGE_CURVE('',#886,#862,#909,.T.);
#909 = SURFACE_CURVE('',#910,(#915,#922),.PCURVE_S1.);
#910 = CIRCLE('',#911,7.5);
#911 = AXIS2_PLACEMENT_3D('',#912,#913,#914);
#912 = CARTESIAN_POINT('',(1.132427474015E-15,5.09999995,
    2.997289754729E-16));
#913 = DIRECTION('',(2.22044604925E-16,1.,-0.));
#914 = DIRECTION('',(0.,0.,1.));
#915 = PCURVE('',#73,#916);
#916 = DEFINITIONAL_REPRESENTATION('',(#917),#921);
#917 = CIRCLE('',#918,7.5);
#918 = AXIS2_PLACEMENT_2D('',#919,#920);
#919 = CARTESIAN_POINT('',(0.,0.));
#920 = DIRECTION('',(1.,0.));
#921 = ( GEOMETRIC_REPRESENTATION_CONTEXT(2) 
PARAMETRIC_REPRESENTATION_CONTEXT() REPRESENTATION_CONTEXT('2D SPACE',''
  ) );
#922 = PCURVE('',#923,#928);
#923 = CONICAL_SURFACE('',#924,8.,0.785398163397);
#924 = AXIS2_PLACEMENT_3D('',#925,#926,#927);
#925 = CARTESIAN_POINT('',(1.021405171553E-15,4.59999995,
    2.997289754729E-16));
#926 = DIRECTION('',(-2.22044604925E-16,-1.,0.));
#927 = DIRECTION('',(0.,-0.,-1.));
#928 = DEFINITIONAL_REPRESENTATION('',(#929),#933);
#929 = LINE('',#930,#931);
#930 = CARTESIAN_POINT('',(3.14159265359,-0.5));
#931 = VECTOR('',#932,1.);
#932 = DIRECTION('',(-1.,1.956764348591E-16));
#933 = ( GEOMETRIC_REPRESENTATION_CONTEXT(2) 
PARAMETRIC_REPRESENTATION_CONTEXT() REPRESENTATION_CONTEXT('2D SPACE',''
  ) );
#934 = FACE_BOUND('',#935,.T.);
#935 = EDGE_LOOP('',(#936,#937));
#936 = ORIENTED_EDGE('',*,*,#56,.T.);
#937 = ORIENTED_EDGE('',*,*,#938,.T.);
#938 = EDGE_CURVE('',#57,#24,#939,.T.);
#939 = SURFACE_CURVE('',#940,(#945,#956),.PCURVE_S1.);
#940 = CIRCLE('',#941,4.);
#941 = AXIS2_PLACEMENT_3D('',#942,#943,#944);
#942 = CARTESIAN_POINT('',(1.132427474015E-15,5.09999995,
    8.465450562769E-16));
#943 = DIRECTION('',(-2.22044604925E-16,-1.,0.));
#944 = DIRECTION('',(0.,0.,1.));
#945 = PCURVE('',#73,#946);
#946 = DEFINITIONAL_REPRESENTATION('',(#947),#955);
#947 = ( BOUNDED_CURVE() B_SPLINE_CURVE(2,(#948,#949,#950,#951,#952,#953
,#954),.UNSPECIFIED.,.T.,.F.) B_SPLINE_CURVE_WITH_KNOTS((1,2,2,2,2,1),(
    -2.094395102393,0.,2.094395102393,4.188790204786,6.28318530718,
8.377580409573),.UNSPECIFIED.) CURVE() GEOMETRIC_REPRESENTATION_ITEM() 
RATIONAL_B_SPLINE_CURVE((1.,0.5,1.,0.5,1.,0.5,1.)) REPRESENTATION_ITEM(
  '') );
#948 = CARTESIAN_POINT('',(4.,0.));
#949 = CARTESIAN_POINT('',(4.,-6.928203230276));
#950 = CARTESIAN_POINT('',(-2.,-3.464101615138));
#951 = CARTESIAN_POINT('',(-8.,-9.797174393179E-16));
#952 = CARTESIAN_POINT('',(-2.,3.464101615138));
#953 = CARTESIAN_POINT('',(4.,6.928203230276));
#954 = CARTESIAN_POINT('',(4.,0.));
#955 = ( GEOMETRIC_REPRESENTATION_CONTEXT(2) 
PARAMETRIC_REPRESENTATION_CONTEXT() REPRESENTATION_CONTEXT('2D SPACE',''
  ) );
#956 = PCURVE('',#44,#957);
#957 = DEFINITIONAL_REPRESENTATION('',(#958),#962);
#958 = LINE('',#959,#960);
#959 = CARTESIAN_POINT('',(6.28318530718,0.5));
#960 = VECTOR('',#961,1.);
#961 = DIRECTION('',(-1.,0.));
#962 = ( GEOMETRIC_REPRESENTATION_CONTEXT(2) 
PARAMETRIC_REPRESENTATION_CONTEXT() REPRESENTATION_CONTEXT('2D SPACE',''
  ) );
#963 = ADVANCED_FACE('',(#964),#978,.T.);
#964 = FACE_BOUND('',#965,.T.);
#965 = EDGE_LOOP('',(#966,#996,#1020,#1043));
#966 = ORIENTED_EDGE('',*,*,#967,.T.);
#967 = EDGE_CURVE('',#968,#970,#972,.T.);
#968 = VERTEX_POINT('',#969);
#969 = CARTESIAN_POINT('',(3.872983346207,1.09999995,-7.));
#970 = VERTEX_POINT('',#971);
#971 = CARTESIAN_POINT('',(3.872983346207,4.59999995,-7.));
#972 = SURFACE_CURVE('',#973,(#977,#989),.PCURVE_S1.);
#973 = LINE('',#974,#975);
#974 = CARTESIAN_POINT('',(3.872983346207,-6.710249725907,-7.));
#975 = VECTOR('',#976,1.);
#976 = DIRECTION('',(2.22044604925E-16,1.,-0.));
#977 = PCURVE('',#978,#983);
#978 = CYLINDRICAL_SURFACE('',#979,8.);
#979 = AXIS2_PLACEMENT_3D('',#980,#981,#982);
#980 = CARTESIAN_POINT('',(-1.13242749622E-15,-5.10000005,
    2.997289754729E-16));
#981 = DIRECTION('',(-2.22044604925E-16,-1.,0.));
#982 = DIRECTION('',(0.,-0.,-1.));
#983 = DEFINITIONAL_REPRESENTATION('',(#984),#988);
#984 = LINE('',#985,#986);
#985 = CARTESIAN_POINT('',(0.505360510284,1.610249675907));
#986 = VECTOR('',#987,1.);
#987 = DIRECTION('',(0.,-1.));
#988 = ( GEOMETRIC_REPRESENTATION_CONTEXT(2) 
PARAMETRIC_REPRESENTATION_CONTEXT() REPRESENTATION_CONTEXT('2D SPACE',''
  ) );
#989 = PCURVE('',#647,#990);
#990 = DEFINITIONAL_REPRESENTATION('',(#991),#995);
#991 = LINE('',#992,#993);
#992 = CARTESIAN_POINT('',(0.,0.));
#993 = VECTOR('',#994,1.);
#994 = DIRECTION('',(-1.,0.));
#995 = ( GEOMETRIC_REPRESENTATION_CONTEXT(2) 
PARAMETRIC_REPRESENTATION_CONTEXT() REPRESENTATION_CONTEXT('2D SPACE',''
  ) );
#996 = ORIENTED_EDGE('',*,*,#997,.T.);
#997 = EDGE_CURVE('',#970,#998,#1000,.T.);
#998 = VERTEX_POINT('',#999);
#999 = CARTESIAN_POINT('',(3.872983346207,4.59999995,7.));
#1000 = SURFACE_CURVE('',#1001,(#1006,#1013),.PCURVE_S1.);
#1001 = CIRCLE('',#1002,8.);
#1002 = AXIS2_PLACEMENT_3D('',#1003,#1004,#1005);
#1003 = CARTESIAN_POINT('',(1.021405171553E-15,4.59999995,
    2.997289754729E-16));
#1004 = DIRECTION('',(-2.22044604925E-16,-1.,0.));
#1005 = DIRECTION('',(0.,0.,1.));
#1006 = PCURVE('',#978,#1007);
#1007 = DEFINITIONAL_REPRESENTATION('',(#1008),#1012);
#1008 = LINE('',#1009,#1010);
#1009 = CARTESIAN_POINT('',(-3.14159265359,-9.7));
#1010 = VECTOR('',#1011,1.);
#1011 = DIRECTION('',(1.,0.));
#1012 = ( GEOMETRIC_REPRESENTATION_CONTEXT(2) 
PARAMETRIC_REPRESENTATION_CONTEXT() REPRESENTATION_CONTEXT('2D SPACE',''
  ) );
#1013 = PCURVE('',#923,#1014);
#1014 = DEFINITIONAL_REPRESENTATION('',(#1015),#1019);
#1015 = LINE('',#1016,#1017);
#1016 = CARTESIAN_POINT('',(-3.14159265359,0.));
#1017 = VECTOR('',#1018,1.);
#1018 = DIRECTION('',(1.,0.));
#1019 = ( GEOMETRIC_REPRESENTATION_CONTEXT(2) 
PARAMETRIC_REPRESENTATION_CONTEXT() REPRESENTATION_CONTEXT('2D SPACE',''
  ) );
#1020 = ORIENTED_EDGE('',*,*,#1021,.F.);
#1021 = EDGE_CURVE('',#1022,#998,#1024,.T.);
#1022 = VERTEX_POINT('',#1023);
#1023 = CARTESIAN_POINT('',(3.872983346207,1.09999995,7.));
#1024 = SURFACE_CURVE('',#1025,(#1029,#1036),.PCURVE_S1.);
#1025 = LINE('',#1026,#1027);
#1026 = CARTESIAN_POINT('',(3.872983346207,-6.710249725907,7.));
#1027 = VECTOR('',#1028,1.);
#1028 = DIRECTION('',(2.22044604925E-16,1.,-0.));
#1029 = PCURVE('',#978,#1030);
#1030 = DEFINITIONAL_REPRESENTATION('',(#1031),#1035);
#1031 = LINE('',#1032,#1033);
#1032 = CARTESIAN_POINT('',(2.636232143306,1.610249675907));
#1033 = VECTOR('',#1034,1.);
#1034 = DIRECTION('',(0.,-1.));
#1035 = ( GEOMETRIC_REPRESENTATION_CONTEXT(2) 
PARAMETRIC_REPRESENTATION_CONTEXT() REPRESENTATION_CONTEXT('2D SPACE',''
  ) );
#1036 = PCURVE('',#699,#1037);
#1037 = DEFINITIONAL_REPRESENTATION('',(#1038),#1042);
#1038 = LINE('',#1039,#1040);
#1039 = CARTESIAN_POINT('',(-5.640672542073E-17,7.745966692414));
#1040 = VECTOR('',#1041,1.);
#1041 = DIRECTION('',(1.,0.));
#1042 = ( GEOMETRIC_REPRESENTATION_CONTEXT(2) 
PARAMETRIC_REPRESENTATION_CONTEXT() REPRESENTATION_CONTEXT('2D SPACE',''
  ) );
#1043 = ORIENTED_EDGE('',*,*,#1044,.F.);
#1044 = EDGE_CURVE('',#968,#1022,#1045,.T.);
#1045 = SURFACE_CURVE('',#1046,(#1051,#1058),.PCURVE_S1.);
#1046 = CIRCLE('',#1047,8.);
#1047 = AXIS2_PLACEMENT_3D('',#1048,#1049,#1050);
#1048 = CARTESIAN_POINT('',(2.442490543153E-16,1.09999995,
    2.997289754729E-16));
#1049 = DIRECTION('',(-2.22044604925E-16,-1.,0.));
#1050 = DIRECTION('',(0.,-0.,-1.));
#1051 = PCURVE('',#978,#1052);
#1052 = DEFINITIONAL_REPRESENTATION('',(#1053),#1057);
#1053 = LINE('',#1054,#1055);
#1054 = CARTESIAN_POINT('',(0.,-6.2));
#1055 = VECTOR('',#1056,1.);
#1056 = DIRECTION('',(1.,0.));
#1057 = ( GEOMETRIC_REPRESENTATION_CONTEXT(2) 
PARAMETRIC_REPRESENTATION_CONTEXT() REPRESENTATION_CONTEXT('2D SPACE',''
  ) );
#1058 = PCURVE('',#532,#1059);
#1059 = DEFINITIONAL_REPRESENTATION('',(#1060),#1064);
#1060 = CIRCLE('',#1061,8.);
#1061 = AXIS2_PLACEMENT_2D('',#1062,#1063);
#1062 = CARTESIAN_POINT('',(-8.,0.));
#1063 = DIRECTION('',(1.,0.));
#1064 = ( GEOMETRIC_REPRESENTATION_CONTEXT(2) 
PARAMETRIC_REPRESENTATION_CONTEXT() REPRESENTATION_CONTEXT('2D SPACE',''
  ) );
#1065 = ADVANCED_FACE('',(#1066,#1112),#532,.T.);
#1066 = FACE_BOUND('',#1067,.T.);
#1067 = EDGE_LOOP('',(#1068,#1089,#1090,#1111));
#1068 = ORIENTED_EDGE('',*,*,#1069,.T.);
#1069 = EDGE_CURVE('',#625,#968,#1070,.T.);
#1070 = SURFACE_CURVE('',#1071,(#1075,#1082),.PCURVE_S1.);
#1071 = LINE('',#1072,#1073);
#1072 = CARTESIAN_POINT('',(3.872983346207,1.09999995,-7.));
#1073 = VECTOR('',#1074,1.);
#1074 = DIRECTION('',(1.,-2.22044604925E-16,0.));
#1075 = PCURVE('',#532,#1076);
#1076 = DEFINITIONAL_REPRESENTATION('',(#1077),#1081);
#1077 = LINE('',#1078,#1079);
#1078 = CARTESIAN_POINT('',(-1.,3.872983346207));
#1079 = VECTOR('',#1080,1.);
#1080 = DIRECTION('',(0.,1.));
#1081 = ( GEOMETRIC_REPRESENTATION_CONTEXT(2) 
PARAMETRIC_REPRESENTATION_CONTEXT() REPRESENTATION_CONTEXT('2D SPACE',''
  ) );
#1082 = PCURVE('',#647,#1083);
#1083 = DEFINITIONAL_REPRESENTATION('',(#1084),#1088);
#1084 = LINE('',#1085,#1086);
#1085 = CARTESIAN_POINT('',(-7.810249675907,4.213303574763E-17));
#1086 = VECTOR('',#1087,1.);
#1087 = DIRECTION('',(0.,1.));
#1088 = ( GEOMETRIC_REPRESENTATION_CONTEXT(2) 
PARAMETRIC_REPRESENTATION_CONTEXT() REPRESENTATION_CONTEXT('2D SPACE',''
  ) );
#1089 = ORIENTED_EDGE('',*,*,#1044,.T.);
#1090 = ORIENTED_EDGE('',*,*,#1091,.T.);
#1091 = EDGE_CURVE('',#1022,#660,#1092,.T.);
#1092 = SURFACE_CURVE('',#1093,(#1097,#1104),.PCURVE_S1.);
#1093 = LINE('',#1094,#1095);
#1094 = CARTESIAN_POINT('',(-3.872983346207,1.09999995,7.));
#1095 = VECTOR('',#1096,1.);
#1096 = DIRECTION('',(-1.,2.22044604925E-16,0.));
#1097 = PCURVE('',#532,#1098);
#1098 = DEFINITIONAL_REPRESENTATION('',(#1099),#1103);
#1099 = LINE('',#1100,#1101);
#1100 = CARTESIAN_POINT('',(-15.,-3.872983346207));
#1101 = VECTOR('',#1102,1.);
#1102 = DIRECTION('',(0.,-1.));
#1103 = ( GEOMETRIC_REPRESENTATION_CONTEXT(2) 
PARAMETRIC_REPRESENTATION_CONTEXT() REPRESENTATION_CONTEXT('2D SPACE',''
  ) );
#1104 = PCURVE('',#699,#1105);
#1105 = DEFINITIONAL_REPRESENTATION('',(#1106),#1110);
#1106 = LINE('',#1107,#1108);
#1107 = CARTESIAN_POINT('',(7.810249675907,4.213303574763E-17));
#1108 = VECTOR('',#1109,1.);
#1109 = DIRECTION('',(0.,-1.));
#1110 = ( GEOMETRIC_REPRESENTATION_CONTEXT(2) 
PARAMETRIC_REPRESENTATION_CONTEXT() REPRESENTATION_CONTEXT('2D SPACE',''
  ) );
#1111 = ORIENTED_EDGE('',*,*,#659,.T.);
#1112 = FACE_BOUND('',#1113,.T.);
#1113 = EDGE_LOOP('',(#1114,#1115));
#1114 = ORIENTED_EDGE('',*,*,#508,.F.);
#1115 = ORIENTED_EDGE('',*,*,#1116,.F.);
#1116 = EDGE_CURVE('',#511,#509,#1117,.T.);
#1117 = SURFACE_CURVE('',#1118,(#1123,#1130),.PCURVE_S1.);
#1118 = CIRCLE('',#1119,6.);
#1119 = AXIS2_PLACEMENT_3D('',#1120,#1121,#1122);
#1120 = CARTESIAN_POINT('',(2.442490543153E-16,1.09999995,
    2.997289754729E-16));
#1121 = DIRECTION('',(-2.22044604925E-16,-1.,0.));
#1122 = DIRECTION('',(0.,-0.,-1.));
#1123 = PCURVE('',#532,#1124);
#1124 = DEFINITIONAL_REPRESENTATION('',(#1125),#1129);
#1125 = CIRCLE('',#1126,6.);
#1126 = AXIS2_PLACEMENT_2D('',#1127,#1128);
#1127 = CARTESIAN_POINT('',(-8.,0.));
#1128 = DIRECTION('',(1.,0.));
#1129 = ( GEOMETRIC_REPRESENTATION_CONTEXT(2) 
PARAMETRIC_REPRESENTATION_CONTEXT() REPRESENTATION_CONTEXT('2D SPACE',''
  ) );
#1130 = PCURVE('',#560,#1131);
#1131 = DEFINITIONAL_REPRESENTATION('',(#1132),#1136);
#1132 = LINE('',#1133,#1134);
#1133 = CARTESIAN_POINT('',(0.,-6.2));
#1134 = VECTOR('',#1135,1.);
#1135 = DIRECTION('',(1.,0.));
#1136 = ( GEOMETRIC_REPRESENTATION_CONTEXT(2) 
PARAMETRIC_REPRESENTATION_CONTEXT() REPRESENTATION_CONTEXT('2D SPACE',''
  ) );
#1137 = ADVANCED_FACE('',(#1138),#560,.T.);
#1138 = FACE_BOUND('',#1139,.T.);
#1139 = EDGE_LOOP('',(#1140,#1141,#1142,#1143));
#1140 = ORIENTED_EDGE('',*,*,#544,.F.);
#1141 = ORIENTED_EDGE('',*,*,#1116,.T.);
#1142 = ORIENTED_EDGE('',*,*,#600,.T.);
#1143 = ORIENTED_EDGE('',*,*,#1144,.F.);
#1144 = EDGE_CURVE('',#545,#573,#1145,.T.);
#1145 = SURFACE_CURVE('',#1146,(#1151,#1158),.PCURVE_S1.);
#1146 = CIRCLE('',#1147,6.);
#1147 = AXIS2_PLACEMENT_3D('',#1148,#1149,#1150);
#1148 = CARTESIAN_POINT('',(-6.883382863698E-16,-3.10000005,
    2.997289754729E-16));
#1149 = DIRECTION('',(-2.22044604925E-16,-1.,0.));
#1150 = DIRECTION('',(0.,-0.,-1.));
#1151 = PCURVE('',#560,#1152);
#1152 = DEFINITIONAL_REPRESENTATION('',(#1153),#1157);
#1153 = LINE('',#1154,#1155);
#1154 = CARTESIAN_POINT('',(0.,-2.));
#1155 = VECTOR('',#1156,1.);
#1156 = DIRECTION('',(1.,0.));
#1157 = ( GEOMETRIC_REPRESENTATION_CONTEXT(2) 
PARAMETRIC_REPRESENTATION_CONTEXT() REPRESENTATION_CONTEXT('2D SPACE',''
  ) );
#1158 = PCURVE('',#441,#1159);
#1159 = DEFINITIONAL_REPRESENTATION('',(#1160),#1168);
#1160 = ( BOUNDED_CURVE() B_SPLINE_CURVE(2,(#1161,#1162,#1163,#1164,
#1165,#1166,#1167),.UNSPECIFIED.,.T.,.F.) B_SPLINE_CURVE_WITH_KNOTS((1,2
    ,2,2,2,1),(-2.094395102393,0.,2.094395102393,4.188790204786,
6.28318530718,8.377580409573),.UNSPECIFIED.) CURVE() 
GEOMETRIC_REPRESENTATION_ITEM() RATIONAL_B_SPLINE_CURVE((1.,0.5,1.,0.5,
1.,0.5,1.)) REPRESENTATION_ITEM('') );
#1161 = CARTESIAN_POINT('',(8.881784197001E-16,0.));
#1162 = CARTESIAN_POINT('',(8.881784197001E-16,10.392304845413));
#1163 = CARTESIAN_POINT('',(9.,5.196152422707));
#1164 = CARTESIAN_POINT('',(18.,1.469576158977E-15));
#1165 = CARTESIAN_POINT('',(9.,-5.196152422707));
#1166 = CARTESIAN_POINT('',(9.769962616701E-15,-10.39230484541));
#1167 = CARTESIAN_POINT('',(8.881784197001E-16,0.));
#1168 = ( GEOMETRIC_REPRESENTATION_CONTEXT(2) 
PARAMETRIC_REPRESENTATION_CONTEXT() REPRESENTATION_CONTEXT('2D SPACE',''
  ) );
#1169 = ADVANCED_FACE('',(#1170,#1174),#441,.T.);
#1170 = FACE_BOUND('',#1171,.T.);
#1171 = EDGE_LOOP('',(#1172,#1173));
#1172 = ORIENTED_EDGE('',*,*,#572,.T.);
#1173 = ORIENTED_EDGE('',*,*,#1144,.T.);
#1174 = FACE_BOUND('',#1175,.T.);
#1175 = EDGE_LOOP('',(#1176,#1177));
#1176 = ORIENTED_EDGE('',*,*,#422,.F.);
#1177 = ORIENTED_EDGE('',*,*,#1178,.F.);
#1178 = EDGE_CURVE('',#425,#423,#1179,.T.);
#1179 = SURFACE_CURVE('',#1180,(#1185,#1196),.PCURVE_S1.);
#1180 = CIRCLE('',#1181,8.);
#1181 = AXIS2_PLACEMENT_3D('',#1182,#1183,#1184);
#1182 = CARTESIAN_POINT('',(-6.883382863698E-16,-3.10000005,
    2.997289754729E-16));
#1183 = DIRECTION('',(-2.22044604925E-16,-1.,0.));
#1184 = DIRECTION('',(0.,-0.,-1.));
#1185 = PCURVE('',#441,#1186);
#1186 = DEFINITIONAL_REPRESENTATION('',(#1187),#1195);
#1187 = ( BOUNDED_CURVE() B_SPLINE_CURVE(2,(#1188,#1189,#1190,#1191,
#1192,#1193,#1194),.UNSPECIFIED.,.T.,.F.) B_SPLINE_CURVE_WITH_KNOTS((1,2
    ,2,2,2,1),(-2.094395102393,0.,2.094395102393,4.188790204786,
6.28318530718,8.377580409573),.UNSPECIFIED.) CURVE() 
GEOMETRIC_REPRESENTATION_ITEM() RATIONAL_B_SPLINE_CURVE((1.,0.5,1.,0.5,
1.,0.5,1.)) REPRESENTATION_ITEM('') );
#1188 = CARTESIAN_POINT('',(-2.,0.));
#1189 = CARTESIAN_POINT('',(-2.,13.856406460551));
#1190 = CARTESIAN_POINT('',(10.,6.928203230276));
#1191 = CARTESIAN_POINT('',(22.,1.959434878636E-15));
#1192 = CARTESIAN_POINT('',(10.,-6.928203230276));
#1193 = CARTESIAN_POINT('',(-2.,-13.85640646055));
#1194 = CARTESIAN_POINT('',(-2.,0.));
#1195 = ( GEOMETRIC_REPRESENTATION_CONTEXT(2) 
PARAMETRIC_REPRESENTATION_CONTEXT() REPRESENTATION_CONTEXT('2D SPACE',''
  ) );
#1196 = PCURVE('',#471,#1197);
#1197 = DEFINITIONAL_REPRESENTATION('',(#1198),#1202);
#1198 = LINE('',#1199,#1200);
#1199 = CARTESIAN_POINT('',(0.,-2.));
#1200 = VECTOR('',#1201,1.);
#1201 = DIRECTION('',(1.,0.));
#1202 = ( GEOMETRIC_REPRESENTATION_CONTEXT(2) 
PARAMETRIC_REPRESENTATION_CONTEXT() REPRESENTATION_CONTEXT('2D SPACE',''
  ) );
#1203 = ADVANCED_FACE('',(#1204),#471,.T.);
#1204 = FACE_BOUND('',#1205,.T.);
#1205 = EDGE_LOOP('',(#1206,#1207,#1208,#1209));
#1206 = ORIENTED_EDGE('',*,*,#457,.F.);
#1207 = ORIENTED_EDGE('',*,*,#1178,.T.);
#1208 = ORIENTED_EDGE('',*,*,#484,.T.);
#1209 = ORIENTED_EDGE('',*,*,#1210,.T.);
#1210 = EDGE_CURVE('',#290,#318,#1211,.T.);
#1211 = SURFACE_CURVE('',#1212,(#1217,#1224),.PCURVE_S1.);
#1212 = CIRCLE('',#1213,8.);
#1213 = AXIS2_PLACEMENT_3D('',#1214,#1215,#1216);
#1214 = CARTESIAN_POINT('',(-1.021405193757E-15,-4.60000005,
    2.997289754729E-16));
#1215 = DIRECTION('',(2.22044604925E-16,1.,0.));
#1216 = DIRECTION('',(0.,-0.,-1.));
#1217 = PCURVE('',#471,#1218);
#1218 = DEFINITIONAL_REPRESENTATION('',(#1219),#1223);
#1219 = LINE('',#1220,#1221);
#1220 = CARTESIAN_POINT('',(6.28318530718,-0.5));
#1221 = VECTOR('',#1222,1.);
#1222 = DIRECTION('',(-1.,0.));
#1223 = ( GEOMETRIC_REPRESENTATION_CONTEXT(2) 
PARAMETRIC_REPRESENTATION_CONTEXT() REPRESENTATION_CONTEXT('2D SPACE',''
  ) );
#1224 = PCURVE('',#305,#1225);
#1225 = DEFINITIONAL_REPRESENTATION('',(#1226),#1230);
#1226 = LINE('',#1227,#1228);
#1227 = CARTESIAN_POINT('',(3.14159265359,0.5));
#1228 = VECTOR('',#1229,1.);
#1229 = DIRECTION('',(1.,0.));
#1230 = ( GEOMETRIC_REPRESENTATION_CONTEXT(2) 
PARAMETRIC_REPRESENTATION_CONTEXT() REPRESENTATION_CONTEXT('2D SPACE',''
  ) );
#1231 = ADVANCED_FACE('',(#1232,#1257),#194,.T.);
#1232 = FACE_BOUND('',#1233,.T.);
#1233 = EDGE_LOOP('',(#1234,#1256));
#1234 = ORIENTED_EDGE('',*,*,#1235,.T.);
#1235 = EDGE_CURVE('',#261,#259,#1236,.T.);
#1236 = SURFACE_CURVE('',#1237,(#1242,#1249),.PCURVE_S1.);
#1237 = CIRCLE('',#1238,7.5);
#1238 = AXIS2_PLACEMENT_3D('',#1239,#1240,#1241);
#1239 = CARTESIAN_POINT('',(-1.13242749622E-15,-5.10000005,
    2.997289754729E-16));
#1240 = DIRECTION('',(-2.22044604925E-16,-1.,0.));
#1241 = DIRECTION('',(0.,-0.,-1.));
#1242 = PCURVE('',#194,#1243);
#1243 = DEFINITIONAL_REPRESENTATION('',(#1244),#1248);
#1244 = CIRCLE('',#1245,7.5);
#1245 = AXIS2_PLACEMENT_2D('',#1246,#1247);
#1246 = CARTESIAN_POINT('',(-8.,0.));
#1247 = DIRECTION('',(1.,0.));
#1248 = ( GEOMETRIC_REPRESENTATION_CONTEXT(2) 
PARAMETRIC_REPRESENTATION_CONTEXT() REPRESENTATION_CONTEXT('2D SPACE',''
  ) );
#1249 = PCURVE('',#305,#1250);
#1250 = DEFINITIONAL_REPRESENTATION('',(#1251),#1255);
#1251 = LINE('',#1252,#1253);
#1252 = CARTESIAN_POINT('',(9.424777960769,0.));
#1253 = VECTOR('',#1254,1.);
#1254 = DIRECTION('',(-1.,0.));
#1255 = ( GEOMETRIC_REPRESENTATION_CONTEXT(2) 
PARAMETRIC_REPRESENTATION_CONTEXT() REPRESENTATION_CONTEXT('2D SPACE',''
  ) );
#1256 = ORIENTED_EDGE('',*,*,#258,.T.);
#1257 = FACE_BOUND('',#1258,.T.);
#1258 = EDGE_LOOP('',(#1259,#1260));
#1259 = ORIENTED_EDGE('',*,*,#177,.T.);
#1260 = ORIENTED_EDGE('',*,*,#1261,.T.);
#1261 = EDGE_CURVE('',#178,#145,#1262,.T.);
#1262 = SURFACE_CURVE('',#1263,(#1268,#1279),.PCURVE_S1.);
#1263 = CIRCLE('',#1264,4.);
#1264 = AXIS2_PLACEMENT_3D('',#1265,#1266,#1267);
#1265 = CARTESIAN_POINT('',(-1.13242749622E-15,-5.10000005,
    8.465450562769E-16));
#1266 = DIRECTION('',(2.22044604925E-16,1.,0.));
#1267 = DIRECTION('',(0.,-0.,-1.));
#1268 = PCURVE('',#194,#1269);
#1269 = DEFINITIONAL_REPRESENTATION('',(#1270),#1278);
#1270 = ( BOUNDED_CURVE() B_SPLINE_CURVE(2,(#1271,#1272,#1273,#1274,
#1275,#1276,#1277),.UNSPECIFIED.,.T.,.F.) B_SPLINE_CURVE_WITH_KNOTS((1,2
    ,2,2,2,1),(-2.094395102393,0.,2.094395102393,4.188790204786,
6.28318530718,8.377580409573),.UNSPECIFIED.) CURVE() 
GEOMETRIC_REPRESENTATION_ITEM() RATIONAL_B_SPLINE_CURVE((1.,0.5,1.,0.5,
1.,0.5,1.)) REPRESENTATION_ITEM('') );
#1271 = CARTESIAN_POINT('',(-4.,0.));
#1272 = CARTESIAN_POINT('',(-4.,-6.928203230276));
#1273 = CARTESIAN_POINT('',(-10.,-3.464101615138));
#1274 = CARTESIAN_POINT('',(-16.,-9.797174393179E-16));
#1275 = CARTESIAN_POINT('',(-10.,3.464101615138));
#1276 = CARTESIAN_POINT('',(-4.,6.928203230276));
#1277 = CARTESIAN_POINT('',(-4.,0.));
#1278 = ( GEOMETRIC_REPRESENTATION_CONTEXT(2) 
PARAMETRIC_REPRESENTATION_CONTEXT() REPRESENTATION_CONTEXT('2D SPACE',''
  ) );
#1279 = PCURVE('',#165,#1280);
#1280 = DEFINITIONAL_REPRESENTATION('',(#1281),#1285);
#1281 = LINE('',#1282,#1283);
#1282 = CARTESIAN_POINT('',(6.28318530718,0.));
#1283 = VECTOR('',#1284,1.);
#1284 = DIRECTION('',(-1.,0.));
#1285 = ( GEOMETRIC_REPRESENTATION_CONTEXT(2) 
PARAMETRIC_REPRESENTATION_CONTEXT() REPRESENTATION_CONTEXT('2D SPACE',''
  ) );
#1286 = ADVANCED_FACE('',(#1287),#384,.F.);
#1287 = FACE_BOUND('',#1288,.F.);
#1288 = EDGE_LOOP('',(#1289,#1311,#1312,#1334));
#1289 = ORIENTED_EDGE('',*,*,#1290,.F.);
#1290 = EDGE_CURVE('',#22,#90,#1291,.T.);
#1291 = SURFACE_CURVE('',#1292,(#1297,#1304),.PCURVE_S1.);
#1292 = CIRCLE('',#1293,3.5);
#1293 = AXIS2_PLACEMENT_3D('',#1294,#1295,#1296);
#1294 = CARTESIAN_POINT('',(1.021405171553E-15,4.59999995,
    8.465450562769E-16));
#1295 = DIRECTION('',(2.22044604925E-16,1.,-0.));
#1296 = DIRECTION('',(0.,0.,1.));
#1297 = PCURVE('',#384,#1298);
#1298 = DEFINITIONAL_REPRESENTATION('',(#1299),#1303);
#1299 = LINE('',#1300,#1301);
#1300 = CARTESIAN_POINT('',(0.,-0.5));
#1301 = VECTOR('',#1302,1.);
#1302 = DIRECTION('',(1.,0.));
#1303 = ( GEOMETRIC_REPRESENTATION_CONTEXT(2) 
PARAMETRIC_REPRESENTATION_CONTEXT() REPRESENTATION_CONTEXT('2D SPACE',''
  ) );
#1304 = PCURVE('',#44,#1305);
#1305 = DEFINITIONAL_REPRESENTATION('',(#1306),#1310);
#1306 = LINE('',#1307,#1308);
#1307 = CARTESIAN_POINT('',(0.,0.));
#1308 = VECTOR('',#1309,1.);
#1309 = DIRECTION('',(1.,0.));
#1310 = ( GEOMETRIC_REPRESENTATION_CONTEXT(2) 
PARAMETRIC_REPRESENTATION_CONTEXT() REPRESENTATION_CONTEXT('2D SPACE',''
  ) );
#1311 = ORIENTED_EDGE('',*,*,#370,.F.);
#1312 = ORIENTED_EDGE('',*,*,#1313,.F.);
#1313 = EDGE_CURVE('',#143,#211,#1314,.T.);
#1314 = SURFACE_CURVE('',#1315,(#1320,#1327),.PCURVE_S1.);
#1315 = CIRCLE('',#1316,3.5);
#1316 = AXIS2_PLACEMENT_3D('',#1317,#1318,#1319);
#1317 = CARTESIAN_POINT('',(-1.021405193757E-15,-4.60000005,
    8.465450562769E-16));
#1318 = DIRECTION('',(-2.22044604925E-16,-1.,0.));
#1319 = DIRECTION('',(0.,-0.,-1.));
#1320 = PCURVE('',#384,#1321);
#1321 = DEFINITIONAL_REPRESENTATION('',(#1322),#1326);
#1322 = LINE('',#1323,#1324);
#1323 = CARTESIAN_POINT('',(3.14159265359,-9.7));
#1324 = VECTOR('',#1325,1.);
#1325 = DIRECTION('',(-1.,0.));
#1326 = ( GEOMETRIC_REPRESENTATION_CONTEXT(2) 
PARAMETRIC_REPRESENTATION_CONTEXT() REPRESENTATION_CONTEXT('2D SPACE',''
  ) );
#1327 = PCURVE('',#165,#1328);
#1328 = DEFINITIONAL_REPRESENTATION('',(#1329),#1333);
#1329 = LINE('',#1330,#1331);
#1330 = CARTESIAN_POINT('',(0.,-0.5));
#1331 = VECTOR('',#1332,1.);
#1332 = DIRECTION('',(1.,0.));
#1333 = ( GEOMETRIC_REPRESENTATION_CONTEXT(2) 
PARAMETRIC_REPRESENTATION_CONTEXT() REPRESENTATION_CONTEXT('2D SPACE',''
  ) );
#1334 = ORIENTED_EDGE('',*,*,#397,.T.);
#1335 = ADVANCED_FACE('',(#1336),#305,.T.);
#1336 = FACE_BOUND('',#1337,.T.);
#1337 = EDGE_LOOP('',(#1338,#1339,#1340,#1341));
#1338 = ORIENTED_EDGE('',*,*,#289,.F.);
#1339 = ORIENTED_EDGE('',*,*,#1235,.F.);
#1340 = ORIENTED_EDGE('',*,*,#346,.T.);
#1341 = ORIENTED_EDGE('',*,*,#1210,.F.);
#1342 = ADVANCED_FACE('',(#1343),#165,.F.);
#1343 = FACE_BOUND('',#1344,.F.);
#1344 = EDGE_LOOP('',(#1345,#1346,#1347,#1348));
#1345 = ORIENTED_EDGE('',*,*,#1261,.T.);
#1346 = ORIENTED_EDGE('',*,*,#142,.F.);
#1347 = ORIENTED_EDGE('',*,*,#1313,.T.);
#1348 = ORIENTED_EDGE('',*,*,#210,.T.);
#1349 = ADVANCED_FACE('',(#1350),#44,.F.);
#1350 = FACE_BOUND('',#1351,.F.);
#1351 = EDGE_LOOP('',(#1352,#1353,#1354,#1355));
#1352 = ORIENTED_EDGE('',*,*,#938,.T.);
#1353 = ORIENTED_EDGE('',*,*,#21,.F.);
#1354 = ORIENTED_EDGE('',*,*,#1290,.T.);
#1355 = ORIENTED_EDGE('',*,*,#89,.T.);
#1356 = ADVANCED_FACE('',(#1357),#923,.T.);
#1357 = FACE_BOUND('',#1358,.T.);
#1358 = EDGE_LOOP('',(#1359,#1404,#1405,#1450));
#1359 = ORIENTED_EDGE('',*,*,#1360,.F.);
#1360 = EDGE_CURVE('',#862,#970,#1361,.T.);
#1361 = SURFACE_CURVE('',#1362,(#1367,#1396),.PCURVE_S1.);
#1362 = B_SPLINE_CURVE_WITH_KNOTS('',3,(#1363,#1364,#1365,#1366),
  .UNSPECIFIED.,.F.,.F.,(4,4),(1.230128422746E-02,1.35690966371E-02),
  .PIECEWISE_BEZIER_KNOTS.);
#1363 = CARTESIAN_POINT('',(2.692582403567,5.09999995,-7.));
#1364 = CARTESIAN_POINT('',(3.093399998982,4.956102029406,-7.));
#1365 = CARTESIAN_POINT('',(3.489428730905,4.785687529678,-7.));
#1366 = CARTESIAN_POINT('',(3.872983346207,4.59999995,-7.));
#1367 = PCURVE('',#923,#1368);
#1368 = DEFINITIONAL_REPRESENTATION('',(#1369),#1395);
#1369 = B_SPLINE_CURVE_WITH_KNOTS('',3,(#1370,#1371,#1372,#1373,#1374,
    #1375,#1376,#1377,#1378,#1379,#1380,#1381,#1382,#1383,#1384,#1385,
    #1386,#1387,#1388,#1389,#1390,#1391,#1392,#1393,#1394),
  .UNSPECIFIED.,.F.,.F.,(4,1,1,1,1,1,1,1,1,1,1,1,1,1,1,1,1,1,1,1,1,1,4),
  (1.230128422746E-02,1.235891206426E-02,1.241653990106E-02,
    1.247416773787E-02,1.253179557467E-02,1.258942341147E-02,
    1.264705124827E-02,1.270467908507E-02,1.276230692187E-02,
    1.281993475868E-02,1.287756259548E-02,1.293519043228E-02,
    1.299281826908E-02,1.305044610588E-02,1.310807394269E-02,
    1.316570177949E-02,1.322332961629E-02,1.328095745309E-02,
    1.333858528989E-02,1.339621312669E-02,1.34538409635E-02,
    1.35114688003E-02,1.35690966371E-02),.QUASI_UNIFORM_KNOTS.);
#1370 = CARTESIAN_POINT('',(0.367208020558,-0.5));
#1371 = CARTESIAN_POINT('',(0.369475274115,-0.493459189831));
#1372 = CARTESIAN_POINT('',(0.373995445358,-0.480268488767));
#1373 = CARTESIAN_POINT('',(0.380731969908,-0.460161152612));
#1374 = CARTESIAN_POINT('',(0.387424025645,-0.439738469267));
#1375 = CARTESIAN_POINT('',(0.394070917365,-0.419006446992));
#1376 = CARTESIAN_POINT('',(0.40067197672,-0.397971137914));
#1377 = CARTESIAN_POINT('',(0.407226565831,-0.376638642679));
#1378 = CARTESIAN_POINT('',(0.413734076022,-0.355015106638));
#1379 = CARTESIAN_POINT('',(0.42019392781,-0.33310671832));
#1380 = CARTESIAN_POINT('',(0.426605570521,-0.31091970732));
#1381 = CARTESIAN_POINT('',(0.43296848197,-0.288460342371));
#1382 = CARTESIAN_POINT('',(0.43928216808,-0.265734929395));
#1383 = CARTESIAN_POINT('',(0.445546162487,-0.242749809597));
#1384 = CARTESIAN_POINT('',(0.451760026117,-0.219511357582));
#1385 = CARTESIAN_POINT('',(0.457923346737,-0.196025979503));
#1386 = CARTESIAN_POINT('',(0.464035738488,-0.172300111242));
#1387 = CARTESIAN_POINT('',(0.470096841398,-0.148340216625));
#1388 = CARTESIAN_POINT('',(0.476106320862,-0.124152785659));
#1389 = CARTESIAN_POINT('',(0.48206386717,-9.974433286251E-02));
#1390 = CARTESIAN_POINT('',(0.48796919477,-7.512139542684E-02));
#1391 = CARTESIAN_POINT('',(0.493822042468,-5.029053215161E-02));
#1392 = CARTESIAN_POINT('',(0.499622170053,-2.525831971031E-02));
#1393 = CARTESIAN_POINT('',(0.503453635492,-8.440345928804E-03));
#1394 = CARTESIAN_POINT('',(0.505360510284,-1.003641614261E-13));
#1395 = ( GEOMETRIC_REPRESENTATION_CONTEXT(2) 
PARAMETRIC_REPRESENTATION_CONTEXT() REPRESENTATION_CONTEXT('2D SPACE',''
  ) );
#1396 = PCURVE('',#647,#1397);
#1397 = DEFINITIONAL_REPRESENTATION('',(#1398),#1403);
#1398 = B_SPLINE_CURVE_WITH_KNOTS('',3,(#1399,#1400,#1401,#1402),
  .UNSPECIFIED.,.F.,.F.,(4,4),(1.230128422746E-02,1.35690966371E-02),
  .PIECEWISE_BEZIER_KNOTS.);
#1399 = CARTESIAN_POINT('',(-11.8102496759,-1.18040094264));
#1400 = CARTESIAN_POINT('',(-11.66635175531,-0.779583347225));
#1401 = CARTESIAN_POINT('',(-11.49593725558,-0.383554615302));
#1402 = CARTESIAN_POINT('',(-11.3102496759,0.));
#1403 = ( GEOMETRIC_REPRESENTATION_CONTEXT(2) 
PARAMETRIC_REPRESENTATION_CONTEXT() REPRESENTATION_CONTEXT('2D SPACE',''
  ) );
#1404 = ORIENTED_EDGE('',*,*,#908,.F.);
#1405 = ORIENTED_EDGE('',*,*,#1406,.F.);
#1406 = EDGE_CURVE('',#998,#886,#1407,.T.);
#1407 = SURFACE_CURVE('',#1408,(#1413,#1442),.PCURVE_S1.);
#1408 = B_SPLINE_CURVE_WITH_KNOTS('',3,(#1409,#1410,#1411,#1412),
  .UNSPECIFIED.,.F.,.F.,(4,4),(5.55741930979E-03,6.826150460984E-03),
  .PIECEWISE_BEZIER_KNOTS.);
#1409 = CARTESIAN_POINT('',(3.872983346207,4.59999995,7.));
#1410 = CARTESIAN_POINT('',(3.490309118906,4.78526131367,7.));
#1411 = CARTESIAN_POINT('',(3.094953232275,4.955544401588,7.));
#1412 = CARTESIAN_POINT('',(2.692582403567,5.09999995,7.));
#1413 = PCURVE('',#923,#1414);
#1414 = DEFINITIONAL_REPRESENTATION('',(#1415),#1441);
#1415 = B_SPLINE_CURVE_WITH_KNOTS('',3,(#1416,#1417,#1418,#1419,#1420,
    #1421,#1422,#1423,#1424,#1425,#1426,#1427,#1428,#1429,#1430,#1431,
    #1432,#1433,#1434,#1435,#1436,#1437,#1438,#1439,#1440),
  .UNSPECIFIED.,.F.,.F.,(4,1,1,1,1,1,1,1,1,1,1,1,1,1,1,1,1,1,1,1,1,1,4),
  (5.55741930979E-03,5.615088907572E-03,5.672758505353E-03,
    5.730428103135E-03,5.788097700916E-03,5.845767298698E-03,
    5.903436896479E-03,5.961106494261E-03,6.018776092042E-03,
    6.076445689824E-03,6.134115287605E-03,6.191784885387E-03,
    6.249454483169E-03,6.30712408095E-03,6.364793678732E-03,
    6.422463276513E-03,6.480132874295E-03,6.537802472076E-03,
    6.595472069858E-03,6.653141667639E-03,6.710811265421E-03,
    6.768480863202E-03,6.826150460984E-03),.QUASI_UNIFORM_KNOTS.);
#1416 = CARTESIAN_POINT('',(2.636232143306,-1.012523398458E-13));
#1417 = CARTESIAN_POINT('',(2.638134641444,-8.420971452953E-03));
#1418 = CARTESIAN_POINT('',(2.641957390982,-2.520121692529E-02));
#1419 = CARTESIAN_POINT('',(2.647744691414,-5.018025776095E-02));
#1420 = CARTESIAN_POINT('',(2.653585091839,-7.496173410989E-02));
#1421 = CARTESIAN_POINT('',(2.659478489763,-9.953941600217E-02));
#1422 = CARTESIAN_POINT('',(2.665424764681,-0.123907079656));
#1423 = CARTESIAN_POINT('',(2.671423775119,-0.14805850929));
#1424 = CARTESIAN_POINT('',(2.6774753587,-0.17198749824));
#1425 = CARTESIAN_POINT('',(2.683579331423,-0.195687850317));
#1426 = CARTESIAN_POINT('',(2.689735487147,-0.219153381144));
#1427 = CARTESIAN_POINT('',(2.695943597041,-0.24237791955));
#1428 = CARTESIAN_POINT('',(2.702203409049,-0.265355308999));
#1429 = CARTESIAN_POINT('',(2.708514647367,-0.28807940905));
#1430 = CARTESIAN_POINT('',(2.714877011939,-0.310544096868));
#1431 = CARTESIAN_POINT('',(2.721290177952,-0.332743268753));
#1432 = CARTESIAN_POINT('',(2.727753795366,-0.35467084172));
#1433 = CARTESIAN_POINT('',(2.734267488447,-0.376320755108));
#1434 = CARTESIAN_POINT('',(2.740830855339,-0.397686972202));
#1435 = CARTESIAN_POINT('',(2.747443467578,-0.418763481985));
#1436 = CARTESIAN_POINT('',(2.754104869951,-0.439544300539));
#1437 = CARTESIAN_POINT('',(2.760814579161,-0.460023473926));
#1438 = CARTESIAN_POINT('',(2.76757208706,-0.480195075644));
#1439 = CARTESIAN_POINT('',(2.772108593669,-0.493433841548));
#1440 = CARTESIAN_POINT('',(2.774384633032,-0.5));
#1441 = ( GEOMETRIC_REPRESENTATION_CONTEXT(2) 
PARAMETRIC_REPRESENTATION_CONTEXT() REPRESENTATION_CONTEXT('2D SPACE',''
  ) );
#1442 = PCURVE('',#699,#1443);
#1443 = DEFINITIONAL_REPRESENTATION('',(#1444),#1449);
#1444 = B_SPLINE_CURVE_WITH_KNOTS('',3,(#1445,#1446,#1447,#1448),
  .UNSPECIFIED.,.F.,.F.,(4,4),(5.55741930979E-03,6.826150460984E-03),
  .PIECEWISE_BEZIER_KNOTS.);
#1445 = CARTESIAN_POINT('',(11.310249675907,7.745966692414));
#1446 = CARTESIAN_POINT('',(11.495511039577,7.363292465113));
#1447 = CARTESIAN_POINT('',(11.665794127495,6.967936578482));
#1448 = CARTESIAN_POINT('',(11.810249675907,6.565565749774));
#1449 = ( GEOMETRIC_REPRESENTATION_CONTEXT(2) 
PARAMETRIC_REPRESENTATION_CONTEXT() REPRESENTATION_CONTEXT('2D SPACE',''
  ) );
#1450 = ORIENTED_EDGE('',*,*,#997,.F.);
#1451 = ADVANCED_FACE('',(#1452),#699,.F.);
#1452 = FACE_BOUND('',#1453,.T.);
#1453 = EDGE_LOOP('',(#1454,#1455,#1456,#1457,#1458,#1459));
#1454 = ORIENTED_EDGE('',*,*,#1406,.T.);
#1455 = ORIENTED_EDGE('',*,*,#885,.T.);
#1456 = ORIENTED_EDGE('',*,*,#789,.T.);
#1457 = ORIENTED_EDGE('',*,*,#683,.F.);
#1458 = ORIENTED_EDGE('',*,*,#1091,.F.);
#1459 = ORIENTED_EDGE('',*,*,#1021,.T.);
#1460 = ADVANCED_FACE('',(#1461),#647,.F.);
#1461 = FACE_BOUND('',#1462,.T.);
#1462 = EDGE_LOOP('',(#1463,#1464,#1465,#1466,#1467,#1468));
#1463 = ORIENTED_EDGE('',*,*,#741,.T.);
#1464 = ORIENTED_EDGE('',*,*,#861,.T.);
#1465 = ORIENTED_EDGE('',*,*,#1360,.T.);
#1466 = ORIENTED_EDGE('',*,*,#967,.F.);
#1467 = ORIENTED_EDGE('',*,*,#1069,.F.);
#1468 = ORIENTED_EDGE('',*,*,#624,.T.);
#1469 = ( GEOMETRIC_REPRESENTATION_CONTEXT(3) 
GLOBAL_UNCERTAINTY_ASSIGNED_CONTEXT((#1473)) 
GLOBAL_UNIT_ASSIGNED_CONTEXT((#1470,#1471,#1472)) REPRESENTATION_CONTEXT
('Context #1','3D Context with UNIT and UNCERTAINTY') );
#1470 = ( LENGTH_UNIT() NAMED_UNIT(*) SI_UNIT(.MILLI.,.METRE.) );
#1471 = ( NAMED_UNIT(*) PLANE_ANGLE_UNIT() SI_UNIT($,.RADIAN.) );
#1472 = ( NAMED_UNIT(*) SI_UNIT($,.STERADIAN.) SOLID_ANGLE_UNIT() );
#1473 = UNCERTAINTY_MEASURE_WITH_UNIT(LENGTH_MEASURE(5.E-06),#1470,
  'distance_accuracy_value','confusion accuracy');
#1474 = PRODUCT_RELATED_PRODUCT_CATEGORY('part',$,(#7));
ENDSEC;
END-ISO-10303-21;
